G04 #@! TF.FileFunction,Copper,L2,Bot,Signal*
%FSLAX46Y46*%
G04 Gerber Fmt 4.6, Leading zero omitted, Abs format (unit mm)*
G04 Created by KiCad (PCBNEW 4.0.7) date 03/11/20 16:07:27*
%MOMM*%
%LPD*%
G01*
G04 APERTURE LIST*
%ADD10C,0.100000*%
%ADD11C,1.000000*%
%ADD12C,1.500000*%
%ADD13R,1.700000X1.700000*%
%ADD14O,1.700000X1.700000*%
%ADD15C,1.520000*%
%ADD16C,2.700000*%
%ADD17C,2.000000*%
%ADD18R,2.000000X3.800000*%
%ADD19R,2.000000X1.500000*%
%ADD20R,1.250000X1.500000*%
%ADD21C,0.600000*%
%ADD22C,0.250000*%
%ADD23C,0.500000*%
G04 APERTURE END LIST*
D10*
D11*
X68728000Y-36786000D03*
X68728000Y-38686000D03*
D12*
X71528000Y-43366000D03*
X66648000Y-43366000D03*
D13*
X61110000Y-34158000D03*
D14*
X61110000Y-36698000D03*
X61110000Y-39238000D03*
X61110000Y-41778000D03*
X61110000Y-44318000D03*
X61110000Y-46858000D03*
X61110000Y-49398000D03*
X61110000Y-51938000D03*
X61110000Y-54478000D03*
X61110000Y-57018000D03*
X61110000Y-59558000D03*
X61110000Y-62098000D03*
X61110000Y-64638000D03*
X61110000Y-67178000D03*
X61110000Y-69718000D03*
X61110000Y-72258000D03*
X61110000Y-74798000D03*
X61110000Y-77338000D03*
X61110000Y-79878000D03*
X61110000Y-82418000D03*
D13*
X76350000Y-34158000D03*
D14*
X76350000Y-36698000D03*
X76350000Y-39238000D03*
X76350000Y-41778000D03*
X76350000Y-44318000D03*
X76350000Y-46858000D03*
X76350000Y-49398000D03*
X76350000Y-51938000D03*
X76350000Y-54478000D03*
X76350000Y-57018000D03*
X76350000Y-59558000D03*
X76350000Y-62098000D03*
X76350000Y-64638000D03*
X76350000Y-67178000D03*
X76350000Y-69718000D03*
X76350000Y-72258000D03*
X76350000Y-74798000D03*
X76350000Y-77338000D03*
X76350000Y-79878000D03*
X76350000Y-82418000D03*
D13*
X72694800Y-33807400D03*
D14*
X70154800Y-33807400D03*
X67614800Y-33807400D03*
X65074800Y-33807400D03*
D15*
X67828000Y-87706000D03*
X70368000Y-87706000D03*
X70368000Y-89706000D03*
X67828000Y-89706000D03*
D16*
X63098000Y-92406000D03*
X75098000Y-92406000D03*
D13*
X65128000Y-67086000D03*
D14*
X65128000Y-64546000D03*
X67668000Y-67086000D03*
X67668000Y-64546000D03*
X70208000Y-67086000D03*
X70208000Y-64546000D03*
D17*
X64262000Y-82224000D03*
X64262000Y-77724000D03*
X70762000Y-82224000D03*
X70762000Y-77724000D03*
D18*
X73508000Y-72644000D03*
D19*
X67208000Y-72644000D03*
X67208000Y-70344000D03*
X67208000Y-74944000D03*
D20*
X64770000Y-74910000D03*
X64770000Y-72410000D03*
D21*
X65673000Y-48776000D03*
X59573000Y-45626000D03*
X65786000Y-93472000D03*
X69342000Y-93218000D03*
X71882000Y-92964000D03*
X59944000Y-92710000D03*
X59182000Y-90678000D03*
X57658000Y-90424000D03*
X57150000Y-88392000D03*
X57150000Y-86106000D03*
X57912000Y-83820000D03*
X58166000Y-81280000D03*
X58420000Y-78486000D03*
X58166000Y-76200000D03*
X58166000Y-73406000D03*
X57912000Y-70866000D03*
X57912000Y-68326000D03*
X58166000Y-66040000D03*
X58166000Y-63500000D03*
X57912000Y-61468000D03*
X57658000Y-58420000D03*
X57912000Y-55626000D03*
X57912000Y-53340000D03*
X57912000Y-50800000D03*
X58166000Y-48260000D03*
X57912000Y-45720000D03*
X58166000Y-43434000D03*
X58166000Y-41402000D03*
X58166000Y-38608000D03*
X57912000Y-35560000D03*
X58674000Y-32004000D03*
X61468000Y-31242000D03*
X64008000Y-30988000D03*
X66548000Y-31242000D03*
X68834000Y-31242000D03*
X71120000Y-31242000D03*
X74168000Y-31242000D03*
X76708000Y-31242000D03*
X78740000Y-31496000D03*
X80010000Y-33020000D03*
X80010000Y-35306000D03*
X80010000Y-38100000D03*
X80264000Y-40640000D03*
X80264000Y-42926000D03*
X80264000Y-45720000D03*
X80518000Y-48260000D03*
X80264000Y-50800000D03*
X80264000Y-53086000D03*
X80264000Y-55626000D03*
X80264000Y-58420000D03*
X80264000Y-60706000D03*
X80264000Y-63500000D03*
X80518000Y-66040000D03*
X80518000Y-68580000D03*
X80264000Y-71120000D03*
X80264000Y-73406000D03*
X80264000Y-75946000D03*
X80264000Y-78740000D03*
X80264000Y-81280000D03*
X80518000Y-83820000D03*
X81026000Y-85598000D03*
X81026000Y-88138000D03*
X80772000Y-90170000D03*
X79502000Y-91440000D03*
X78232000Y-92456000D03*
X67473000Y-76376000D03*
X72898000Y-75601000D03*
X72898000Y-38551000D03*
X66748000Y-52726000D03*
X63668000Y-41296000D03*
X63968000Y-43016000D03*
X65858000Y-41956000D03*
X67708000Y-41836000D03*
X69418000Y-42386000D03*
X70568000Y-44726000D03*
X68898000Y-44946000D03*
X66828000Y-45326000D03*
X71108000Y-47986000D03*
X69778000Y-50666000D03*
X69368000Y-59776000D03*
X65688000Y-60346000D03*
X74123000Y-56251000D03*
X67618000Y-50516000D03*
X70108000Y-47466000D03*
X67298000Y-51926000D03*
X60048000Y-53151000D03*
X64848000Y-70726000D03*
X71173000Y-75926000D03*
X71358000Y-55176000D03*
X77528000Y-55646000D03*
X73938000Y-53206000D03*
X77598000Y-53246000D03*
X67998000Y-48401000D03*
X79448000Y-40676000D03*
X71120000Y-69342000D03*
X74048000Y-54586000D03*
X69918000Y-53506000D03*
X69478000Y-55656000D03*
X67708000Y-57336000D03*
D22*
X65673000Y-48776000D02*
X63023000Y-46126000D01*
X63023000Y-46126000D02*
X62748000Y-46126000D01*
X62748000Y-46126000D02*
X62248000Y-45626000D01*
X62248000Y-45626000D02*
X59573000Y-45626000D01*
X65786000Y-93472000D02*
X66040000Y-93218000D01*
X66040000Y-93218000D02*
X69342000Y-93218000D01*
X71882000Y-92964000D02*
X72440000Y-92406000D01*
X72440000Y-92406000D02*
X75098000Y-92406000D01*
X75098000Y-92406000D02*
X78182000Y-92406000D01*
X60248000Y-92406000D02*
X63098000Y-92406000D01*
X59944000Y-92710000D02*
X60248000Y-92406000D01*
X57912000Y-90678000D02*
X59182000Y-90678000D01*
X57658000Y-90424000D02*
X57912000Y-90678000D01*
X57150000Y-86106000D02*
X57150000Y-88392000D01*
X57912000Y-81534000D02*
X57912000Y-83820000D01*
X58166000Y-81280000D02*
X57912000Y-81534000D01*
X58420000Y-76454000D02*
X58420000Y-78486000D01*
X58166000Y-76200000D02*
X58420000Y-76454000D01*
X58166000Y-71120000D02*
X58166000Y-73406000D01*
X57912000Y-70866000D02*
X58166000Y-71120000D01*
X57912000Y-66294000D02*
X57912000Y-68326000D01*
X58166000Y-66040000D02*
X57912000Y-66294000D01*
X58166000Y-61722000D02*
X58166000Y-63500000D01*
X57912000Y-61468000D02*
X58166000Y-61722000D01*
X57658000Y-55880000D02*
X57658000Y-58420000D01*
X57912000Y-55626000D02*
X57658000Y-55880000D01*
X57912000Y-50800000D02*
X57912000Y-53340000D01*
X58166000Y-45974000D02*
X58166000Y-48260000D01*
X57912000Y-45720000D02*
X58166000Y-45974000D01*
X58166000Y-41402000D02*
X58166000Y-43434000D01*
X58166000Y-35814000D02*
X58166000Y-38608000D01*
X57912000Y-35560000D02*
X58166000Y-35814000D01*
X60706000Y-32004000D02*
X58674000Y-32004000D01*
X61468000Y-31242000D02*
X60706000Y-32004000D01*
X66294000Y-30988000D02*
X64008000Y-30988000D01*
X66548000Y-31242000D02*
X66294000Y-30988000D01*
X71120000Y-31242000D02*
X68834000Y-31242000D01*
X76708000Y-31242000D02*
X74168000Y-31242000D01*
X78740000Y-31750000D02*
X78740000Y-31496000D01*
X80010000Y-33020000D02*
X78740000Y-31750000D01*
X80010000Y-38100000D02*
X80010000Y-35306000D01*
X80264000Y-42926000D02*
X80264000Y-40640000D01*
X80264000Y-48006000D02*
X80264000Y-45720000D01*
X80518000Y-48260000D02*
X80264000Y-48006000D01*
X80264000Y-53086000D02*
X80264000Y-50800000D01*
X80264000Y-58420000D02*
X80264000Y-55626000D01*
X80264000Y-63500000D02*
X80264000Y-60706000D01*
X80518000Y-68580000D02*
X80518000Y-66040000D01*
X80264000Y-73406000D02*
X80264000Y-71120000D01*
X80264000Y-78740000D02*
X80264000Y-75946000D01*
X80264000Y-83566000D02*
X80264000Y-81280000D01*
X80518000Y-83820000D02*
X80264000Y-83566000D01*
X81026000Y-88138000D02*
X81026000Y-85598000D01*
X79502000Y-91440000D02*
X80772000Y-90170000D01*
X78182000Y-92406000D02*
X78232000Y-92456000D01*
D23*
X67208000Y-76111000D02*
X67208000Y-74944000D01*
X67473000Y-76376000D02*
X67208000Y-76111000D01*
D22*
X72948000Y-38601000D02*
X72973000Y-38601000D01*
X72898000Y-38551000D02*
X72948000Y-38601000D01*
X67588000Y-41956000D02*
X65858000Y-41956000D01*
X67708000Y-41836000D02*
X67588000Y-41956000D01*
X69418000Y-43576000D02*
X69418000Y-42386000D01*
X70568000Y-44726000D02*
X69418000Y-43576000D01*
X67208000Y-44946000D02*
X68898000Y-44946000D01*
X66828000Y-45326000D02*
X67208000Y-44946000D01*
X67618000Y-50516000D02*
X67488000Y-50386000D01*
X67488000Y-50386000D02*
X67488000Y-49876000D01*
X67488000Y-49876000D02*
X69898000Y-47466000D01*
X69898000Y-47466000D02*
X70108000Y-47466000D01*
X64262000Y-77724000D02*
X70762000Y-77724000D01*
X64770000Y-74910000D02*
X64770000Y-77216000D01*
X64770000Y-77216000D02*
X64262000Y-77724000D01*
X67298000Y-51926000D02*
X67123000Y-51751000D01*
X67123000Y-51751000D02*
X63498000Y-51751000D01*
X63498000Y-51751000D02*
X61998000Y-53251000D01*
X61998000Y-53251000D02*
X60023000Y-53251000D01*
X60023000Y-53251000D02*
X60048000Y-53226000D01*
X60048000Y-53226000D02*
X60048000Y-53151000D01*
X61110000Y-74798000D02*
X64658000Y-74798000D01*
X64658000Y-74798000D02*
X64770000Y-74910000D01*
X64770000Y-77216000D02*
X64262000Y-77724000D01*
D23*
X67208000Y-72644000D02*
X67041000Y-72644000D01*
X67041000Y-72644000D02*
X65123000Y-70726000D01*
X65123000Y-70726000D02*
X64848000Y-70726000D01*
D22*
X67208000Y-72644000D02*
X67591000Y-72644000D01*
X67591000Y-72644000D02*
X68998000Y-74051000D01*
X68998000Y-74051000D02*
X68998000Y-75376000D01*
X68998000Y-75376000D02*
X69548000Y-75926000D01*
X69548000Y-75926000D02*
X71173000Y-75926000D01*
X71358000Y-55176000D02*
X71058000Y-54876000D01*
X71058000Y-54876000D02*
X71058000Y-54516000D01*
X71058000Y-54516000D02*
X71908000Y-53926000D01*
X71908000Y-53926000D02*
X74768000Y-53926000D01*
X74768000Y-53926000D02*
X75018000Y-54436000D01*
X75018000Y-54436000D02*
X75018000Y-55146000D01*
X75018000Y-55146000D02*
X75618000Y-55746000D01*
X75618000Y-55746000D02*
X77428000Y-55746000D01*
X77428000Y-55746000D02*
X77528000Y-55646000D01*
X73938000Y-53206000D02*
X73978000Y-53246000D01*
X73978000Y-53246000D02*
X77598000Y-53246000D01*
X62738000Y-43826000D02*
X62738000Y-35596000D01*
X62738000Y-35596000D02*
X61110000Y-34158000D01*
X67998000Y-48401000D02*
X67423000Y-47826000D01*
X67423000Y-47826000D02*
X66198000Y-47826000D01*
X66198000Y-47826000D02*
X66048000Y-47976000D01*
X66048000Y-47976000D02*
X65773000Y-47976000D01*
X65773000Y-47976000D02*
X62548000Y-44751000D01*
X62548000Y-44751000D02*
X62738000Y-43826000D01*
D23*
X79448000Y-40676000D02*
X78010000Y-39238000D01*
X78010000Y-39238000D02*
X76350000Y-39238000D01*
X67208000Y-70344000D02*
X67578000Y-70344000D01*
X67578000Y-70344000D02*
X68580000Y-69342000D01*
X68580000Y-69342000D02*
X71120000Y-69342000D01*
D22*
X74048000Y-54586000D02*
X75008000Y-55946000D01*
X75008000Y-55946000D02*
X74988000Y-58036000D01*
X74988000Y-58036000D02*
X76350000Y-59398000D01*
X76350000Y-59398000D02*
X76350000Y-59558000D01*
X69918000Y-53506000D02*
X69978000Y-53566000D01*
X69978000Y-53566000D02*
X69978000Y-55156000D01*
X69978000Y-55156000D02*
X69478000Y-55656000D01*
X67708000Y-57336000D02*
X67708000Y-64506000D01*
X67708000Y-64506000D02*
X67668000Y-64546000D01*
G36*
X80848000Y-94826000D02*
X55748000Y-94826000D01*
X55748000Y-94111584D01*
X62347010Y-94111584D01*
X62523858Y-94344617D01*
X63309438Y-94416763D01*
X63672142Y-94344617D01*
X63848990Y-94111584D01*
X74347010Y-94111584D01*
X74523858Y-94344617D01*
X75309438Y-94416763D01*
X75672142Y-94344617D01*
X75848990Y-94111584D01*
X75098000Y-93360594D01*
X74347010Y-94111584D01*
X63848990Y-94111584D01*
X63098000Y-93360594D01*
X62347010Y-94111584D01*
X55748000Y-94111584D01*
X55748000Y-92617438D01*
X61087237Y-92617438D01*
X61159383Y-92980142D01*
X61392416Y-93156990D01*
X62143406Y-92406000D01*
X64052594Y-92406000D01*
X64803584Y-93156990D01*
X65036617Y-92980142D01*
X65069926Y-92617438D01*
X73087237Y-92617438D01*
X73159383Y-92980142D01*
X73392416Y-93156990D01*
X74143406Y-92406000D01*
X76052594Y-92406000D01*
X76803584Y-93156990D01*
X77036617Y-92980142D01*
X77108763Y-92194562D01*
X77036617Y-91831858D01*
X76803584Y-91655010D01*
X76052594Y-92406000D01*
X74143406Y-92406000D01*
X73392416Y-91655010D01*
X73159383Y-91831858D01*
X73087237Y-92617438D01*
X65069926Y-92617438D01*
X65108763Y-92194562D01*
X65036617Y-91831858D01*
X64803584Y-91655010D01*
X64052594Y-92406000D01*
X62143406Y-92406000D01*
X61392416Y-91655010D01*
X61159383Y-91831858D01*
X61087237Y-92617438D01*
X55748000Y-92617438D01*
X55748000Y-90700416D01*
X62347010Y-90700416D01*
X63098000Y-91451406D01*
X63848990Y-90700416D01*
X63672142Y-90467383D01*
X62886562Y-90395237D01*
X62523858Y-90467383D01*
X62347010Y-90700416D01*
X55748000Y-90700416D01*
X55748000Y-87930775D01*
X66692803Y-87930775D01*
X66865233Y-88348086D01*
X67184235Y-88667645D01*
X67276315Y-88705880D01*
X67185914Y-88743233D01*
X66866355Y-89062235D01*
X66693197Y-89479244D01*
X66692803Y-89930775D01*
X66865233Y-90348086D01*
X67184235Y-90667645D01*
X67601244Y-90840803D01*
X68052775Y-90841197D01*
X68090319Y-90825684D01*
X69785717Y-90825684D01*
X69871036Y-91036507D01*
X70418028Y-91125408D01*
X70864964Y-91036507D01*
X70950283Y-90825684D01*
X70825015Y-90700416D01*
X74347010Y-90700416D01*
X75098000Y-91451406D01*
X75848990Y-90700416D01*
X75672142Y-90467383D01*
X74886562Y-90395237D01*
X74523858Y-90467383D01*
X74347010Y-90700416D01*
X70825015Y-90700416D01*
X70368000Y-90243401D01*
X69785717Y-90825684D01*
X68090319Y-90825684D01*
X68470086Y-90668767D01*
X68789645Y-90349765D01*
X68962803Y-89932756D01*
X68962894Y-89827931D01*
X69037493Y-90202964D01*
X69248316Y-90288283D01*
X69830599Y-89706000D01*
X70905401Y-89706000D01*
X71487684Y-90288283D01*
X71698507Y-90202964D01*
X71787408Y-89655972D01*
X71698507Y-89209036D01*
X71487684Y-89123717D01*
X70905401Y-89706000D01*
X69830599Y-89706000D01*
X69248316Y-89123717D01*
X69037493Y-89209036D01*
X68963035Y-89667164D01*
X68963197Y-89481225D01*
X68790767Y-89063914D01*
X68471765Y-88744355D01*
X68379685Y-88706120D01*
X68470086Y-88668767D01*
X68789645Y-88349765D01*
X68962803Y-87932756D01*
X68962804Y-87930775D01*
X69232803Y-87930775D01*
X69405233Y-88348086D01*
X69724235Y-88667645D01*
X69968456Y-88769055D01*
X70368000Y-89168599D01*
X70767666Y-88768933D01*
X71010086Y-88668767D01*
X71329645Y-88349765D01*
X71502803Y-87932756D01*
X71503197Y-87481225D01*
X71330767Y-87063914D01*
X71011765Y-86744355D01*
X70594756Y-86571197D01*
X70143225Y-86570803D01*
X69725914Y-86743233D01*
X69406355Y-87062235D01*
X69233197Y-87479244D01*
X69232803Y-87930775D01*
X68962804Y-87930775D01*
X68963197Y-87481225D01*
X68790767Y-87063914D01*
X68471765Y-86744355D01*
X68054756Y-86571197D01*
X67603225Y-86570803D01*
X67185914Y-86743233D01*
X66866355Y-87062235D01*
X66693197Y-87479244D01*
X66692803Y-87930775D01*
X55748000Y-87930775D01*
X55748000Y-83060029D01*
X59773180Y-83060029D01*
X60005246Y-83407396D01*
X60467966Y-83754854D01*
X60685000Y-83680581D01*
X60685000Y-82843000D01*
X61535000Y-82843000D01*
X61535000Y-83680581D01*
X61752034Y-83754854D01*
X61981417Y-83582609D01*
X63610498Y-83582609D01*
X63733021Y-83802727D01*
X64377440Y-83884985D01*
X64790979Y-83802727D01*
X64913502Y-83582609D01*
X70110498Y-83582609D01*
X70233021Y-83802727D01*
X70877440Y-83884985D01*
X71290979Y-83802727D01*
X71413502Y-83582609D01*
X70762000Y-82931107D01*
X70110498Y-83582609D01*
X64913502Y-83582609D01*
X64262000Y-82931107D01*
X63610498Y-83582609D01*
X61981417Y-83582609D01*
X62214754Y-83407396D01*
X62446820Y-83060029D01*
X62364726Y-82843000D01*
X61535000Y-82843000D01*
X60685000Y-82843000D01*
X59855274Y-82843000D01*
X59773180Y-83060029D01*
X55748000Y-83060029D01*
X55748000Y-82339440D01*
X62601015Y-82339440D01*
X62683273Y-82752979D01*
X62903391Y-82875502D01*
X63554893Y-82224000D01*
X64969107Y-82224000D01*
X65620609Y-82875502D01*
X65840727Y-82752979D01*
X65893513Y-82339440D01*
X69101015Y-82339440D01*
X69183273Y-82752979D01*
X69403391Y-82875502D01*
X70054893Y-82224000D01*
X71469107Y-82224000D01*
X72120609Y-82875502D01*
X72340727Y-82752979D01*
X72383485Y-82418000D01*
X75101001Y-82418000D01*
X75194249Y-82886787D01*
X75459795Y-83284206D01*
X75857214Y-83549752D01*
X76326001Y-83643000D01*
X76373999Y-83643000D01*
X76842786Y-83549752D01*
X77240205Y-83284206D01*
X77505751Y-82886787D01*
X77598999Y-82418000D01*
X77505751Y-81949213D01*
X77240205Y-81551794D01*
X76842786Y-81286248D01*
X76373999Y-81193000D01*
X76326001Y-81193000D01*
X75857214Y-81286248D01*
X75459795Y-81551794D01*
X75194249Y-81949213D01*
X75101001Y-82418000D01*
X72383485Y-82418000D01*
X72422985Y-82108560D01*
X72340727Y-81695021D01*
X72120609Y-81572498D01*
X71469107Y-82224000D01*
X70054893Y-82224000D01*
X69403391Y-81572498D01*
X69183273Y-81695021D01*
X69101015Y-82339440D01*
X65893513Y-82339440D01*
X65922985Y-82108560D01*
X65840727Y-81695021D01*
X65620609Y-81572498D01*
X64969107Y-82224000D01*
X63554893Y-82224000D01*
X62903391Y-81572498D01*
X62683273Y-81695021D01*
X62601015Y-82339440D01*
X55748000Y-82339440D01*
X55748000Y-80520029D01*
X59773180Y-80520029D01*
X60005246Y-80867396D01*
X60378935Y-81148000D01*
X60005246Y-81428604D01*
X59773180Y-81775971D01*
X59855274Y-81993000D01*
X60685000Y-81993000D01*
X60685000Y-81155419D01*
X60663321Y-81148000D01*
X60685000Y-81140581D01*
X60685000Y-80303000D01*
X61535000Y-80303000D01*
X61535000Y-81140581D01*
X61556679Y-81148000D01*
X61535000Y-81155419D01*
X61535000Y-81993000D01*
X62364726Y-81993000D01*
X62446820Y-81775971D01*
X62214754Y-81428604D01*
X61841065Y-81148000D01*
X62214754Y-80867396D01*
X62216093Y-80865391D01*
X63610498Y-80865391D01*
X64262000Y-81516893D01*
X64913502Y-80865391D01*
X70110498Y-80865391D01*
X70762000Y-81516893D01*
X71413502Y-80865391D01*
X71290979Y-80645273D01*
X70646560Y-80563015D01*
X70233021Y-80645273D01*
X70110498Y-80865391D01*
X64913502Y-80865391D01*
X64790979Y-80645273D01*
X64146560Y-80563015D01*
X63733021Y-80645273D01*
X63610498Y-80865391D01*
X62216093Y-80865391D01*
X62446820Y-80520029D01*
X62364726Y-80303000D01*
X61535000Y-80303000D01*
X60685000Y-80303000D01*
X59855274Y-80303000D01*
X59773180Y-80520029D01*
X55748000Y-80520029D01*
X55748000Y-79878000D01*
X75101001Y-79878000D01*
X75194249Y-80346787D01*
X75459795Y-80744206D01*
X75857214Y-81009752D01*
X76326001Y-81103000D01*
X76373999Y-81103000D01*
X76842786Y-81009752D01*
X77240205Y-80744206D01*
X77505751Y-80346787D01*
X77598999Y-79878000D01*
X77505751Y-79409213D01*
X77240205Y-79011794D01*
X76842786Y-78746248D01*
X76373999Y-78653000D01*
X76326001Y-78653000D01*
X75857214Y-78746248D01*
X75459795Y-79011794D01*
X75194249Y-79409213D01*
X75101001Y-79878000D01*
X55748000Y-79878000D01*
X55748000Y-78395000D01*
X59734998Y-78395000D01*
X59734998Y-79028000D01*
X59912120Y-79028000D01*
X59773180Y-79235971D01*
X59855274Y-79453000D01*
X60685000Y-79453000D01*
X60685000Y-79028000D01*
X61535000Y-79028000D01*
X61535000Y-79453000D01*
X62364726Y-79453000D01*
X62446820Y-79235971D01*
X62307880Y-79028000D01*
X62485002Y-79028000D01*
X62485002Y-78395000D01*
X61714661Y-78395000D01*
X62000205Y-78204206D01*
X62265751Y-77806787D01*
X62358999Y-77338000D01*
X62265751Y-76869213D01*
X62000205Y-76471794D01*
X61602786Y-76206248D01*
X61133999Y-76113000D01*
X61086001Y-76113000D01*
X60617214Y-76206248D01*
X60219795Y-76471794D01*
X59954249Y-76869213D01*
X59861001Y-77338000D01*
X59954249Y-77806787D01*
X60219795Y-78204206D01*
X60505339Y-78395000D01*
X59734998Y-78395000D01*
X55748000Y-78395000D01*
X55748000Y-74798000D01*
X59861001Y-74798000D01*
X59954249Y-75266787D01*
X60219795Y-75664206D01*
X60617214Y-75929752D01*
X61086001Y-76023000D01*
X61133999Y-76023000D01*
X61602786Y-75929752D01*
X62000205Y-75664206D01*
X62244895Y-75298000D01*
X63762654Y-75298000D01*
X63762654Y-75660000D01*
X63788802Y-75798966D01*
X63870931Y-75926599D01*
X63996246Y-76012223D01*
X64145000Y-76042346D01*
X64270000Y-76042346D01*
X64270000Y-76349006D01*
X63989695Y-76348762D01*
X63484143Y-76557652D01*
X63097011Y-76944108D01*
X62887239Y-77449296D01*
X62886762Y-77996305D01*
X63095652Y-78501857D01*
X63482108Y-78888989D01*
X63987296Y-79098761D01*
X64534305Y-79099238D01*
X65039857Y-78890348D01*
X65426989Y-78503892D01*
X65543210Y-78224000D01*
X69480844Y-78224000D01*
X69595652Y-78501857D01*
X69982108Y-78888989D01*
X70487296Y-79098761D01*
X71034305Y-79099238D01*
X71539857Y-78890348D01*
X71926989Y-78503892D01*
X72136761Y-77998704D01*
X72137238Y-77451695D01*
X72090261Y-77338000D01*
X75101001Y-77338000D01*
X75194249Y-77806787D01*
X75459795Y-78204206D01*
X75857214Y-78469752D01*
X76326001Y-78563000D01*
X76373999Y-78563000D01*
X76842786Y-78469752D01*
X77240205Y-78204206D01*
X77505751Y-77806787D01*
X77598999Y-77338000D01*
X77505751Y-76869213D01*
X77240205Y-76471794D01*
X76842786Y-76206248D01*
X76373999Y-76113000D01*
X76326001Y-76113000D01*
X75857214Y-76206248D01*
X75459795Y-76471794D01*
X75194249Y-76869213D01*
X75101001Y-77338000D01*
X72090261Y-77338000D01*
X71928348Y-76946143D01*
X71541892Y-76559011D01*
X71475401Y-76531402D01*
X71554857Y-76498571D01*
X71744903Y-76308856D01*
X71847883Y-76060855D01*
X71848117Y-75792323D01*
X71745571Y-75544143D01*
X71555856Y-75354097D01*
X71307855Y-75251117D01*
X71039323Y-75250883D01*
X70791143Y-75353429D01*
X70718445Y-75426000D01*
X69755107Y-75426000D01*
X69498000Y-75168894D01*
X69498000Y-74051000D01*
X69459940Y-73859658D01*
X69404272Y-73776346D01*
X69351553Y-73697446D01*
X68590346Y-72936240D01*
X68590346Y-71894000D01*
X68564198Y-71755034D01*
X68482069Y-71627401D01*
X68356754Y-71541777D01*
X68208000Y-71511654D01*
X66792537Y-71511654D01*
X66757229Y-71476346D01*
X68208000Y-71476346D01*
X68346966Y-71450198D01*
X68474599Y-71368069D01*
X68560223Y-71242754D01*
X68590346Y-71094000D01*
X68590346Y-70744000D01*
X72125654Y-70744000D01*
X72125654Y-74544000D01*
X72151802Y-74682966D01*
X72233931Y-74810599D01*
X72359246Y-74896223D01*
X72508000Y-74926346D01*
X74508000Y-74926346D01*
X74646966Y-74900198D01*
X74774599Y-74818069D01*
X74788311Y-74798000D01*
X75101001Y-74798000D01*
X75194249Y-75266787D01*
X75459795Y-75664206D01*
X75857214Y-75929752D01*
X76326001Y-76023000D01*
X76373999Y-76023000D01*
X76842786Y-75929752D01*
X77240205Y-75664206D01*
X77505751Y-75266787D01*
X77598999Y-74798000D01*
X77505751Y-74329213D01*
X77240205Y-73931794D01*
X76842786Y-73666248D01*
X76373999Y-73573000D01*
X76326001Y-73573000D01*
X75857214Y-73666248D01*
X75459795Y-73931794D01*
X75194249Y-74329213D01*
X75101001Y-74798000D01*
X74788311Y-74798000D01*
X74860223Y-74692754D01*
X74890346Y-74544000D01*
X74890346Y-72258000D01*
X75101001Y-72258000D01*
X75194249Y-72726787D01*
X75459795Y-73124206D01*
X75857214Y-73389752D01*
X76326001Y-73483000D01*
X76373999Y-73483000D01*
X76842786Y-73389752D01*
X77240205Y-73124206D01*
X77505751Y-72726787D01*
X77598999Y-72258000D01*
X77505751Y-71789213D01*
X77240205Y-71391794D01*
X76842786Y-71126248D01*
X76373999Y-71033000D01*
X76326001Y-71033000D01*
X75857214Y-71126248D01*
X75459795Y-71391794D01*
X75194249Y-71789213D01*
X75101001Y-72258000D01*
X74890346Y-72258000D01*
X74890346Y-70744000D01*
X74864198Y-70605034D01*
X74782069Y-70477401D01*
X74656754Y-70391777D01*
X74508000Y-70361654D01*
X72508000Y-70361654D01*
X72369034Y-70387802D01*
X72241401Y-70469931D01*
X72155777Y-70595246D01*
X72125654Y-70744000D01*
X68590346Y-70744000D01*
X68590346Y-70215538D01*
X68838884Y-69967000D01*
X70865015Y-69967000D01*
X70985145Y-70016883D01*
X71253677Y-70017117D01*
X71501857Y-69914571D01*
X71691903Y-69724856D01*
X71694749Y-69718000D01*
X75101001Y-69718000D01*
X75194249Y-70186787D01*
X75459795Y-70584206D01*
X75857214Y-70849752D01*
X76326001Y-70943000D01*
X76373999Y-70943000D01*
X76842786Y-70849752D01*
X77240205Y-70584206D01*
X77505751Y-70186787D01*
X77598999Y-69718000D01*
X77505751Y-69249213D01*
X77240205Y-68851794D01*
X76842786Y-68586248D01*
X76373999Y-68493000D01*
X76326001Y-68493000D01*
X75857214Y-68586248D01*
X75459795Y-68851794D01*
X75194249Y-69249213D01*
X75101001Y-69718000D01*
X71694749Y-69718000D01*
X71794883Y-69476855D01*
X71795117Y-69208323D01*
X71692571Y-68960143D01*
X71502856Y-68770097D01*
X71254855Y-68667117D01*
X70986323Y-68666883D01*
X70865031Y-68717000D01*
X68580000Y-68717000D01*
X68340823Y-68764575D01*
X68138058Y-68900058D01*
X67826462Y-69211654D01*
X66208000Y-69211654D01*
X66069034Y-69237802D01*
X65941401Y-69319931D01*
X65855777Y-69445246D01*
X65825654Y-69594000D01*
X65825654Y-70544770D01*
X65564942Y-70284058D01*
X65362177Y-70148575D01*
X65123000Y-70101000D01*
X65102985Y-70101000D01*
X64982855Y-70051117D01*
X64714323Y-70050883D01*
X64466143Y-70153429D01*
X64276097Y-70343144D01*
X64173117Y-70591145D01*
X64172883Y-70859677D01*
X64242020Y-71027000D01*
X63394998Y-71027000D01*
X63394998Y-71660000D01*
X63512000Y-71660000D01*
X63512000Y-71876750D01*
X63670250Y-72035000D01*
X64457500Y-72035000D01*
X64457500Y-71660000D01*
X65082500Y-71660000D01*
X65082500Y-72035000D01*
X65395000Y-72035000D01*
X65395000Y-72785000D01*
X65082500Y-72785000D01*
X65082500Y-73160000D01*
X64457500Y-73160000D01*
X64457500Y-72785000D01*
X63670250Y-72785000D01*
X63512000Y-72943250D01*
X63512000Y-73160000D01*
X63394998Y-73160000D01*
X63394998Y-73793000D01*
X64063442Y-73793000D01*
X64006034Y-73803802D01*
X63878401Y-73885931D01*
X63792777Y-74011246D01*
X63762654Y-74160000D01*
X63762654Y-74298000D01*
X62244895Y-74298000D01*
X62000205Y-73931794D01*
X61602786Y-73666248D01*
X61133999Y-73573000D01*
X61086001Y-73573000D01*
X60617214Y-73666248D01*
X60219795Y-73931794D01*
X59954249Y-74329213D01*
X59861001Y-74798000D01*
X55748000Y-74798000D01*
X55748000Y-72258000D01*
X59861001Y-72258000D01*
X59954249Y-72726787D01*
X60219795Y-73124206D01*
X60617214Y-73389752D01*
X61086001Y-73483000D01*
X61133999Y-73483000D01*
X61602786Y-73389752D01*
X62000205Y-73124206D01*
X62265751Y-72726787D01*
X62358999Y-72258000D01*
X62265751Y-71789213D01*
X62000205Y-71391794D01*
X61602786Y-71126248D01*
X61133999Y-71033000D01*
X61086001Y-71033000D01*
X60617214Y-71126248D01*
X60219795Y-71391794D01*
X59954249Y-71789213D01*
X59861001Y-72258000D01*
X55748000Y-72258000D01*
X55748000Y-69718000D01*
X59861001Y-69718000D01*
X59954249Y-70186787D01*
X60219795Y-70584206D01*
X60617214Y-70849752D01*
X61086001Y-70943000D01*
X61133999Y-70943000D01*
X61602786Y-70849752D01*
X62000205Y-70584206D01*
X62265751Y-70186787D01*
X62358999Y-69718000D01*
X62265751Y-69249213D01*
X62000205Y-68851794D01*
X61602786Y-68586248D01*
X61133999Y-68493000D01*
X61086001Y-68493000D01*
X60617214Y-68586248D01*
X60219795Y-68851794D01*
X59954249Y-69249213D01*
X59861001Y-69718000D01*
X55748000Y-69718000D01*
X55748000Y-67178000D01*
X59861001Y-67178000D01*
X59954249Y-67646787D01*
X60219795Y-68044206D01*
X60617214Y-68309752D01*
X61086001Y-68403000D01*
X61133999Y-68403000D01*
X61602786Y-68309752D01*
X62000205Y-68044206D01*
X62265751Y-67646787D01*
X62358999Y-67178000D01*
X62265751Y-66709213D01*
X62000205Y-66311794D01*
X61886771Y-66236000D01*
X63895654Y-66236000D01*
X63895654Y-67936000D01*
X63921802Y-68074966D01*
X64003931Y-68202599D01*
X64129246Y-68288223D01*
X64278000Y-68318346D01*
X65978000Y-68318346D01*
X66116966Y-68292198D01*
X66244599Y-68210069D01*
X66330223Y-68084754D01*
X66360346Y-67936000D01*
X66360346Y-66236000D01*
X66334198Y-66097034D01*
X66252069Y-65969401D01*
X66126754Y-65883777D01*
X65978000Y-65853654D01*
X64278000Y-65853654D01*
X64139034Y-65879802D01*
X64011401Y-65961931D01*
X63925777Y-66087246D01*
X63895654Y-66236000D01*
X61886771Y-66236000D01*
X61602786Y-66046248D01*
X61133999Y-65953000D01*
X61086001Y-65953000D01*
X60617214Y-66046248D01*
X60219795Y-66311794D01*
X59954249Y-66709213D01*
X59861001Y-67178000D01*
X55748000Y-67178000D01*
X55748000Y-64638000D01*
X59861001Y-64638000D01*
X59954249Y-65106787D01*
X60219795Y-65504206D01*
X60617214Y-65769752D01*
X61086001Y-65863000D01*
X61133999Y-65863000D01*
X61602786Y-65769752D01*
X62000205Y-65504206D01*
X62265751Y-65106787D01*
X62358999Y-64638000D01*
X62335926Y-64522001D01*
X63903000Y-64522001D01*
X63903000Y-64569999D01*
X63996248Y-65038786D01*
X64261794Y-65436205D01*
X64659213Y-65701751D01*
X65128000Y-65794999D01*
X65596787Y-65701751D01*
X65994206Y-65436205D01*
X66259752Y-65038786D01*
X66353000Y-64569999D01*
X66353000Y-64522001D01*
X66443000Y-64522001D01*
X66443000Y-64569999D01*
X66536248Y-65038786D01*
X66801794Y-65436205D01*
X67199213Y-65701751D01*
X67668000Y-65794999D01*
X68136787Y-65701751D01*
X68534206Y-65436205D01*
X68725000Y-65150661D01*
X68725000Y-66481339D01*
X68534206Y-66195795D01*
X68136787Y-65930249D01*
X67668000Y-65837001D01*
X67199213Y-65930249D01*
X66801794Y-66195795D01*
X66536248Y-66593214D01*
X66443000Y-67062001D01*
X66443000Y-67109999D01*
X66536248Y-67578786D01*
X66801794Y-67976205D01*
X67199213Y-68241751D01*
X67668000Y-68334999D01*
X68136787Y-68241751D01*
X68534206Y-67976205D01*
X68725000Y-67690661D01*
X68725000Y-68461002D01*
X69358000Y-68461002D01*
X69358000Y-68283880D01*
X69565971Y-68422820D01*
X69783000Y-68340726D01*
X69783000Y-67511000D01*
X70633000Y-67511000D01*
X70633000Y-68340726D01*
X70850029Y-68422820D01*
X71197396Y-68190754D01*
X71544854Y-67728034D01*
X71470581Y-67511000D01*
X70633000Y-67511000D01*
X69783000Y-67511000D01*
X69358000Y-67511000D01*
X69358000Y-67178000D01*
X75101001Y-67178000D01*
X75194249Y-67646787D01*
X75459795Y-68044206D01*
X75857214Y-68309752D01*
X76326001Y-68403000D01*
X76373999Y-68403000D01*
X76842786Y-68309752D01*
X77240205Y-68044206D01*
X77505751Y-67646787D01*
X77598999Y-67178000D01*
X77505751Y-66709213D01*
X77240205Y-66311794D01*
X76842786Y-66046248D01*
X76373999Y-65953000D01*
X76326001Y-65953000D01*
X75857214Y-66046248D01*
X75459795Y-66311794D01*
X75194249Y-66709213D01*
X75101001Y-67178000D01*
X69358000Y-67178000D01*
X69358000Y-66661000D01*
X69783000Y-66661000D01*
X69783000Y-65831274D01*
X69742621Y-65816000D01*
X69783000Y-65800726D01*
X69783000Y-64971000D01*
X70633000Y-64971000D01*
X70633000Y-65800726D01*
X70673379Y-65816000D01*
X70633000Y-65831274D01*
X70633000Y-66661000D01*
X71470581Y-66661000D01*
X71544854Y-66443966D01*
X71197396Y-65981246D01*
X70950048Y-65816000D01*
X71197396Y-65650754D01*
X71544854Y-65188034D01*
X71470581Y-64971000D01*
X70633000Y-64971000D01*
X69783000Y-64971000D01*
X69358000Y-64971000D01*
X69358000Y-64638000D01*
X75101001Y-64638000D01*
X75194249Y-65106787D01*
X75459795Y-65504206D01*
X75857214Y-65769752D01*
X76326001Y-65863000D01*
X76373999Y-65863000D01*
X76842786Y-65769752D01*
X77240205Y-65504206D01*
X77505751Y-65106787D01*
X77598999Y-64638000D01*
X77505751Y-64169213D01*
X77240205Y-63771794D01*
X76842786Y-63506248D01*
X76373999Y-63413000D01*
X76326001Y-63413000D01*
X75857214Y-63506248D01*
X75459795Y-63771794D01*
X75194249Y-64169213D01*
X75101001Y-64638000D01*
X69358000Y-64638000D01*
X69358000Y-64121000D01*
X69783000Y-64121000D01*
X69783000Y-63291274D01*
X70633000Y-63291274D01*
X70633000Y-64121000D01*
X71470581Y-64121000D01*
X71544854Y-63903966D01*
X71197396Y-63441246D01*
X70850029Y-63209180D01*
X70633000Y-63291274D01*
X69783000Y-63291274D01*
X69565971Y-63209180D01*
X69358000Y-63348120D01*
X69358000Y-63170998D01*
X68725000Y-63170998D01*
X68725000Y-63941339D01*
X68534206Y-63655795D01*
X68208000Y-63437832D01*
X68208000Y-62098000D01*
X75101001Y-62098000D01*
X75194249Y-62566787D01*
X75459795Y-62964206D01*
X75857214Y-63229752D01*
X76326001Y-63323000D01*
X76373999Y-63323000D01*
X76842786Y-63229752D01*
X77240205Y-62964206D01*
X77505751Y-62566787D01*
X77598999Y-62098000D01*
X77505751Y-61629213D01*
X77240205Y-61231794D01*
X76842786Y-60966248D01*
X76373999Y-60873000D01*
X76326001Y-60873000D01*
X75857214Y-60966248D01*
X75459795Y-61231794D01*
X75194249Y-61629213D01*
X75101001Y-62098000D01*
X68208000Y-62098000D01*
X68208000Y-57790634D01*
X68279903Y-57718856D01*
X68382883Y-57470855D01*
X68383117Y-57202323D01*
X68280571Y-56954143D01*
X68090856Y-56764097D01*
X67842855Y-56661117D01*
X67574323Y-56660883D01*
X67326143Y-56763429D01*
X67136097Y-56953144D01*
X67033117Y-57201145D01*
X67032883Y-57469677D01*
X67135429Y-57717857D01*
X67208000Y-57790555D01*
X67208000Y-63388501D01*
X67199213Y-63390249D01*
X66801794Y-63655795D01*
X66536248Y-64053214D01*
X66443000Y-64522001D01*
X66353000Y-64522001D01*
X66259752Y-64053214D01*
X65994206Y-63655795D01*
X65596787Y-63390249D01*
X65128000Y-63297001D01*
X64659213Y-63390249D01*
X64261794Y-63655795D01*
X63996248Y-64053214D01*
X63903000Y-64522001D01*
X62335926Y-64522001D01*
X62265751Y-64169213D01*
X62000205Y-63771794D01*
X61602786Y-63506248D01*
X61133999Y-63413000D01*
X61086001Y-63413000D01*
X60617214Y-63506248D01*
X60219795Y-63771794D01*
X59954249Y-64169213D01*
X59861001Y-64638000D01*
X55748000Y-64638000D01*
X55748000Y-62098000D01*
X59861001Y-62098000D01*
X59954249Y-62566787D01*
X60219795Y-62964206D01*
X60617214Y-63229752D01*
X61086001Y-63323000D01*
X61133999Y-63323000D01*
X61602786Y-63229752D01*
X62000205Y-62964206D01*
X62265751Y-62566787D01*
X62358999Y-62098000D01*
X62265751Y-61629213D01*
X62000205Y-61231794D01*
X61602786Y-60966248D01*
X61133999Y-60873000D01*
X61086001Y-60873000D01*
X60617214Y-60966248D01*
X60219795Y-61231794D01*
X59954249Y-61629213D01*
X59861001Y-62098000D01*
X55748000Y-62098000D01*
X55748000Y-59558000D01*
X59861001Y-59558000D01*
X59954249Y-60026787D01*
X60219795Y-60424206D01*
X60617214Y-60689752D01*
X61086001Y-60783000D01*
X61133999Y-60783000D01*
X61602786Y-60689752D01*
X62000205Y-60424206D01*
X62265751Y-60026787D01*
X62358999Y-59558000D01*
X62265751Y-59089213D01*
X62000205Y-58691794D01*
X61602786Y-58426248D01*
X61133999Y-58333000D01*
X61086001Y-58333000D01*
X60617214Y-58426248D01*
X60219795Y-58691794D01*
X59954249Y-59089213D01*
X59861001Y-59558000D01*
X55748000Y-59558000D01*
X55748000Y-57018000D01*
X59861001Y-57018000D01*
X59954249Y-57486787D01*
X60219795Y-57884206D01*
X60617214Y-58149752D01*
X61086001Y-58243000D01*
X61133999Y-58243000D01*
X61602786Y-58149752D01*
X62000205Y-57884206D01*
X62265751Y-57486787D01*
X62358999Y-57018000D01*
X62265751Y-56549213D01*
X62000205Y-56151794D01*
X61602786Y-55886248D01*
X61133999Y-55793000D01*
X61086001Y-55793000D01*
X60617214Y-55886248D01*
X60219795Y-56151794D01*
X59954249Y-56549213D01*
X59861001Y-57018000D01*
X55748000Y-57018000D01*
X55748000Y-55789677D01*
X68802883Y-55789677D01*
X68905429Y-56037857D01*
X69095144Y-56227903D01*
X69343145Y-56330883D01*
X69611677Y-56331117D01*
X69859857Y-56228571D01*
X70049903Y-56038856D01*
X70152883Y-55790855D01*
X70152973Y-55688134D01*
X70331554Y-55509553D01*
X70439940Y-55347342D01*
X70478000Y-55156000D01*
X70478000Y-54516000D01*
X70558000Y-54516000D01*
X70558000Y-54876000D01*
X70596060Y-55067342D01*
X70682981Y-55197427D01*
X70682883Y-55309677D01*
X70785429Y-55557857D01*
X70975144Y-55747903D01*
X71223145Y-55850883D01*
X71491677Y-55851117D01*
X71739857Y-55748571D01*
X71929903Y-55558856D01*
X72032883Y-55310855D01*
X72033117Y-55042323D01*
X71930571Y-54794143D01*
X71768315Y-54631604D01*
X72064524Y-54426000D01*
X73383558Y-54426000D01*
X73373117Y-54451145D01*
X73372883Y-54719677D01*
X73475429Y-54967857D01*
X73665144Y-55157903D01*
X73912047Y-55260427D01*
X74506479Y-56102539D01*
X74488023Y-58031216D01*
X74488476Y-58033612D01*
X74488001Y-58036000D01*
X74506560Y-58129307D01*
X74524250Y-58222913D01*
X74525585Y-58224953D01*
X74526060Y-58227342D01*
X74578939Y-58306480D01*
X74631080Y-58386154D01*
X74633094Y-58387528D01*
X74634447Y-58389553D01*
X75250268Y-59005374D01*
X75194249Y-59089213D01*
X75101001Y-59558000D01*
X75194249Y-60026787D01*
X75459795Y-60424206D01*
X75857214Y-60689752D01*
X76326001Y-60783000D01*
X76373999Y-60783000D01*
X76842786Y-60689752D01*
X77240205Y-60424206D01*
X77505751Y-60026787D01*
X77598999Y-59558000D01*
X77505751Y-59089213D01*
X77240205Y-58691794D01*
X76842786Y-58426248D01*
X76373999Y-58333000D01*
X76326001Y-58333000D01*
X76047503Y-58388397D01*
X75711486Y-58052380D01*
X75857214Y-58149752D01*
X76326001Y-58243000D01*
X76373999Y-58243000D01*
X76842786Y-58149752D01*
X77240205Y-57884206D01*
X77505751Y-57486787D01*
X77598999Y-57018000D01*
X77505751Y-56549213D01*
X77337842Y-56297919D01*
X77393145Y-56320883D01*
X77661677Y-56321117D01*
X77909857Y-56218571D01*
X78099903Y-56028856D01*
X78202883Y-55780855D01*
X78203117Y-55512323D01*
X78100571Y-55264143D01*
X77910856Y-55074097D01*
X77662855Y-54971117D01*
X77489595Y-54970966D01*
X77505751Y-54946787D01*
X77598999Y-54478000D01*
X77505751Y-54009213D01*
X77440428Y-53911450D01*
X77463145Y-53920883D01*
X77731677Y-53921117D01*
X77979857Y-53818571D01*
X78169903Y-53628856D01*
X78272883Y-53380855D01*
X78273117Y-53112323D01*
X78170571Y-52864143D01*
X77980856Y-52674097D01*
X77732855Y-52571117D01*
X77464323Y-52570883D01*
X77370089Y-52609820D01*
X77505751Y-52406787D01*
X77598999Y-51938000D01*
X77505751Y-51469213D01*
X77240205Y-51071794D01*
X76842786Y-50806248D01*
X76373999Y-50713000D01*
X76326001Y-50713000D01*
X75857214Y-50806248D01*
X75459795Y-51071794D01*
X75194249Y-51469213D01*
X75101001Y-51938000D01*
X75194249Y-52406787D01*
X75420903Y-52746000D01*
X74432564Y-52746000D01*
X74320856Y-52634097D01*
X74072855Y-52531117D01*
X73804323Y-52530883D01*
X73556143Y-52633429D01*
X73366097Y-52823144D01*
X73263117Y-53071145D01*
X73262883Y-53339677D01*
X73298551Y-53426000D01*
X71908000Y-53426000D01*
X71855402Y-53436462D01*
X71801782Y-53437412D01*
X71760651Y-53455309D01*
X71716658Y-53464060D01*
X71672068Y-53493855D01*
X71622893Y-53515252D01*
X70772893Y-54105252D01*
X70741741Y-54137528D01*
X70704447Y-54162447D01*
X70674655Y-54207034D01*
X70637408Y-54245624D01*
X70620980Y-54287364D01*
X70596060Y-54324658D01*
X70585597Y-54377260D01*
X70565957Y-54427159D01*
X70566751Y-54472004D01*
X70558000Y-54516000D01*
X70478000Y-54516000D01*
X70478000Y-53900738D01*
X70489903Y-53888856D01*
X70592883Y-53640855D01*
X70593117Y-53372323D01*
X70490571Y-53124143D01*
X70300856Y-52934097D01*
X70052855Y-52831117D01*
X69784323Y-52830883D01*
X69536143Y-52933429D01*
X69346097Y-53123144D01*
X69243117Y-53371145D01*
X69242883Y-53639677D01*
X69345429Y-53887857D01*
X69478000Y-54020659D01*
X69478000Y-54948893D01*
X69445922Y-54980972D01*
X69344323Y-54980883D01*
X69096143Y-55083429D01*
X68906097Y-55273144D01*
X68803117Y-55521145D01*
X68802883Y-55789677D01*
X55748000Y-55789677D01*
X55748000Y-53284677D01*
X59372883Y-53284677D01*
X59475429Y-53532857D01*
X59665144Y-53722903D01*
X59913145Y-53825883D01*
X60076651Y-53826025D01*
X59954249Y-54009213D01*
X59861001Y-54478000D01*
X59954249Y-54946787D01*
X60219795Y-55344206D01*
X60617214Y-55609752D01*
X61086001Y-55703000D01*
X61133999Y-55703000D01*
X61602786Y-55609752D01*
X62000205Y-55344206D01*
X62265751Y-54946787D01*
X62358999Y-54478000D01*
X62265751Y-54009213D01*
X62082048Y-53734282D01*
X62189342Y-53712940D01*
X62351553Y-53604553D01*
X63705107Y-52251000D01*
X66701936Y-52251000D01*
X66725429Y-52307857D01*
X66915144Y-52497903D01*
X67163145Y-52600883D01*
X67431677Y-52601117D01*
X67679857Y-52498571D01*
X67869903Y-52308856D01*
X67972883Y-52060855D01*
X67973117Y-51792323D01*
X67870571Y-51544143D01*
X67680856Y-51354097D01*
X67432855Y-51251117D01*
X67164323Y-51250883D01*
X67150703Y-51256511D01*
X67123000Y-51251000D01*
X63498000Y-51251000D01*
X63306658Y-51289060D01*
X63144446Y-51397447D01*
X62298191Y-52243703D01*
X62358999Y-51938000D01*
X62265751Y-51469213D01*
X62000205Y-51071794D01*
X61602786Y-50806248D01*
X61133999Y-50713000D01*
X61086001Y-50713000D01*
X60617214Y-50806248D01*
X60219795Y-51071794D01*
X59954249Y-51469213D01*
X59861001Y-51938000D01*
X59954249Y-52406787D01*
X60000467Y-52475958D01*
X59914323Y-52475883D01*
X59666143Y-52578429D01*
X59476097Y-52768144D01*
X59373117Y-53016145D01*
X59372883Y-53284677D01*
X55748000Y-53284677D01*
X55748000Y-49398000D01*
X59861001Y-49398000D01*
X59954249Y-49866787D01*
X60219795Y-50264206D01*
X60617214Y-50529752D01*
X61086001Y-50623000D01*
X61133999Y-50623000D01*
X61602786Y-50529752D01*
X62000205Y-50264206D01*
X62265751Y-49866787D01*
X62358999Y-49398000D01*
X62265751Y-48929213D01*
X62000205Y-48531794D01*
X61602786Y-48266248D01*
X61133999Y-48173000D01*
X61086001Y-48173000D01*
X60617214Y-48266248D01*
X60219795Y-48531794D01*
X59954249Y-48929213D01*
X59861001Y-49398000D01*
X55748000Y-49398000D01*
X55748000Y-45759677D01*
X58897883Y-45759677D01*
X59000429Y-46007857D01*
X59190144Y-46197903D01*
X59438145Y-46300883D01*
X59706677Y-46301117D01*
X59954857Y-46198571D01*
X60027555Y-46126000D01*
X60130122Y-46126000D01*
X59954249Y-46389213D01*
X59861001Y-46858000D01*
X59954249Y-47326787D01*
X60219795Y-47724206D01*
X60617214Y-47989752D01*
X61086001Y-48083000D01*
X61133999Y-48083000D01*
X61602786Y-47989752D01*
X62000205Y-47724206D01*
X62265751Y-47326787D01*
X62358999Y-46858000D01*
X62265751Y-46389213D01*
X62188517Y-46273623D01*
X62394447Y-46479554D01*
X62556658Y-46587940D01*
X62748000Y-46626000D01*
X62815894Y-46626000D01*
X64997972Y-48808078D01*
X64997883Y-48909677D01*
X65100429Y-49157857D01*
X65290144Y-49347903D01*
X65538145Y-49450883D01*
X65806677Y-49451117D01*
X66054857Y-49348571D01*
X66244903Y-49158856D01*
X66347883Y-48910855D01*
X66348117Y-48642323D01*
X66258405Y-48425203D01*
X66401553Y-48329553D01*
X66405106Y-48326000D01*
X67215894Y-48326000D01*
X67322972Y-48433078D01*
X67322883Y-48534677D01*
X67425429Y-48782857D01*
X67615144Y-48972903D01*
X67663791Y-48993103D01*
X67134447Y-49522447D01*
X67026060Y-49684658D01*
X66988000Y-49876000D01*
X66988000Y-50273056D01*
X66943117Y-50381145D01*
X66942883Y-50649677D01*
X67045429Y-50897857D01*
X67235144Y-51087903D01*
X67483145Y-51190883D01*
X67751677Y-51191117D01*
X67999857Y-51088571D01*
X68189903Y-50898856D01*
X68292883Y-50650855D01*
X68293117Y-50382323D01*
X68190571Y-50134143D01*
X68063878Y-50007229D01*
X68673107Y-49398000D01*
X75101001Y-49398000D01*
X75194249Y-49866787D01*
X75459795Y-50264206D01*
X75857214Y-50529752D01*
X76326001Y-50623000D01*
X76373999Y-50623000D01*
X76842786Y-50529752D01*
X77240205Y-50264206D01*
X77505751Y-49866787D01*
X77598999Y-49398000D01*
X77505751Y-48929213D01*
X77240205Y-48531794D01*
X76842786Y-48266248D01*
X76373999Y-48173000D01*
X76326001Y-48173000D01*
X75857214Y-48266248D01*
X75459795Y-48531794D01*
X75194249Y-48929213D01*
X75101001Y-49398000D01*
X68673107Y-49398000D01*
X69942817Y-48128290D01*
X69973145Y-48140883D01*
X70241677Y-48141117D01*
X70489857Y-48038571D01*
X70679903Y-47848856D01*
X70782883Y-47600855D01*
X70783117Y-47332323D01*
X70680571Y-47084143D01*
X70490856Y-46894097D01*
X70403926Y-46858000D01*
X75101001Y-46858000D01*
X75194249Y-47326787D01*
X75459795Y-47724206D01*
X75857214Y-47989752D01*
X76326001Y-48083000D01*
X76373999Y-48083000D01*
X76842786Y-47989752D01*
X77240205Y-47724206D01*
X77505751Y-47326787D01*
X77598999Y-46858000D01*
X77505751Y-46389213D01*
X77240205Y-45991794D01*
X76842786Y-45726248D01*
X76373999Y-45633000D01*
X76326001Y-45633000D01*
X75857214Y-45726248D01*
X75459795Y-45991794D01*
X75194249Y-46389213D01*
X75101001Y-46858000D01*
X70403926Y-46858000D01*
X70242855Y-46791117D01*
X69974323Y-46790883D01*
X69726143Y-46893429D01*
X69536097Y-47083144D01*
X69509360Y-47147533D01*
X68590213Y-48066680D01*
X68570571Y-48019143D01*
X68380856Y-47829097D01*
X68132855Y-47726117D01*
X68030134Y-47726027D01*
X67776553Y-47472447D01*
X67614342Y-47364060D01*
X67423000Y-47326000D01*
X66198000Y-47326000D01*
X66006658Y-47364060D01*
X65923639Y-47419532D01*
X63091952Y-44587846D01*
X63227775Y-43926602D01*
X63228092Y-43875812D01*
X63238000Y-43826000D01*
X63238000Y-43588795D01*
X65522805Y-43588795D01*
X65693715Y-44002429D01*
X66009907Y-44319172D01*
X66423242Y-44490804D01*
X66870795Y-44491195D01*
X67284429Y-44320285D01*
X67601172Y-44004093D01*
X67772804Y-43590758D01*
X67772805Y-43588795D01*
X70402805Y-43588795D01*
X70573715Y-44002429D01*
X70889907Y-44319172D01*
X71303242Y-44490804D01*
X71750795Y-44491195D01*
X72164429Y-44320285D01*
X72166717Y-44318000D01*
X75101001Y-44318000D01*
X75194249Y-44786787D01*
X75459795Y-45184206D01*
X75857214Y-45449752D01*
X76326001Y-45543000D01*
X76373999Y-45543000D01*
X76842786Y-45449752D01*
X77240205Y-45184206D01*
X77505751Y-44786787D01*
X77598999Y-44318000D01*
X77505751Y-43849213D01*
X77240205Y-43451794D01*
X76842786Y-43186248D01*
X76373999Y-43093000D01*
X76326001Y-43093000D01*
X75857214Y-43186248D01*
X75459795Y-43451794D01*
X75194249Y-43849213D01*
X75101001Y-44318000D01*
X72166717Y-44318000D01*
X72481172Y-44004093D01*
X72652804Y-43590758D01*
X72653195Y-43143205D01*
X72482285Y-42729571D01*
X72166093Y-42412828D01*
X71752758Y-42241196D01*
X71305205Y-42240805D01*
X70891571Y-42411715D01*
X70574828Y-42727907D01*
X70403196Y-43141242D01*
X70402805Y-43588795D01*
X67772805Y-43588795D01*
X67773195Y-43143205D01*
X67602285Y-42729571D01*
X67286093Y-42412828D01*
X66872758Y-42241196D01*
X66425205Y-42240805D01*
X66011571Y-42411715D01*
X65694828Y-42727907D01*
X65523196Y-43141242D01*
X65522805Y-43588795D01*
X63238000Y-43588795D01*
X63238000Y-41778000D01*
X75101001Y-41778000D01*
X75194249Y-42246787D01*
X75459795Y-42644206D01*
X75857214Y-42909752D01*
X76326001Y-43003000D01*
X76373999Y-43003000D01*
X76842786Y-42909752D01*
X77240205Y-42644206D01*
X77505751Y-42246787D01*
X77598999Y-41778000D01*
X77505751Y-41309213D01*
X77240205Y-40911794D01*
X76842786Y-40646248D01*
X76373999Y-40553000D01*
X76326001Y-40553000D01*
X75857214Y-40646248D01*
X75459795Y-40911794D01*
X75194249Y-41309213D01*
X75101001Y-41778000D01*
X63238000Y-41778000D01*
X63238000Y-38859285D01*
X67852849Y-38859285D01*
X67985779Y-39181000D01*
X68231705Y-39427356D01*
X68553188Y-39560848D01*
X68901285Y-39561151D01*
X69223000Y-39428221D01*
X69469356Y-39182295D01*
X69602848Y-38860812D01*
X69603151Y-38512715D01*
X69470221Y-38191000D01*
X69224295Y-37944644D01*
X68902812Y-37811152D01*
X68554715Y-37810849D01*
X68233000Y-37943779D01*
X67986644Y-38189705D01*
X67853152Y-38511188D01*
X67852849Y-38859285D01*
X63238000Y-38859285D01*
X63238000Y-36959285D01*
X67852849Y-36959285D01*
X67985779Y-37281000D01*
X68231705Y-37527356D01*
X68553188Y-37660848D01*
X68901285Y-37661151D01*
X69175131Y-37548000D01*
X74974998Y-37548000D01*
X74974998Y-38181000D01*
X75745339Y-38181000D01*
X75459795Y-38371794D01*
X75194249Y-38769213D01*
X75101001Y-39238000D01*
X75194249Y-39706787D01*
X75459795Y-40104206D01*
X75857214Y-40369752D01*
X76326001Y-40463000D01*
X76373999Y-40463000D01*
X76842786Y-40369752D01*
X77240205Y-40104206D01*
X77401373Y-39863000D01*
X77751116Y-39863000D01*
X78825756Y-40937640D01*
X78875429Y-41057857D01*
X79065144Y-41247903D01*
X79313145Y-41350883D01*
X79581677Y-41351117D01*
X79829857Y-41248571D01*
X80019903Y-41058856D01*
X80122883Y-40810855D01*
X80123117Y-40542323D01*
X80020571Y-40294143D01*
X79830856Y-40104097D01*
X79709652Y-40053768D01*
X78451942Y-38796058D01*
X78249177Y-38660575D01*
X78010000Y-38613000D01*
X77401373Y-38613000D01*
X77240205Y-38371794D01*
X76954661Y-38181000D01*
X77725002Y-38181000D01*
X77725002Y-37548000D01*
X77547880Y-37548000D01*
X77686820Y-37340029D01*
X77604726Y-37123000D01*
X76775000Y-37123000D01*
X76775000Y-37548000D01*
X75925000Y-37548000D01*
X75925000Y-37123000D01*
X75095274Y-37123000D01*
X75013180Y-37340029D01*
X75152120Y-37548000D01*
X74974998Y-37548000D01*
X69175131Y-37548000D01*
X69223000Y-37528221D01*
X69469356Y-37282295D01*
X69602848Y-36960812D01*
X69603151Y-36612715D01*
X69470221Y-36291000D01*
X69224295Y-36044644D01*
X68902812Y-35911152D01*
X68554715Y-35910849D01*
X68233000Y-36043779D01*
X67986644Y-36289705D01*
X67853152Y-36611188D01*
X67852849Y-36959285D01*
X63238000Y-36959285D01*
X63238000Y-35596000D01*
X63234940Y-35580615D01*
X63237042Y-35565074D01*
X63216010Y-35485446D01*
X63199940Y-35404658D01*
X63191226Y-35391617D01*
X63187221Y-35376453D01*
X63137309Y-35310925D01*
X63091553Y-35242447D01*
X63078514Y-35233734D01*
X63069009Y-35221256D01*
X63061927Y-35215000D01*
X74974998Y-35215000D01*
X74974998Y-35848000D01*
X75152120Y-35848000D01*
X75013180Y-36055971D01*
X75095274Y-36273000D01*
X75925000Y-36273000D01*
X75925000Y-35848000D01*
X76775000Y-35848000D01*
X76775000Y-36273000D01*
X77604726Y-36273000D01*
X77686820Y-36055971D01*
X77547880Y-35848000D01*
X77725002Y-35848000D01*
X77725002Y-35215000D01*
X77512425Y-35215000D01*
X77552223Y-35156754D01*
X77582346Y-35008000D01*
X77582346Y-33308000D01*
X77556198Y-33169034D01*
X77474069Y-33041401D01*
X77348754Y-32955777D01*
X77200000Y-32925654D01*
X75500000Y-32925654D01*
X75361034Y-32951802D01*
X75233401Y-33033931D01*
X75147777Y-33159246D01*
X75117654Y-33308000D01*
X75117654Y-35008000D01*
X75143802Y-35146966D01*
X75187580Y-35215000D01*
X74974998Y-35215000D01*
X63061927Y-35215000D01*
X62342346Y-34579400D01*
X62342346Y-34449434D01*
X63737946Y-34449434D01*
X64085404Y-34912154D01*
X64432771Y-35144220D01*
X64649800Y-35062126D01*
X64649800Y-34232400D01*
X63812219Y-34232400D01*
X63737946Y-34449434D01*
X62342346Y-34449434D01*
X62342346Y-33308000D01*
X62316198Y-33169034D01*
X62313838Y-33165366D01*
X63737946Y-33165366D01*
X63812219Y-33382400D01*
X64649800Y-33382400D01*
X64649800Y-32552674D01*
X65499800Y-32552674D01*
X65499800Y-33382400D01*
X65924800Y-33382400D01*
X65924800Y-34232400D01*
X65499800Y-34232400D01*
X65499800Y-35062126D01*
X65716829Y-35144220D01*
X65924800Y-35005280D01*
X65924800Y-35182402D01*
X66557800Y-35182402D01*
X66557800Y-34412061D01*
X66748594Y-34697605D01*
X67146013Y-34963151D01*
X67614800Y-35056399D01*
X68083587Y-34963151D01*
X68481006Y-34697605D01*
X68746552Y-34300186D01*
X68839800Y-33831399D01*
X68839800Y-33783401D01*
X68929800Y-33783401D01*
X68929800Y-33831399D01*
X69023048Y-34300186D01*
X69288594Y-34697605D01*
X69686013Y-34963151D01*
X70154800Y-35056399D01*
X70623587Y-34963151D01*
X71021006Y-34697605D01*
X71286552Y-34300186D01*
X71379800Y-33831399D01*
X71379800Y-33783401D01*
X71286552Y-33314614D01*
X71047871Y-32957400D01*
X71462454Y-32957400D01*
X71462454Y-34657400D01*
X71488602Y-34796366D01*
X71570731Y-34923999D01*
X71696046Y-35009623D01*
X71844800Y-35039746D01*
X73544800Y-35039746D01*
X73683766Y-35013598D01*
X73811399Y-34931469D01*
X73897023Y-34806154D01*
X73927146Y-34657400D01*
X73927146Y-32957400D01*
X73900998Y-32818434D01*
X73818869Y-32690801D01*
X73693554Y-32605177D01*
X73544800Y-32575054D01*
X71844800Y-32575054D01*
X71705834Y-32601202D01*
X71578201Y-32683331D01*
X71492577Y-32808646D01*
X71462454Y-32957400D01*
X71047871Y-32957400D01*
X71021006Y-32917195D01*
X70623587Y-32651649D01*
X70154800Y-32558401D01*
X69686013Y-32651649D01*
X69288594Y-32917195D01*
X69023048Y-33314614D01*
X68929800Y-33783401D01*
X68839800Y-33783401D01*
X68746552Y-33314614D01*
X68481006Y-32917195D01*
X68083587Y-32651649D01*
X67614800Y-32558401D01*
X67146013Y-32651649D01*
X66748594Y-32917195D01*
X66557800Y-33202739D01*
X66557800Y-32432398D01*
X65924800Y-32432398D01*
X65924800Y-32609520D01*
X65716829Y-32470580D01*
X65499800Y-32552674D01*
X64649800Y-32552674D01*
X64432771Y-32470580D01*
X64085404Y-32702646D01*
X63737946Y-33165366D01*
X62313838Y-33165366D01*
X62234069Y-33041401D01*
X62108754Y-32955777D01*
X61960000Y-32925654D01*
X60260000Y-32925654D01*
X60121034Y-32951802D01*
X59993401Y-33033931D01*
X59907777Y-33159246D01*
X59877654Y-33308000D01*
X59877654Y-35008000D01*
X59903802Y-35146966D01*
X59985931Y-35274599D01*
X60111246Y-35360223D01*
X60260000Y-35390346D01*
X61749906Y-35390346D01*
X62238000Y-35821476D01*
X62238000Y-36187681D01*
X62000205Y-35831794D01*
X61602786Y-35566248D01*
X61133999Y-35473000D01*
X61086001Y-35473000D01*
X60617214Y-35566248D01*
X60219795Y-35831794D01*
X59954249Y-36229213D01*
X59861001Y-36698000D01*
X59954249Y-37166787D01*
X60219795Y-37564206D01*
X60617214Y-37829752D01*
X61086001Y-37923000D01*
X61133999Y-37923000D01*
X61602786Y-37829752D01*
X62000205Y-37564206D01*
X62238000Y-37208319D01*
X62238000Y-38727681D01*
X62000205Y-38371794D01*
X61602786Y-38106248D01*
X61133999Y-38013000D01*
X61086001Y-38013000D01*
X60617214Y-38106248D01*
X60219795Y-38371794D01*
X59954249Y-38769213D01*
X59861001Y-39238000D01*
X59954249Y-39706787D01*
X60219795Y-40104206D01*
X60617214Y-40369752D01*
X61086001Y-40463000D01*
X61133999Y-40463000D01*
X61602786Y-40369752D01*
X62000205Y-40104206D01*
X62238000Y-39748319D01*
X62238000Y-41267681D01*
X62000205Y-40911794D01*
X61602786Y-40646248D01*
X61133999Y-40553000D01*
X61086001Y-40553000D01*
X60617214Y-40646248D01*
X60219795Y-40911794D01*
X59954249Y-41309213D01*
X59861001Y-41778000D01*
X59954249Y-42246787D01*
X60219795Y-42644206D01*
X60617214Y-42909752D01*
X61086001Y-43003000D01*
X61133999Y-43003000D01*
X61602786Y-42909752D01*
X62000205Y-42644206D01*
X62238000Y-42288319D01*
X62238000Y-43775178D01*
X62232894Y-43800038D01*
X62000205Y-43451794D01*
X61602786Y-43186248D01*
X61133999Y-43093000D01*
X61086001Y-43093000D01*
X60617214Y-43186248D01*
X60219795Y-43451794D01*
X59954249Y-43849213D01*
X59861001Y-44318000D01*
X59954249Y-44786787D01*
X60180903Y-45126000D01*
X60027634Y-45126000D01*
X59955856Y-45054097D01*
X59707855Y-44951117D01*
X59439323Y-44950883D01*
X59191143Y-45053429D01*
X59001097Y-45243144D01*
X58898117Y-45491145D01*
X58897883Y-45759677D01*
X55748000Y-45759677D01*
X55748000Y-29868217D01*
X55772931Y-29829472D01*
X55780224Y-29801718D01*
X55791041Y-29726000D01*
X80848000Y-29726000D01*
X80848000Y-94826000D01*
X80848000Y-94826000D01*
G37*
X80848000Y-94826000D02*
X55748000Y-94826000D01*
X55748000Y-94111584D01*
X62347010Y-94111584D01*
X62523858Y-94344617D01*
X63309438Y-94416763D01*
X63672142Y-94344617D01*
X63848990Y-94111584D01*
X74347010Y-94111584D01*
X74523858Y-94344617D01*
X75309438Y-94416763D01*
X75672142Y-94344617D01*
X75848990Y-94111584D01*
X75098000Y-93360594D01*
X74347010Y-94111584D01*
X63848990Y-94111584D01*
X63098000Y-93360594D01*
X62347010Y-94111584D01*
X55748000Y-94111584D01*
X55748000Y-92617438D01*
X61087237Y-92617438D01*
X61159383Y-92980142D01*
X61392416Y-93156990D01*
X62143406Y-92406000D01*
X64052594Y-92406000D01*
X64803584Y-93156990D01*
X65036617Y-92980142D01*
X65069926Y-92617438D01*
X73087237Y-92617438D01*
X73159383Y-92980142D01*
X73392416Y-93156990D01*
X74143406Y-92406000D01*
X76052594Y-92406000D01*
X76803584Y-93156990D01*
X77036617Y-92980142D01*
X77108763Y-92194562D01*
X77036617Y-91831858D01*
X76803584Y-91655010D01*
X76052594Y-92406000D01*
X74143406Y-92406000D01*
X73392416Y-91655010D01*
X73159383Y-91831858D01*
X73087237Y-92617438D01*
X65069926Y-92617438D01*
X65108763Y-92194562D01*
X65036617Y-91831858D01*
X64803584Y-91655010D01*
X64052594Y-92406000D01*
X62143406Y-92406000D01*
X61392416Y-91655010D01*
X61159383Y-91831858D01*
X61087237Y-92617438D01*
X55748000Y-92617438D01*
X55748000Y-90700416D01*
X62347010Y-90700416D01*
X63098000Y-91451406D01*
X63848990Y-90700416D01*
X63672142Y-90467383D01*
X62886562Y-90395237D01*
X62523858Y-90467383D01*
X62347010Y-90700416D01*
X55748000Y-90700416D01*
X55748000Y-87930775D01*
X66692803Y-87930775D01*
X66865233Y-88348086D01*
X67184235Y-88667645D01*
X67276315Y-88705880D01*
X67185914Y-88743233D01*
X66866355Y-89062235D01*
X66693197Y-89479244D01*
X66692803Y-89930775D01*
X66865233Y-90348086D01*
X67184235Y-90667645D01*
X67601244Y-90840803D01*
X68052775Y-90841197D01*
X68090319Y-90825684D01*
X69785717Y-90825684D01*
X69871036Y-91036507D01*
X70418028Y-91125408D01*
X70864964Y-91036507D01*
X70950283Y-90825684D01*
X70825015Y-90700416D01*
X74347010Y-90700416D01*
X75098000Y-91451406D01*
X75848990Y-90700416D01*
X75672142Y-90467383D01*
X74886562Y-90395237D01*
X74523858Y-90467383D01*
X74347010Y-90700416D01*
X70825015Y-90700416D01*
X70368000Y-90243401D01*
X69785717Y-90825684D01*
X68090319Y-90825684D01*
X68470086Y-90668767D01*
X68789645Y-90349765D01*
X68962803Y-89932756D01*
X68962894Y-89827931D01*
X69037493Y-90202964D01*
X69248316Y-90288283D01*
X69830599Y-89706000D01*
X70905401Y-89706000D01*
X71487684Y-90288283D01*
X71698507Y-90202964D01*
X71787408Y-89655972D01*
X71698507Y-89209036D01*
X71487684Y-89123717D01*
X70905401Y-89706000D01*
X69830599Y-89706000D01*
X69248316Y-89123717D01*
X69037493Y-89209036D01*
X68963035Y-89667164D01*
X68963197Y-89481225D01*
X68790767Y-89063914D01*
X68471765Y-88744355D01*
X68379685Y-88706120D01*
X68470086Y-88668767D01*
X68789645Y-88349765D01*
X68962803Y-87932756D01*
X68962804Y-87930775D01*
X69232803Y-87930775D01*
X69405233Y-88348086D01*
X69724235Y-88667645D01*
X69968456Y-88769055D01*
X70368000Y-89168599D01*
X70767666Y-88768933D01*
X71010086Y-88668767D01*
X71329645Y-88349765D01*
X71502803Y-87932756D01*
X71503197Y-87481225D01*
X71330767Y-87063914D01*
X71011765Y-86744355D01*
X70594756Y-86571197D01*
X70143225Y-86570803D01*
X69725914Y-86743233D01*
X69406355Y-87062235D01*
X69233197Y-87479244D01*
X69232803Y-87930775D01*
X68962804Y-87930775D01*
X68963197Y-87481225D01*
X68790767Y-87063914D01*
X68471765Y-86744355D01*
X68054756Y-86571197D01*
X67603225Y-86570803D01*
X67185914Y-86743233D01*
X66866355Y-87062235D01*
X66693197Y-87479244D01*
X66692803Y-87930775D01*
X55748000Y-87930775D01*
X55748000Y-83060029D01*
X59773180Y-83060029D01*
X60005246Y-83407396D01*
X60467966Y-83754854D01*
X60685000Y-83680581D01*
X60685000Y-82843000D01*
X61535000Y-82843000D01*
X61535000Y-83680581D01*
X61752034Y-83754854D01*
X61981417Y-83582609D01*
X63610498Y-83582609D01*
X63733021Y-83802727D01*
X64377440Y-83884985D01*
X64790979Y-83802727D01*
X64913502Y-83582609D01*
X70110498Y-83582609D01*
X70233021Y-83802727D01*
X70877440Y-83884985D01*
X71290979Y-83802727D01*
X71413502Y-83582609D01*
X70762000Y-82931107D01*
X70110498Y-83582609D01*
X64913502Y-83582609D01*
X64262000Y-82931107D01*
X63610498Y-83582609D01*
X61981417Y-83582609D01*
X62214754Y-83407396D01*
X62446820Y-83060029D01*
X62364726Y-82843000D01*
X61535000Y-82843000D01*
X60685000Y-82843000D01*
X59855274Y-82843000D01*
X59773180Y-83060029D01*
X55748000Y-83060029D01*
X55748000Y-82339440D01*
X62601015Y-82339440D01*
X62683273Y-82752979D01*
X62903391Y-82875502D01*
X63554893Y-82224000D01*
X64969107Y-82224000D01*
X65620609Y-82875502D01*
X65840727Y-82752979D01*
X65893513Y-82339440D01*
X69101015Y-82339440D01*
X69183273Y-82752979D01*
X69403391Y-82875502D01*
X70054893Y-82224000D01*
X71469107Y-82224000D01*
X72120609Y-82875502D01*
X72340727Y-82752979D01*
X72383485Y-82418000D01*
X75101001Y-82418000D01*
X75194249Y-82886787D01*
X75459795Y-83284206D01*
X75857214Y-83549752D01*
X76326001Y-83643000D01*
X76373999Y-83643000D01*
X76842786Y-83549752D01*
X77240205Y-83284206D01*
X77505751Y-82886787D01*
X77598999Y-82418000D01*
X77505751Y-81949213D01*
X77240205Y-81551794D01*
X76842786Y-81286248D01*
X76373999Y-81193000D01*
X76326001Y-81193000D01*
X75857214Y-81286248D01*
X75459795Y-81551794D01*
X75194249Y-81949213D01*
X75101001Y-82418000D01*
X72383485Y-82418000D01*
X72422985Y-82108560D01*
X72340727Y-81695021D01*
X72120609Y-81572498D01*
X71469107Y-82224000D01*
X70054893Y-82224000D01*
X69403391Y-81572498D01*
X69183273Y-81695021D01*
X69101015Y-82339440D01*
X65893513Y-82339440D01*
X65922985Y-82108560D01*
X65840727Y-81695021D01*
X65620609Y-81572498D01*
X64969107Y-82224000D01*
X63554893Y-82224000D01*
X62903391Y-81572498D01*
X62683273Y-81695021D01*
X62601015Y-82339440D01*
X55748000Y-82339440D01*
X55748000Y-80520029D01*
X59773180Y-80520029D01*
X60005246Y-80867396D01*
X60378935Y-81148000D01*
X60005246Y-81428604D01*
X59773180Y-81775971D01*
X59855274Y-81993000D01*
X60685000Y-81993000D01*
X60685000Y-81155419D01*
X60663321Y-81148000D01*
X60685000Y-81140581D01*
X60685000Y-80303000D01*
X61535000Y-80303000D01*
X61535000Y-81140581D01*
X61556679Y-81148000D01*
X61535000Y-81155419D01*
X61535000Y-81993000D01*
X62364726Y-81993000D01*
X62446820Y-81775971D01*
X62214754Y-81428604D01*
X61841065Y-81148000D01*
X62214754Y-80867396D01*
X62216093Y-80865391D01*
X63610498Y-80865391D01*
X64262000Y-81516893D01*
X64913502Y-80865391D01*
X70110498Y-80865391D01*
X70762000Y-81516893D01*
X71413502Y-80865391D01*
X71290979Y-80645273D01*
X70646560Y-80563015D01*
X70233021Y-80645273D01*
X70110498Y-80865391D01*
X64913502Y-80865391D01*
X64790979Y-80645273D01*
X64146560Y-80563015D01*
X63733021Y-80645273D01*
X63610498Y-80865391D01*
X62216093Y-80865391D01*
X62446820Y-80520029D01*
X62364726Y-80303000D01*
X61535000Y-80303000D01*
X60685000Y-80303000D01*
X59855274Y-80303000D01*
X59773180Y-80520029D01*
X55748000Y-80520029D01*
X55748000Y-79878000D01*
X75101001Y-79878000D01*
X75194249Y-80346787D01*
X75459795Y-80744206D01*
X75857214Y-81009752D01*
X76326001Y-81103000D01*
X76373999Y-81103000D01*
X76842786Y-81009752D01*
X77240205Y-80744206D01*
X77505751Y-80346787D01*
X77598999Y-79878000D01*
X77505751Y-79409213D01*
X77240205Y-79011794D01*
X76842786Y-78746248D01*
X76373999Y-78653000D01*
X76326001Y-78653000D01*
X75857214Y-78746248D01*
X75459795Y-79011794D01*
X75194249Y-79409213D01*
X75101001Y-79878000D01*
X55748000Y-79878000D01*
X55748000Y-78395000D01*
X59734998Y-78395000D01*
X59734998Y-79028000D01*
X59912120Y-79028000D01*
X59773180Y-79235971D01*
X59855274Y-79453000D01*
X60685000Y-79453000D01*
X60685000Y-79028000D01*
X61535000Y-79028000D01*
X61535000Y-79453000D01*
X62364726Y-79453000D01*
X62446820Y-79235971D01*
X62307880Y-79028000D01*
X62485002Y-79028000D01*
X62485002Y-78395000D01*
X61714661Y-78395000D01*
X62000205Y-78204206D01*
X62265751Y-77806787D01*
X62358999Y-77338000D01*
X62265751Y-76869213D01*
X62000205Y-76471794D01*
X61602786Y-76206248D01*
X61133999Y-76113000D01*
X61086001Y-76113000D01*
X60617214Y-76206248D01*
X60219795Y-76471794D01*
X59954249Y-76869213D01*
X59861001Y-77338000D01*
X59954249Y-77806787D01*
X60219795Y-78204206D01*
X60505339Y-78395000D01*
X59734998Y-78395000D01*
X55748000Y-78395000D01*
X55748000Y-74798000D01*
X59861001Y-74798000D01*
X59954249Y-75266787D01*
X60219795Y-75664206D01*
X60617214Y-75929752D01*
X61086001Y-76023000D01*
X61133999Y-76023000D01*
X61602786Y-75929752D01*
X62000205Y-75664206D01*
X62244895Y-75298000D01*
X63762654Y-75298000D01*
X63762654Y-75660000D01*
X63788802Y-75798966D01*
X63870931Y-75926599D01*
X63996246Y-76012223D01*
X64145000Y-76042346D01*
X64270000Y-76042346D01*
X64270000Y-76349006D01*
X63989695Y-76348762D01*
X63484143Y-76557652D01*
X63097011Y-76944108D01*
X62887239Y-77449296D01*
X62886762Y-77996305D01*
X63095652Y-78501857D01*
X63482108Y-78888989D01*
X63987296Y-79098761D01*
X64534305Y-79099238D01*
X65039857Y-78890348D01*
X65426989Y-78503892D01*
X65543210Y-78224000D01*
X69480844Y-78224000D01*
X69595652Y-78501857D01*
X69982108Y-78888989D01*
X70487296Y-79098761D01*
X71034305Y-79099238D01*
X71539857Y-78890348D01*
X71926989Y-78503892D01*
X72136761Y-77998704D01*
X72137238Y-77451695D01*
X72090261Y-77338000D01*
X75101001Y-77338000D01*
X75194249Y-77806787D01*
X75459795Y-78204206D01*
X75857214Y-78469752D01*
X76326001Y-78563000D01*
X76373999Y-78563000D01*
X76842786Y-78469752D01*
X77240205Y-78204206D01*
X77505751Y-77806787D01*
X77598999Y-77338000D01*
X77505751Y-76869213D01*
X77240205Y-76471794D01*
X76842786Y-76206248D01*
X76373999Y-76113000D01*
X76326001Y-76113000D01*
X75857214Y-76206248D01*
X75459795Y-76471794D01*
X75194249Y-76869213D01*
X75101001Y-77338000D01*
X72090261Y-77338000D01*
X71928348Y-76946143D01*
X71541892Y-76559011D01*
X71475401Y-76531402D01*
X71554857Y-76498571D01*
X71744903Y-76308856D01*
X71847883Y-76060855D01*
X71848117Y-75792323D01*
X71745571Y-75544143D01*
X71555856Y-75354097D01*
X71307855Y-75251117D01*
X71039323Y-75250883D01*
X70791143Y-75353429D01*
X70718445Y-75426000D01*
X69755107Y-75426000D01*
X69498000Y-75168894D01*
X69498000Y-74051000D01*
X69459940Y-73859658D01*
X69404272Y-73776346D01*
X69351553Y-73697446D01*
X68590346Y-72936240D01*
X68590346Y-71894000D01*
X68564198Y-71755034D01*
X68482069Y-71627401D01*
X68356754Y-71541777D01*
X68208000Y-71511654D01*
X66792537Y-71511654D01*
X66757229Y-71476346D01*
X68208000Y-71476346D01*
X68346966Y-71450198D01*
X68474599Y-71368069D01*
X68560223Y-71242754D01*
X68590346Y-71094000D01*
X68590346Y-70744000D01*
X72125654Y-70744000D01*
X72125654Y-74544000D01*
X72151802Y-74682966D01*
X72233931Y-74810599D01*
X72359246Y-74896223D01*
X72508000Y-74926346D01*
X74508000Y-74926346D01*
X74646966Y-74900198D01*
X74774599Y-74818069D01*
X74788311Y-74798000D01*
X75101001Y-74798000D01*
X75194249Y-75266787D01*
X75459795Y-75664206D01*
X75857214Y-75929752D01*
X76326001Y-76023000D01*
X76373999Y-76023000D01*
X76842786Y-75929752D01*
X77240205Y-75664206D01*
X77505751Y-75266787D01*
X77598999Y-74798000D01*
X77505751Y-74329213D01*
X77240205Y-73931794D01*
X76842786Y-73666248D01*
X76373999Y-73573000D01*
X76326001Y-73573000D01*
X75857214Y-73666248D01*
X75459795Y-73931794D01*
X75194249Y-74329213D01*
X75101001Y-74798000D01*
X74788311Y-74798000D01*
X74860223Y-74692754D01*
X74890346Y-74544000D01*
X74890346Y-72258000D01*
X75101001Y-72258000D01*
X75194249Y-72726787D01*
X75459795Y-73124206D01*
X75857214Y-73389752D01*
X76326001Y-73483000D01*
X76373999Y-73483000D01*
X76842786Y-73389752D01*
X77240205Y-73124206D01*
X77505751Y-72726787D01*
X77598999Y-72258000D01*
X77505751Y-71789213D01*
X77240205Y-71391794D01*
X76842786Y-71126248D01*
X76373999Y-71033000D01*
X76326001Y-71033000D01*
X75857214Y-71126248D01*
X75459795Y-71391794D01*
X75194249Y-71789213D01*
X75101001Y-72258000D01*
X74890346Y-72258000D01*
X74890346Y-70744000D01*
X74864198Y-70605034D01*
X74782069Y-70477401D01*
X74656754Y-70391777D01*
X74508000Y-70361654D01*
X72508000Y-70361654D01*
X72369034Y-70387802D01*
X72241401Y-70469931D01*
X72155777Y-70595246D01*
X72125654Y-70744000D01*
X68590346Y-70744000D01*
X68590346Y-70215538D01*
X68838884Y-69967000D01*
X70865015Y-69967000D01*
X70985145Y-70016883D01*
X71253677Y-70017117D01*
X71501857Y-69914571D01*
X71691903Y-69724856D01*
X71694749Y-69718000D01*
X75101001Y-69718000D01*
X75194249Y-70186787D01*
X75459795Y-70584206D01*
X75857214Y-70849752D01*
X76326001Y-70943000D01*
X76373999Y-70943000D01*
X76842786Y-70849752D01*
X77240205Y-70584206D01*
X77505751Y-70186787D01*
X77598999Y-69718000D01*
X77505751Y-69249213D01*
X77240205Y-68851794D01*
X76842786Y-68586248D01*
X76373999Y-68493000D01*
X76326001Y-68493000D01*
X75857214Y-68586248D01*
X75459795Y-68851794D01*
X75194249Y-69249213D01*
X75101001Y-69718000D01*
X71694749Y-69718000D01*
X71794883Y-69476855D01*
X71795117Y-69208323D01*
X71692571Y-68960143D01*
X71502856Y-68770097D01*
X71254855Y-68667117D01*
X70986323Y-68666883D01*
X70865031Y-68717000D01*
X68580000Y-68717000D01*
X68340823Y-68764575D01*
X68138058Y-68900058D01*
X67826462Y-69211654D01*
X66208000Y-69211654D01*
X66069034Y-69237802D01*
X65941401Y-69319931D01*
X65855777Y-69445246D01*
X65825654Y-69594000D01*
X65825654Y-70544770D01*
X65564942Y-70284058D01*
X65362177Y-70148575D01*
X65123000Y-70101000D01*
X65102985Y-70101000D01*
X64982855Y-70051117D01*
X64714323Y-70050883D01*
X64466143Y-70153429D01*
X64276097Y-70343144D01*
X64173117Y-70591145D01*
X64172883Y-70859677D01*
X64242020Y-71027000D01*
X63394998Y-71027000D01*
X63394998Y-71660000D01*
X63512000Y-71660000D01*
X63512000Y-71876750D01*
X63670250Y-72035000D01*
X64457500Y-72035000D01*
X64457500Y-71660000D01*
X65082500Y-71660000D01*
X65082500Y-72035000D01*
X65395000Y-72035000D01*
X65395000Y-72785000D01*
X65082500Y-72785000D01*
X65082500Y-73160000D01*
X64457500Y-73160000D01*
X64457500Y-72785000D01*
X63670250Y-72785000D01*
X63512000Y-72943250D01*
X63512000Y-73160000D01*
X63394998Y-73160000D01*
X63394998Y-73793000D01*
X64063442Y-73793000D01*
X64006034Y-73803802D01*
X63878401Y-73885931D01*
X63792777Y-74011246D01*
X63762654Y-74160000D01*
X63762654Y-74298000D01*
X62244895Y-74298000D01*
X62000205Y-73931794D01*
X61602786Y-73666248D01*
X61133999Y-73573000D01*
X61086001Y-73573000D01*
X60617214Y-73666248D01*
X60219795Y-73931794D01*
X59954249Y-74329213D01*
X59861001Y-74798000D01*
X55748000Y-74798000D01*
X55748000Y-72258000D01*
X59861001Y-72258000D01*
X59954249Y-72726787D01*
X60219795Y-73124206D01*
X60617214Y-73389752D01*
X61086001Y-73483000D01*
X61133999Y-73483000D01*
X61602786Y-73389752D01*
X62000205Y-73124206D01*
X62265751Y-72726787D01*
X62358999Y-72258000D01*
X62265751Y-71789213D01*
X62000205Y-71391794D01*
X61602786Y-71126248D01*
X61133999Y-71033000D01*
X61086001Y-71033000D01*
X60617214Y-71126248D01*
X60219795Y-71391794D01*
X59954249Y-71789213D01*
X59861001Y-72258000D01*
X55748000Y-72258000D01*
X55748000Y-69718000D01*
X59861001Y-69718000D01*
X59954249Y-70186787D01*
X60219795Y-70584206D01*
X60617214Y-70849752D01*
X61086001Y-70943000D01*
X61133999Y-70943000D01*
X61602786Y-70849752D01*
X62000205Y-70584206D01*
X62265751Y-70186787D01*
X62358999Y-69718000D01*
X62265751Y-69249213D01*
X62000205Y-68851794D01*
X61602786Y-68586248D01*
X61133999Y-68493000D01*
X61086001Y-68493000D01*
X60617214Y-68586248D01*
X60219795Y-68851794D01*
X59954249Y-69249213D01*
X59861001Y-69718000D01*
X55748000Y-69718000D01*
X55748000Y-67178000D01*
X59861001Y-67178000D01*
X59954249Y-67646787D01*
X60219795Y-68044206D01*
X60617214Y-68309752D01*
X61086001Y-68403000D01*
X61133999Y-68403000D01*
X61602786Y-68309752D01*
X62000205Y-68044206D01*
X62265751Y-67646787D01*
X62358999Y-67178000D01*
X62265751Y-66709213D01*
X62000205Y-66311794D01*
X61886771Y-66236000D01*
X63895654Y-66236000D01*
X63895654Y-67936000D01*
X63921802Y-68074966D01*
X64003931Y-68202599D01*
X64129246Y-68288223D01*
X64278000Y-68318346D01*
X65978000Y-68318346D01*
X66116966Y-68292198D01*
X66244599Y-68210069D01*
X66330223Y-68084754D01*
X66360346Y-67936000D01*
X66360346Y-66236000D01*
X66334198Y-66097034D01*
X66252069Y-65969401D01*
X66126754Y-65883777D01*
X65978000Y-65853654D01*
X64278000Y-65853654D01*
X64139034Y-65879802D01*
X64011401Y-65961931D01*
X63925777Y-66087246D01*
X63895654Y-66236000D01*
X61886771Y-66236000D01*
X61602786Y-66046248D01*
X61133999Y-65953000D01*
X61086001Y-65953000D01*
X60617214Y-66046248D01*
X60219795Y-66311794D01*
X59954249Y-66709213D01*
X59861001Y-67178000D01*
X55748000Y-67178000D01*
X55748000Y-64638000D01*
X59861001Y-64638000D01*
X59954249Y-65106787D01*
X60219795Y-65504206D01*
X60617214Y-65769752D01*
X61086001Y-65863000D01*
X61133999Y-65863000D01*
X61602786Y-65769752D01*
X62000205Y-65504206D01*
X62265751Y-65106787D01*
X62358999Y-64638000D01*
X62335926Y-64522001D01*
X63903000Y-64522001D01*
X63903000Y-64569999D01*
X63996248Y-65038786D01*
X64261794Y-65436205D01*
X64659213Y-65701751D01*
X65128000Y-65794999D01*
X65596787Y-65701751D01*
X65994206Y-65436205D01*
X66259752Y-65038786D01*
X66353000Y-64569999D01*
X66353000Y-64522001D01*
X66443000Y-64522001D01*
X66443000Y-64569999D01*
X66536248Y-65038786D01*
X66801794Y-65436205D01*
X67199213Y-65701751D01*
X67668000Y-65794999D01*
X68136787Y-65701751D01*
X68534206Y-65436205D01*
X68725000Y-65150661D01*
X68725000Y-66481339D01*
X68534206Y-66195795D01*
X68136787Y-65930249D01*
X67668000Y-65837001D01*
X67199213Y-65930249D01*
X66801794Y-66195795D01*
X66536248Y-66593214D01*
X66443000Y-67062001D01*
X66443000Y-67109999D01*
X66536248Y-67578786D01*
X66801794Y-67976205D01*
X67199213Y-68241751D01*
X67668000Y-68334999D01*
X68136787Y-68241751D01*
X68534206Y-67976205D01*
X68725000Y-67690661D01*
X68725000Y-68461002D01*
X69358000Y-68461002D01*
X69358000Y-68283880D01*
X69565971Y-68422820D01*
X69783000Y-68340726D01*
X69783000Y-67511000D01*
X70633000Y-67511000D01*
X70633000Y-68340726D01*
X70850029Y-68422820D01*
X71197396Y-68190754D01*
X71544854Y-67728034D01*
X71470581Y-67511000D01*
X70633000Y-67511000D01*
X69783000Y-67511000D01*
X69358000Y-67511000D01*
X69358000Y-67178000D01*
X75101001Y-67178000D01*
X75194249Y-67646787D01*
X75459795Y-68044206D01*
X75857214Y-68309752D01*
X76326001Y-68403000D01*
X76373999Y-68403000D01*
X76842786Y-68309752D01*
X77240205Y-68044206D01*
X77505751Y-67646787D01*
X77598999Y-67178000D01*
X77505751Y-66709213D01*
X77240205Y-66311794D01*
X76842786Y-66046248D01*
X76373999Y-65953000D01*
X76326001Y-65953000D01*
X75857214Y-66046248D01*
X75459795Y-66311794D01*
X75194249Y-66709213D01*
X75101001Y-67178000D01*
X69358000Y-67178000D01*
X69358000Y-66661000D01*
X69783000Y-66661000D01*
X69783000Y-65831274D01*
X69742621Y-65816000D01*
X69783000Y-65800726D01*
X69783000Y-64971000D01*
X70633000Y-64971000D01*
X70633000Y-65800726D01*
X70673379Y-65816000D01*
X70633000Y-65831274D01*
X70633000Y-66661000D01*
X71470581Y-66661000D01*
X71544854Y-66443966D01*
X71197396Y-65981246D01*
X70950048Y-65816000D01*
X71197396Y-65650754D01*
X71544854Y-65188034D01*
X71470581Y-64971000D01*
X70633000Y-64971000D01*
X69783000Y-64971000D01*
X69358000Y-64971000D01*
X69358000Y-64638000D01*
X75101001Y-64638000D01*
X75194249Y-65106787D01*
X75459795Y-65504206D01*
X75857214Y-65769752D01*
X76326001Y-65863000D01*
X76373999Y-65863000D01*
X76842786Y-65769752D01*
X77240205Y-65504206D01*
X77505751Y-65106787D01*
X77598999Y-64638000D01*
X77505751Y-64169213D01*
X77240205Y-63771794D01*
X76842786Y-63506248D01*
X76373999Y-63413000D01*
X76326001Y-63413000D01*
X75857214Y-63506248D01*
X75459795Y-63771794D01*
X75194249Y-64169213D01*
X75101001Y-64638000D01*
X69358000Y-64638000D01*
X69358000Y-64121000D01*
X69783000Y-64121000D01*
X69783000Y-63291274D01*
X70633000Y-63291274D01*
X70633000Y-64121000D01*
X71470581Y-64121000D01*
X71544854Y-63903966D01*
X71197396Y-63441246D01*
X70850029Y-63209180D01*
X70633000Y-63291274D01*
X69783000Y-63291274D01*
X69565971Y-63209180D01*
X69358000Y-63348120D01*
X69358000Y-63170998D01*
X68725000Y-63170998D01*
X68725000Y-63941339D01*
X68534206Y-63655795D01*
X68208000Y-63437832D01*
X68208000Y-62098000D01*
X75101001Y-62098000D01*
X75194249Y-62566787D01*
X75459795Y-62964206D01*
X75857214Y-63229752D01*
X76326001Y-63323000D01*
X76373999Y-63323000D01*
X76842786Y-63229752D01*
X77240205Y-62964206D01*
X77505751Y-62566787D01*
X77598999Y-62098000D01*
X77505751Y-61629213D01*
X77240205Y-61231794D01*
X76842786Y-60966248D01*
X76373999Y-60873000D01*
X76326001Y-60873000D01*
X75857214Y-60966248D01*
X75459795Y-61231794D01*
X75194249Y-61629213D01*
X75101001Y-62098000D01*
X68208000Y-62098000D01*
X68208000Y-57790634D01*
X68279903Y-57718856D01*
X68382883Y-57470855D01*
X68383117Y-57202323D01*
X68280571Y-56954143D01*
X68090856Y-56764097D01*
X67842855Y-56661117D01*
X67574323Y-56660883D01*
X67326143Y-56763429D01*
X67136097Y-56953144D01*
X67033117Y-57201145D01*
X67032883Y-57469677D01*
X67135429Y-57717857D01*
X67208000Y-57790555D01*
X67208000Y-63388501D01*
X67199213Y-63390249D01*
X66801794Y-63655795D01*
X66536248Y-64053214D01*
X66443000Y-64522001D01*
X66353000Y-64522001D01*
X66259752Y-64053214D01*
X65994206Y-63655795D01*
X65596787Y-63390249D01*
X65128000Y-63297001D01*
X64659213Y-63390249D01*
X64261794Y-63655795D01*
X63996248Y-64053214D01*
X63903000Y-64522001D01*
X62335926Y-64522001D01*
X62265751Y-64169213D01*
X62000205Y-63771794D01*
X61602786Y-63506248D01*
X61133999Y-63413000D01*
X61086001Y-63413000D01*
X60617214Y-63506248D01*
X60219795Y-63771794D01*
X59954249Y-64169213D01*
X59861001Y-64638000D01*
X55748000Y-64638000D01*
X55748000Y-62098000D01*
X59861001Y-62098000D01*
X59954249Y-62566787D01*
X60219795Y-62964206D01*
X60617214Y-63229752D01*
X61086001Y-63323000D01*
X61133999Y-63323000D01*
X61602786Y-63229752D01*
X62000205Y-62964206D01*
X62265751Y-62566787D01*
X62358999Y-62098000D01*
X62265751Y-61629213D01*
X62000205Y-61231794D01*
X61602786Y-60966248D01*
X61133999Y-60873000D01*
X61086001Y-60873000D01*
X60617214Y-60966248D01*
X60219795Y-61231794D01*
X59954249Y-61629213D01*
X59861001Y-62098000D01*
X55748000Y-62098000D01*
X55748000Y-59558000D01*
X59861001Y-59558000D01*
X59954249Y-60026787D01*
X60219795Y-60424206D01*
X60617214Y-60689752D01*
X61086001Y-60783000D01*
X61133999Y-60783000D01*
X61602786Y-60689752D01*
X62000205Y-60424206D01*
X62265751Y-60026787D01*
X62358999Y-59558000D01*
X62265751Y-59089213D01*
X62000205Y-58691794D01*
X61602786Y-58426248D01*
X61133999Y-58333000D01*
X61086001Y-58333000D01*
X60617214Y-58426248D01*
X60219795Y-58691794D01*
X59954249Y-59089213D01*
X59861001Y-59558000D01*
X55748000Y-59558000D01*
X55748000Y-57018000D01*
X59861001Y-57018000D01*
X59954249Y-57486787D01*
X60219795Y-57884206D01*
X60617214Y-58149752D01*
X61086001Y-58243000D01*
X61133999Y-58243000D01*
X61602786Y-58149752D01*
X62000205Y-57884206D01*
X62265751Y-57486787D01*
X62358999Y-57018000D01*
X62265751Y-56549213D01*
X62000205Y-56151794D01*
X61602786Y-55886248D01*
X61133999Y-55793000D01*
X61086001Y-55793000D01*
X60617214Y-55886248D01*
X60219795Y-56151794D01*
X59954249Y-56549213D01*
X59861001Y-57018000D01*
X55748000Y-57018000D01*
X55748000Y-55789677D01*
X68802883Y-55789677D01*
X68905429Y-56037857D01*
X69095144Y-56227903D01*
X69343145Y-56330883D01*
X69611677Y-56331117D01*
X69859857Y-56228571D01*
X70049903Y-56038856D01*
X70152883Y-55790855D01*
X70152973Y-55688134D01*
X70331554Y-55509553D01*
X70439940Y-55347342D01*
X70478000Y-55156000D01*
X70478000Y-54516000D01*
X70558000Y-54516000D01*
X70558000Y-54876000D01*
X70596060Y-55067342D01*
X70682981Y-55197427D01*
X70682883Y-55309677D01*
X70785429Y-55557857D01*
X70975144Y-55747903D01*
X71223145Y-55850883D01*
X71491677Y-55851117D01*
X71739857Y-55748571D01*
X71929903Y-55558856D01*
X72032883Y-55310855D01*
X72033117Y-55042323D01*
X71930571Y-54794143D01*
X71768315Y-54631604D01*
X72064524Y-54426000D01*
X73383558Y-54426000D01*
X73373117Y-54451145D01*
X73372883Y-54719677D01*
X73475429Y-54967857D01*
X73665144Y-55157903D01*
X73912047Y-55260427D01*
X74506479Y-56102539D01*
X74488023Y-58031216D01*
X74488476Y-58033612D01*
X74488001Y-58036000D01*
X74506560Y-58129307D01*
X74524250Y-58222913D01*
X74525585Y-58224953D01*
X74526060Y-58227342D01*
X74578939Y-58306480D01*
X74631080Y-58386154D01*
X74633094Y-58387528D01*
X74634447Y-58389553D01*
X75250268Y-59005374D01*
X75194249Y-59089213D01*
X75101001Y-59558000D01*
X75194249Y-60026787D01*
X75459795Y-60424206D01*
X75857214Y-60689752D01*
X76326001Y-60783000D01*
X76373999Y-60783000D01*
X76842786Y-60689752D01*
X77240205Y-60424206D01*
X77505751Y-60026787D01*
X77598999Y-59558000D01*
X77505751Y-59089213D01*
X77240205Y-58691794D01*
X76842786Y-58426248D01*
X76373999Y-58333000D01*
X76326001Y-58333000D01*
X76047503Y-58388397D01*
X75711486Y-58052380D01*
X75857214Y-58149752D01*
X76326001Y-58243000D01*
X76373999Y-58243000D01*
X76842786Y-58149752D01*
X77240205Y-57884206D01*
X77505751Y-57486787D01*
X77598999Y-57018000D01*
X77505751Y-56549213D01*
X77337842Y-56297919D01*
X77393145Y-56320883D01*
X77661677Y-56321117D01*
X77909857Y-56218571D01*
X78099903Y-56028856D01*
X78202883Y-55780855D01*
X78203117Y-55512323D01*
X78100571Y-55264143D01*
X77910856Y-55074097D01*
X77662855Y-54971117D01*
X77489595Y-54970966D01*
X77505751Y-54946787D01*
X77598999Y-54478000D01*
X77505751Y-54009213D01*
X77440428Y-53911450D01*
X77463145Y-53920883D01*
X77731677Y-53921117D01*
X77979857Y-53818571D01*
X78169903Y-53628856D01*
X78272883Y-53380855D01*
X78273117Y-53112323D01*
X78170571Y-52864143D01*
X77980856Y-52674097D01*
X77732855Y-52571117D01*
X77464323Y-52570883D01*
X77370089Y-52609820D01*
X77505751Y-52406787D01*
X77598999Y-51938000D01*
X77505751Y-51469213D01*
X77240205Y-51071794D01*
X76842786Y-50806248D01*
X76373999Y-50713000D01*
X76326001Y-50713000D01*
X75857214Y-50806248D01*
X75459795Y-51071794D01*
X75194249Y-51469213D01*
X75101001Y-51938000D01*
X75194249Y-52406787D01*
X75420903Y-52746000D01*
X74432564Y-52746000D01*
X74320856Y-52634097D01*
X74072855Y-52531117D01*
X73804323Y-52530883D01*
X73556143Y-52633429D01*
X73366097Y-52823144D01*
X73263117Y-53071145D01*
X73262883Y-53339677D01*
X73298551Y-53426000D01*
X71908000Y-53426000D01*
X71855402Y-53436462D01*
X71801782Y-53437412D01*
X71760651Y-53455309D01*
X71716658Y-53464060D01*
X71672068Y-53493855D01*
X71622893Y-53515252D01*
X70772893Y-54105252D01*
X70741741Y-54137528D01*
X70704447Y-54162447D01*
X70674655Y-54207034D01*
X70637408Y-54245624D01*
X70620980Y-54287364D01*
X70596060Y-54324658D01*
X70585597Y-54377260D01*
X70565957Y-54427159D01*
X70566751Y-54472004D01*
X70558000Y-54516000D01*
X70478000Y-54516000D01*
X70478000Y-53900738D01*
X70489903Y-53888856D01*
X70592883Y-53640855D01*
X70593117Y-53372323D01*
X70490571Y-53124143D01*
X70300856Y-52934097D01*
X70052855Y-52831117D01*
X69784323Y-52830883D01*
X69536143Y-52933429D01*
X69346097Y-53123144D01*
X69243117Y-53371145D01*
X69242883Y-53639677D01*
X69345429Y-53887857D01*
X69478000Y-54020659D01*
X69478000Y-54948893D01*
X69445922Y-54980972D01*
X69344323Y-54980883D01*
X69096143Y-55083429D01*
X68906097Y-55273144D01*
X68803117Y-55521145D01*
X68802883Y-55789677D01*
X55748000Y-55789677D01*
X55748000Y-53284677D01*
X59372883Y-53284677D01*
X59475429Y-53532857D01*
X59665144Y-53722903D01*
X59913145Y-53825883D01*
X60076651Y-53826025D01*
X59954249Y-54009213D01*
X59861001Y-54478000D01*
X59954249Y-54946787D01*
X60219795Y-55344206D01*
X60617214Y-55609752D01*
X61086001Y-55703000D01*
X61133999Y-55703000D01*
X61602786Y-55609752D01*
X62000205Y-55344206D01*
X62265751Y-54946787D01*
X62358999Y-54478000D01*
X62265751Y-54009213D01*
X62082048Y-53734282D01*
X62189342Y-53712940D01*
X62351553Y-53604553D01*
X63705107Y-52251000D01*
X66701936Y-52251000D01*
X66725429Y-52307857D01*
X66915144Y-52497903D01*
X67163145Y-52600883D01*
X67431677Y-52601117D01*
X67679857Y-52498571D01*
X67869903Y-52308856D01*
X67972883Y-52060855D01*
X67973117Y-51792323D01*
X67870571Y-51544143D01*
X67680856Y-51354097D01*
X67432855Y-51251117D01*
X67164323Y-51250883D01*
X67150703Y-51256511D01*
X67123000Y-51251000D01*
X63498000Y-51251000D01*
X63306658Y-51289060D01*
X63144446Y-51397447D01*
X62298191Y-52243703D01*
X62358999Y-51938000D01*
X62265751Y-51469213D01*
X62000205Y-51071794D01*
X61602786Y-50806248D01*
X61133999Y-50713000D01*
X61086001Y-50713000D01*
X60617214Y-50806248D01*
X60219795Y-51071794D01*
X59954249Y-51469213D01*
X59861001Y-51938000D01*
X59954249Y-52406787D01*
X60000467Y-52475958D01*
X59914323Y-52475883D01*
X59666143Y-52578429D01*
X59476097Y-52768144D01*
X59373117Y-53016145D01*
X59372883Y-53284677D01*
X55748000Y-53284677D01*
X55748000Y-49398000D01*
X59861001Y-49398000D01*
X59954249Y-49866787D01*
X60219795Y-50264206D01*
X60617214Y-50529752D01*
X61086001Y-50623000D01*
X61133999Y-50623000D01*
X61602786Y-50529752D01*
X62000205Y-50264206D01*
X62265751Y-49866787D01*
X62358999Y-49398000D01*
X62265751Y-48929213D01*
X62000205Y-48531794D01*
X61602786Y-48266248D01*
X61133999Y-48173000D01*
X61086001Y-48173000D01*
X60617214Y-48266248D01*
X60219795Y-48531794D01*
X59954249Y-48929213D01*
X59861001Y-49398000D01*
X55748000Y-49398000D01*
X55748000Y-45759677D01*
X58897883Y-45759677D01*
X59000429Y-46007857D01*
X59190144Y-46197903D01*
X59438145Y-46300883D01*
X59706677Y-46301117D01*
X59954857Y-46198571D01*
X60027555Y-46126000D01*
X60130122Y-46126000D01*
X59954249Y-46389213D01*
X59861001Y-46858000D01*
X59954249Y-47326787D01*
X60219795Y-47724206D01*
X60617214Y-47989752D01*
X61086001Y-48083000D01*
X61133999Y-48083000D01*
X61602786Y-47989752D01*
X62000205Y-47724206D01*
X62265751Y-47326787D01*
X62358999Y-46858000D01*
X62265751Y-46389213D01*
X62188517Y-46273623D01*
X62394447Y-46479554D01*
X62556658Y-46587940D01*
X62748000Y-46626000D01*
X62815894Y-46626000D01*
X64997972Y-48808078D01*
X64997883Y-48909677D01*
X65100429Y-49157857D01*
X65290144Y-49347903D01*
X65538145Y-49450883D01*
X65806677Y-49451117D01*
X66054857Y-49348571D01*
X66244903Y-49158856D01*
X66347883Y-48910855D01*
X66348117Y-48642323D01*
X66258405Y-48425203D01*
X66401553Y-48329553D01*
X66405106Y-48326000D01*
X67215894Y-48326000D01*
X67322972Y-48433078D01*
X67322883Y-48534677D01*
X67425429Y-48782857D01*
X67615144Y-48972903D01*
X67663791Y-48993103D01*
X67134447Y-49522447D01*
X67026060Y-49684658D01*
X66988000Y-49876000D01*
X66988000Y-50273056D01*
X66943117Y-50381145D01*
X66942883Y-50649677D01*
X67045429Y-50897857D01*
X67235144Y-51087903D01*
X67483145Y-51190883D01*
X67751677Y-51191117D01*
X67999857Y-51088571D01*
X68189903Y-50898856D01*
X68292883Y-50650855D01*
X68293117Y-50382323D01*
X68190571Y-50134143D01*
X68063878Y-50007229D01*
X68673107Y-49398000D01*
X75101001Y-49398000D01*
X75194249Y-49866787D01*
X75459795Y-50264206D01*
X75857214Y-50529752D01*
X76326001Y-50623000D01*
X76373999Y-50623000D01*
X76842786Y-50529752D01*
X77240205Y-50264206D01*
X77505751Y-49866787D01*
X77598999Y-49398000D01*
X77505751Y-48929213D01*
X77240205Y-48531794D01*
X76842786Y-48266248D01*
X76373999Y-48173000D01*
X76326001Y-48173000D01*
X75857214Y-48266248D01*
X75459795Y-48531794D01*
X75194249Y-48929213D01*
X75101001Y-49398000D01*
X68673107Y-49398000D01*
X69942817Y-48128290D01*
X69973145Y-48140883D01*
X70241677Y-48141117D01*
X70489857Y-48038571D01*
X70679903Y-47848856D01*
X70782883Y-47600855D01*
X70783117Y-47332323D01*
X70680571Y-47084143D01*
X70490856Y-46894097D01*
X70403926Y-46858000D01*
X75101001Y-46858000D01*
X75194249Y-47326787D01*
X75459795Y-47724206D01*
X75857214Y-47989752D01*
X76326001Y-48083000D01*
X76373999Y-48083000D01*
X76842786Y-47989752D01*
X77240205Y-47724206D01*
X77505751Y-47326787D01*
X77598999Y-46858000D01*
X77505751Y-46389213D01*
X77240205Y-45991794D01*
X76842786Y-45726248D01*
X76373999Y-45633000D01*
X76326001Y-45633000D01*
X75857214Y-45726248D01*
X75459795Y-45991794D01*
X75194249Y-46389213D01*
X75101001Y-46858000D01*
X70403926Y-46858000D01*
X70242855Y-46791117D01*
X69974323Y-46790883D01*
X69726143Y-46893429D01*
X69536097Y-47083144D01*
X69509360Y-47147533D01*
X68590213Y-48066680D01*
X68570571Y-48019143D01*
X68380856Y-47829097D01*
X68132855Y-47726117D01*
X68030134Y-47726027D01*
X67776553Y-47472447D01*
X67614342Y-47364060D01*
X67423000Y-47326000D01*
X66198000Y-47326000D01*
X66006658Y-47364060D01*
X65923639Y-47419532D01*
X63091952Y-44587846D01*
X63227775Y-43926602D01*
X63228092Y-43875812D01*
X63238000Y-43826000D01*
X63238000Y-43588795D01*
X65522805Y-43588795D01*
X65693715Y-44002429D01*
X66009907Y-44319172D01*
X66423242Y-44490804D01*
X66870795Y-44491195D01*
X67284429Y-44320285D01*
X67601172Y-44004093D01*
X67772804Y-43590758D01*
X67772805Y-43588795D01*
X70402805Y-43588795D01*
X70573715Y-44002429D01*
X70889907Y-44319172D01*
X71303242Y-44490804D01*
X71750795Y-44491195D01*
X72164429Y-44320285D01*
X72166717Y-44318000D01*
X75101001Y-44318000D01*
X75194249Y-44786787D01*
X75459795Y-45184206D01*
X75857214Y-45449752D01*
X76326001Y-45543000D01*
X76373999Y-45543000D01*
X76842786Y-45449752D01*
X77240205Y-45184206D01*
X77505751Y-44786787D01*
X77598999Y-44318000D01*
X77505751Y-43849213D01*
X77240205Y-43451794D01*
X76842786Y-43186248D01*
X76373999Y-43093000D01*
X76326001Y-43093000D01*
X75857214Y-43186248D01*
X75459795Y-43451794D01*
X75194249Y-43849213D01*
X75101001Y-44318000D01*
X72166717Y-44318000D01*
X72481172Y-44004093D01*
X72652804Y-43590758D01*
X72653195Y-43143205D01*
X72482285Y-42729571D01*
X72166093Y-42412828D01*
X71752758Y-42241196D01*
X71305205Y-42240805D01*
X70891571Y-42411715D01*
X70574828Y-42727907D01*
X70403196Y-43141242D01*
X70402805Y-43588795D01*
X67772805Y-43588795D01*
X67773195Y-43143205D01*
X67602285Y-42729571D01*
X67286093Y-42412828D01*
X66872758Y-42241196D01*
X66425205Y-42240805D01*
X66011571Y-42411715D01*
X65694828Y-42727907D01*
X65523196Y-43141242D01*
X65522805Y-43588795D01*
X63238000Y-43588795D01*
X63238000Y-41778000D01*
X75101001Y-41778000D01*
X75194249Y-42246787D01*
X75459795Y-42644206D01*
X75857214Y-42909752D01*
X76326001Y-43003000D01*
X76373999Y-43003000D01*
X76842786Y-42909752D01*
X77240205Y-42644206D01*
X77505751Y-42246787D01*
X77598999Y-41778000D01*
X77505751Y-41309213D01*
X77240205Y-40911794D01*
X76842786Y-40646248D01*
X76373999Y-40553000D01*
X76326001Y-40553000D01*
X75857214Y-40646248D01*
X75459795Y-40911794D01*
X75194249Y-41309213D01*
X75101001Y-41778000D01*
X63238000Y-41778000D01*
X63238000Y-38859285D01*
X67852849Y-38859285D01*
X67985779Y-39181000D01*
X68231705Y-39427356D01*
X68553188Y-39560848D01*
X68901285Y-39561151D01*
X69223000Y-39428221D01*
X69469356Y-39182295D01*
X69602848Y-38860812D01*
X69603151Y-38512715D01*
X69470221Y-38191000D01*
X69224295Y-37944644D01*
X68902812Y-37811152D01*
X68554715Y-37810849D01*
X68233000Y-37943779D01*
X67986644Y-38189705D01*
X67853152Y-38511188D01*
X67852849Y-38859285D01*
X63238000Y-38859285D01*
X63238000Y-36959285D01*
X67852849Y-36959285D01*
X67985779Y-37281000D01*
X68231705Y-37527356D01*
X68553188Y-37660848D01*
X68901285Y-37661151D01*
X69175131Y-37548000D01*
X74974998Y-37548000D01*
X74974998Y-38181000D01*
X75745339Y-38181000D01*
X75459795Y-38371794D01*
X75194249Y-38769213D01*
X75101001Y-39238000D01*
X75194249Y-39706787D01*
X75459795Y-40104206D01*
X75857214Y-40369752D01*
X76326001Y-40463000D01*
X76373999Y-40463000D01*
X76842786Y-40369752D01*
X77240205Y-40104206D01*
X77401373Y-39863000D01*
X77751116Y-39863000D01*
X78825756Y-40937640D01*
X78875429Y-41057857D01*
X79065144Y-41247903D01*
X79313145Y-41350883D01*
X79581677Y-41351117D01*
X79829857Y-41248571D01*
X80019903Y-41058856D01*
X80122883Y-40810855D01*
X80123117Y-40542323D01*
X80020571Y-40294143D01*
X79830856Y-40104097D01*
X79709652Y-40053768D01*
X78451942Y-38796058D01*
X78249177Y-38660575D01*
X78010000Y-38613000D01*
X77401373Y-38613000D01*
X77240205Y-38371794D01*
X76954661Y-38181000D01*
X77725002Y-38181000D01*
X77725002Y-37548000D01*
X77547880Y-37548000D01*
X77686820Y-37340029D01*
X77604726Y-37123000D01*
X76775000Y-37123000D01*
X76775000Y-37548000D01*
X75925000Y-37548000D01*
X75925000Y-37123000D01*
X75095274Y-37123000D01*
X75013180Y-37340029D01*
X75152120Y-37548000D01*
X74974998Y-37548000D01*
X69175131Y-37548000D01*
X69223000Y-37528221D01*
X69469356Y-37282295D01*
X69602848Y-36960812D01*
X69603151Y-36612715D01*
X69470221Y-36291000D01*
X69224295Y-36044644D01*
X68902812Y-35911152D01*
X68554715Y-35910849D01*
X68233000Y-36043779D01*
X67986644Y-36289705D01*
X67853152Y-36611188D01*
X67852849Y-36959285D01*
X63238000Y-36959285D01*
X63238000Y-35596000D01*
X63234940Y-35580615D01*
X63237042Y-35565074D01*
X63216010Y-35485446D01*
X63199940Y-35404658D01*
X63191226Y-35391617D01*
X63187221Y-35376453D01*
X63137309Y-35310925D01*
X63091553Y-35242447D01*
X63078514Y-35233734D01*
X63069009Y-35221256D01*
X63061927Y-35215000D01*
X74974998Y-35215000D01*
X74974998Y-35848000D01*
X75152120Y-35848000D01*
X75013180Y-36055971D01*
X75095274Y-36273000D01*
X75925000Y-36273000D01*
X75925000Y-35848000D01*
X76775000Y-35848000D01*
X76775000Y-36273000D01*
X77604726Y-36273000D01*
X77686820Y-36055971D01*
X77547880Y-35848000D01*
X77725002Y-35848000D01*
X77725002Y-35215000D01*
X77512425Y-35215000D01*
X77552223Y-35156754D01*
X77582346Y-35008000D01*
X77582346Y-33308000D01*
X77556198Y-33169034D01*
X77474069Y-33041401D01*
X77348754Y-32955777D01*
X77200000Y-32925654D01*
X75500000Y-32925654D01*
X75361034Y-32951802D01*
X75233401Y-33033931D01*
X75147777Y-33159246D01*
X75117654Y-33308000D01*
X75117654Y-35008000D01*
X75143802Y-35146966D01*
X75187580Y-35215000D01*
X74974998Y-35215000D01*
X63061927Y-35215000D01*
X62342346Y-34579400D01*
X62342346Y-34449434D01*
X63737946Y-34449434D01*
X64085404Y-34912154D01*
X64432771Y-35144220D01*
X64649800Y-35062126D01*
X64649800Y-34232400D01*
X63812219Y-34232400D01*
X63737946Y-34449434D01*
X62342346Y-34449434D01*
X62342346Y-33308000D01*
X62316198Y-33169034D01*
X62313838Y-33165366D01*
X63737946Y-33165366D01*
X63812219Y-33382400D01*
X64649800Y-33382400D01*
X64649800Y-32552674D01*
X65499800Y-32552674D01*
X65499800Y-33382400D01*
X65924800Y-33382400D01*
X65924800Y-34232400D01*
X65499800Y-34232400D01*
X65499800Y-35062126D01*
X65716829Y-35144220D01*
X65924800Y-35005280D01*
X65924800Y-35182402D01*
X66557800Y-35182402D01*
X66557800Y-34412061D01*
X66748594Y-34697605D01*
X67146013Y-34963151D01*
X67614800Y-35056399D01*
X68083587Y-34963151D01*
X68481006Y-34697605D01*
X68746552Y-34300186D01*
X68839800Y-33831399D01*
X68839800Y-33783401D01*
X68929800Y-33783401D01*
X68929800Y-33831399D01*
X69023048Y-34300186D01*
X69288594Y-34697605D01*
X69686013Y-34963151D01*
X70154800Y-35056399D01*
X70623587Y-34963151D01*
X71021006Y-34697605D01*
X71286552Y-34300186D01*
X71379800Y-33831399D01*
X71379800Y-33783401D01*
X71286552Y-33314614D01*
X71047871Y-32957400D01*
X71462454Y-32957400D01*
X71462454Y-34657400D01*
X71488602Y-34796366D01*
X71570731Y-34923999D01*
X71696046Y-35009623D01*
X71844800Y-35039746D01*
X73544800Y-35039746D01*
X73683766Y-35013598D01*
X73811399Y-34931469D01*
X73897023Y-34806154D01*
X73927146Y-34657400D01*
X73927146Y-32957400D01*
X73900998Y-32818434D01*
X73818869Y-32690801D01*
X73693554Y-32605177D01*
X73544800Y-32575054D01*
X71844800Y-32575054D01*
X71705834Y-32601202D01*
X71578201Y-32683331D01*
X71492577Y-32808646D01*
X71462454Y-32957400D01*
X71047871Y-32957400D01*
X71021006Y-32917195D01*
X70623587Y-32651649D01*
X70154800Y-32558401D01*
X69686013Y-32651649D01*
X69288594Y-32917195D01*
X69023048Y-33314614D01*
X68929800Y-33783401D01*
X68839800Y-33783401D01*
X68746552Y-33314614D01*
X68481006Y-32917195D01*
X68083587Y-32651649D01*
X67614800Y-32558401D01*
X67146013Y-32651649D01*
X66748594Y-32917195D01*
X66557800Y-33202739D01*
X66557800Y-32432398D01*
X65924800Y-32432398D01*
X65924800Y-32609520D01*
X65716829Y-32470580D01*
X65499800Y-32552674D01*
X64649800Y-32552674D01*
X64432771Y-32470580D01*
X64085404Y-32702646D01*
X63737946Y-33165366D01*
X62313838Y-33165366D01*
X62234069Y-33041401D01*
X62108754Y-32955777D01*
X61960000Y-32925654D01*
X60260000Y-32925654D01*
X60121034Y-32951802D01*
X59993401Y-33033931D01*
X59907777Y-33159246D01*
X59877654Y-33308000D01*
X59877654Y-35008000D01*
X59903802Y-35146966D01*
X59985931Y-35274599D01*
X60111246Y-35360223D01*
X60260000Y-35390346D01*
X61749906Y-35390346D01*
X62238000Y-35821476D01*
X62238000Y-36187681D01*
X62000205Y-35831794D01*
X61602786Y-35566248D01*
X61133999Y-35473000D01*
X61086001Y-35473000D01*
X60617214Y-35566248D01*
X60219795Y-35831794D01*
X59954249Y-36229213D01*
X59861001Y-36698000D01*
X59954249Y-37166787D01*
X60219795Y-37564206D01*
X60617214Y-37829752D01*
X61086001Y-37923000D01*
X61133999Y-37923000D01*
X61602786Y-37829752D01*
X62000205Y-37564206D01*
X62238000Y-37208319D01*
X62238000Y-38727681D01*
X62000205Y-38371794D01*
X61602786Y-38106248D01*
X61133999Y-38013000D01*
X61086001Y-38013000D01*
X60617214Y-38106248D01*
X60219795Y-38371794D01*
X59954249Y-38769213D01*
X59861001Y-39238000D01*
X59954249Y-39706787D01*
X60219795Y-40104206D01*
X60617214Y-40369752D01*
X61086001Y-40463000D01*
X61133999Y-40463000D01*
X61602786Y-40369752D01*
X62000205Y-40104206D01*
X62238000Y-39748319D01*
X62238000Y-41267681D01*
X62000205Y-40911794D01*
X61602786Y-40646248D01*
X61133999Y-40553000D01*
X61086001Y-40553000D01*
X60617214Y-40646248D01*
X60219795Y-40911794D01*
X59954249Y-41309213D01*
X59861001Y-41778000D01*
X59954249Y-42246787D01*
X60219795Y-42644206D01*
X60617214Y-42909752D01*
X61086001Y-43003000D01*
X61133999Y-43003000D01*
X61602786Y-42909752D01*
X62000205Y-42644206D01*
X62238000Y-42288319D01*
X62238000Y-43775178D01*
X62232894Y-43800038D01*
X62000205Y-43451794D01*
X61602786Y-43186248D01*
X61133999Y-43093000D01*
X61086001Y-43093000D01*
X60617214Y-43186248D01*
X60219795Y-43451794D01*
X59954249Y-43849213D01*
X59861001Y-44318000D01*
X59954249Y-44786787D01*
X60180903Y-45126000D01*
X60027634Y-45126000D01*
X59955856Y-45054097D01*
X59707855Y-44951117D01*
X59439323Y-44950883D01*
X59191143Y-45053429D01*
X59001097Y-45243144D01*
X58898117Y-45491145D01*
X58897883Y-45759677D01*
X55748000Y-45759677D01*
X55748000Y-29868217D01*
X55772931Y-29829472D01*
X55780224Y-29801718D01*
X55791041Y-29726000D01*
X80848000Y-29726000D01*
X80848000Y-94826000D01*
G36*
X67708000Y-74569000D02*
X68208000Y-74569000D01*
X68208000Y-75319000D01*
X67708000Y-75319000D01*
X67708000Y-76168750D01*
X67866250Y-76327000D01*
X68333911Y-76327000D01*
X68353220Y-76319002D01*
X68841000Y-76319002D01*
X68841000Y-75926107D01*
X69194446Y-76279553D01*
X69298738Y-76349239D01*
X69356658Y-76387940D01*
X69548000Y-76426000D01*
X70302765Y-76426000D01*
X69984143Y-76557652D01*
X69597011Y-76944108D01*
X69480790Y-77224000D01*
X65543156Y-77224000D01*
X65428348Y-76946143D01*
X65270000Y-76787518D01*
X65270000Y-76042346D01*
X65395000Y-76042346D01*
X65533966Y-76016198D01*
X65575000Y-75989794D01*
X65575000Y-76319002D01*
X66062780Y-76319002D01*
X66082089Y-76327000D01*
X66549750Y-76327000D01*
X66708000Y-76168750D01*
X66708000Y-75319000D01*
X66208000Y-75319000D01*
X66208000Y-74569000D01*
X66708000Y-74569000D01*
X66708000Y-74194000D01*
X67708000Y-74194000D01*
X67708000Y-74569000D01*
X67708000Y-74569000D01*
G37*
X67708000Y-74569000D02*
X68208000Y-74569000D01*
X68208000Y-75319000D01*
X67708000Y-75319000D01*
X67708000Y-76168750D01*
X67866250Y-76327000D01*
X68333911Y-76327000D01*
X68353220Y-76319002D01*
X68841000Y-76319002D01*
X68841000Y-75926107D01*
X69194446Y-76279553D01*
X69298738Y-76349239D01*
X69356658Y-76387940D01*
X69548000Y-76426000D01*
X70302765Y-76426000D01*
X69984143Y-76557652D01*
X69597011Y-76944108D01*
X69480790Y-77224000D01*
X65543156Y-77224000D01*
X65428348Y-76946143D01*
X65270000Y-76787518D01*
X65270000Y-76042346D01*
X65395000Y-76042346D01*
X65533966Y-76016198D01*
X65575000Y-75989794D01*
X65575000Y-76319002D01*
X66062780Y-76319002D01*
X66082089Y-76327000D01*
X66549750Y-76327000D01*
X66708000Y-76168750D01*
X66708000Y-75319000D01*
X66208000Y-75319000D01*
X66208000Y-74569000D01*
X66708000Y-74569000D01*
X66708000Y-74194000D01*
X67708000Y-74194000D01*
X67708000Y-74569000D01*
M02*
