G04 #@! TF.FileFunction,Soldermask,Bot*
%FSLAX46Y46*%
G04 Gerber Fmt 4.6, Leading zero omitted, Abs format (unit mm)*
G04 Created by KiCad (PCBNEW 4.0.7) date 03/11/20 16:07:27*
%MOMM*%
%LPD*%
G01*
G04 APERTURE LIST*
%ADD10C,0.100000*%
%ADD11C,1.400000*%
%ADD12C,1.900000*%
%ADD13R,2.100000X2.100000*%
%ADD14O,2.100000X2.100000*%
%ADD15C,1.920000*%
%ADD16C,3.100000*%
%ADD17C,2.400000*%
%ADD18R,2.400000X4.200000*%
%ADD19R,2.400000X1.900000*%
%ADD20R,1.650000X1.900000*%
G04 APERTURE END LIST*
D10*
D11*
X68728000Y-36786000D03*
X68728000Y-38686000D03*
D12*
X71528000Y-43366000D03*
X66648000Y-43366000D03*
D13*
X61110000Y-34158000D03*
D14*
X61110000Y-36698000D03*
X61110000Y-39238000D03*
X61110000Y-41778000D03*
X61110000Y-44318000D03*
X61110000Y-46858000D03*
X61110000Y-49398000D03*
X61110000Y-51938000D03*
X61110000Y-54478000D03*
X61110000Y-57018000D03*
X61110000Y-59558000D03*
X61110000Y-62098000D03*
X61110000Y-64638000D03*
X61110000Y-67178000D03*
X61110000Y-69718000D03*
X61110000Y-72258000D03*
X61110000Y-74798000D03*
X61110000Y-77338000D03*
X61110000Y-79878000D03*
X61110000Y-82418000D03*
D13*
X76350000Y-34158000D03*
D14*
X76350000Y-36698000D03*
X76350000Y-39238000D03*
X76350000Y-41778000D03*
X76350000Y-44318000D03*
X76350000Y-46858000D03*
X76350000Y-49398000D03*
X76350000Y-51938000D03*
X76350000Y-54478000D03*
X76350000Y-57018000D03*
X76350000Y-59558000D03*
X76350000Y-62098000D03*
X76350000Y-64638000D03*
X76350000Y-67178000D03*
X76350000Y-69718000D03*
X76350000Y-72258000D03*
X76350000Y-74798000D03*
X76350000Y-77338000D03*
X76350000Y-79878000D03*
X76350000Y-82418000D03*
D13*
X72694800Y-33807400D03*
D14*
X70154800Y-33807400D03*
X67614800Y-33807400D03*
X65074800Y-33807400D03*
D15*
X67828000Y-87706000D03*
X70368000Y-87706000D03*
X70368000Y-89706000D03*
X67828000Y-89706000D03*
D16*
X63098000Y-92406000D03*
X75098000Y-92406000D03*
D13*
X65128000Y-67086000D03*
D14*
X65128000Y-64546000D03*
X67668000Y-67086000D03*
X67668000Y-64546000D03*
X70208000Y-67086000D03*
X70208000Y-64546000D03*
D17*
X64262000Y-82224000D03*
X64262000Y-77724000D03*
X70762000Y-82224000D03*
X70762000Y-77724000D03*
D18*
X73508000Y-72644000D03*
D19*
X67208000Y-72644000D03*
X67208000Y-70344000D03*
X67208000Y-74944000D03*
D20*
X64770000Y-74910000D03*
X64770000Y-72410000D03*
M02*
