G04 #@! TF.FileFunction,Copper,L1,Top,Signal*
%FSLAX46Y46*%
G04 Gerber Fmt 4.6, Leading zero omitted, Abs format (unit mm)*
G04 Created by KiCad (PCBNEW 4.0.7) date 03/11/20 16:07:27*
%MOMM*%
%LPD*%
G01*
G04 APERTURE LIST*
%ADD10C,0.100000*%
%ADD11R,1.500000X1.250000*%
%ADD12C,1.000000*%
%ADD13C,1.500000*%
%ADD14R,1.700000X1.700000*%
%ADD15O,1.700000X1.700000*%
%ADD16C,1.520000*%
%ADD17C,2.700000*%
%ADD18C,2.000000*%
%ADD19R,1.600000X2.200000*%
%ADD20R,1.300000X1.500000*%
%ADD21C,0.600000*%
%ADD22C,0.250000*%
%ADD23C,0.500000*%
G04 APERTURE END LIST*
D10*
G36*
X66888621Y-48544311D02*
X67065398Y-48367534D01*
X67984637Y-49286773D01*
X67807860Y-49463550D01*
X66888621Y-48544311D01*
X66888621Y-48544311D01*
G37*
G36*
X66535068Y-48897864D02*
X66711845Y-48721087D01*
X67631084Y-49640326D01*
X67454307Y-49817103D01*
X66535068Y-48897864D01*
X66535068Y-48897864D01*
G37*
G36*
X66181514Y-49251418D02*
X66358291Y-49074641D01*
X67277530Y-49993880D01*
X67100753Y-50170657D01*
X66181514Y-49251418D01*
X66181514Y-49251418D01*
G37*
G36*
X65827961Y-49604971D02*
X66004738Y-49428194D01*
X66923977Y-50347433D01*
X66747200Y-50524210D01*
X65827961Y-49604971D01*
X65827961Y-49604971D01*
G37*
G36*
X65474408Y-49958524D02*
X65651185Y-49781747D01*
X66570424Y-50700986D01*
X66393647Y-50877763D01*
X65474408Y-49958524D01*
X65474408Y-49958524D01*
G37*
G36*
X65120854Y-50312078D02*
X65297631Y-50135301D01*
X66216870Y-51054540D01*
X66040093Y-51231317D01*
X65120854Y-50312078D01*
X65120854Y-50312078D01*
G37*
G36*
X64767301Y-50665631D02*
X64944078Y-50488854D01*
X65863317Y-51408093D01*
X65686540Y-51584870D01*
X64767301Y-50665631D01*
X64767301Y-50665631D01*
G37*
G36*
X64413747Y-51019185D02*
X64590524Y-50842408D01*
X65509763Y-51761647D01*
X65332986Y-51938424D01*
X64413747Y-51019185D01*
X64413747Y-51019185D01*
G37*
G36*
X64060194Y-51372738D02*
X64236971Y-51195961D01*
X65156210Y-52115200D01*
X64979433Y-52291977D01*
X64060194Y-51372738D01*
X64060194Y-51372738D01*
G37*
G36*
X63706641Y-51726291D02*
X63883418Y-51549514D01*
X64802657Y-52468753D01*
X64625880Y-52645530D01*
X63706641Y-51726291D01*
X63706641Y-51726291D01*
G37*
G36*
X63353087Y-52079845D02*
X63529864Y-51903068D01*
X64449103Y-52822307D01*
X64272326Y-52999084D01*
X63353087Y-52079845D01*
X63353087Y-52079845D01*
G37*
G36*
X62999534Y-52433398D02*
X63176311Y-52256621D01*
X64095550Y-53175860D01*
X63918773Y-53352637D01*
X62999534Y-52433398D01*
X62999534Y-52433398D01*
G37*
G36*
X63176311Y-55615379D02*
X62999534Y-55438602D01*
X63918773Y-54519363D01*
X64095550Y-54696140D01*
X63176311Y-55615379D01*
X63176311Y-55615379D01*
G37*
G36*
X63529864Y-55968932D02*
X63353087Y-55792155D01*
X64272326Y-54872916D01*
X64449103Y-55049693D01*
X63529864Y-55968932D01*
X63529864Y-55968932D01*
G37*
G36*
X63883418Y-56322486D02*
X63706641Y-56145709D01*
X64625880Y-55226470D01*
X64802657Y-55403247D01*
X63883418Y-56322486D01*
X63883418Y-56322486D01*
G37*
G36*
X64236971Y-56676039D02*
X64060194Y-56499262D01*
X64979433Y-55580023D01*
X65156210Y-55756800D01*
X64236971Y-56676039D01*
X64236971Y-56676039D01*
G37*
G36*
X64590524Y-57029592D02*
X64413747Y-56852815D01*
X65332986Y-55933576D01*
X65509763Y-56110353D01*
X64590524Y-57029592D01*
X64590524Y-57029592D01*
G37*
G36*
X64944078Y-57383146D02*
X64767301Y-57206369D01*
X65686540Y-56287130D01*
X65863317Y-56463907D01*
X64944078Y-57383146D01*
X64944078Y-57383146D01*
G37*
G36*
X65297631Y-57736699D02*
X65120854Y-57559922D01*
X66040093Y-56640683D01*
X66216870Y-56817460D01*
X65297631Y-57736699D01*
X65297631Y-57736699D01*
G37*
G36*
X65651185Y-58090253D02*
X65474408Y-57913476D01*
X66393647Y-56994237D01*
X66570424Y-57171014D01*
X65651185Y-58090253D01*
X65651185Y-58090253D01*
G37*
G36*
X66004738Y-58443806D02*
X65827961Y-58267029D01*
X66747200Y-57347790D01*
X66923977Y-57524567D01*
X66004738Y-58443806D01*
X66004738Y-58443806D01*
G37*
G36*
X66358291Y-58797359D02*
X66181514Y-58620582D01*
X67100753Y-57701343D01*
X67277530Y-57878120D01*
X66358291Y-58797359D01*
X66358291Y-58797359D01*
G37*
G36*
X66711845Y-59150913D02*
X66535068Y-58974136D01*
X67454307Y-58054897D01*
X67631084Y-58231674D01*
X66711845Y-59150913D01*
X66711845Y-59150913D01*
G37*
G36*
X67065398Y-59504466D02*
X66888621Y-59327689D01*
X67807860Y-58408450D01*
X67984637Y-58585227D01*
X67065398Y-59504466D01*
X67065398Y-59504466D01*
G37*
G36*
X69151363Y-58585227D02*
X69328140Y-58408450D01*
X70247379Y-59327689D01*
X70070602Y-59504466D01*
X69151363Y-58585227D01*
X69151363Y-58585227D01*
G37*
G36*
X69504916Y-58231674D02*
X69681693Y-58054897D01*
X70600932Y-58974136D01*
X70424155Y-59150913D01*
X69504916Y-58231674D01*
X69504916Y-58231674D01*
G37*
G36*
X69858470Y-57878120D02*
X70035247Y-57701343D01*
X70954486Y-58620582D01*
X70777709Y-58797359D01*
X69858470Y-57878120D01*
X69858470Y-57878120D01*
G37*
G36*
X70212023Y-57524567D02*
X70388800Y-57347790D01*
X71308039Y-58267029D01*
X71131262Y-58443806D01*
X70212023Y-57524567D01*
X70212023Y-57524567D01*
G37*
G36*
X70565576Y-57171014D02*
X70742353Y-56994237D01*
X71661592Y-57913476D01*
X71484815Y-58090253D01*
X70565576Y-57171014D01*
X70565576Y-57171014D01*
G37*
G36*
X70919130Y-56817460D02*
X71095907Y-56640683D01*
X72015146Y-57559922D01*
X71838369Y-57736699D01*
X70919130Y-56817460D01*
X70919130Y-56817460D01*
G37*
G36*
X71272683Y-56463907D02*
X71449460Y-56287130D01*
X72368699Y-57206369D01*
X72191922Y-57383146D01*
X71272683Y-56463907D01*
X71272683Y-56463907D01*
G37*
G36*
X71626237Y-56110353D02*
X71803014Y-55933576D01*
X72722253Y-56852815D01*
X72545476Y-57029592D01*
X71626237Y-56110353D01*
X71626237Y-56110353D01*
G37*
G36*
X71979790Y-55756800D02*
X72156567Y-55580023D01*
X73075806Y-56499262D01*
X72899029Y-56676039D01*
X71979790Y-55756800D01*
X71979790Y-55756800D01*
G37*
G36*
X72333343Y-55403247D02*
X72510120Y-55226470D01*
X73429359Y-56145709D01*
X73252582Y-56322486D01*
X72333343Y-55403247D01*
X72333343Y-55403247D01*
G37*
G36*
X72686897Y-55049693D02*
X72863674Y-54872916D01*
X73782913Y-55792155D01*
X73606136Y-55968932D01*
X72686897Y-55049693D01*
X72686897Y-55049693D01*
G37*
G36*
X73040450Y-54696140D02*
X73217227Y-54519363D01*
X74136466Y-55438602D01*
X73959689Y-55615379D01*
X73040450Y-54696140D01*
X73040450Y-54696140D01*
G37*
G36*
X73217227Y-53352637D02*
X73040450Y-53175860D01*
X73959689Y-52256621D01*
X74136466Y-52433398D01*
X73217227Y-53352637D01*
X73217227Y-53352637D01*
G37*
G36*
X72863674Y-52999084D02*
X72686897Y-52822307D01*
X73606136Y-51903068D01*
X73782913Y-52079845D01*
X72863674Y-52999084D01*
X72863674Y-52999084D01*
G37*
G36*
X72510120Y-52645530D02*
X72333343Y-52468753D01*
X73252582Y-51549514D01*
X73429359Y-51726291D01*
X72510120Y-52645530D01*
X72510120Y-52645530D01*
G37*
G36*
X72156567Y-52291977D02*
X71979790Y-52115200D01*
X72899029Y-51195961D01*
X73075806Y-51372738D01*
X72156567Y-52291977D01*
X72156567Y-52291977D01*
G37*
G36*
X71803014Y-51938424D02*
X71626237Y-51761647D01*
X72545476Y-50842408D01*
X72722253Y-51019185D01*
X71803014Y-51938424D01*
X71803014Y-51938424D01*
G37*
G36*
X71449460Y-51584870D02*
X71272683Y-51408093D01*
X72191922Y-50488854D01*
X72368699Y-50665631D01*
X71449460Y-51584870D01*
X71449460Y-51584870D01*
G37*
G36*
X71095907Y-51231317D02*
X70919130Y-51054540D01*
X71838369Y-50135301D01*
X72015146Y-50312078D01*
X71095907Y-51231317D01*
X71095907Y-51231317D01*
G37*
G36*
X70742353Y-50877763D02*
X70565576Y-50700986D01*
X71484815Y-49781747D01*
X71661592Y-49958524D01*
X70742353Y-50877763D01*
X70742353Y-50877763D01*
G37*
G36*
X70388800Y-50524210D02*
X70212023Y-50347433D01*
X71131262Y-49428194D01*
X71308039Y-49604971D01*
X70388800Y-50524210D01*
X70388800Y-50524210D01*
G37*
G36*
X70035247Y-50170657D02*
X69858470Y-49993880D01*
X70777709Y-49074641D01*
X70954486Y-49251418D01*
X70035247Y-50170657D01*
X70035247Y-50170657D01*
G37*
G36*
X69681693Y-49817103D02*
X69504916Y-49640326D01*
X70424155Y-48721087D01*
X70600932Y-48897864D01*
X69681693Y-49817103D01*
X69681693Y-49817103D01*
G37*
G36*
X69328140Y-49463550D02*
X69151363Y-49286773D01*
X70070602Y-48367534D01*
X70247379Y-48544311D01*
X69328140Y-49463550D01*
X69328140Y-49463550D01*
G37*
D11*
X66648000Y-46876000D03*
X64148000Y-46876000D03*
D12*
X68728000Y-36786000D03*
X68728000Y-38686000D03*
D13*
X71528000Y-43366000D03*
X66648000Y-43366000D03*
D11*
X66318000Y-40006000D03*
X63818000Y-40006000D03*
D14*
X61110000Y-34158000D03*
D15*
X61110000Y-36698000D03*
X61110000Y-39238000D03*
X61110000Y-41778000D03*
X61110000Y-44318000D03*
X61110000Y-46858000D03*
X61110000Y-49398000D03*
X61110000Y-51938000D03*
X61110000Y-54478000D03*
X61110000Y-57018000D03*
X61110000Y-59558000D03*
X61110000Y-62098000D03*
X61110000Y-64638000D03*
X61110000Y-67178000D03*
X61110000Y-69718000D03*
X61110000Y-72258000D03*
X61110000Y-74798000D03*
X61110000Y-77338000D03*
X61110000Y-79878000D03*
X61110000Y-82418000D03*
D14*
X76350000Y-34158000D03*
D15*
X76350000Y-36698000D03*
X76350000Y-39238000D03*
X76350000Y-41778000D03*
X76350000Y-44318000D03*
X76350000Y-46858000D03*
X76350000Y-49398000D03*
X76350000Y-51938000D03*
X76350000Y-54478000D03*
X76350000Y-57018000D03*
X76350000Y-59558000D03*
X76350000Y-62098000D03*
X76350000Y-64638000D03*
X76350000Y-67178000D03*
X76350000Y-69718000D03*
X76350000Y-72258000D03*
X76350000Y-74798000D03*
X76350000Y-77338000D03*
X76350000Y-79878000D03*
X76350000Y-82418000D03*
D14*
X72694800Y-33807400D03*
D15*
X70154800Y-33807400D03*
X67614800Y-33807400D03*
X65074800Y-33807400D03*
D16*
X67828000Y-87706000D03*
X70368000Y-87706000D03*
X70368000Y-89706000D03*
X67828000Y-89706000D03*
D17*
X63098000Y-92406000D03*
X75098000Y-92406000D03*
D14*
X65128000Y-67086000D03*
D15*
X65128000Y-64546000D03*
X67668000Y-67086000D03*
X67668000Y-64546000D03*
X70208000Y-67086000D03*
X70208000Y-64546000D03*
D18*
X64262000Y-82224000D03*
X64262000Y-77724000D03*
X70762000Y-82224000D03*
X70762000Y-77724000D03*
D19*
X71628000Y-74144000D03*
X71628000Y-71144000D03*
D11*
X70868000Y-39926000D03*
X73368000Y-39926000D03*
D19*
X67564000Y-74144000D03*
X67564000Y-71144000D03*
D11*
X71088000Y-36576000D03*
X73588000Y-36576000D03*
X66418000Y-36746000D03*
X63918000Y-36746000D03*
D20*
X73152000Y-77644000D03*
X73152000Y-80344000D03*
X78740000Y-86026000D03*
X78740000Y-88726000D03*
X76708000Y-86026000D03*
X76708000Y-88726000D03*
X58748000Y-85776000D03*
X58748000Y-88476000D03*
D11*
X69528000Y-60866000D03*
X67028000Y-60866000D03*
D20*
X60973000Y-88501000D03*
X60973000Y-85801000D03*
X64770000Y-72310000D03*
X64770000Y-75010000D03*
D21*
X65673000Y-48776000D03*
X59573000Y-45626000D03*
X65786000Y-93472000D03*
X69342000Y-93218000D03*
X71882000Y-92964000D03*
X59944000Y-92710000D03*
X59182000Y-90678000D03*
X57658000Y-90424000D03*
X57150000Y-88392000D03*
X57150000Y-86106000D03*
X57912000Y-83820000D03*
X58166000Y-81280000D03*
X58420000Y-78486000D03*
X58166000Y-76200000D03*
X58166000Y-73406000D03*
X57912000Y-70866000D03*
X57912000Y-68326000D03*
X58166000Y-66040000D03*
X58166000Y-63500000D03*
X57912000Y-61468000D03*
X57658000Y-58420000D03*
X57912000Y-55626000D03*
X57912000Y-53340000D03*
X57912000Y-50800000D03*
X58166000Y-48260000D03*
X57912000Y-45720000D03*
X58166000Y-43434000D03*
X58166000Y-41402000D03*
X58166000Y-38608000D03*
X57912000Y-35560000D03*
X58674000Y-32004000D03*
X61468000Y-31242000D03*
X64008000Y-30988000D03*
X66548000Y-31242000D03*
X68834000Y-31242000D03*
X71120000Y-31242000D03*
X74168000Y-31242000D03*
X76708000Y-31242000D03*
X78740000Y-31496000D03*
X80010000Y-33020000D03*
X80010000Y-35306000D03*
X80010000Y-38100000D03*
X80264000Y-40640000D03*
X80264000Y-42926000D03*
X80264000Y-45720000D03*
X80518000Y-48260000D03*
X80264000Y-50800000D03*
X80264000Y-53086000D03*
X80264000Y-55626000D03*
X80264000Y-58420000D03*
X80264000Y-60706000D03*
X80264000Y-63500000D03*
X80518000Y-66040000D03*
X80518000Y-68580000D03*
X80264000Y-71120000D03*
X80264000Y-73406000D03*
X80264000Y-75946000D03*
X80264000Y-78740000D03*
X80264000Y-81280000D03*
X80518000Y-83820000D03*
X81026000Y-85598000D03*
X81026000Y-88138000D03*
X80772000Y-90170000D03*
X79502000Y-91440000D03*
X78232000Y-92456000D03*
X67473000Y-76376000D03*
X72898000Y-75601000D03*
X72898000Y-38551000D03*
X66748000Y-52726000D03*
X63668000Y-41296000D03*
X63968000Y-43016000D03*
X65858000Y-41956000D03*
X67708000Y-41836000D03*
X69418000Y-42386000D03*
X70568000Y-44726000D03*
X68898000Y-44946000D03*
X66828000Y-45326000D03*
X71108000Y-47986000D03*
X69778000Y-50666000D03*
X69368000Y-59776000D03*
X65688000Y-60346000D03*
X74123000Y-56251000D03*
X67618000Y-50516000D03*
X70108000Y-47466000D03*
X67298000Y-51926000D03*
X60048000Y-53151000D03*
X64848000Y-70726000D03*
X71173000Y-75926000D03*
X71358000Y-55176000D03*
X77528000Y-55646000D03*
X73938000Y-53206000D03*
X77598000Y-53246000D03*
X67998000Y-48401000D03*
X79448000Y-40676000D03*
X71120000Y-69342000D03*
X74048000Y-54586000D03*
X69918000Y-53506000D03*
X69478000Y-55656000D03*
X67708000Y-57336000D03*
D22*
X59072998Y-84101000D02*
X59072998Y-85451002D01*
X59072998Y-85451002D02*
X58748000Y-85776000D01*
X59573000Y-45626000D02*
X59573000Y-52451000D01*
X59072998Y-52951002D02*
X59072998Y-84101000D01*
X59072998Y-84101000D02*
X59072998Y-84321002D01*
X59573000Y-52451000D02*
X59072998Y-52951002D01*
X67083076Y-49269095D02*
X67083076Y-49211076D01*
X67083076Y-49211076D02*
X66373000Y-48501000D01*
X66373000Y-48501000D02*
X65948000Y-48501000D01*
X65948000Y-48501000D02*
X65673000Y-48776000D01*
X59573000Y-45626000D02*
X59298000Y-45351000D01*
X59298000Y-45351000D02*
X59298000Y-37901000D01*
X59298000Y-37901000D02*
X60501000Y-36698000D01*
X60501000Y-36698000D02*
X61110000Y-36698000D01*
X63098000Y-92406000D02*
X64720000Y-92406000D01*
X64720000Y-92406000D02*
X65786000Y-93472000D01*
X69342000Y-93218000D02*
X69596000Y-92964000D01*
X69596000Y-92964000D02*
X71882000Y-92964000D01*
X59944000Y-91440000D02*
X59944000Y-92710000D01*
X59182000Y-90678000D02*
X59944000Y-91440000D01*
X57658000Y-88900000D02*
X57658000Y-90424000D01*
X57150000Y-88392000D02*
X57658000Y-88900000D01*
X57150000Y-84582000D02*
X57150000Y-86106000D01*
X57912000Y-83820000D02*
X57150000Y-84582000D01*
X58166000Y-78740000D02*
X58166000Y-81280000D01*
X58420000Y-78486000D02*
X58166000Y-78740000D01*
X58166000Y-73406000D02*
X58166000Y-76200000D01*
X57912000Y-68326000D02*
X57912000Y-70866000D01*
X58166000Y-63500000D02*
X58166000Y-66040000D01*
X57912000Y-58674000D02*
X57912000Y-61468000D01*
X57658000Y-58420000D02*
X57912000Y-58674000D01*
X57912000Y-53340000D02*
X57912000Y-55626000D01*
X57912000Y-48514000D02*
X57912000Y-50800000D01*
X58166000Y-48260000D02*
X57912000Y-48514000D01*
X57912000Y-43688000D02*
X57912000Y-45720000D01*
X58166000Y-43434000D02*
X57912000Y-43688000D01*
X58166000Y-38608000D02*
X58166000Y-41402000D01*
X57912000Y-32766000D02*
X57912000Y-35560000D01*
X58674000Y-32004000D02*
X57912000Y-32766000D01*
X63754000Y-31242000D02*
X61468000Y-31242000D01*
X64008000Y-30988000D02*
X63754000Y-31242000D01*
X66802000Y-31242000D02*
X66548000Y-31242000D01*
X68834000Y-31242000D02*
X66802000Y-31242000D01*
X74168000Y-31242000D02*
X71120000Y-31242000D01*
X78486000Y-31242000D02*
X76708000Y-31242000D01*
X78740000Y-31496000D02*
X78486000Y-31242000D01*
X80010000Y-35306000D02*
X80010000Y-33020000D01*
X80010000Y-40386000D02*
X80010000Y-38100000D01*
X80264000Y-40640000D02*
X80010000Y-40386000D01*
X80264000Y-45720000D02*
X80264000Y-42926000D01*
X80518000Y-50546000D02*
X80518000Y-48260000D01*
X80264000Y-50800000D02*
X80518000Y-50546000D01*
X80264000Y-55626000D02*
X80264000Y-53086000D01*
X80264000Y-60706000D02*
X80264000Y-58420000D01*
X80264000Y-65786000D02*
X80264000Y-63500000D01*
X80518000Y-66040000D02*
X80264000Y-65786000D01*
X80518000Y-70866000D02*
X80518000Y-68580000D01*
X80264000Y-71120000D02*
X80518000Y-70866000D01*
X80264000Y-75946000D02*
X80264000Y-73406000D01*
X80264000Y-81280000D02*
X80264000Y-78740000D01*
X80518000Y-84074000D02*
X80518000Y-83820000D01*
X81026000Y-84582000D02*
X80518000Y-84074000D01*
X81026000Y-85598000D02*
X81026000Y-84582000D01*
X81026000Y-89916000D02*
X81026000Y-88138000D01*
X80772000Y-90170000D02*
X81026000Y-89916000D01*
X79248000Y-91440000D02*
X79502000Y-91440000D01*
X78232000Y-92456000D02*
X79248000Y-91440000D01*
D23*
X67564000Y-74144000D02*
X67564000Y-76285000D01*
X67564000Y-76285000D02*
X67473000Y-76376000D01*
X71628000Y-74144000D02*
X71628000Y-74331000D01*
X71628000Y-74331000D02*
X72898000Y-75601000D01*
D22*
X73368000Y-39926000D02*
X73368000Y-39021000D01*
X73368000Y-39021000D02*
X72898000Y-38551000D01*
X73588000Y-36576000D02*
X76228000Y-36576000D01*
X76228000Y-36576000D02*
X76350000Y-36698000D01*
X64961755Y-51390416D02*
X64961755Y-51461124D01*
X64961755Y-51461124D02*
X66226631Y-52726000D01*
X66226631Y-52726000D02*
X66748000Y-52726000D01*
X63818000Y-40006000D02*
X63818000Y-41146000D01*
X63818000Y-41146000D02*
X63668000Y-41296000D01*
X66648000Y-46876000D02*
X66648000Y-45506000D01*
X64088000Y-43136000D02*
X63968000Y-43016000D01*
X64678000Y-43136000D02*
X64088000Y-43136000D01*
X65858000Y-41956000D02*
X64678000Y-43136000D01*
X68868000Y-41836000D02*
X67708000Y-41836000D01*
X69418000Y-42386000D02*
X68868000Y-41836000D01*
X69118000Y-44726000D02*
X70568000Y-44726000D01*
X68898000Y-44946000D02*
X69118000Y-44726000D01*
X66648000Y-45506000D02*
X66828000Y-45326000D01*
X70052924Y-49269095D02*
X70084905Y-49269095D01*
X70084905Y-49269095D02*
X71108000Y-48246000D01*
X71108000Y-48246000D02*
X71108000Y-47986000D01*
X70052924Y-49269095D02*
X70024905Y-49269095D01*
X70024905Y-49269095D02*
X69378000Y-49916000D01*
X69378000Y-49916000D02*
X69378000Y-50266000D01*
X69378000Y-50266000D02*
X69778000Y-50666000D01*
X69528000Y-60866000D02*
X69528000Y-59936000D01*
X69528000Y-59936000D02*
X69368000Y-59776000D01*
X67083076Y-58602905D02*
X67041095Y-58602905D01*
X67041095Y-58602905D02*
X65642301Y-60001699D01*
X65642301Y-60001699D02*
X65642301Y-60300301D01*
X65642301Y-60300301D02*
X65688000Y-60346000D01*
X73234905Y-55420924D02*
X73292924Y-55420924D01*
X73292924Y-55420924D02*
X74123000Y-56251000D01*
X73234905Y-55420924D02*
X73234905Y-55432905D01*
X70868000Y-39926000D02*
X70868000Y-42706000D01*
X70868000Y-42706000D02*
X71528000Y-43366000D01*
X66022416Y-50329755D02*
X66022416Y-50325416D01*
X66022416Y-50325416D02*
X64923000Y-49226000D01*
X68533000Y-43366000D02*
X71528000Y-43366000D01*
X68023000Y-43876000D02*
X68533000Y-43366000D01*
X68023000Y-45901000D02*
X68023000Y-43876000D01*
X68073000Y-45951000D02*
X68023000Y-45901000D01*
X68073000Y-47426000D02*
X68073000Y-45951000D01*
X67623000Y-47876000D02*
X68073000Y-47426000D01*
X65634398Y-47876000D02*
X67623000Y-47876000D01*
X64923000Y-48587398D02*
X65634398Y-47876000D01*
X64923000Y-49226000D02*
X64923000Y-48587398D01*
X66022416Y-50329755D02*
X66022416Y-50280416D01*
X66318000Y-40006000D02*
X66318000Y-40456000D01*
X66318000Y-40456000D02*
X66648000Y-40786000D01*
X66648000Y-40786000D02*
X66648000Y-43366000D01*
X65668862Y-50683309D02*
X65655309Y-50683309D01*
X65655309Y-50683309D02*
X64423000Y-49451000D01*
X65608000Y-43366000D02*
X66648000Y-43366000D01*
X65323000Y-43651000D02*
X65608000Y-43366000D01*
X65323000Y-47551000D02*
X65323000Y-43651000D01*
X64998000Y-47876000D02*
X65323000Y-47551000D01*
X64798000Y-47876000D02*
X64998000Y-47876000D01*
X64423000Y-48251000D02*
X64798000Y-47876000D01*
X64423000Y-49451000D02*
X64423000Y-48251000D01*
X65668862Y-50683309D02*
X65665309Y-50683309D01*
X73598000Y-43976000D02*
X73598000Y-43586000D01*
X67618000Y-50496000D02*
X67618000Y-50516000D01*
X70108000Y-47466000D02*
X73598000Y-43976000D01*
X66744649Y-49622649D02*
X67618000Y-50496000D01*
X72258000Y-37746000D02*
X71088000Y-36576000D01*
X73538000Y-37746000D02*
X72258000Y-37746000D01*
X74638000Y-38846000D02*
X73538000Y-37746000D01*
X74638000Y-42546000D02*
X74638000Y-38846000D01*
X73598000Y-43586000D02*
X74638000Y-42546000D01*
X66729522Y-49622649D02*
X66744649Y-49622649D01*
X71088000Y-36576000D02*
X70677998Y-36576000D01*
X70677998Y-36576000D02*
X70002998Y-35901000D01*
X62743000Y-37875000D02*
X61110000Y-39238000D01*
X62743000Y-36076000D02*
X62743000Y-37875000D01*
X62998000Y-35551000D02*
X62743000Y-36076000D01*
X67698000Y-35551000D02*
X62998000Y-35551000D01*
X68048000Y-35901000D02*
X67698000Y-35551000D01*
X70002998Y-35901000D02*
X68048000Y-35901000D01*
X68728000Y-38686000D02*
X68978000Y-38686000D01*
X68978000Y-38686000D02*
X71088000Y-36576000D01*
X72948000Y-43939602D02*
X72948000Y-41876000D01*
X69323000Y-46401000D02*
X69698000Y-46026000D01*
X69698000Y-46026000D02*
X70861602Y-46026000D01*
X70861602Y-46026000D02*
X72948000Y-43939602D01*
X68978000Y-46746000D02*
X69323000Y-46401000D01*
X68978000Y-48896000D02*
X68978000Y-46746000D01*
X68398000Y-49476000D02*
X68978000Y-48896000D01*
X68398000Y-50796000D02*
X68398000Y-49476000D01*
X67988000Y-51206000D02*
X68398000Y-50796000D01*
X67258000Y-51206000D02*
X67988000Y-51206000D01*
X66918000Y-50866000D02*
X67258000Y-51206000D01*
X66918000Y-50476000D02*
X66918000Y-50866000D01*
X66418202Y-49976202D02*
X66918000Y-50476000D01*
X66418000Y-37706000D02*
X66418000Y-36746000D01*
X68338000Y-39626000D02*
X66418000Y-37706000D01*
X69198000Y-39626000D02*
X68338000Y-39626000D01*
X70228000Y-38596000D02*
X69198000Y-39626000D01*
X71668000Y-38596000D02*
X70228000Y-38596000D01*
X71978000Y-38906000D02*
X71668000Y-38596000D01*
X71978000Y-40906000D02*
X71978000Y-38906000D01*
X72948000Y-41876000D02*
X71978000Y-40906000D01*
X66375969Y-49976202D02*
X66418202Y-49976202D01*
X66418000Y-36746000D02*
X66378000Y-36746000D01*
X66378000Y-36746000D02*
X64998000Y-38126000D01*
X64431000Y-42038000D02*
X61120000Y-42038000D01*
X64998000Y-41201000D02*
X64431000Y-42038000D01*
X64998000Y-38126000D02*
X64998000Y-41201000D01*
X66418000Y-36746000D02*
X68688000Y-36746000D01*
X68688000Y-36746000D02*
X68728000Y-36786000D01*
X64770000Y-75010000D02*
X64770000Y-77216000D01*
X64770000Y-77216000D02*
X64262000Y-77724000D01*
X65315309Y-51036862D02*
X65315309Y-51043309D01*
X65315309Y-51043309D02*
X66148000Y-51876000D01*
X66148000Y-51876000D02*
X67248000Y-51876000D01*
X67248000Y-51876000D02*
X67298000Y-51926000D01*
X60048000Y-53151000D02*
X59523000Y-53676000D01*
X59523000Y-53676000D02*
X59523000Y-74126000D01*
X59523000Y-74126000D02*
X60195000Y-74798000D01*
X60195000Y-74798000D02*
X61110000Y-74798000D01*
X64770000Y-77216000D02*
X64262000Y-77724000D01*
X76708000Y-88726000D02*
X76373000Y-88726000D01*
X76373000Y-88726000D02*
X75348000Y-89751000D01*
X75348000Y-89751000D02*
X72173000Y-89751000D01*
X72173000Y-89751000D02*
X70923002Y-91000998D01*
X70923002Y-91000998D02*
X69272998Y-91000998D01*
X69272998Y-91000998D02*
X68998000Y-90726000D01*
X68998000Y-90726000D02*
X68998000Y-88876000D01*
X68998000Y-88876000D02*
X67828000Y-87706000D01*
X73152000Y-80344000D02*
X73291000Y-80344000D01*
X73291000Y-80344000D02*
X74548000Y-81601000D01*
X74548000Y-81601000D02*
X74548000Y-86876000D01*
X74548000Y-86876000D02*
X75173000Y-87501000D01*
X75173000Y-87501000D02*
X77515000Y-87501000D01*
X77515000Y-87501000D02*
X78740000Y-88726000D01*
X78740000Y-88726000D02*
X78740000Y-89159000D01*
X78740000Y-89159000D02*
X77623000Y-90276000D01*
X77623000Y-90276000D02*
X72448000Y-90276000D01*
X72448000Y-90276000D02*
X71273000Y-91451000D01*
X71273000Y-91451000D02*
X68498000Y-91451000D01*
X68498000Y-91451000D02*
X67828000Y-90781000D01*
X67828000Y-90781000D02*
X67828000Y-89706000D01*
D23*
X67564000Y-71144000D02*
X67416000Y-71144000D01*
X67416000Y-71144000D02*
X66398000Y-70126000D01*
X65448000Y-70126000D02*
X64848000Y-70726000D01*
X66398000Y-70126000D02*
X65448000Y-70126000D01*
X64770000Y-70804000D02*
X64770000Y-72310000D01*
X64848000Y-70726000D02*
X64770000Y-70804000D01*
D22*
X71173000Y-75926000D02*
X71323000Y-76076000D01*
X71323000Y-76076000D02*
X71584000Y-76076000D01*
X71584000Y-76076000D02*
X73152000Y-77644000D01*
D23*
X73152000Y-77644000D02*
X73152000Y-77130000D01*
D22*
X61110000Y-77338000D02*
X60986000Y-77338000D01*
X60986000Y-77338000D02*
X59598000Y-78726000D01*
X59598000Y-84426000D02*
X60973000Y-85801000D01*
X59598000Y-78726000D02*
X59598000Y-84426000D01*
D23*
X64770000Y-72310000D02*
X64596000Y-72310000D01*
X64596000Y-72310000D02*
X62738000Y-74168000D01*
X62362000Y-77338000D02*
X61110000Y-77338000D01*
X62738000Y-76962000D02*
X62362000Y-77338000D01*
X62738000Y-74168000D02*
X62738000Y-76962000D01*
X64770000Y-72310000D02*
X64770000Y-71882000D01*
X67564000Y-71144000D02*
X67564000Y-69522000D01*
X67564000Y-69522000D02*
X65128000Y-67086000D01*
X67564000Y-71144000D02*
X68350000Y-71144000D01*
D22*
X72694800Y-33807400D02*
X75999400Y-33807400D01*
X75999400Y-33807400D02*
X76350000Y-34158000D01*
X64148000Y-46876000D02*
X64148000Y-44966000D01*
X71506202Y-34995998D02*
X72694800Y-33807400D01*
X69439796Y-34995998D02*
X71506202Y-34995998D01*
X68863899Y-34420101D02*
X69439796Y-34995998D01*
X68863899Y-32911899D02*
X68863899Y-34420101D01*
X68368000Y-32416000D02*
X68863899Y-32911899D01*
X63978000Y-32416000D02*
X68368000Y-32416000D01*
X62292998Y-34101002D02*
X63978000Y-32416000D01*
X62292998Y-37466000D02*
X62292998Y-34101002D01*
X61802998Y-37956000D02*
X62292998Y-37466000D01*
X59988000Y-37956000D02*
X61802998Y-37956000D01*
X59748002Y-38195998D02*
X59988000Y-37956000D01*
X59748002Y-42736000D02*
X59748002Y-38195998D01*
X60108002Y-43096000D02*
X59748002Y-42736000D01*
X62278000Y-43096000D02*
X60108002Y-43096000D01*
X64148000Y-44966000D02*
X62278000Y-43096000D01*
D23*
X67028000Y-60866000D02*
X67028000Y-62646000D01*
X67028000Y-62646000D02*
X65128000Y-64546000D01*
X65068000Y-67146000D02*
X65128000Y-67086000D01*
D22*
X68808000Y-51756000D02*
X68808000Y-53616000D01*
X68808000Y-53616000D02*
X69638000Y-54446000D01*
X71598000Y-54446000D02*
X69638000Y-54446000D01*
X73008000Y-54456000D02*
X71608000Y-54456000D01*
X71608000Y-54456000D02*
X71598000Y-54446000D01*
X73588458Y-55036458D02*
X73008000Y-54456000D01*
X69548000Y-54536000D02*
X69548000Y-54566000D01*
X69638000Y-54446000D02*
X69548000Y-54536000D01*
X66449117Y-53584884D02*
X66979116Y-53584884D01*
X66979116Y-53584884D02*
X68808000Y-51756000D01*
X68808000Y-51756000D02*
X68868000Y-51696000D01*
X65128000Y-64546000D02*
X65128000Y-67086000D01*
X67028000Y-60866000D02*
X66278000Y-60866000D01*
X64718000Y-64136000D02*
X65128000Y-64546000D01*
X69699371Y-48915542D02*
X69678458Y-48915542D01*
X69678458Y-48915542D02*
X68868000Y-49726000D01*
X68868000Y-49726000D02*
X68868000Y-51696000D01*
X68568000Y-55546000D02*
X68410233Y-55546000D01*
X68410233Y-55546000D02*
X66449117Y-53584884D01*
X66449117Y-53584884D02*
X64608202Y-51743969D01*
X67436629Y-58956458D02*
X67467542Y-58956458D01*
X67467542Y-58956458D02*
X68568000Y-57856000D01*
X68568000Y-55546000D02*
X69548000Y-54566000D01*
X68568000Y-57856000D02*
X68568000Y-55546000D01*
X73588458Y-55067371D02*
X73588458Y-55036458D01*
X67436629Y-58956458D02*
X67397542Y-58956458D01*
X67397542Y-58956458D02*
X67028000Y-59326000D01*
X67028000Y-59326000D02*
X67028000Y-60866000D01*
X64608202Y-51743969D02*
X64575975Y-51743969D01*
X64575975Y-51743969D02*
X63808006Y-50976000D01*
X63808006Y-50976000D02*
X63808006Y-47685994D01*
X63808006Y-47685994D02*
X64148000Y-46876000D01*
X73588458Y-55067371D02*
X73579369Y-55067371D01*
X72881351Y-55774478D02*
X72876478Y-55774478D01*
X72876478Y-55774478D02*
X72278000Y-55176000D01*
X72278000Y-55176000D02*
X71358000Y-55176000D01*
X77528000Y-55646000D02*
X78778000Y-54396000D01*
X78778000Y-54396000D02*
X78778000Y-33256000D01*
X78778000Y-33256000D02*
X77888000Y-32366000D01*
X77888000Y-32366000D02*
X71596200Y-32366000D01*
X71596200Y-32366000D02*
X70154800Y-33807400D01*
X73588458Y-52804629D02*
X73588458Y-52856458D01*
X73588458Y-52856458D02*
X73938000Y-53206000D01*
X77598000Y-53246000D02*
X78208000Y-52636000D01*
X78208000Y-52636000D02*
X78208000Y-36136000D01*
X78208000Y-36136000D02*
X77518000Y-35446000D01*
X77518000Y-35446000D02*
X69253400Y-35446000D01*
X69253400Y-35446000D02*
X67614800Y-33807400D01*
X67436629Y-48915542D02*
X67483458Y-48915542D01*
X67483458Y-48915542D02*
X67998000Y-48401000D01*
D23*
X68923000Y-86326000D02*
X68923000Y-76326000D01*
X69898000Y-72076000D02*
X70830000Y-71144000D01*
X69898000Y-75351000D02*
X69898000Y-72076000D01*
X68923000Y-76326000D02*
X69898000Y-75351000D01*
X70830000Y-71144000D02*
X71628000Y-71144000D01*
X70368000Y-87706000D02*
X70368000Y-87256000D01*
X70368000Y-87256000D02*
X69438000Y-86326000D01*
X69438000Y-86326000D02*
X68923000Y-86326000D01*
X68923000Y-86326000D02*
X67073000Y-86326000D01*
X67073000Y-86326000D02*
X66223000Y-87176000D01*
X66223000Y-87176000D02*
X66223000Y-91451000D01*
X66223000Y-91451000D02*
X69148000Y-94376000D01*
X69148000Y-94376000D02*
X76698000Y-94376000D01*
X76698000Y-94376000D02*
X77223000Y-93851000D01*
X77223000Y-93851000D02*
X77223000Y-91676000D01*
X77223000Y-91676000D02*
X78798000Y-90101000D01*
X78798000Y-90101000D02*
X79548000Y-90101000D01*
X79548000Y-90101000D02*
X80098000Y-89551000D01*
X80098000Y-89551000D02*
X80098000Y-84901000D01*
X80098000Y-84901000D02*
X79423000Y-84226000D01*
X79423000Y-84226000D02*
X79423000Y-40701000D01*
X79423000Y-40701000D02*
X79448000Y-40676000D01*
X71120000Y-69342000D02*
X71628000Y-69850000D01*
X71628000Y-69850000D02*
X71628000Y-71144000D01*
D22*
X70406478Y-49622649D02*
X70451351Y-49622649D01*
X70451351Y-49622649D02*
X72468000Y-47606000D01*
X72468000Y-47606000D02*
X72468000Y-46076000D01*
X72468000Y-46076000D02*
X73598000Y-44946000D01*
X73598000Y-44946000D02*
X73748000Y-44946000D01*
X73748000Y-44946000D02*
X74178000Y-44516000D01*
X74178000Y-44516000D02*
X74178000Y-43950000D01*
X74178000Y-43950000D02*
X76350000Y-41778000D01*
X64254649Y-52097522D02*
X64183939Y-52097522D01*
X64183939Y-52097522D02*
X63358004Y-51271587D01*
X63358004Y-51271587D02*
X63358004Y-48476004D01*
X63358004Y-48476004D02*
X62348000Y-47466000D01*
X62348000Y-47466000D02*
X62348000Y-45556000D01*
X62348000Y-45556000D02*
X61110000Y-44318000D01*
X70760031Y-49976202D02*
X70817798Y-49976202D01*
X70817798Y-49976202D02*
X72928000Y-47866000D01*
X75316000Y-44318000D02*
X76350000Y-44318000D01*
X72928000Y-46706000D02*
X75316000Y-44318000D01*
X72928000Y-47866000D02*
X72928000Y-46706000D01*
X70760031Y-49976202D02*
X70815798Y-49976202D01*
X61110000Y-46858000D02*
X61110000Y-46928000D01*
X61110000Y-46928000D02*
X62908002Y-48726002D01*
X62908002Y-48726002D02*
X62908002Y-51457983D01*
X62908002Y-51457983D02*
X63901095Y-52451076D01*
X71467138Y-50683309D02*
X71500691Y-50683309D01*
X71500691Y-50683309D02*
X73598000Y-48586000D01*
X73598000Y-48586000D02*
X73598000Y-47256000D01*
X73598000Y-47256000D02*
X73996000Y-46858000D01*
X73996000Y-46858000D02*
X76350000Y-46858000D01*
X63547542Y-52804629D02*
X63436629Y-52804629D01*
X63436629Y-52804629D02*
X62458000Y-51826000D01*
X62458000Y-51826000D02*
X62458000Y-50746000D01*
X62458000Y-50746000D02*
X61110000Y-49398000D01*
X72174245Y-51390416D02*
X72174245Y-51326153D01*
X72174245Y-51326153D02*
X73464398Y-50036000D01*
X73464398Y-50036000D02*
X74448000Y-50036000D01*
X74448000Y-50036000D02*
X76350000Y-51938000D01*
X63547542Y-55067371D02*
X63547542Y-54375542D01*
X63547542Y-54375542D02*
X61110000Y-51938000D01*
X63901095Y-55420924D02*
X63901095Y-55447905D01*
X63901095Y-55447905D02*
X63223000Y-56126000D01*
X63223000Y-56126000D02*
X62748000Y-56126000D01*
X62748000Y-56126000D02*
X61110000Y-54488000D01*
X61110000Y-54488000D02*
X61110000Y-54478000D01*
X72527798Y-51743969D02*
X72527798Y-51716202D01*
X72527798Y-51716202D02*
X73498000Y-50746000D01*
X73498000Y-50746000D02*
X74018000Y-50746000D01*
X74018000Y-50746000D02*
X75068000Y-51796000D01*
X75068000Y-51796000D02*
X75068000Y-53196000D01*
X75068000Y-53196000D02*
X76350000Y-54478000D01*
X64254649Y-55774478D02*
X64224522Y-55774478D01*
X64224522Y-55774478D02*
X63348000Y-56651000D01*
X63348000Y-56651000D02*
X61477000Y-56651000D01*
X61477000Y-56651000D02*
X61110000Y-57018000D01*
X72881351Y-52097522D02*
X72881351Y-52042649D01*
X72881351Y-52042649D02*
X73558000Y-51366000D01*
X73558000Y-51366000D02*
X73938000Y-51366000D01*
X73938000Y-51366000D02*
X74617998Y-52045998D01*
X74617998Y-52045998D02*
X74617998Y-53415998D01*
X74617998Y-53415998D02*
X74898000Y-53696000D01*
X74898000Y-53696000D02*
X74898000Y-55566000D01*
X74898000Y-55566000D02*
X76350000Y-57018000D01*
X64608202Y-56128031D02*
X64608202Y-56165798D01*
X64608202Y-56165798D02*
X63373000Y-57401000D01*
X63373000Y-57401000D02*
X62773000Y-57401000D01*
X62773000Y-57401000D02*
X62373000Y-57801000D01*
X62373000Y-57801000D02*
X62373000Y-58295000D01*
X62373000Y-58295000D02*
X61110000Y-59558000D01*
X73234905Y-52451076D02*
X73232924Y-52451076D01*
X73232924Y-52451076D02*
X72508000Y-53176000D01*
X72508000Y-53176000D02*
X72508000Y-53786000D01*
X72508000Y-53786000D02*
X72768000Y-53926000D01*
X72768000Y-53926000D02*
X73508000Y-53926000D01*
X73508000Y-53926000D02*
X74048000Y-54586000D01*
X64961755Y-56481584D02*
X64961755Y-56487245D01*
X64961755Y-56487245D02*
X63548000Y-57901000D01*
X63548000Y-57901000D02*
X63073000Y-57901000D01*
X63073000Y-57901000D02*
X62848000Y-58126000D01*
X62848000Y-58126000D02*
X62848000Y-59976000D01*
X62848000Y-59976000D02*
X62448000Y-60376000D01*
X62448000Y-60376000D02*
X62448000Y-60760000D01*
X62448000Y-60760000D02*
X61110000Y-62098000D01*
X78740000Y-86026000D02*
X78740000Y-85743000D01*
X78740000Y-85743000D02*
X78223000Y-85226000D01*
X78223000Y-85226000D02*
X78223000Y-63971000D01*
X78223000Y-63971000D02*
X76350000Y-62098000D01*
X72527798Y-56128031D02*
X72550031Y-56128031D01*
X72550031Y-56128031D02*
X75048000Y-58506000D01*
X75048000Y-58506000D02*
X75048000Y-60676000D01*
X75048000Y-60676000D02*
X76350000Y-62098000D01*
X65315309Y-56835138D02*
X65263862Y-56835138D01*
X65263862Y-56835138D02*
X63398000Y-58701000D01*
X63398000Y-58701000D02*
X63398000Y-60601000D01*
X63398000Y-60601000D02*
X62423000Y-61576000D01*
X62423000Y-61576000D02*
X62423000Y-63325000D01*
X62423000Y-63325000D02*
X61110000Y-64638000D01*
X76350000Y-64638000D02*
X76585000Y-64638000D01*
X76585000Y-64638000D02*
X77648000Y-65701000D01*
X77648000Y-85086000D02*
X76708000Y-86026000D01*
X77648000Y-65701000D02*
X77648000Y-85086000D01*
X72174245Y-56481584D02*
X72203582Y-56481584D01*
X72203582Y-56481584D02*
X74438002Y-58716004D01*
X75068000Y-63356000D02*
X76350000Y-64638000D01*
X75068000Y-61706000D02*
X75068000Y-63356000D01*
X74438002Y-61076002D02*
X75068000Y-61706000D01*
X74438002Y-58716004D02*
X74438002Y-61076002D01*
X72174245Y-56481584D02*
X72193584Y-56481584D01*
X76350000Y-64638000D02*
X76068000Y-64638000D01*
X65668862Y-57188691D02*
X65660309Y-57188691D01*
X65660309Y-57188691D02*
X63923000Y-58926000D01*
X63923000Y-58926000D02*
X63923000Y-60876000D01*
X63923000Y-60876000D02*
X62873002Y-61925998D01*
X62873002Y-61925998D02*
X62873002Y-65414998D01*
X62873002Y-65414998D02*
X61110000Y-67178000D01*
X71820691Y-56835138D02*
X71867138Y-56835138D01*
X71867138Y-56835138D02*
X73978000Y-58946000D01*
X75058000Y-65886000D02*
X76350000Y-67178000D01*
X75058000Y-64606000D02*
X75058000Y-65886000D01*
X74528000Y-64076000D02*
X75058000Y-64606000D01*
X74528000Y-62016002D02*
X74528000Y-64076000D01*
X73978000Y-61466002D02*
X74528000Y-62016002D01*
X73978000Y-58946000D02*
X73978000Y-61466002D01*
X71820691Y-56835138D02*
X71820691Y-56844785D01*
X76350000Y-67178000D02*
X76322000Y-67178000D01*
X66375969Y-57895798D02*
X66375969Y-57898031D01*
X66375969Y-57898031D02*
X64448000Y-59826000D01*
X64448000Y-59826000D02*
X64448000Y-60987398D01*
X64448000Y-60987398D02*
X63323004Y-62112394D01*
X63323004Y-62112394D02*
X63323004Y-65601394D01*
X63323004Y-65601394D02*
X62548000Y-66376398D01*
X62548000Y-66376398D02*
X62548000Y-68280000D01*
X62548000Y-68280000D02*
X61110000Y-69718000D01*
X71467138Y-57188691D02*
X71467138Y-57215138D01*
X71467138Y-57215138D02*
X73527998Y-59275998D01*
X73527998Y-59275998D02*
X73527998Y-61705998D01*
X73527998Y-61705998D02*
X74077998Y-62255998D01*
X74077998Y-62255998D02*
X74077998Y-64495998D01*
X74077998Y-64495998D02*
X74607998Y-65025998D01*
X74607998Y-65025998D02*
X74607998Y-67975998D01*
X74607998Y-67975998D02*
X76350000Y-69718000D01*
X66729522Y-58249351D02*
X66729522Y-58269478D01*
X66729522Y-58269478D02*
X64998000Y-60001000D01*
X64998000Y-60001000D02*
X64998000Y-61073796D01*
X64998000Y-61073796D02*
X63798000Y-62273796D01*
X63798000Y-62273796D02*
X63798000Y-65901002D01*
X63798000Y-65901002D02*
X63048000Y-66651002D01*
X63048000Y-66651002D02*
X63048000Y-69601000D01*
X63048000Y-69601000D02*
X62523000Y-70126000D01*
X62523000Y-70126000D02*
X62523000Y-70845000D01*
X62523000Y-70845000D02*
X61110000Y-72258000D01*
X71113584Y-57542245D02*
X71157847Y-57542245D01*
X71157847Y-57542245D02*
X73048000Y-59432398D01*
X74978000Y-70886000D02*
X76350000Y-72258000D01*
X74978000Y-68982398D02*
X74978000Y-70886000D01*
X74157996Y-68162394D02*
X74978000Y-68982398D01*
X74157996Y-65212394D02*
X74157996Y-68162394D01*
X73627996Y-64682394D02*
X74157996Y-65212394D01*
X73627996Y-62476000D02*
X73627996Y-64682394D01*
X73048000Y-61896004D02*
X73627996Y-62476000D01*
X73048000Y-59432398D02*
X73048000Y-61896004D01*
X71113584Y-57542245D02*
X71144245Y-57542245D01*
X70760031Y-57895798D02*
X70827798Y-57895798D01*
X70827798Y-57895798D02*
X72597998Y-59665998D01*
X75068000Y-73516000D02*
X76350000Y-74798000D01*
X75068000Y-71846000D02*
X75068000Y-73516000D01*
X74508000Y-71286000D02*
X75068000Y-71846000D01*
X74508000Y-69148796D02*
X74508000Y-71286000D01*
X73707994Y-68348790D02*
X74508000Y-69148796D01*
X73707994Y-65516000D02*
X73707994Y-68348790D01*
X73177994Y-64986000D02*
X73707994Y-65516000D01*
X73177994Y-62662396D02*
X73177994Y-64986000D01*
X72597998Y-62082400D02*
X73177994Y-62662396D01*
X72597998Y-59665998D02*
X72597998Y-62082400D01*
X70760031Y-57895798D02*
X70797796Y-57895798D01*
X70406478Y-58249351D02*
X70471351Y-58249351D01*
X70471351Y-58249351D02*
X72147996Y-59925996D01*
X74948000Y-75936000D02*
X76350000Y-77338000D01*
X74948000Y-74946000D02*
X74948000Y-75936000D01*
X74617998Y-74615998D02*
X74948000Y-74946000D01*
X74617998Y-72086000D02*
X74617998Y-74615998D01*
X74048000Y-71516002D02*
X74617998Y-72086000D01*
X74048000Y-69426002D02*
X74048000Y-71516002D01*
X73257992Y-68635994D02*
X74048000Y-69426002D01*
X73257992Y-65806000D02*
X73257992Y-68635994D01*
X72727992Y-65276000D02*
X73257992Y-65806000D01*
X72727992Y-62856000D02*
X72727992Y-65276000D01*
X72147996Y-62276004D02*
X72727992Y-62856000D01*
X72147996Y-59925996D02*
X72147996Y-62276004D01*
X70406478Y-58249351D02*
X70471347Y-58249351D01*
X70052924Y-58602905D02*
X70104905Y-58602905D01*
X70104905Y-58602905D02*
X71678000Y-60176000D01*
X71678000Y-60176000D02*
X71678000Y-62466010D01*
X71678000Y-62466010D02*
X72277990Y-63066000D01*
X72277990Y-63066000D02*
X72277990Y-65462396D01*
X72277990Y-65462396D02*
X72798000Y-65982406D01*
X72798000Y-65982406D02*
X72798000Y-68836002D01*
X72798000Y-68836002D02*
X73518000Y-69556002D01*
X73518000Y-69556002D02*
X73518000Y-71636004D01*
X73518000Y-71636004D02*
X74167996Y-72286000D01*
X74167996Y-72286000D02*
X74167996Y-74805998D01*
X74167996Y-74805998D02*
X74497998Y-75136000D01*
X74497998Y-75136000D02*
X74497998Y-76122396D01*
X74497998Y-76122396D02*
X75038000Y-76662398D01*
X75038000Y-76662398D02*
X75038000Y-78566000D01*
X75038000Y-78566000D02*
X76350000Y-79878000D01*
X69699371Y-58956458D02*
X69699371Y-58977371D01*
X69699371Y-58977371D02*
X71168000Y-60446000D01*
X71168000Y-60446000D02*
X71168000Y-62716000D01*
X71168000Y-62716000D02*
X71798000Y-63346000D01*
X71798000Y-63346000D02*
X71798000Y-65686000D01*
X71798000Y-65686000D02*
X72308000Y-66196000D01*
X72308000Y-66196000D02*
X72308000Y-69066002D01*
X72308000Y-69066002D02*
X73018000Y-69776002D01*
X73018000Y-69776002D02*
X73018000Y-71772402D01*
X73018000Y-71772402D02*
X73698000Y-72452402D01*
X73698000Y-72452402D02*
X73698000Y-75176004D01*
X73698000Y-75176004D02*
X74008000Y-75486004D01*
X74008000Y-75486004D02*
X74008000Y-76526002D01*
X74008000Y-76526002D02*
X74578000Y-77096002D01*
X74578000Y-77096002D02*
X74578000Y-79086000D01*
X74578000Y-79086000D02*
X75038000Y-79546000D01*
X75038000Y-79546000D02*
X75038000Y-81106000D01*
X75038000Y-81106000D02*
X76350000Y-82418000D01*
X71113584Y-50329755D02*
X71113584Y-50380416D01*
X71113584Y-50380416D02*
X69948000Y-51546000D01*
X69948000Y-51546000D02*
X69948000Y-53476000D01*
X69948000Y-53476000D02*
X69918000Y-53506000D01*
X69478000Y-55656000D02*
X69218000Y-55916000D01*
X69218000Y-55916000D02*
X69218000Y-57846000D01*
X69218000Y-57846000D02*
X68278000Y-58786000D01*
X68278000Y-58786000D02*
X68278000Y-62826000D01*
X68278000Y-62826000D02*
X68868000Y-63416000D01*
X68868000Y-63416000D02*
X68868000Y-65886000D01*
X68868000Y-65886000D02*
X67668000Y-67086000D01*
X66022416Y-57542245D02*
X66071755Y-57542245D01*
X66071755Y-57542245D02*
X66758000Y-56856000D01*
X66758000Y-56856000D02*
X67228000Y-56856000D01*
X67228000Y-56856000D02*
X67708000Y-57336000D01*
X71820691Y-51036862D02*
X71827138Y-51036862D01*
X71827138Y-51036862D02*
X73466000Y-49398000D01*
X73466000Y-49398000D02*
X76350000Y-49398000D01*
X60973000Y-88501000D02*
X58773000Y-88501000D01*
X58773000Y-88501000D02*
X58748000Y-88476000D01*
G36*
X80848000Y-94826000D02*
X77127882Y-94826000D01*
X77139942Y-94817942D01*
X77664942Y-94292942D01*
X77800425Y-94090178D01*
X77848000Y-93851000D01*
X77848000Y-91934884D01*
X79056883Y-90726000D01*
X79548000Y-90726000D01*
X79787177Y-90678425D01*
X79989942Y-90542942D01*
X80539939Y-89992944D01*
X80539942Y-89992942D01*
X80675425Y-89790177D01*
X80723000Y-89551000D01*
X80723000Y-84901000D01*
X80718275Y-84877246D01*
X80675425Y-84661822D01*
X80539942Y-84459058D01*
X80048000Y-83967116D01*
X80048000Y-40991192D01*
X80122883Y-40810855D01*
X80123117Y-40542323D01*
X80020571Y-40294143D01*
X79830856Y-40104097D01*
X79582855Y-40001117D01*
X79314323Y-40000883D01*
X79278000Y-40015891D01*
X79278000Y-33256000D01*
X79239940Y-33064658D01*
X79131553Y-32902447D01*
X78241553Y-32012447D01*
X78079342Y-31904060D01*
X77888000Y-31866000D01*
X71596200Y-31866000D01*
X71404858Y-31904060D01*
X71242646Y-32012447D01*
X70606786Y-32648307D01*
X70154800Y-32558401D01*
X69686013Y-32651649D01*
X69355994Y-32872160D01*
X69325839Y-32720557D01*
X69217452Y-32558346D01*
X68721553Y-32062447D01*
X68559342Y-31954060D01*
X68368000Y-31916000D01*
X63978000Y-31916000D01*
X63786658Y-31954060D01*
X63721686Y-31997474D01*
X63624447Y-32062446D01*
X62342346Y-33344548D01*
X62342346Y-33308000D01*
X62316198Y-33169034D01*
X62234069Y-33041401D01*
X62108754Y-32955777D01*
X61960000Y-32925654D01*
X60260000Y-32925654D01*
X60121034Y-32951802D01*
X59993401Y-33033931D01*
X59907777Y-33159246D01*
X59877654Y-33308000D01*
X59877654Y-35008000D01*
X59903802Y-35146966D01*
X59985931Y-35274599D01*
X60111246Y-35360223D01*
X60260000Y-35390346D01*
X61792998Y-35390346D01*
X61792998Y-35693343D01*
X61602786Y-35566248D01*
X61133999Y-35473000D01*
X61086001Y-35473000D01*
X60617214Y-35566248D01*
X60219795Y-35831794D01*
X59954249Y-36229213D01*
X59877664Y-36614230D01*
X58944447Y-37547447D01*
X58836060Y-37709658D01*
X58798000Y-37901000D01*
X58798000Y-45351000D01*
X58826111Y-45492323D01*
X58836060Y-45542342D01*
X58897992Y-45635028D01*
X58897883Y-45759677D01*
X59000429Y-46007857D01*
X59073000Y-46080555D01*
X59073000Y-52243893D01*
X58719445Y-52597449D01*
X58611058Y-52759660D01*
X58572998Y-52951002D01*
X58572998Y-84643654D01*
X58098000Y-84643654D01*
X57959034Y-84669802D01*
X57831401Y-84751931D01*
X57745777Y-84877246D01*
X57715654Y-85026000D01*
X57715654Y-86526000D01*
X57741802Y-86664966D01*
X57823931Y-86792599D01*
X57949246Y-86878223D01*
X58098000Y-86908346D01*
X59398000Y-86908346D01*
X59536966Y-86882198D01*
X59664599Y-86800069D01*
X59750223Y-86674754D01*
X59780346Y-86526000D01*
X59780346Y-85315452D01*
X59940654Y-85475761D01*
X59940654Y-86551000D01*
X59966802Y-86689966D01*
X60048931Y-86817599D01*
X60174246Y-86903223D01*
X60323000Y-86933346D01*
X61623000Y-86933346D01*
X61761966Y-86907198D01*
X61889599Y-86825069D01*
X61975223Y-86699754D01*
X62005346Y-86551000D01*
X62005346Y-85051000D01*
X61979198Y-84912034D01*
X61897069Y-84784401D01*
X61771754Y-84698777D01*
X61623000Y-84668654D01*
X60547760Y-84668654D01*
X60098000Y-84218894D01*
X60098000Y-83793002D01*
X60260000Y-83793002D01*
X60260000Y-83598691D01*
X60467966Y-83754854D01*
X60685000Y-83680581D01*
X60685000Y-82843000D01*
X61535000Y-82843000D01*
X61535000Y-83680581D01*
X61752034Y-83754854D01*
X61981417Y-83582609D01*
X63610498Y-83582609D01*
X63733021Y-83802727D01*
X64377440Y-83884985D01*
X64790979Y-83802727D01*
X64913502Y-83582609D01*
X64262000Y-82931107D01*
X63610498Y-83582609D01*
X61981417Y-83582609D01*
X62214754Y-83407396D01*
X62446820Y-83060029D01*
X62364726Y-82843000D01*
X61535000Y-82843000D01*
X60685000Y-82843000D01*
X60260000Y-82843000D01*
X60260000Y-82339440D01*
X62601015Y-82339440D01*
X62683273Y-82752979D01*
X62903391Y-82875502D01*
X63554893Y-82224000D01*
X64969107Y-82224000D01*
X65620609Y-82875502D01*
X65840727Y-82752979D01*
X65922985Y-82108560D01*
X65840727Y-81695021D01*
X65620609Y-81572498D01*
X64969107Y-82224000D01*
X63554893Y-82224000D01*
X62903391Y-81572498D01*
X62683273Y-81695021D01*
X62601015Y-82339440D01*
X60260000Y-82339440D01*
X60260000Y-81993000D01*
X60685000Y-81993000D01*
X60685000Y-81155419D01*
X60663321Y-81148000D01*
X60685000Y-81140581D01*
X60685000Y-80303000D01*
X61535000Y-80303000D01*
X61535000Y-81140581D01*
X61556679Y-81148000D01*
X61535000Y-81155419D01*
X61535000Y-81993000D01*
X62364726Y-81993000D01*
X62446820Y-81775971D01*
X62214754Y-81428604D01*
X61841065Y-81148000D01*
X62214754Y-80867396D01*
X62216093Y-80865391D01*
X63610498Y-80865391D01*
X64262000Y-81516893D01*
X64913502Y-80865391D01*
X64790979Y-80645273D01*
X64146560Y-80563015D01*
X63733021Y-80645273D01*
X63610498Y-80865391D01*
X62216093Y-80865391D01*
X62446820Y-80520029D01*
X62364726Y-80303000D01*
X61535000Y-80303000D01*
X60685000Y-80303000D01*
X60260000Y-80303000D01*
X60260000Y-79453000D01*
X60685000Y-79453000D01*
X60685000Y-79028000D01*
X61535000Y-79028000D01*
X61535000Y-79453000D01*
X62364726Y-79453000D01*
X62446820Y-79235971D01*
X62307880Y-79028000D01*
X62485002Y-79028000D01*
X62485002Y-78395000D01*
X61714661Y-78395000D01*
X62000205Y-78204206D01*
X62161373Y-77963000D01*
X62362000Y-77963000D01*
X62601177Y-77915425D01*
X62803942Y-77779942D01*
X62887023Y-77696861D01*
X62886762Y-77996305D01*
X63095652Y-78501857D01*
X63482108Y-78888989D01*
X63987296Y-79098761D01*
X64534305Y-79099238D01*
X65039857Y-78890348D01*
X65426989Y-78503892D01*
X65636761Y-77998704D01*
X65637238Y-77451695D01*
X65428348Y-76946143D01*
X65270000Y-76787518D01*
X65270000Y-76142346D01*
X65420000Y-76142346D01*
X65558966Y-76116198D01*
X65686599Y-76034069D01*
X65772223Y-75908754D01*
X65802346Y-75760000D01*
X65802346Y-74852250D01*
X66131000Y-74852250D01*
X66131000Y-75369911D01*
X66227368Y-75602565D01*
X66405434Y-75780631D01*
X66638088Y-75877000D01*
X67005750Y-75877000D01*
X67164000Y-75718750D01*
X67164000Y-74694000D01*
X66289250Y-74694000D01*
X66131000Y-74852250D01*
X65802346Y-74852250D01*
X65802346Y-74260000D01*
X65776198Y-74121034D01*
X65694069Y-73993401D01*
X65568754Y-73907777D01*
X65420000Y-73877654D01*
X64120000Y-73877654D01*
X63981034Y-73903802D01*
X63853401Y-73985931D01*
X63767777Y-74111246D01*
X63737654Y-74260000D01*
X63737654Y-75760000D01*
X63763802Y-75898966D01*
X63845931Y-76026599D01*
X63971246Y-76112223D01*
X64120000Y-76142346D01*
X64270000Y-76142346D01*
X64270000Y-76349006D01*
X63989695Y-76348762D01*
X63484143Y-76557652D01*
X63363000Y-76678583D01*
X63363000Y-74426884D01*
X64347538Y-73442346D01*
X65420000Y-73442346D01*
X65558966Y-73416198D01*
X65686599Y-73334069D01*
X65772223Y-73208754D01*
X65802346Y-73060000D01*
X65802346Y-71560000D01*
X65776198Y-71421034D01*
X65694069Y-71293401D01*
X65568754Y-71207777D01*
X65420000Y-71177654D01*
X65395000Y-71177654D01*
X65395000Y-71133716D01*
X65419903Y-71108856D01*
X65470232Y-70987652D01*
X65706884Y-70751000D01*
X66139116Y-70751000D01*
X66381654Y-70993538D01*
X66381654Y-72244000D01*
X66407802Y-72382966D01*
X66425841Y-72411000D01*
X66188998Y-72411000D01*
X66188998Y-72778069D01*
X66131000Y-72918089D01*
X66131000Y-73435750D01*
X66289250Y-73594000D01*
X67164000Y-73594000D01*
X67164000Y-73044000D01*
X67964000Y-73044000D01*
X67964000Y-73594000D01*
X68838750Y-73594000D01*
X68997000Y-73435750D01*
X68997000Y-72918089D01*
X68939002Y-72778069D01*
X68939002Y-72411000D01*
X68703756Y-72411000D01*
X68716223Y-72392754D01*
X68746346Y-72244000D01*
X68746346Y-71616408D01*
X68791942Y-71585942D01*
X68927425Y-71383177D01*
X68975000Y-71144000D01*
X68927425Y-70904823D01*
X68791942Y-70702058D01*
X68746346Y-70671592D01*
X68746346Y-70044000D01*
X68720198Y-69905034D01*
X68638069Y-69777401D01*
X68512754Y-69691777D01*
X68364000Y-69661654D01*
X68189000Y-69661654D01*
X68189000Y-69522000D01*
X68153196Y-69342000D01*
X68141425Y-69282822D01*
X68005942Y-69080058D01*
X67104048Y-68178164D01*
X67199213Y-68241751D01*
X67668000Y-68334999D01*
X68136787Y-68241751D01*
X68534206Y-67976205D01*
X68725000Y-67690661D01*
X68725000Y-68461002D01*
X69358000Y-68461002D01*
X69358000Y-68283880D01*
X69565971Y-68422820D01*
X69783000Y-68340726D01*
X69783000Y-67511000D01*
X70633000Y-67511000D01*
X70633000Y-68340726D01*
X70850029Y-68422820D01*
X71197396Y-68190754D01*
X71544854Y-67728034D01*
X71470581Y-67511000D01*
X70633000Y-67511000D01*
X69783000Y-67511000D01*
X69358000Y-67511000D01*
X69358000Y-66661000D01*
X69783000Y-66661000D01*
X69783000Y-65831274D01*
X69742621Y-65816000D01*
X69783000Y-65800726D01*
X69783000Y-64971000D01*
X69368000Y-64971000D01*
X69368000Y-64121000D01*
X69783000Y-64121000D01*
X69783000Y-63291274D01*
X69565971Y-63209180D01*
X69358000Y-63348120D01*
X69358000Y-63170998D01*
X69294085Y-63170998D01*
X69221553Y-63062447D01*
X68778000Y-62618894D01*
X68778000Y-62124000D01*
X68994750Y-62124000D01*
X69153000Y-61965750D01*
X69153000Y-61178500D01*
X68778000Y-61178500D01*
X68778000Y-60553500D01*
X69153000Y-60553500D01*
X69153000Y-59766250D01*
X68994750Y-59608000D01*
X68778000Y-59608000D01*
X68778000Y-58993106D01*
X68898262Y-58872844D01*
X69324626Y-59299208D01*
X69345818Y-59330924D01*
X69903000Y-59888106D01*
X69903000Y-60553500D01*
X70278000Y-60553500D01*
X70278000Y-61178500D01*
X69903000Y-61178500D01*
X69903000Y-61965750D01*
X70061250Y-62124000D01*
X70278000Y-62124000D01*
X70278000Y-62241002D01*
X70668000Y-62241002D01*
X70668000Y-62716000D01*
X70695398Y-62853738D01*
X70706060Y-62907342D01*
X70814447Y-63069553D01*
X71058000Y-63313107D01*
X71058000Y-63348120D01*
X70850029Y-63209180D01*
X70633000Y-63291274D01*
X70633000Y-64121000D01*
X71058000Y-64121000D01*
X71058000Y-64971000D01*
X70633000Y-64971000D01*
X70633000Y-65800726D01*
X70673379Y-65816000D01*
X70633000Y-65831274D01*
X70633000Y-66661000D01*
X71470581Y-66661000D01*
X71544854Y-66443966D01*
X71197396Y-65981246D01*
X71107220Y-65921002D01*
X71365233Y-65921002D01*
X71444447Y-66039553D01*
X71808000Y-66403106D01*
X71808000Y-69066002D01*
X71827892Y-69166009D01*
X71742244Y-69080360D01*
X71692571Y-68960143D01*
X71502856Y-68770097D01*
X71254855Y-68667117D01*
X70986323Y-68666883D01*
X70738143Y-68769429D01*
X70548097Y-68959144D01*
X70445117Y-69207145D01*
X70444883Y-69475677D01*
X70547429Y-69723857D01*
X70580898Y-69757385D01*
X70561401Y-69769931D01*
X70475777Y-69895246D01*
X70445654Y-70044000D01*
X70445654Y-70663574D01*
X70388058Y-70702058D01*
X69456058Y-71634058D01*
X69320575Y-71836823D01*
X69273000Y-72076000D01*
X69273000Y-75092116D01*
X68997000Y-75368116D01*
X68997000Y-74852250D01*
X68838750Y-74694000D01*
X67964000Y-74694000D01*
X67964000Y-75718750D01*
X68122250Y-75877000D01*
X68488116Y-75877000D01*
X68481058Y-75884058D01*
X68345575Y-76086823D01*
X68298000Y-76326000D01*
X68298000Y-85701000D01*
X67073005Y-85701000D01*
X67073000Y-85700999D01*
X66833823Y-85748575D01*
X66631058Y-85884058D01*
X66631056Y-85884061D01*
X65781058Y-86734058D01*
X65645575Y-86936823D01*
X65598000Y-87176000D01*
X65598000Y-91451000D01*
X65645575Y-91690177D01*
X65781058Y-91892942D01*
X68706058Y-94817942D01*
X68718118Y-94826000D01*
X55748000Y-94826000D01*
X55748000Y-94111584D01*
X62347010Y-94111584D01*
X62523858Y-94344617D01*
X63309438Y-94416763D01*
X63672142Y-94344617D01*
X63848990Y-94111584D01*
X63098000Y-93360594D01*
X62347010Y-94111584D01*
X55748000Y-94111584D01*
X55748000Y-92617438D01*
X61087237Y-92617438D01*
X61159383Y-92980142D01*
X61392416Y-93156990D01*
X62143406Y-92406000D01*
X64052594Y-92406000D01*
X64803584Y-93156990D01*
X65036617Y-92980142D01*
X65108763Y-92194562D01*
X65036617Y-91831858D01*
X64803584Y-91655010D01*
X64052594Y-92406000D01*
X62143406Y-92406000D01*
X61392416Y-91655010D01*
X61159383Y-91831858D01*
X61087237Y-92617438D01*
X55748000Y-92617438D01*
X55748000Y-90700416D01*
X62347010Y-90700416D01*
X63098000Y-91451406D01*
X63848990Y-90700416D01*
X63672142Y-90467383D01*
X62886562Y-90395237D01*
X62523858Y-90467383D01*
X62347010Y-90700416D01*
X55748000Y-90700416D01*
X55748000Y-87726000D01*
X57715654Y-87726000D01*
X57715654Y-89226000D01*
X57741802Y-89364966D01*
X57823931Y-89492599D01*
X57949246Y-89578223D01*
X58098000Y-89608346D01*
X59398000Y-89608346D01*
X59536966Y-89582198D01*
X59664599Y-89500069D01*
X59750223Y-89374754D01*
X59780346Y-89226000D01*
X59780346Y-89001000D01*
X59940654Y-89001000D01*
X59940654Y-89251000D01*
X59966802Y-89389966D01*
X60048931Y-89517599D01*
X60174246Y-89603223D01*
X60323000Y-89633346D01*
X61623000Y-89633346D01*
X61761966Y-89607198D01*
X61889599Y-89525069D01*
X61975223Y-89399754D01*
X62005346Y-89251000D01*
X62005346Y-87751000D01*
X61979198Y-87612034D01*
X61897069Y-87484401D01*
X61771754Y-87398777D01*
X61623000Y-87368654D01*
X60323000Y-87368654D01*
X60184034Y-87394802D01*
X60056401Y-87476931D01*
X59970777Y-87602246D01*
X59940654Y-87751000D01*
X59940654Y-88001000D01*
X59780346Y-88001000D01*
X59780346Y-87726000D01*
X59754198Y-87587034D01*
X59672069Y-87459401D01*
X59546754Y-87373777D01*
X59398000Y-87343654D01*
X58098000Y-87343654D01*
X57959034Y-87369802D01*
X57831401Y-87451931D01*
X57745777Y-87577246D01*
X57715654Y-87726000D01*
X55748000Y-87726000D01*
X55748000Y-29868217D01*
X55772931Y-29829472D01*
X55780224Y-29801718D01*
X55791041Y-29726000D01*
X80848000Y-29726000D01*
X80848000Y-94826000D01*
X80848000Y-94826000D01*
G37*
X80848000Y-94826000D02*
X77127882Y-94826000D01*
X77139942Y-94817942D01*
X77664942Y-94292942D01*
X77800425Y-94090178D01*
X77848000Y-93851000D01*
X77848000Y-91934884D01*
X79056883Y-90726000D01*
X79548000Y-90726000D01*
X79787177Y-90678425D01*
X79989942Y-90542942D01*
X80539939Y-89992944D01*
X80539942Y-89992942D01*
X80675425Y-89790177D01*
X80723000Y-89551000D01*
X80723000Y-84901000D01*
X80718275Y-84877246D01*
X80675425Y-84661822D01*
X80539942Y-84459058D01*
X80048000Y-83967116D01*
X80048000Y-40991192D01*
X80122883Y-40810855D01*
X80123117Y-40542323D01*
X80020571Y-40294143D01*
X79830856Y-40104097D01*
X79582855Y-40001117D01*
X79314323Y-40000883D01*
X79278000Y-40015891D01*
X79278000Y-33256000D01*
X79239940Y-33064658D01*
X79131553Y-32902447D01*
X78241553Y-32012447D01*
X78079342Y-31904060D01*
X77888000Y-31866000D01*
X71596200Y-31866000D01*
X71404858Y-31904060D01*
X71242646Y-32012447D01*
X70606786Y-32648307D01*
X70154800Y-32558401D01*
X69686013Y-32651649D01*
X69355994Y-32872160D01*
X69325839Y-32720557D01*
X69217452Y-32558346D01*
X68721553Y-32062447D01*
X68559342Y-31954060D01*
X68368000Y-31916000D01*
X63978000Y-31916000D01*
X63786658Y-31954060D01*
X63721686Y-31997474D01*
X63624447Y-32062446D01*
X62342346Y-33344548D01*
X62342346Y-33308000D01*
X62316198Y-33169034D01*
X62234069Y-33041401D01*
X62108754Y-32955777D01*
X61960000Y-32925654D01*
X60260000Y-32925654D01*
X60121034Y-32951802D01*
X59993401Y-33033931D01*
X59907777Y-33159246D01*
X59877654Y-33308000D01*
X59877654Y-35008000D01*
X59903802Y-35146966D01*
X59985931Y-35274599D01*
X60111246Y-35360223D01*
X60260000Y-35390346D01*
X61792998Y-35390346D01*
X61792998Y-35693343D01*
X61602786Y-35566248D01*
X61133999Y-35473000D01*
X61086001Y-35473000D01*
X60617214Y-35566248D01*
X60219795Y-35831794D01*
X59954249Y-36229213D01*
X59877664Y-36614230D01*
X58944447Y-37547447D01*
X58836060Y-37709658D01*
X58798000Y-37901000D01*
X58798000Y-45351000D01*
X58826111Y-45492323D01*
X58836060Y-45542342D01*
X58897992Y-45635028D01*
X58897883Y-45759677D01*
X59000429Y-46007857D01*
X59073000Y-46080555D01*
X59073000Y-52243893D01*
X58719445Y-52597449D01*
X58611058Y-52759660D01*
X58572998Y-52951002D01*
X58572998Y-84643654D01*
X58098000Y-84643654D01*
X57959034Y-84669802D01*
X57831401Y-84751931D01*
X57745777Y-84877246D01*
X57715654Y-85026000D01*
X57715654Y-86526000D01*
X57741802Y-86664966D01*
X57823931Y-86792599D01*
X57949246Y-86878223D01*
X58098000Y-86908346D01*
X59398000Y-86908346D01*
X59536966Y-86882198D01*
X59664599Y-86800069D01*
X59750223Y-86674754D01*
X59780346Y-86526000D01*
X59780346Y-85315452D01*
X59940654Y-85475761D01*
X59940654Y-86551000D01*
X59966802Y-86689966D01*
X60048931Y-86817599D01*
X60174246Y-86903223D01*
X60323000Y-86933346D01*
X61623000Y-86933346D01*
X61761966Y-86907198D01*
X61889599Y-86825069D01*
X61975223Y-86699754D01*
X62005346Y-86551000D01*
X62005346Y-85051000D01*
X61979198Y-84912034D01*
X61897069Y-84784401D01*
X61771754Y-84698777D01*
X61623000Y-84668654D01*
X60547760Y-84668654D01*
X60098000Y-84218894D01*
X60098000Y-83793002D01*
X60260000Y-83793002D01*
X60260000Y-83598691D01*
X60467966Y-83754854D01*
X60685000Y-83680581D01*
X60685000Y-82843000D01*
X61535000Y-82843000D01*
X61535000Y-83680581D01*
X61752034Y-83754854D01*
X61981417Y-83582609D01*
X63610498Y-83582609D01*
X63733021Y-83802727D01*
X64377440Y-83884985D01*
X64790979Y-83802727D01*
X64913502Y-83582609D01*
X64262000Y-82931107D01*
X63610498Y-83582609D01*
X61981417Y-83582609D01*
X62214754Y-83407396D01*
X62446820Y-83060029D01*
X62364726Y-82843000D01*
X61535000Y-82843000D01*
X60685000Y-82843000D01*
X60260000Y-82843000D01*
X60260000Y-82339440D01*
X62601015Y-82339440D01*
X62683273Y-82752979D01*
X62903391Y-82875502D01*
X63554893Y-82224000D01*
X64969107Y-82224000D01*
X65620609Y-82875502D01*
X65840727Y-82752979D01*
X65922985Y-82108560D01*
X65840727Y-81695021D01*
X65620609Y-81572498D01*
X64969107Y-82224000D01*
X63554893Y-82224000D01*
X62903391Y-81572498D01*
X62683273Y-81695021D01*
X62601015Y-82339440D01*
X60260000Y-82339440D01*
X60260000Y-81993000D01*
X60685000Y-81993000D01*
X60685000Y-81155419D01*
X60663321Y-81148000D01*
X60685000Y-81140581D01*
X60685000Y-80303000D01*
X61535000Y-80303000D01*
X61535000Y-81140581D01*
X61556679Y-81148000D01*
X61535000Y-81155419D01*
X61535000Y-81993000D01*
X62364726Y-81993000D01*
X62446820Y-81775971D01*
X62214754Y-81428604D01*
X61841065Y-81148000D01*
X62214754Y-80867396D01*
X62216093Y-80865391D01*
X63610498Y-80865391D01*
X64262000Y-81516893D01*
X64913502Y-80865391D01*
X64790979Y-80645273D01*
X64146560Y-80563015D01*
X63733021Y-80645273D01*
X63610498Y-80865391D01*
X62216093Y-80865391D01*
X62446820Y-80520029D01*
X62364726Y-80303000D01*
X61535000Y-80303000D01*
X60685000Y-80303000D01*
X60260000Y-80303000D01*
X60260000Y-79453000D01*
X60685000Y-79453000D01*
X60685000Y-79028000D01*
X61535000Y-79028000D01*
X61535000Y-79453000D01*
X62364726Y-79453000D01*
X62446820Y-79235971D01*
X62307880Y-79028000D01*
X62485002Y-79028000D01*
X62485002Y-78395000D01*
X61714661Y-78395000D01*
X62000205Y-78204206D01*
X62161373Y-77963000D01*
X62362000Y-77963000D01*
X62601177Y-77915425D01*
X62803942Y-77779942D01*
X62887023Y-77696861D01*
X62886762Y-77996305D01*
X63095652Y-78501857D01*
X63482108Y-78888989D01*
X63987296Y-79098761D01*
X64534305Y-79099238D01*
X65039857Y-78890348D01*
X65426989Y-78503892D01*
X65636761Y-77998704D01*
X65637238Y-77451695D01*
X65428348Y-76946143D01*
X65270000Y-76787518D01*
X65270000Y-76142346D01*
X65420000Y-76142346D01*
X65558966Y-76116198D01*
X65686599Y-76034069D01*
X65772223Y-75908754D01*
X65802346Y-75760000D01*
X65802346Y-74852250D01*
X66131000Y-74852250D01*
X66131000Y-75369911D01*
X66227368Y-75602565D01*
X66405434Y-75780631D01*
X66638088Y-75877000D01*
X67005750Y-75877000D01*
X67164000Y-75718750D01*
X67164000Y-74694000D01*
X66289250Y-74694000D01*
X66131000Y-74852250D01*
X65802346Y-74852250D01*
X65802346Y-74260000D01*
X65776198Y-74121034D01*
X65694069Y-73993401D01*
X65568754Y-73907777D01*
X65420000Y-73877654D01*
X64120000Y-73877654D01*
X63981034Y-73903802D01*
X63853401Y-73985931D01*
X63767777Y-74111246D01*
X63737654Y-74260000D01*
X63737654Y-75760000D01*
X63763802Y-75898966D01*
X63845931Y-76026599D01*
X63971246Y-76112223D01*
X64120000Y-76142346D01*
X64270000Y-76142346D01*
X64270000Y-76349006D01*
X63989695Y-76348762D01*
X63484143Y-76557652D01*
X63363000Y-76678583D01*
X63363000Y-74426884D01*
X64347538Y-73442346D01*
X65420000Y-73442346D01*
X65558966Y-73416198D01*
X65686599Y-73334069D01*
X65772223Y-73208754D01*
X65802346Y-73060000D01*
X65802346Y-71560000D01*
X65776198Y-71421034D01*
X65694069Y-71293401D01*
X65568754Y-71207777D01*
X65420000Y-71177654D01*
X65395000Y-71177654D01*
X65395000Y-71133716D01*
X65419903Y-71108856D01*
X65470232Y-70987652D01*
X65706884Y-70751000D01*
X66139116Y-70751000D01*
X66381654Y-70993538D01*
X66381654Y-72244000D01*
X66407802Y-72382966D01*
X66425841Y-72411000D01*
X66188998Y-72411000D01*
X66188998Y-72778069D01*
X66131000Y-72918089D01*
X66131000Y-73435750D01*
X66289250Y-73594000D01*
X67164000Y-73594000D01*
X67164000Y-73044000D01*
X67964000Y-73044000D01*
X67964000Y-73594000D01*
X68838750Y-73594000D01*
X68997000Y-73435750D01*
X68997000Y-72918089D01*
X68939002Y-72778069D01*
X68939002Y-72411000D01*
X68703756Y-72411000D01*
X68716223Y-72392754D01*
X68746346Y-72244000D01*
X68746346Y-71616408D01*
X68791942Y-71585942D01*
X68927425Y-71383177D01*
X68975000Y-71144000D01*
X68927425Y-70904823D01*
X68791942Y-70702058D01*
X68746346Y-70671592D01*
X68746346Y-70044000D01*
X68720198Y-69905034D01*
X68638069Y-69777401D01*
X68512754Y-69691777D01*
X68364000Y-69661654D01*
X68189000Y-69661654D01*
X68189000Y-69522000D01*
X68153196Y-69342000D01*
X68141425Y-69282822D01*
X68005942Y-69080058D01*
X67104048Y-68178164D01*
X67199213Y-68241751D01*
X67668000Y-68334999D01*
X68136787Y-68241751D01*
X68534206Y-67976205D01*
X68725000Y-67690661D01*
X68725000Y-68461002D01*
X69358000Y-68461002D01*
X69358000Y-68283880D01*
X69565971Y-68422820D01*
X69783000Y-68340726D01*
X69783000Y-67511000D01*
X70633000Y-67511000D01*
X70633000Y-68340726D01*
X70850029Y-68422820D01*
X71197396Y-68190754D01*
X71544854Y-67728034D01*
X71470581Y-67511000D01*
X70633000Y-67511000D01*
X69783000Y-67511000D01*
X69358000Y-67511000D01*
X69358000Y-66661000D01*
X69783000Y-66661000D01*
X69783000Y-65831274D01*
X69742621Y-65816000D01*
X69783000Y-65800726D01*
X69783000Y-64971000D01*
X69368000Y-64971000D01*
X69368000Y-64121000D01*
X69783000Y-64121000D01*
X69783000Y-63291274D01*
X69565971Y-63209180D01*
X69358000Y-63348120D01*
X69358000Y-63170998D01*
X69294085Y-63170998D01*
X69221553Y-63062447D01*
X68778000Y-62618894D01*
X68778000Y-62124000D01*
X68994750Y-62124000D01*
X69153000Y-61965750D01*
X69153000Y-61178500D01*
X68778000Y-61178500D01*
X68778000Y-60553500D01*
X69153000Y-60553500D01*
X69153000Y-59766250D01*
X68994750Y-59608000D01*
X68778000Y-59608000D01*
X68778000Y-58993106D01*
X68898262Y-58872844D01*
X69324626Y-59299208D01*
X69345818Y-59330924D01*
X69903000Y-59888106D01*
X69903000Y-60553500D01*
X70278000Y-60553500D01*
X70278000Y-61178500D01*
X69903000Y-61178500D01*
X69903000Y-61965750D01*
X70061250Y-62124000D01*
X70278000Y-62124000D01*
X70278000Y-62241002D01*
X70668000Y-62241002D01*
X70668000Y-62716000D01*
X70695398Y-62853738D01*
X70706060Y-62907342D01*
X70814447Y-63069553D01*
X71058000Y-63313107D01*
X71058000Y-63348120D01*
X70850029Y-63209180D01*
X70633000Y-63291274D01*
X70633000Y-64121000D01*
X71058000Y-64121000D01*
X71058000Y-64971000D01*
X70633000Y-64971000D01*
X70633000Y-65800726D01*
X70673379Y-65816000D01*
X70633000Y-65831274D01*
X70633000Y-66661000D01*
X71470581Y-66661000D01*
X71544854Y-66443966D01*
X71197396Y-65981246D01*
X71107220Y-65921002D01*
X71365233Y-65921002D01*
X71444447Y-66039553D01*
X71808000Y-66403106D01*
X71808000Y-69066002D01*
X71827892Y-69166009D01*
X71742244Y-69080360D01*
X71692571Y-68960143D01*
X71502856Y-68770097D01*
X71254855Y-68667117D01*
X70986323Y-68666883D01*
X70738143Y-68769429D01*
X70548097Y-68959144D01*
X70445117Y-69207145D01*
X70444883Y-69475677D01*
X70547429Y-69723857D01*
X70580898Y-69757385D01*
X70561401Y-69769931D01*
X70475777Y-69895246D01*
X70445654Y-70044000D01*
X70445654Y-70663574D01*
X70388058Y-70702058D01*
X69456058Y-71634058D01*
X69320575Y-71836823D01*
X69273000Y-72076000D01*
X69273000Y-75092116D01*
X68997000Y-75368116D01*
X68997000Y-74852250D01*
X68838750Y-74694000D01*
X67964000Y-74694000D01*
X67964000Y-75718750D01*
X68122250Y-75877000D01*
X68488116Y-75877000D01*
X68481058Y-75884058D01*
X68345575Y-76086823D01*
X68298000Y-76326000D01*
X68298000Y-85701000D01*
X67073005Y-85701000D01*
X67073000Y-85700999D01*
X66833823Y-85748575D01*
X66631058Y-85884058D01*
X66631056Y-85884061D01*
X65781058Y-86734058D01*
X65645575Y-86936823D01*
X65598000Y-87176000D01*
X65598000Y-91451000D01*
X65645575Y-91690177D01*
X65781058Y-91892942D01*
X68706058Y-94817942D01*
X68718118Y-94826000D01*
X55748000Y-94826000D01*
X55748000Y-94111584D01*
X62347010Y-94111584D01*
X62523858Y-94344617D01*
X63309438Y-94416763D01*
X63672142Y-94344617D01*
X63848990Y-94111584D01*
X63098000Y-93360594D01*
X62347010Y-94111584D01*
X55748000Y-94111584D01*
X55748000Y-92617438D01*
X61087237Y-92617438D01*
X61159383Y-92980142D01*
X61392416Y-93156990D01*
X62143406Y-92406000D01*
X64052594Y-92406000D01*
X64803584Y-93156990D01*
X65036617Y-92980142D01*
X65108763Y-92194562D01*
X65036617Y-91831858D01*
X64803584Y-91655010D01*
X64052594Y-92406000D01*
X62143406Y-92406000D01*
X61392416Y-91655010D01*
X61159383Y-91831858D01*
X61087237Y-92617438D01*
X55748000Y-92617438D01*
X55748000Y-90700416D01*
X62347010Y-90700416D01*
X63098000Y-91451406D01*
X63848990Y-90700416D01*
X63672142Y-90467383D01*
X62886562Y-90395237D01*
X62523858Y-90467383D01*
X62347010Y-90700416D01*
X55748000Y-90700416D01*
X55748000Y-87726000D01*
X57715654Y-87726000D01*
X57715654Y-89226000D01*
X57741802Y-89364966D01*
X57823931Y-89492599D01*
X57949246Y-89578223D01*
X58098000Y-89608346D01*
X59398000Y-89608346D01*
X59536966Y-89582198D01*
X59664599Y-89500069D01*
X59750223Y-89374754D01*
X59780346Y-89226000D01*
X59780346Y-89001000D01*
X59940654Y-89001000D01*
X59940654Y-89251000D01*
X59966802Y-89389966D01*
X60048931Y-89517599D01*
X60174246Y-89603223D01*
X60323000Y-89633346D01*
X61623000Y-89633346D01*
X61761966Y-89607198D01*
X61889599Y-89525069D01*
X61975223Y-89399754D01*
X62005346Y-89251000D01*
X62005346Y-87751000D01*
X61979198Y-87612034D01*
X61897069Y-87484401D01*
X61771754Y-87398777D01*
X61623000Y-87368654D01*
X60323000Y-87368654D01*
X60184034Y-87394802D01*
X60056401Y-87476931D01*
X59970777Y-87602246D01*
X59940654Y-87751000D01*
X59940654Y-88001000D01*
X59780346Y-88001000D01*
X59780346Y-87726000D01*
X59754198Y-87587034D01*
X59672069Y-87459401D01*
X59546754Y-87373777D01*
X59398000Y-87343654D01*
X58098000Y-87343654D01*
X57959034Y-87369802D01*
X57831401Y-87451931D01*
X57745777Y-87577246D01*
X57715654Y-87726000D01*
X55748000Y-87726000D01*
X55748000Y-29868217D01*
X55772931Y-29829472D01*
X55780224Y-29801718D01*
X55791041Y-29726000D01*
X80848000Y-29726000D01*
X80848000Y-94826000D01*
G36*
X66865233Y-90348086D02*
X67184235Y-90667645D01*
X67328000Y-90727342D01*
X67328000Y-90781000D01*
X67355120Y-90917342D01*
X67366060Y-90972342D01*
X67474447Y-91134553D01*
X68144447Y-91804553D01*
X68306658Y-91912940D01*
X68498000Y-91951000D01*
X71273000Y-91951000D01*
X71464342Y-91912940D01*
X71626553Y-91804553D01*
X72655106Y-90776000D01*
X74422594Y-90776000D01*
X75098000Y-91451406D01*
X75773406Y-90776000D01*
X77239116Y-90776000D01*
X76781058Y-91234058D01*
X76645575Y-91436823D01*
X76598000Y-91676000D01*
X76598000Y-91860594D01*
X76052594Y-92406000D01*
X76529891Y-92883297D01*
X75662188Y-93751000D01*
X75488406Y-93751000D01*
X75098000Y-93360594D01*
X74707594Y-93751000D01*
X74533812Y-93751000D01*
X73666109Y-92883297D01*
X74143406Y-92406000D01*
X73392416Y-91655010D01*
X73159383Y-91831858D01*
X73101922Y-92457531D01*
X72697795Y-92861658D01*
X73587137Y-93751000D01*
X69406884Y-93751000D01*
X66848000Y-91192116D01*
X66848000Y-90306379D01*
X66865233Y-90348086D01*
X66865233Y-90348086D01*
G37*
X66865233Y-90348086D02*
X67184235Y-90667645D01*
X67328000Y-90727342D01*
X67328000Y-90781000D01*
X67355120Y-90917342D01*
X67366060Y-90972342D01*
X67474447Y-91134553D01*
X68144447Y-91804553D01*
X68306658Y-91912940D01*
X68498000Y-91951000D01*
X71273000Y-91951000D01*
X71464342Y-91912940D01*
X71626553Y-91804553D01*
X72655106Y-90776000D01*
X74422594Y-90776000D01*
X75098000Y-91451406D01*
X75773406Y-90776000D01*
X77239116Y-90776000D01*
X76781058Y-91234058D01*
X76645575Y-91436823D01*
X76598000Y-91676000D01*
X76598000Y-91860594D01*
X76052594Y-92406000D01*
X76529891Y-92883297D01*
X75662188Y-93751000D01*
X75488406Y-93751000D01*
X75098000Y-93360594D01*
X74707594Y-93751000D01*
X74533812Y-93751000D01*
X73666109Y-92883297D01*
X74143406Y-92406000D01*
X73392416Y-91655010D01*
X73159383Y-91831858D01*
X73101922Y-92457531D01*
X72697795Y-92861658D01*
X73587137Y-93751000D01*
X69406884Y-93751000D01*
X66848000Y-91192116D01*
X66848000Y-90306379D01*
X66865233Y-90348086D01*
G36*
X72119654Y-78394000D02*
X72145802Y-78532966D01*
X72227931Y-78660599D01*
X72353246Y-78746223D01*
X72502000Y-78776346D01*
X73802000Y-78776346D01*
X73940966Y-78750198D01*
X74068599Y-78668069D01*
X74078000Y-78654310D01*
X74078000Y-79086000D01*
X74107831Y-79235971D01*
X74116060Y-79277342D01*
X74224447Y-79439553D01*
X74538000Y-79753107D01*
X74538000Y-80883893D01*
X74184346Y-80530240D01*
X74184346Y-79594000D01*
X74158198Y-79455034D01*
X74076069Y-79327401D01*
X73950754Y-79241777D01*
X73802000Y-79211654D01*
X72502000Y-79211654D01*
X72363034Y-79237802D01*
X72235401Y-79319931D01*
X72149777Y-79445246D01*
X72119654Y-79594000D01*
X72119654Y-81094000D01*
X72145802Y-81232966D01*
X72227931Y-81360599D01*
X72353246Y-81446223D01*
X72502000Y-81476346D01*
X73716239Y-81476346D01*
X74048000Y-81808107D01*
X74048000Y-86876000D01*
X74081138Y-87042599D01*
X74086060Y-87067342D01*
X74194447Y-87229553D01*
X74819446Y-87854553D01*
X74933520Y-87930775D01*
X74981658Y-87962940D01*
X75173000Y-88001000D01*
X75675654Y-88001000D01*
X75675654Y-88716240D01*
X75140894Y-89251000D01*
X72173000Y-89251000D01*
X71981658Y-89289060D01*
X71930074Y-89323528D01*
X71877674Y-89271128D01*
X71738535Y-89410267D01*
X71698507Y-89209036D01*
X71487684Y-89123717D01*
X70905401Y-89706000D01*
X71174102Y-89974701D01*
X70647804Y-90500998D01*
X70625597Y-90500998D01*
X70368000Y-90243401D01*
X70110403Y-90500998D01*
X70088196Y-90500998D01*
X69561899Y-89974701D01*
X69830599Y-89706000D01*
X69561899Y-89437300D01*
X70099300Y-88899899D01*
X70368000Y-89168599D01*
X70767666Y-88768933D01*
X71010086Y-88668767D01*
X71329645Y-88349765D01*
X71502803Y-87932756D01*
X71503197Y-87481225D01*
X71330767Y-87063914D01*
X71011765Y-86744355D01*
X70594756Y-86571197D01*
X70567056Y-86571173D01*
X69879942Y-85884058D01*
X69677177Y-85748575D01*
X69548000Y-85722880D01*
X69548000Y-83582609D01*
X70110498Y-83582609D01*
X70233021Y-83802727D01*
X70877440Y-83884985D01*
X71290979Y-83802727D01*
X71413502Y-83582609D01*
X70762000Y-82931107D01*
X70110498Y-83582609D01*
X69548000Y-83582609D01*
X69548000Y-82730893D01*
X70054893Y-82224000D01*
X71469107Y-82224000D01*
X72120609Y-82875502D01*
X72340727Y-82752979D01*
X72422985Y-82108560D01*
X72340727Y-81695021D01*
X72120609Y-81572498D01*
X71469107Y-82224000D01*
X70054893Y-82224000D01*
X69548000Y-81717107D01*
X69548000Y-80865391D01*
X70110498Y-80865391D01*
X70762000Y-81516893D01*
X71413502Y-80865391D01*
X71290979Y-80645273D01*
X70646560Y-80563015D01*
X70233021Y-80645273D01*
X70110498Y-80865391D01*
X69548000Y-80865391D01*
X69548000Y-78386530D01*
X69595652Y-78501857D01*
X69982108Y-78888989D01*
X70487296Y-79098761D01*
X71034305Y-79099238D01*
X71539857Y-78890348D01*
X71926989Y-78503892D01*
X72119654Y-78039902D01*
X72119654Y-78394000D01*
X72119654Y-78394000D01*
G37*
X72119654Y-78394000D02*
X72145802Y-78532966D01*
X72227931Y-78660599D01*
X72353246Y-78746223D01*
X72502000Y-78776346D01*
X73802000Y-78776346D01*
X73940966Y-78750198D01*
X74068599Y-78668069D01*
X74078000Y-78654310D01*
X74078000Y-79086000D01*
X74107831Y-79235971D01*
X74116060Y-79277342D01*
X74224447Y-79439553D01*
X74538000Y-79753107D01*
X74538000Y-80883893D01*
X74184346Y-80530240D01*
X74184346Y-79594000D01*
X74158198Y-79455034D01*
X74076069Y-79327401D01*
X73950754Y-79241777D01*
X73802000Y-79211654D01*
X72502000Y-79211654D01*
X72363034Y-79237802D01*
X72235401Y-79319931D01*
X72149777Y-79445246D01*
X72119654Y-79594000D01*
X72119654Y-81094000D01*
X72145802Y-81232966D01*
X72227931Y-81360599D01*
X72353246Y-81446223D01*
X72502000Y-81476346D01*
X73716239Y-81476346D01*
X74048000Y-81808107D01*
X74048000Y-86876000D01*
X74081138Y-87042599D01*
X74086060Y-87067342D01*
X74194447Y-87229553D01*
X74819446Y-87854553D01*
X74933520Y-87930775D01*
X74981658Y-87962940D01*
X75173000Y-88001000D01*
X75675654Y-88001000D01*
X75675654Y-88716240D01*
X75140894Y-89251000D01*
X72173000Y-89251000D01*
X71981658Y-89289060D01*
X71930074Y-89323528D01*
X71877674Y-89271128D01*
X71738535Y-89410267D01*
X71698507Y-89209036D01*
X71487684Y-89123717D01*
X70905401Y-89706000D01*
X71174102Y-89974701D01*
X70647804Y-90500998D01*
X70625597Y-90500998D01*
X70368000Y-90243401D01*
X70110403Y-90500998D01*
X70088196Y-90500998D01*
X69561899Y-89974701D01*
X69830599Y-89706000D01*
X69561899Y-89437300D01*
X70099300Y-88899899D01*
X70368000Y-89168599D01*
X70767666Y-88768933D01*
X71010086Y-88668767D01*
X71329645Y-88349765D01*
X71502803Y-87932756D01*
X71503197Y-87481225D01*
X71330767Y-87063914D01*
X71011765Y-86744355D01*
X70594756Y-86571197D01*
X70567056Y-86571173D01*
X69879942Y-85884058D01*
X69677177Y-85748575D01*
X69548000Y-85722880D01*
X69548000Y-83582609D01*
X70110498Y-83582609D01*
X70233021Y-83802727D01*
X70877440Y-83884985D01*
X71290979Y-83802727D01*
X71413502Y-83582609D01*
X70762000Y-82931107D01*
X70110498Y-83582609D01*
X69548000Y-83582609D01*
X69548000Y-82730893D01*
X70054893Y-82224000D01*
X71469107Y-82224000D01*
X72120609Y-82875502D01*
X72340727Y-82752979D01*
X72422985Y-82108560D01*
X72340727Y-81695021D01*
X72120609Y-81572498D01*
X71469107Y-82224000D01*
X70054893Y-82224000D01*
X69548000Y-81717107D01*
X69548000Y-80865391D01*
X70110498Y-80865391D01*
X70762000Y-81516893D01*
X71413502Y-80865391D01*
X71290979Y-80645273D01*
X70646560Y-80563015D01*
X70233021Y-80645273D01*
X70110498Y-80865391D01*
X69548000Y-80865391D01*
X69548000Y-78386530D01*
X69595652Y-78501857D01*
X69982108Y-78888989D01*
X70487296Y-79098761D01*
X71034305Y-79099238D01*
X71539857Y-78890348D01*
X71926989Y-78503892D01*
X72119654Y-78039902D01*
X72119654Y-78394000D01*
G36*
X78798000Y-84226000D02*
X78845575Y-84465177D01*
X78981058Y-84667942D01*
X79206770Y-84893654D01*
X78723000Y-84893654D01*
X78723000Y-63971000D01*
X78684940Y-63779658D01*
X78576553Y-63617447D01*
X77509093Y-62549987D01*
X77598999Y-62098000D01*
X77505751Y-61629213D01*
X77240205Y-61231794D01*
X76842786Y-60966248D01*
X76373999Y-60873000D01*
X76326001Y-60873000D01*
X75970965Y-60943621D01*
X75551466Y-60485459D01*
X75857214Y-60689752D01*
X76326001Y-60783000D01*
X76373999Y-60783000D01*
X76842786Y-60689752D01*
X77240205Y-60424206D01*
X77505751Y-60026787D01*
X77598999Y-59558000D01*
X77505751Y-59089213D01*
X77240205Y-58691794D01*
X76842786Y-58426248D01*
X76373999Y-58333000D01*
X76326001Y-58333000D01*
X75857214Y-58426248D01*
X75548000Y-58632857D01*
X75548000Y-58506000D01*
X75546779Y-58499862D01*
X75547848Y-58493699D01*
X75527795Y-58404421D01*
X75509940Y-58314658D01*
X75506464Y-58309456D01*
X75505093Y-58303351D01*
X75452383Y-58228518D01*
X75401553Y-58152447D01*
X75396352Y-58148972D01*
X75392748Y-58143855D01*
X73888503Y-56711872D01*
X74118790Y-56481586D01*
X73986029Y-56348825D01*
X73986029Y-56260437D01*
X73796623Y-56071031D01*
X73783603Y-56001835D01*
X73720924Y-55907326D01*
X73806083Y-55965513D01*
X73885003Y-55982633D01*
X74074418Y-56172048D01*
X74162806Y-56172048D01*
X74295567Y-56304809D01*
X74612635Y-55987741D01*
X75190907Y-56566013D01*
X75101001Y-57018000D01*
X75194249Y-57486787D01*
X75459795Y-57884206D01*
X75857214Y-58149752D01*
X76326001Y-58243000D01*
X76373999Y-58243000D01*
X76842786Y-58149752D01*
X77240205Y-57884206D01*
X77505751Y-57486787D01*
X77598999Y-57018000D01*
X77505751Y-56549213D01*
X77337842Y-56297919D01*
X77393145Y-56320883D01*
X77661677Y-56321117D01*
X77909857Y-56218571D01*
X78099903Y-56028856D01*
X78202883Y-55780855D01*
X78202973Y-55678133D01*
X78798000Y-55083106D01*
X78798000Y-84226000D01*
X78798000Y-84226000D01*
G37*
X78798000Y-84226000D02*
X78845575Y-84465177D01*
X78981058Y-84667942D01*
X79206770Y-84893654D01*
X78723000Y-84893654D01*
X78723000Y-63971000D01*
X78684940Y-63779658D01*
X78576553Y-63617447D01*
X77509093Y-62549987D01*
X77598999Y-62098000D01*
X77505751Y-61629213D01*
X77240205Y-61231794D01*
X76842786Y-60966248D01*
X76373999Y-60873000D01*
X76326001Y-60873000D01*
X75970965Y-60943621D01*
X75551466Y-60485459D01*
X75857214Y-60689752D01*
X76326001Y-60783000D01*
X76373999Y-60783000D01*
X76842786Y-60689752D01*
X77240205Y-60424206D01*
X77505751Y-60026787D01*
X77598999Y-59558000D01*
X77505751Y-59089213D01*
X77240205Y-58691794D01*
X76842786Y-58426248D01*
X76373999Y-58333000D01*
X76326001Y-58333000D01*
X75857214Y-58426248D01*
X75548000Y-58632857D01*
X75548000Y-58506000D01*
X75546779Y-58499862D01*
X75547848Y-58493699D01*
X75527795Y-58404421D01*
X75509940Y-58314658D01*
X75506464Y-58309456D01*
X75505093Y-58303351D01*
X75452383Y-58228518D01*
X75401553Y-58152447D01*
X75396352Y-58148972D01*
X75392748Y-58143855D01*
X73888503Y-56711872D01*
X74118790Y-56481586D01*
X73986029Y-56348825D01*
X73986029Y-56260437D01*
X73796623Y-56071031D01*
X73783603Y-56001835D01*
X73720924Y-55907326D01*
X73806083Y-55965513D01*
X73885003Y-55982633D01*
X74074418Y-56172048D01*
X74162806Y-56172048D01*
X74295567Y-56304809D01*
X74612635Y-55987741D01*
X75190907Y-56566013D01*
X75101001Y-57018000D01*
X75194249Y-57486787D01*
X75459795Y-57884206D01*
X75857214Y-58149752D01*
X76326001Y-58243000D01*
X76373999Y-58243000D01*
X76842786Y-58149752D01*
X77240205Y-57884206D01*
X77505751Y-57486787D01*
X77598999Y-57018000D01*
X77505751Y-56549213D01*
X77337842Y-56297919D01*
X77393145Y-56320883D01*
X77661677Y-56321117D01*
X77909857Y-56218571D01*
X78099903Y-56028856D01*
X78202883Y-55780855D01*
X78202973Y-55678133D01*
X78798000Y-55083106D01*
X78798000Y-84226000D01*
G36*
X73198000Y-72659509D02*
X73198000Y-75176004D01*
X73228103Y-75327341D01*
X73236060Y-75367346D01*
X73344447Y-75529557D01*
X73508000Y-75693111D01*
X73508000Y-76511654D01*
X73185452Y-76511654D01*
X73152000Y-76505000D01*
X73118548Y-76511654D01*
X72726760Y-76511654D01*
X72092106Y-75877000D01*
X73003002Y-75877000D01*
X73003002Y-75509931D01*
X73061000Y-75369911D01*
X73061000Y-74852250D01*
X72902750Y-74694000D01*
X72028000Y-74694000D01*
X72028000Y-75244000D01*
X71228000Y-75244000D01*
X71228000Y-74694000D01*
X70828000Y-74694000D01*
X70828000Y-73594000D01*
X71228000Y-73594000D01*
X71228000Y-73044000D01*
X72028000Y-73044000D01*
X72028000Y-73594000D01*
X72902750Y-73594000D01*
X73061000Y-73435750D01*
X73061000Y-72918089D01*
X73003002Y-72778069D01*
X73003002Y-72464511D01*
X73198000Y-72659509D01*
X73198000Y-72659509D01*
G37*
X73198000Y-72659509D02*
X73198000Y-75176004D01*
X73228103Y-75327341D01*
X73236060Y-75367346D01*
X73344447Y-75529557D01*
X73508000Y-75693111D01*
X73508000Y-76511654D01*
X73185452Y-76511654D01*
X73152000Y-76505000D01*
X73118548Y-76511654D01*
X72726760Y-76511654D01*
X72092106Y-75877000D01*
X73003002Y-75877000D01*
X73003002Y-75509931D01*
X73061000Y-75369911D01*
X73061000Y-74852250D01*
X72902750Y-74694000D01*
X72028000Y-74694000D01*
X72028000Y-75244000D01*
X71228000Y-75244000D01*
X71228000Y-74694000D01*
X70828000Y-74694000D01*
X70828000Y-73594000D01*
X71228000Y-73594000D01*
X71228000Y-73044000D01*
X72028000Y-73044000D01*
X72028000Y-73594000D01*
X72902750Y-73594000D01*
X73061000Y-73435750D01*
X73061000Y-72918089D01*
X73003002Y-72778069D01*
X73003002Y-72464511D01*
X73198000Y-72659509D01*
G36*
X66264247Y-59598512D02*
X66199191Y-59663567D01*
X66394278Y-59858654D01*
X66278000Y-59858654D01*
X66139034Y-59884802D01*
X66011401Y-59966931D01*
X65925777Y-60092246D01*
X65895654Y-60241000D01*
X65895654Y-60555538D01*
X65816060Y-60674658D01*
X65778000Y-60866000D01*
X65816060Y-61057342D01*
X65895654Y-61176462D01*
X65895654Y-61491000D01*
X65921802Y-61629966D01*
X66003931Y-61757599D01*
X66129246Y-61843223D01*
X66278000Y-61873346D01*
X66403000Y-61873346D01*
X66403000Y-62387116D01*
X65432538Y-63357578D01*
X65128000Y-63297001D01*
X64659213Y-63390249D01*
X64298000Y-63631603D01*
X64298000Y-62480902D01*
X65351553Y-61427350D01*
X65459940Y-61265138D01*
X65467018Y-61229553D01*
X65498000Y-61073796D01*
X65498000Y-60208106D01*
X66185921Y-59520186D01*
X66264247Y-59598512D01*
X66264247Y-59598512D01*
G37*
X66264247Y-59598512D02*
X66199191Y-59663567D01*
X66394278Y-59858654D01*
X66278000Y-59858654D01*
X66139034Y-59884802D01*
X66011401Y-59966931D01*
X65925777Y-60092246D01*
X65895654Y-60241000D01*
X65895654Y-60555538D01*
X65816060Y-60674658D01*
X65778000Y-60866000D01*
X65816060Y-61057342D01*
X65895654Y-61176462D01*
X65895654Y-61491000D01*
X65921802Y-61629966D01*
X66003931Y-61757599D01*
X66129246Y-61843223D01*
X66278000Y-61873346D01*
X66403000Y-61873346D01*
X66403000Y-62387116D01*
X65432538Y-63357578D01*
X65128000Y-63297001D01*
X64659213Y-63390249D01*
X64298000Y-63631603D01*
X64298000Y-62480902D01*
X65351553Y-61427350D01*
X65459940Y-61265138D01*
X65467018Y-61229553D01*
X65498000Y-61073796D01*
X65498000Y-60208106D01*
X66185921Y-59520186D01*
X66264247Y-59598512D01*
G36*
X65956658Y-52337940D02*
X66148000Y-52376000D01*
X66793453Y-52376000D01*
X66915144Y-52497903D01*
X67163145Y-52600883D01*
X67255930Y-52600964D01*
X66772010Y-53084884D01*
X66656223Y-53084884D01*
X65813870Y-52242531D01*
X65956658Y-52337940D01*
X65956658Y-52337940D01*
G37*
X65956658Y-52337940D02*
X66148000Y-52376000D01*
X66793453Y-52376000D01*
X66915144Y-52497903D01*
X67163145Y-52600883D01*
X67255930Y-52600964D01*
X66772010Y-53084884D01*
X66656223Y-53084884D01*
X65813870Y-52242531D01*
X65956658Y-52337940D01*
G36*
X71968000Y-47398893D02*
X70649431Y-48717462D01*
X70633835Y-48720397D01*
X70539326Y-48783076D01*
X70597513Y-48697917D01*
X70614633Y-48618997D01*
X70804048Y-48429582D01*
X70804048Y-48341194D01*
X70936809Y-48208433D01*
X70628522Y-47900147D01*
X70679903Y-47848856D01*
X70782883Y-47600855D01*
X70782973Y-47498134D01*
X71968000Y-46313106D01*
X71968000Y-47398893D01*
X71968000Y-47398893D01*
G37*
X71968000Y-47398893D02*
X70649431Y-48717462D01*
X70633835Y-48720397D01*
X70539326Y-48783076D01*
X70597513Y-48697917D01*
X70614633Y-48618997D01*
X70804048Y-48429582D01*
X70804048Y-48341194D01*
X70936809Y-48208433D01*
X70628522Y-47900147D01*
X70679903Y-47848856D01*
X70782883Y-47600855D01*
X70782973Y-47498134D01*
X71968000Y-46313106D01*
X71968000Y-47398893D01*
G36*
X67523000Y-45500998D02*
X67398000Y-45500998D01*
X67398000Y-45618000D01*
X67181250Y-45618000D01*
X67023000Y-45776250D01*
X67023000Y-46563500D01*
X67398000Y-46563500D01*
X67398000Y-47188500D01*
X67023000Y-47188500D01*
X67023000Y-47376000D01*
X66273000Y-47376000D01*
X66273000Y-47188500D01*
X65898000Y-47188500D01*
X65898000Y-46563500D01*
X66273000Y-46563500D01*
X66273000Y-45776250D01*
X66114750Y-45618000D01*
X65898000Y-45618000D01*
X65898000Y-45500998D01*
X65823000Y-45500998D01*
X65823000Y-44131939D01*
X66009907Y-44319172D01*
X66423242Y-44490804D01*
X66870795Y-44491195D01*
X67284429Y-44320285D01*
X67523000Y-44082129D01*
X67523000Y-45500998D01*
X67523000Y-45500998D01*
G37*
X67523000Y-45500998D02*
X67398000Y-45500998D01*
X67398000Y-45618000D01*
X67181250Y-45618000D01*
X67023000Y-45776250D01*
X67023000Y-46563500D01*
X67398000Y-46563500D01*
X67398000Y-47188500D01*
X67023000Y-47188500D01*
X67023000Y-47376000D01*
X66273000Y-47376000D01*
X66273000Y-47188500D01*
X65898000Y-47188500D01*
X65898000Y-46563500D01*
X66273000Y-46563500D01*
X66273000Y-45776250D01*
X66114750Y-45618000D01*
X65898000Y-45618000D01*
X65898000Y-45500998D01*
X65823000Y-45500998D01*
X65823000Y-44131939D01*
X66009907Y-44319172D01*
X66423242Y-44490804D01*
X66870795Y-44491195D01*
X67284429Y-44320285D01*
X67523000Y-44082129D01*
X67523000Y-45500998D01*
G36*
X70573715Y-44002429D02*
X70889907Y-44319172D01*
X71303242Y-44490804D01*
X71689354Y-44491141D01*
X70654496Y-45526000D01*
X69698000Y-45526000D01*
X69506658Y-45564060D01*
X69344447Y-45672447D01*
X68969450Y-46047444D01*
X68969447Y-46047446D01*
X68624447Y-46392447D01*
X68573000Y-46469442D01*
X68573000Y-45951000D01*
X68534940Y-45759658D01*
X68523000Y-45741789D01*
X68523000Y-44083106D01*
X68740106Y-43866000D01*
X70517344Y-43866000D01*
X70573715Y-44002429D01*
X70573715Y-44002429D01*
G37*
X70573715Y-44002429D02*
X70889907Y-44319172D01*
X71303242Y-44490804D01*
X71689354Y-44491141D01*
X70654496Y-45526000D01*
X69698000Y-45526000D01*
X69506658Y-45564060D01*
X69344447Y-45672447D01*
X68969450Y-46047444D01*
X68969447Y-46047446D01*
X68624447Y-46392447D01*
X68573000Y-46469442D01*
X68573000Y-45951000D01*
X68534940Y-45759658D01*
X68523000Y-45741789D01*
X68523000Y-44083106D01*
X68740106Y-43866000D01*
X70517344Y-43866000D01*
X70573715Y-44002429D01*
G36*
X65568000Y-41013346D02*
X66148000Y-41013346D01*
X66148000Y-42355344D01*
X66011571Y-42411715D01*
X65694828Y-42727907D01*
X65637487Y-42866000D01*
X65608000Y-42866000D01*
X65416658Y-42904060D01*
X65254447Y-43012447D01*
X64969447Y-43297447D01*
X64861060Y-43459658D01*
X64823000Y-43651000D01*
X64823000Y-45868654D01*
X64648000Y-45868654D01*
X64648000Y-44966000D01*
X64609940Y-44774658D01*
X64596576Y-44754658D01*
X64501553Y-44612446D01*
X62631553Y-42742447D01*
X62469342Y-42634060D01*
X62278000Y-42596000D01*
X62032415Y-42596000D01*
X62071169Y-42538000D01*
X64431000Y-42538000D01*
X64477755Y-42528700D01*
X64525424Y-42529003D01*
X64572497Y-42509855D01*
X64622342Y-42499940D01*
X64661977Y-42473456D01*
X64706135Y-42455494D01*
X64742300Y-42419786D01*
X64784553Y-42391553D01*
X64811037Y-42351918D01*
X64844959Y-42318424D01*
X65411959Y-41481424D01*
X65431705Y-41434598D01*
X65459940Y-41392342D01*
X65469240Y-41345588D01*
X65487763Y-41301662D01*
X65488086Y-41250841D01*
X65498000Y-41201000D01*
X65498000Y-40999171D01*
X65568000Y-41013346D01*
X65568000Y-41013346D01*
G37*
X65568000Y-41013346D02*
X66148000Y-41013346D01*
X66148000Y-42355344D01*
X66011571Y-42411715D01*
X65694828Y-42727907D01*
X65637487Y-42866000D01*
X65608000Y-42866000D01*
X65416658Y-42904060D01*
X65254447Y-43012447D01*
X64969447Y-43297447D01*
X64861060Y-43459658D01*
X64823000Y-43651000D01*
X64823000Y-45868654D01*
X64648000Y-45868654D01*
X64648000Y-44966000D01*
X64609940Y-44774658D01*
X64596576Y-44754658D01*
X64501553Y-44612446D01*
X62631553Y-42742447D01*
X62469342Y-42634060D01*
X62278000Y-42596000D01*
X62032415Y-42596000D01*
X62071169Y-42538000D01*
X64431000Y-42538000D01*
X64477755Y-42528700D01*
X64525424Y-42529003D01*
X64572497Y-42509855D01*
X64622342Y-42499940D01*
X64661977Y-42473456D01*
X64706135Y-42455494D01*
X64742300Y-42419786D01*
X64784553Y-42391553D01*
X64811037Y-42351918D01*
X64844959Y-42318424D01*
X65411959Y-41481424D01*
X65431705Y-41434598D01*
X65459940Y-41392342D01*
X65469240Y-41345588D01*
X65487763Y-41301662D01*
X65488086Y-41250841D01*
X65498000Y-41201000D01*
X65498000Y-40999171D01*
X65568000Y-41013346D01*
G36*
X67984447Y-39979553D02*
X68146658Y-40087940D01*
X68338000Y-40126000D01*
X69198000Y-40126000D01*
X69389342Y-40087940D01*
X69551553Y-39979553D01*
X69735654Y-39795452D01*
X69735654Y-40551000D01*
X69761802Y-40689966D01*
X69843931Y-40817599D01*
X69969246Y-40903223D01*
X70118000Y-40933346D01*
X70368000Y-40933346D01*
X70368000Y-42706000D01*
X70399826Y-42866000D01*
X68533000Y-42866000D01*
X68341658Y-42904060D01*
X68179447Y-43012447D01*
X67772954Y-43418940D01*
X67773195Y-43143205D01*
X67602285Y-42729571D01*
X67286093Y-42412828D01*
X67148000Y-42355487D01*
X67148000Y-40998293D01*
X67206966Y-40987198D01*
X67334599Y-40905069D01*
X67420223Y-40779754D01*
X67450346Y-40631000D01*
X67450346Y-39445452D01*
X67984447Y-39979553D01*
X67984447Y-39979553D01*
G37*
X67984447Y-39979553D02*
X68146658Y-40087940D01*
X68338000Y-40126000D01*
X69198000Y-40126000D01*
X69389342Y-40087940D01*
X69551553Y-39979553D01*
X69735654Y-39795452D01*
X69735654Y-40551000D01*
X69761802Y-40689966D01*
X69843931Y-40817599D01*
X69969246Y-40903223D01*
X70118000Y-40933346D01*
X70368000Y-40933346D01*
X70368000Y-42706000D01*
X70399826Y-42866000D01*
X68533000Y-42866000D01*
X68341658Y-42904060D01*
X68179447Y-43012447D01*
X67772954Y-43418940D01*
X67773195Y-43143205D01*
X67602285Y-42729571D01*
X67286093Y-42412828D01*
X67148000Y-42355487D01*
X67148000Y-40998293D01*
X67206966Y-40987198D01*
X67334599Y-40905069D01*
X67420223Y-40779754D01*
X67450346Y-40631000D01*
X67450346Y-39445452D01*
X67984447Y-39979553D01*
G36*
X71904447Y-38099553D02*
X72066658Y-38207940D01*
X72258000Y-38246000D01*
X73330894Y-38246000D01*
X73827072Y-38742178D01*
X73743000Y-38826250D01*
X73743000Y-39613500D01*
X74118000Y-39613500D01*
X74118000Y-40238500D01*
X73743000Y-40238500D01*
X73743000Y-41025750D01*
X73901250Y-41184000D01*
X74118000Y-41184000D01*
X74118000Y-41301002D01*
X74138000Y-41301002D01*
X74138000Y-42338894D01*
X73448000Y-43028894D01*
X73448000Y-41876000D01*
X73409940Y-41684658D01*
X73344458Y-41586658D01*
X73301553Y-41522446D01*
X72898928Y-41119822D01*
X72993000Y-41025750D01*
X72993000Y-40238500D01*
X72618000Y-40238500D01*
X72618000Y-39613500D01*
X72993000Y-39613500D01*
X72993000Y-38826250D01*
X72834750Y-38668000D01*
X72618000Y-38668000D01*
X72618000Y-38550998D01*
X72330105Y-38550998D01*
X72021553Y-38242447D01*
X71859342Y-38134060D01*
X71668000Y-38096000D01*
X70275106Y-38096000D01*
X70787761Y-37583346D01*
X71388240Y-37583346D01*
X71904447Y-38099553D01*
X71904447Y-38099553D01*
G37*
X71904447Y-38099553D02*
X72066658Y-38207940D01*
X72258000Y-38246000D01*
X73330894Y-38246000D01*
X73827072Y-38742178D01*
X73743000Y-38826250D01*
X73743000Y-39613500D01*
X74118000Y-39613500D01*
X74118000Y-40238500D01*
X73743000Y-40238500D01*
X73743000Y-41025750D01*
X73901250Y-41184000D01*
X74118000Y-41184000D01*
X74118000Y-41301002D01*
X74138000Y-41301002D01*
X74138000Y-42338894D01*
X73448000Y-43028894D01*
X73448000Y-41876000D01*
X73409940Y-41684658D01*
X73344458Y-41586658D01*
X73301553Y-41522446D01*
X72898928Y-41119822D01*
X72993000Y-41025750D01*
X72993000Y-40238500D01*
X72618000Y-40238500D01*
X72618000Y-39613500D01*
X72993000Y-39613500D01*
X72993000Y-38826250D01*
X72834750Y-38668000D01*
X72618000Y-38668000D01*
X72618000Y-38550998D01*
X72330105Y-38550998D01*
X72021553Y-38242447D01*
X71859342Y-38134060D01*
X71668000Y-38096000D01*
X70275106Y-38096000D01*
X70787761Y-37583346D01*
X71388240Y-37583346D01*
X71904447Y-38099553D01*
G36*
X64293000Y-36433500D02*
X64668000Y-36433500D01*
X64668000Y-37058500D01*
X64293000Y-37058500D01*
X64293000Y-37845750D01*
X64451250Y-38004000D01*
X64522267Y-38004000D01*
X64498000Y-38126000D01*
X64498000Y-38748000D01*
X64351250Y-38748000D01*
X64193000Y-38906250D01*
X64193000Y-39693500D01*
X64498000Y-39693500D01*
X64498000Y-40318500D01*
X64193000Y-40318500D01*
X64193000Y-41105750D01*
X64351250Y-41264000D01*
X64351399Y-41264000D01*
X64165786Y-41538000D01*
X62311260Y-41538000D01*
X62265751Y-41309213D01*
X62000205Y-40911794D01*
X61602786Y-40646248D01*
X61133999Y-40553000D01*
X61086001Y-40553000D01*
X60617214Y-40646248D01*
X60248002Y-40892947D01*
X60248002Y-40476750D01*
X62435000Y-40476750D01*
X62435000Y-40756912D01*
X62531369Y-40989566D01*
X62709435Y-41167632D01*
X62942089Y-41264000D01*
X63284750Y-41264000D01*
X63443000Y-41105750D01*
X63443000Y-40318500D01*
X62593250Y-40318500D01*
X62435000Y-40476750D01*
X60248002Y-40476750D01*
X60248002Y-40123053D01*
X60617214Y-40369752D01*
X61086001Y-40463000D01*
X61133999Y-40463000D01*
X61602786Y-40369752D01*
X62000205Y-40104206D01*
X62265751Y-39706787D01*
X62355599Y-39255088D01*
X62435000Y-39255088D01*
X62435000Y-39535250D01*
X62593250Y-39693500D01*
X63443000Y-39693500D01*
X63443000Y-38906250D01*
X63284750Y-38748000D01*
X62942089Y-38748000D01*
X62709435Y-38844368D01*
X62531369Y-39022434D01*
X62435000Y-39255088D01*
X62355599Y-39255088D01*
X62358999Y-39238000D01*
X62292262Y-38902492D01*
X63063392Y-38258860D01*
X63077661Y-38241177D01*
X63096553Y-38228553D01*
X63138494Y-38165785D01*
X63185901Y-38107032D01*
X63192316Y-38085235D01*
X63204940Y-38066342D01*
X63217341Y-38004000D01*
X63384750Y-38004000D01*
X63543000Y-37845750D01*
X63543000Y-37058500D01*
X63243000Y-37058500D01*
X63243000Y-36433500D01*
X63543000Y-36433500D01*
X63543000Y-36121000D01*
X64293000Y-36121000D01*
X64293000Y-36433500D01*
X64293000Y-36433500D01*
G37*
X64293000Y-36433500D02*
X64668000Y-36433500D01*
X64668000Y-37058500D01*
X64293000Y-37058500D01*
X64293000Y-37845750D01*
X64451250Y-38004000D01*
X64522267Y-38004000D01*
X64498000Y-38126000D01*
X64498000Y-38748000D01*
X64351250Y-38748000D01*
X64193000Y-38906250D01*
X64193000Y-39693500D01*
X64498000Y-39693500D01*
X64498000Y-40318500D01*
X64193000Y-40318500D01*
X64193000Y-41105750D01*
X64351250Y-41264000D01*
X64351399Y-41264000D01*
X64165786Y-41538000D01*
X62311260Y-41538000D01*
X62265751Y-41309213D01*
X62000205Y-40911794D01*
X61602786Y-40646248D01*
X61133999Y-40553000D01*
X61086001Y-40553000D01*
X60617214Y-40646248D01*
X60248002Y-40892947D01*
X60248002Y-40476750D01*
X62435000Y-40476750D01*
X62435000Y-40756912D01*
X62531369Y-40989566D01*
X62709435Y-41167632D01*
X62942089Y-41264000D01*
X63284750Y-41264000D01*
X63443000Y-41105750D01*
X63443000Y-40318500D01*
X62593250Y-40318500D01*
X62435000Y-40476750D01*
X60248002Y-40476750D01*
X60248002Y-40123053D01*
X60617214Y-40369752D01*
X61086001Y-40463000D01*
X61133999Y-40463000D01*
X61602786Y-40369752D01*
X62000205Y-40104206D01*
X62265751Y-39706787D01*
X62355599Y-39255088D01*
X62435000Y-39255088D01*
X62435000Y-39535250D01*
X62593250Y-39693500D01*
X63443000Y-39693500D01*
X63443000Y-38906250D01*
X63284750Y-38748000D01*
X62942089Y-38748000D01*
X62709435Y-38844368D01*
X62531369Y-39022434D01*
X62435000Y-39255088D01*
X62355599Y-39255088D01*
X62358999Y-39238000D01*
X62292262Y-38902492D01*
X63063392Y-38258860D01*
X63077661Y-38241177D01*
X63096553Y-38228553D01*
X63138494Y-38165785D01*
X63185901Y-38107032D01*
X63192316Y-38085235D01*
X63204940Y-38066342D01*
X63217341Y-38004000D01*
X63384750Y-38004000D01*
X63543000Y-37845750D01*
X63543000Y-37058500D01*
X63243000Y-37058500D01*
X63243000Y-36433500D01*
X63543000Y-36433500D01*
X63543000Y-36121000D01*
X64293000Y-36121000D01*
X64293000Y-36433500D01*
G36*
X75013180Y-36055971D02*
X75095274Y-36273000D01*
X75925000Y-36273000D01*
X75925000Y-35946000D01*
X76775000Y-35946000D01*
X76775000Y-36273000D01*
X77200000Y-36273000D01*
X77200000Y-37123000D01*
X76775000Y-37123000D01*
X76775000Y-37548000D01*
X75925000Y-37548000D01*
X75925000Y-37123000D01*
X75095274Y-37123000D01*
X75013180Y-37340029D01*
X75152120Y-37548000D01*
X74974998Y-37548000D01*
X74974998Y-38181000D01*
X75745339Y-38181000D01*
X75459795Y-38371794D01*
X75194249Y-38769213D01*
X75138000Y-39051994D01*
X75138000Y-38846000D01*
X75099940Y-38654658D01*
X74991553Y-38492447D01*
X74333106Y-37834000D01*
X74963002Y-37834000D01*
X74963002Y-37346221D01*
X74971000Y-37326912D01*
X74971000Y-37046750D01*
X74812750Y-36888500D01*
X73963000Y-36888500D01*
X73963000Y-37201000D01*
X73213000Y-37201000D01*
X73213000Y-36888500D01*
X72838000Y-36888500D01*
X72838000Y-36263500D01*
X73213000Y-36263500D01*
X73213000Y-35951000D01*
X73963000Y-35951000D01*
X73963000Y-36263500D01*
X74812750Y-36263500D01*
X74971000Y-36105250D01*
X74971000Y-35946000D01*
X75086648Y-35946000D01*
X75013180Y-36055971D01*
X75013180Y-36055971D01*
G37*
X75013180Y-36055971D02*
X75095274Y-36273000D01*
X75925000Y-36273000D01*
X75925000Y-35946000D01*
X76775000Y-35946000D01*
X76775000Y-36273000D01*
X77200000Y-36273000D01*
X77200000Y-37123000D01*
X76775000Y-37123000D01*
X76775000Y-37548000D01*
X75925000Y-37548000D01*
X75925000Y-37123000D01*
X75095274Y-37123000D01*
X75013180Y-37340029D01*
X75152120Y-37548000D01*
X74974998Y-37548000D01*
X74974998Y-38181000D01*
X75745339Y-38181000D01*
X75459795Y-38371794D01*
X75194249Y-38769213D01*
X75138000Y-39051994D01*
X75138000Y-38846000D01*
X75099940Y-38654658D01*
X74991553Y-38492447D01*
X74333106Y-37834000D01*
X74963002Y-37834000D01*
X74963002Y-37346221D01*
X74971000Y-37326912D01*
X74971000Y-37046750D01*
X74812750Y-36888500D01*
X73963000Y-36888500D01*
X73963000Y-37201000D01*
X73213000Y-37201000D01*
X73213000Y-36888500D01*
X72838000Y-36888500D01*
X72838000Y-36263500D01*
X73213000Y-36263500D01*
X73213000Y-35951000D01*
X73963000Y-35951000D01*
X73963000Y-36263500D01*
X74812750Y-36263500D01*
X74971000Y-36105250D01*
X74971000Y-35946000D01*
X75086648Y-35946000D01*
X75013180Y-36055971D01*
G36*
X65499800Y-33382400D02*
X65924800Y-33382400D01*
X65924800Y-34232400D01*
X65499800Y-34232400D01*
X65499800Y-34657400D01*
X64649800Y-34657400D01*
X64649800Y-34232400D01*
X63812219Y-34232400D01*
X63737946Y-34449434D01*
X63894108Y-34657400D01*
X63699798Y-34657400D01*
X63699798Y-35051000D01*
X62998000Y-35051000D01*
X62916622Y-35067187D01*
X62834445Y-35078508D01*
X62821442Y-35086119D01*
X62806658Y-35089060D01*
X62792998Y-35098187D01*
X62792998Y-34308108D01*
X63788377Y-33312730D01*
X63812219Y-33382400D01*
X64649800Y-33382400D01*
X64649800Y-32957400D01*
X65499800Y-32957400D01*
X65499800Y-33382400D01*
X65499800Y-33382400D01*
G37*
X65499800Y-33382400D02*
X65924800Y-33382400D01*
X65924800Y-34232400D01*
X65499800Y-34232400D01*
X65499800Y-34657400D01*
X64649800Y-34657400D01*
X64649800Y-34232400D01*
X63812219Y-34232400D01*
X63737946Y-34449434D01*
X63894108Y-34657400D01*
X63699798Y-34657400D01*
X63699798Y-35051000D01*
X62998000Y-35051000D01*
X62916622Y-35067187D01*
X62834445Y-35078508D01*
X62821442Y-35086119D01*
X62806658Y-35089060D01*
X62792998Y-35098187D01*
X62792998Y-34308108D01*
X63788377Y-33312730D01*
X63812219Y-33382400D01*
X64649800Y-33382400D01*
X64649800Y-32957400D01*
X65499800Y-32957400D01*
X65499800Y-33382400D01*
M02*
