G04 #@! TF.FileFunction,Legend,Top*
%FSLAX46Y46*%
G04 Gerber Fmt 4.6, Leading zero omitted, Abs format (unit mm)*
G04 Created by KiCad (PCBNEW 4.0.7) date 03/11/20 16:07:27*
%MOMM*%
%LPD*%
G01*
G04 APERTURE LIST*
%ADD10C,0.100000*%
%ADD11C,0.150000*%
%ADD12C,0.120000*%
G04 APERTURE END LIST*
D10*
D11*
X72693239Y-64604571D02*
X72836096Y-64652190D01*
X72883715Y-64699810D01*
X72931334Y-64795048D01*
X72931334Y-64937905D01*
X72883715Y-65033143D01*
X72836096Y-65080762D01*
X72740858Y-65128381D01*
X72359905Y-65128381D01*
X72359905Y-64128381D01*
X72693239Y-64128381D01*
X72788477Y-64176000D01*
X72836096Y-64223619D01*
X72883715Y-64318857D01*
X72883715Y-64414095D01*
X72836096Y-64509333D01*
X72788477Y-64556952D01*
X72693239Y-64604571D01*
X72359905Y-64604571D01*
X73883715Y-65128381D02*
X73312286Y-65128381D01*
X73598000Y-65128381D02*
X73598000Y-64128381D01*
X73502762Y-64271238D01*
X73407524Y-64366476D01*
X73312286Y-64414095D01*
X72693239Y-67404571D02*
X72836096Y-67452190D01*
X72883715Y-67499810D01*
X72931334Y-67595048D01*
X72931334Y-67737905D01*
X72883715Y-67833143D01*
X72836096Y-67880762D01*
X72740858Y-67928381D01*
X72359905Y-67928381D01*
X72359905Y-66928381D01*
X72693239Y-66928381D01*
X72788477Y-66976000D01*
X72836096Y-67023619D01*
X72883715Y-67118857D01*
X72883715Y-67214095D01*
X72836096Y-67309333D01*
X72788477Y-67356952D01*
X72693239Y-67404571D01*
X72359905Y-67404571D01*
X73550381Y-66928381D02*
X73645620Y-66928381D01*
X73740858Y-66976000D01*
X73788477Y-67023619D01*
X73836096Y-67118857D01*
X73883715Y-67309333D01*
X73883715Y-67547429D01*
X73836096Y-67737905D01*
X73788477Y-67833143D01*
X73740858Y-67880762D01*
X73645620Y-67928381D01*
X73550381Y-67928381D01*
X73455143Y-67880762D01*
X73407524Y-67833143D01*
X73359905Y-67737905D01*
X73312286Y-67547429D01*
X73312286Y-67309333D01*
X73359905Y-67118857D01*
X73407524Y-67023619D01*
X73455143Y-66976000D01*
X73550381Y-66928381D01*
X70507524Y-63003381D02*
X70031333Y-63003381D01*
X70031333Y-62003381D01*
X64787286Y-62978381D02*
X64787286Y-61978381D01*
X64787286Y-62454571D02*
X65358715Y-62454571D01*
X65358715Y-62978381D02*
X65358715Y-61978381D01*
X68302762Y-32361714D02*
X68350381Y-32218857D01*
X68350381Y-31980761D01*
X68302762Y-31885523D01*
X68255143Y-31837904D01*
X68159905Y-31790285D01*
X68064667Y-31790285D01*
X67969429Y-31837904D01*
X67921810Y-31885523D01*
X67874190Y-31980761D01*
X67826571Y-32171238D01*
X67778952Y-32266476D01*
X67731333Y-32314095D01*
X67636095Y-32361714D01*
X67540857Y-32361714D01*
X67445619Y-32314095D01*
X67398000Y-32266476D01*
X67350381Y-32171238D01*
X67350381Y-31933142D01*
X67398000Y-31790285D01*
X68255143Y-30790285D02*
X68302762Y-30837904D01*
X68350381Y-30980761D01*
X68350381Y-31075999D01*
X68302762Y-31218857D01*
X68207524Y-31314095D01*
X68112286Y-31361714D01*
X67921810Y-31409333D01*
X67778952Y-31409333D01*
X67588476Y-31361714D01*
X67493238Y-31314095D01*
X67398000Y-31218857D01*
X67350381Y-31075999D01*
X67350381Y-30980761D01*
X67398000Y-30837904D01*
X67445619Y-30790285D01*
X68350381Y-30361714D02*
X67350381Y-30361714D01*
X68350381Y-29790285D02*
X67778952Y-30218857D01*
X67350381Y-29790285D02*
X67921810Y-30361714D01*
X70702762Y-32123619D02*
X70750381Y-31980762D01*
X70750381Y-31742666D01*
X70702762Y-31647428D01*
X70655143Y-31599809D01*
X70559905Y-31552190D01*
X70464667Y-31552190D01*
X70369429Y-31599809D01*
X70321810Y-31647428D01*
X70274190Y-31742666D01*
X70226571Y-31933143D01*
X70178952Y-32028381D01*
X70131333Y-32076000D01*
X70036095Y-32123619D01*
X69940857Y-32123619D01*
X69845619Y-32076000D01*
X69798000Y-32028381D01*
X69750381Y-31933143D01*
X69750381Y-31695047D01*
X69798000Y-31552190D01*
X70750381Y-31123619D02*
X69750381Y-31123619D01*
X69750381Y-30456953D02*
X69750381Y-30266476D01*
X69798000Y-30171238D01*
X69893238Y-30076000D01*
X70083714Y-30028381D01*
X70417048Y-30028381D01*
X70607524Y-30076000D01*
X70702762Y-30171238D01*
X70750381Y-30266476D01*
X70750381Y-30456953D01*
X70702762Y-30552191D01*
X70607524Y-30647429D01*
X70417048Y-30695048D01*
X70083714Y-30695048D01*
X69893238Y-30647429D01*
X69798000Y-30552191D01*
X69750381Y-30456953D01*
X64798000Y-31837904D02*
X64750381Y-31933142D01*
X64750381Y-32075999D01*
X64798000Y-32218857D01*
X64893238Y-32314095D01*
X64988476Y-32361714D01*
X65178952Y-32409333D01*
X65321810Y-32409333D01*
X65512286Y-32361714D01*
X65607524Y-32314095D01*
X65702762Y-32218857D01*
X65750381Y-32075999D01*
X65750381Y-31980761D01*
X65702762Y-31837904D01*
X65655143Y-31790285D01*
X65321810Y-31790285D01*
X65321810Y-31980761D01*
X65750381Y-31361714D02*
X64750381Y-31361714D01*
X65750381Y-30790285D01*
X64750381Y-30790285D01*
X65750381Y-30314095D02*
X64750381Y-30314095D01*
X64750381Y-30076000D01*
X64798000Y-29933142D01*
X64893238Y-29837904D01*
X64988476Y-29790285D01*
X65178952Y-29742666D01*
X65321810Y-29742666D01*
X65512286Y-29790285D01*
X65607524Y-29837904D01*
X65702762Y-29933142D01*
X65750381Y-30076000D01*
X65750381Y-30314095D01*
X72350381Y-32114095D02*
X72350381Y-31495047D01*
X72731333Y-31828381D01*
X72731333Y-31685523D01*
X72778952Y-31590285D01*
X72826571Y-31542666D01*
X72921810Y-31495047D01*
X73159905Y-31495047D01*
X73255143Y-31542666D01*
X73302762Y-31590285D01*
X73350381Y-31685523D01*
X73350381Y-31971238D01*
X73302762Y-32066476D01*
X73255143Y-32114095D01*
X72350381Y-31209333D02*
X73350381Y-30876000D01*
X72350381Y-30542666D01*
X72350381Y-30304571D02*
X72350381Y-29685523D01*
X72731333Y-30018857D01*
X72731333Y-29875999D01*
X72778952Y-29780761D01*
X72826571Y-29733142D01*
X72921810Y-29685523D01*
X73159905Y-29685523D01*
X73255143Y-29733142D01*
X73302762Y-29780761D01*
X73350381Y-29875999D01*
X73350381Y-30161714D01*
X73302762Y-30256952D01*
X73255143Y-30304571D01*
X77908305Y-33640781D02*
X78527353Y-33640781D01*
X78194019Y-34021733D01*
X78336877Y-34021733D01*
X78432115Y-34069352D01*
X78479734Y-34116971D01*
X78527353Y-34212210D01*
X78527353Y-34450305D01*
X78479734Y-34545543D01*
X78432115Y-34593162D01*
X78336877Y-34640781D01*
X78051162Y-34640781D01*
X77955924Y-34593162D01*
X77908305Y-34545543D01*
X78813067Y-33640781D02*
X79146400Y-34640781D01*
X79479734Y-33640781D01*
X79717829Y-33640781D02*
X80336877Y-33640781D01*
X80003543Y-34021733D01*
X80146401Y-34021733D01*
X80241639Y-34069352D01*
X80289258Y-34116971D01*
X80336877Y-34212210D01*
X80336877Y-34450305D01*
X80289258Y-34545543D01*
X80241639Y-34593162D01*
X80146401Y-34640781D01*
X79860686Y-34640781D01*
X79765448Y-34593162D01*
X79717829Y-34545543D01*
X78498796Y-36431600D02*
X78403558Y-36383981D01*
X78260701Y-36383981D01*
X78117843Y-36431600D01*
X78022605Y-36526838D01*
X77974986Y-36622076D01*
X77927367Y-36812552D01*
X77927367Y-36955410D01*
X77974986Y-37145886D01*
X78022605Y-37241124D01*
X78117843Y-37336362D01*
X78260701Y-37383981D01*
X78355939Y-37383981D01*
X78498796Y-37336362D01*
X78546415Y-37288743D01*
X78546415Y-36955410D01*
X78355939Y-36955410D01*
X78974986Y-37383981D02*
X78974986Y-36383981D01*
X79546415Y-37383981D01*
X79546415Y-36383981D01*
X80022605Y-37383981D02*
X80022605Y-36383981D01*
X80260700Y-36383981D01*
X80403558Y-36431600D01*
X80498796Y-36526838D01*
X80546415Y-36622076D01*
X80594034Y-36812552D01*
X80594034Y-36955410D01*
X80546415Y-37145886D01*
X80498796Y-37241124D01*
X80403558Y-37336362D01*
X80260700Y-37383981D01*
X80022605Y-37383981D01*
X78625724Y-38847781D02*
X78149533Y-38847781D01*
X78101914Y-39323971D01*
X78149533Y-39276352D01*
X78244771Y-39228733D01*
X78482867Y-39228733D01*
X78578105Y-39276352D01*
X78625724Y-39323971D01*
X78673343Y-39419210D01*
X78673343Y-39657305D01*
X78625724Y-39752543D01*
X78578105Y-39800162D01*
X78482867Y-39847781D01*
X78244771Y-39847781D01*
X78149533Y-39800162D01*
X78101914Y-39752543D01*
X78959057Y-38847781D02*
X79292390Y-39847781D01*
X79625724Y-38847781D01*
X78086105Y-42311581D02*
X78086105Y-41311581D01*
X78467058Y-41311581D01*
X78562296Y-41359200D01*
X78609915Y-41406819D01*
X78657534Y-41502057D01*
X78657534Y-41644914D01*
X78609915Y-41740152D01*
X78562296Y-41787771D01*
X78467058Y-41835390D01*
X78086105Y-41835390D01*
X79419439Y-41787771D02*
X79562296Y-41835390D01*
X79609915Y-41883010D01*
X79657534Y-41978248D01*
X79657534Y-42121105D01*
X79609915Y-42216343D01*
X79562296Y-42263962D01*
X79467058Y-42311581D01*
X79086105Y-42311581D01*
X79086105Y-41311581D01*
X79419439Y-41311581D01*
X79514677Y-41359200D01*
X79562296Y-41406819D01*
X79609915Y-41502057D01*
X79609915Y-41597295D01*
X79562296Y-41692533D01*
X79514677Y-41740152D01*
X79419439Y-41787771D01*
X79086105Y-41787771D01*
X80133724Y-42311581D02*
X80324200Y-42311581D01*
X80419439Y-42263962D01*
X80467058Y-42216343D01*
X80562296Y-42073486D01*
X80609915Y-41883010D01*
X80609915Y-41502057D01*
X80562296Y-41406819D01*
X80514677Y-41359200D01*
X80419439Y-41311581D01*
X80228962Y-41311581D01*
X80133724Y-41359200D01*
X80086105Y-41406819D01*
X80038486Y-41502057D01*
X80038486Y-41740152D01*
X80086105Y-41835390D01*
X80133724Y-41883010D01*
X80228962Y-41930629D01*
X80419439Y-41930629D01*
X80514677Y-41883010D01*
X80562296Y-41835390D01*
X80609915Y-41740152D01*
X78136905Y-44711881D02*
X78136905Y-43711881D01*
X78517858Y-43711881D01*
X78613096Y-43759500D01*
X78660715Y-43807119D01*
X78708334Y-43902357D01*
X78708334Y-44045214D01*
X78660715Y-44140452D01*
X78613096Y-44188071D01*
X78517858Y-44235690D01*
X78136905Y-44235690D01*
X79470239Y-44188071D02*
X79613096Y-44235690D01*
X79660715Y-44283310D01*
X79708334Y-44378548D01*
X79708334Y-44521405D01*
X79660715Y-44616643D01*
X79613096Y-44664262D01*
X79517858Y-44711881D01*
X79136905Y-44711881D01*
X79136905Y-43711881D01*
X79470239Y-43711881D01*
X79565477Y-43759500D01*
X79613096Y-43807119D01*
X79660715Y-43902357D01*
X79660715Y-43997595D01*
X79613096Y-44092833D01*
X79565477Y-44140452D01*
X79470239Y-44188071D01*
X79136905Y-44188071D01*
X80279762Y-44140452D02*
X80184524Y-44092833D01*
X80136905Y-44045214D01*
X80089286Y-43949976D01*
X80089286Y-43902357D01*
X80136905Y-43807119D01*
X80184524Y-43759500D01*
X80279762Y-43711881D01*
X80470239Y-43711881D01*
X80565477Y-43759500D01*
X80613096Y-43807119D01*
X80660715Y-43902357D01*
X80660715Y-43949976D01*
X80613096Y-44045214D01*
X80565477Y-44092833D01*
X80470239Y-44140452D01*
X80279762Y-44140452D01*
X80184524Y-44188071D01*
X80136905Y-44235690D01*
X80089286Y-44330929D01*
X80089286Y-44521405D01*
X80136905Y-44616643D01*
X80184524Y-44664262D01*
X80279762Y-44711881D01*
X80470239Y-44711881D01*
X80565477Y-44664262D01*
X80613096Y-44616643D01*
X80660715Y-44521405D01*
X80660715Y-44330929D01*
X80613096Y-44235690D01*
X80565477Y-44188071D01*
X80470239Y-44140452D01*
X78136905Y-47505881D02*
X78136905Y-46505881D01*
X78517858Y-46505881D01*
X78613096Y-46553500D01*
X78660715Y-46601119D01*
X78708334Y-46696357D01*
X78708334Y-46839214D01*
X78660715Y-46934452D01*
X78613096Y-46982071D01*
X78517858Y-47029690D01*
X78136905Y-47029690D01*
X79470239Y-46982071D02*
X79613096Y-47029690D01*
X79660715Y-47077310D01*
X79708334Y-47172548D01*
X79708334Y-47315405D01*
X79660715Y-47410643D01*
X79613096Y-47458262D01*
X79517858Y-47505881D01*
X79136905Y-47505881D01*
X79136905Y-46505881D01*
X79470239Y-46505881D01*
X79565477Y-46553500D01*
X79613096Y-46601119D01*
X79660715Y-46696357D01*
X79660715Y-46791595D01*
X79613096Y-46886833D01*
X79565477Y-46934452D01*
X79470239Y-46982071D01*
X79136905Y-46982071D01*
X80041667Y-46505881D02*
X80708334Y-46505881D01*
X80279762Y-47505881D01*
X78187705Y-49855381D02*
X78187705Y-48855381D01*
X78568658Y-48855381D01*
X78663896Y-48903000D01*
X78711515Y-48950619D01*
X78759134Y-49045857D01*
X78759134Y-49188714D01*
X78711515Y-49283952D01*
X78663896Y-49331571D01*
X78568658Y-49379190D01*
X78187705Y-49379190D01*
X79521039Y-49331571D02*
X79663896Y-49379190D01*
X79711515Y-49426810D01*
X79759134Y-49522048D01*
X79759134Y-49664905D01*
X79711515Y-49760143D01*
X79663896Y-49807762D01*
X79568658Y-49855381D01*
X79187705Y-49855381D01*
X79187705Y-48855381D01*
X79521039Y-48855381D01*
X79616277Y-48903000D01*
X79663896Y-48950619D01*
X79711515Y-49045857D01*
X79711515Y-49141095D01*
X79663896Y-49236333D01*
X79616277Y-49283952D01*
X79521039Y-49331571D01*
X79187705Y-49331571D01*
X80616277Y-48855381D02*
X80425800Y-48855381D01*
X80330562Y-48903000D01*
X80282943Y-48950619D01*
X80187705Y-49093476D01*
X80140086Y-49283952D01*
X80140086Y-49664905D01*
X80187705Y-49760143D01*
X80235324Y-49807762D01*
X80330562Y-49855381D01*
X80521039Y-49855381D01*
X80616277Y-49807762D01*
X80663896Y-49760143D01*
X80711515Y-49664905D01*
X80711515Y-49426810D01*
X80663896Y-49331571D01*
X80616277Y-49283952D01*
X80521039Y-49236333D01*
X80330562Y-49236333D01*
X80235324Y-49283952D01*
X80187705Y-49331571D01*
X80140086Y-49426810D01*
X78187705Y-52420781D02*
X78187705Y-51420781D01*
X78568658Y-51420781D01*
X78663896Y-51468400D01*
X78711515Y-51516019D01*
X78759134Y-51611257D01*
X78759134Y-51754114D01*
X78711515Y-51849352D01*
X78663896Y-51896971D01*
X78568658Y-51944590D01*
X78187705Y-51944590D01*
X79521039Y-51896971D02*
X79663896Y-51944590D01*
X79711515Y-51992210D01*
X79759134Y-52087448D01*
X79759134Y-52230305D01*
X79711515Y-52325543D01*
X79663896Y-52373162D01*
X79568658Y-52420781D01*
X79187705Y-52420781D01*
X79187705Y-51420781D01*
X79521039Y-51420781D01*
X79616277Y-51468400D01*
X79663896Y-51516019D01*
X79711515Y-51611257D01*
X79711515Y-51706495D01*
X79663896Y-51801733D01*
X79616277Y-51849352D01*
X79521039Y-51896971D01*
X79187705Y-51896971D01*
X80663896Y-51420781D02*
X80187705Y-51420781D01*
X80140086Y-51896971D01*
X80187705Y-51849352D01*
X80282943Y-51801733D01*
X80521039Y-51801733D01*
X80616277Y-51849352D01*
X80663896Y-51896971D01*
X80711515Y-51992210D01*
X80711515Y-52230305D01*
X80663896Y-52325543D01*
X80616277Y-52373162D01*
X80521039Y-52420781D01*
X80282943Y-52420781D01*
X80187705Y-52373162D01*
X80140086Y-52325543D01*
X78136905Y-54884581D02*
X78136905Y-53884581D01*
X78517858Y-53884581D01*
X78613096Y-53932200D01*
X78660715Y-53979819D01*
X78708334Y-54075057D01*
X78708334Y-54217914D01*
X78660715Y-54313152D01*
X78613096Y-54360771D01*
X78517858Y-54408390D01*
X78136905Y-54408390D01*
X79470239Y-54360771D02*
X79613096Y-54408390D01*
X79660715Y-54456010D01*
X79708334Y-54551248D01*
X79708334Y-54694105D01*
X79660715Y-54789343D01*
X79613096Y-54836962D01*
X79517858Y-54884581D01*
X79136905Y-54884581D01*
X79136905Y-53884581D01*
X79470239Y-53884581D01*
X79565477Y-53932200D01*
X79613096Y-53979819D01*
X79660715Y-54075057D01*
X79660715Y-54170295D01*
X79613096Y-54265533D01*
X79565477Y-54313152D01*
X79470239Y-54360771D01*
X79136905Y-54360771D01*
X80565477Y-54217914D02*
X80565477Y-54884581D01*
X80327381Y-53836962D02*
X80089286Y-54551248D01*
X80708334Y-54551248D01*
X78022605Y-57564281D02*
X78022605Y-56564281D01*
X78403558Y-56564281D01*
X78498796Y-56611900D01*
X78546415Y-56659519D01*
X78594034Y-56754757D01*
X78594034Y-56897614D01*
X78546415Y-56992852D01*
X78498796Y-57040471D01*
X78403558Y-57088090D01*
X78022605Y-57088090D01*
X79355939Y-57040471D02*
X79498796Y-57088090D01*
X79546415Y-57135710D01*
X79594034Y-57230948D01*
X79594034Y-57373805D01*
X79546415Y-57469043D01*
X79498796Y-57516662D01*
X79403558Y-57564281D01*
X79022605Y-57564281D01*
X79022605Y-56564281D01*
X79355939Y-56564281D01*
X79451177Y-56611900D01*
X79498796Y-56659519D01*
X79546415Y-56754757D01*
X79546415Y-56849995D01*
X79498796Y-56945233D01*
X79451177Y-56992852D01*
X79355939Y-57040471D01*
X79022605Y-57040471D01*
X79927367Y-56564281D02*
X80546415Y-56564281D01*
X80213081Y-56945233D01*
X80355939Y-56945233D01*
X80451177Y-56992852D01*
X80498796Y-57040471D01*
X80546415Y-57135710D01*
X80546415Y-57373805D01*
X80498796Y-57469043D01*
X80451177Y-57516662D01*
X80355939Y-57564281D01*
X80070224Y-57564281D01*
X79974986Y-57516662D01*
X79927367Y-57469043D01*
X78011543Y-60015381D02*
X78011543Y-59015381D01*
X78392496Y-59015381D01*
X78487734Y-59063000D01*
X78535353Y-59110619D01*
X78582972Y-59205857D01*
X78582972Y-59348714D01*
X78535353Y-59443952D01*
X78487734Y-59491571D01*
X78392496Y-59539190D01*
X78011543Y-59539190D01*
X78963924Y-59729667D02*
X79440115Y-59729667D01*
X78868686Y-60015381D02*
X79202019Y-59015381D01*
X79535353Y-60015381D01*
X80392496Y-60015381D02*
X79821067Y-60015381D01*
X80106781Y-60015381D02*
X80106781Y-59015381D01*
X80011543Y-59158238D01*
X79916305Y-59253476D01*
X79821067Y-59301095D01*
X81297258Y-59015381D02*
X80821067Y-59015381D01*
X80773448Y-59491571D01*
X80821067Y-59443952D01*
X80916305Y-59396333D01*
X81154401Y-59396333D01*
X81249639Y-59443952D01*
X81297258Y-59491571D01*
X81344877Y-59586810D01*
X81344877Y-59824905D01*
X81297258Y-59920143D01*
X81249639Y-59967762D01*
X81154401Y-60015381D01*
X80916305Y-60015381D01*
X80821067Y-59967762D01*
X80773448Y-59920143D01*
X78011543Y-62593481D02*
X78011543Y-61593481D01*
X78392496Y-61593481D01*
X78487734Y-61641100D01*
X78535353Y-61688719D01*
X78582972Y-61783957D01*
X78582972Y-61926814D01*
X78535353Y-62022052D01*
X78487734Y-62069671D01*
X78392496Y-62117290D01*
X78011543Y-62117290D01*
X78963924Y-62307767D02*
X79440115Y-62307767D01*
X78868686Y-62593481D02*
X79202019Y-61593481D01*
X79535353Y-62593481D01*
X80392496Y-62593481D02*
X79821067Y-62593481D01*
X80106781Y-62593481D02*
X80106781Y-61593481D01*
X80011543Y-61736338D01*
X79916305Y-61831576D01*
X79821067Y-61879195D01*
X80773448Y-61688719D02*
X80821067Y-61641100D01*
X80916305Y-61593481D01*
X81154401Y-61593481D01*
X81249639Y-61641100D01*
X81297258Y-61688719D01*
X81344877Y-61783957D01*
X81344877Y-61879195D01*
X81297258Y-62022052D01*
X80725829Y-62593481D01*
X81344877Y-62593481D01*
X77960743Y-65273181D02*
X77960743Y-64273181D01*
X78341696Y-64273181D01*
X78436934Y-64320800D01*
X78484553Y-64368419D01*
X78532172Y-64463657D01*
X78532172Y-64606514D01*
X78484553Y-64701752D01*
X78436934Y-64749371D01*
X78341696Y-64796990D01*
X77960743Y-64796990D01*
X78913124Y-64987467D02*
X79389315Y-64987467D01*
X78817886Y-65273181D02*
X79151219Y-64273181D01*
X79484553Y-65273181D01*
X80341696Y-65273181D02*
X79770267Y-65273181D01*
X80055981Y-65273181D02*
X80055981Y-64273181D01*
X79960743Y-64416038D01*
X79865505Y-64511276D01*
X79770267Y-64558895D01*
X81294077Y-65273181D02*
X80722648Y-65273181D01*
X81008362Y-65273181D02*
X81008362Y-64273181D01*
X80913124Y-64416038D01*
X80817886Y-64511276D01*
X80722648Y-64558895D01*
X77846443Y-67736981D02*
X77846443Y-66736981D01*
X78227396Y-66736981D01*
X78322634Y-66784600D01*
X78370253Y-66832219D01*
X78417872Y-66927457D01*
X78417872Y-67070314D01*
X78370253Y-67165552D01*
X78322634Y-67213171D01*
X78227396Y-67260790D01*
X77846443Y-67260790D01*
X78798824Y-67451267D02*
X79275015Y-67451267D01*
X78703586Y-67736981D02*
X79036919Y-66736981D01*
X79370253Y-67736981D01*
X80227396Y-67736981D02*
X79655967Y-67736981D01*
X79941681Y-67736981D02*
X79941681Y-66736981D01*
X79846443Y-66879838D01*
X79751205Y-66975076D01*
X79655967Y-67022695D01*
X80846443Y-66736981D02*
X80941682Y-66736981D01*
X81036920Y-66784600D01*
X81084539Y-66832219D01*
X81132158Y-66927457D01*
X81179777Y-67117933D01*
X81179777Y-67356029D01*
X81132158Y-67546505D01*
X81084539Y-67641743D01*
X81036920Y-67689362D01*
X80941682Y-67736981D01*
X80846443Y-67736981D01*
X80751205Y-67689362D01*
X80703586Y-67641743D01*
X80655967Y-67546505D01*
X80608348Y-67356029D01*
X80608348Y-67117933D01*
X80655967Y-66927457D01*
X80703586Y-66832219D01*
X80751205Y-66784600D01*
X80846443Y-66736981D01*
X77979733Y-70302381D02*
X77979733Y-69302381D01*
X78360686Y-69302381D01*
X78455924Y-69350000D01*
X78503543Y-69397619D01*
X78551162Y-69492857D01*
X78551162Y-69635714D01*
X78503543Y-69730952D01*
X78455924Y-69778571D01*
X78360686Y-69826190D01*
X77979733Y-69826190D01*
X78932114Y-70016667D02*
X79408305Y-70016667D01*
X78836876Y-70302381D02*
X79170209Y-69302381D01*
X79503543Y-70302381D01*
X79884495Y-70302381D02*
X80074971Y-70302381D01*
X80170210Y-70254762D01*
X80217829Y-70207143D01*
X80313067Y-70064286D01*
X80360686Y-69873810D01*
X80360686Y-69492857D01*
X80313067Y-69397619D01*
X80265448Y-69350000D01*
X80170210Y-69302381D01*
X79979733Y-69302381D01*
X79884495Y-69350000D01*
X79836876Y-69397619D01*
X79789257Y-69492857D01*
X79789257Y-69730952D01*
X79836876Y-69826190D01*
X79884495Y-69873810D01*
X79979733Y-69921429D01*
X80170210Y-69921429D01*
X80265448Y-69873810D01*
X80313067Y-69826190D01*
X80360686Y-69730952D01*
X77928933Y-72816981D02*
X77928933Y-71816981D01*
X78309886Y-71816981D01*
X78405124Y-71864600D01*
X78452743Y-71912219D01*
X78500362Y-72007457D01*
X78500362Y-72150314D01*
X78452743Y-72245552D01*
X78405124Y-72293171D01*
X78309886Y-72340790D01*
X77928933Y-72340790D01*
X78881314Y-72531267D02*
X79357505Y-72531267D01*
X78786076Y-72816981D02*
X79119409Y-71816981D01*
X79452743Y-72816981D01*
X79928933Y-72245552D02*
X79833695Y-72197933D01*
X79786076Y-72150314D01*
X79738457Y-72055076D01*
X79738457Y-72007457D01*
X79786076Y-71912219D01*
X79833695Y-71864600D01*
X79928933Y-71816981D01*
X80119410Y-71816981D01*
X80214648Y-71864600D01*
X80262267Y-71912219D01*
X80309886Y-72007457D01*
X80309886Y-72055076D01*
X80262267Y-72150314D01*
X80214648Y-72197933D01*
X80119410Y-72245552D01*
X79928933Y-72245552D01*
X79833695Y-72293171D01*
X79786076Y-72340790D01*
X79738457Y-72436029D01*
X79738457Y-72626505D01*
X79786076Y-72721743D01*
X79833695Y-72769362D01*
X79928933Y-72816981D01*
X80119410Y-72816981D01*
X80214648Y-72769362D01*
X80262267Y-72721743D01*
X80309886Y-72626505D01*
X80309886Y-72436029D01*
X80262267Y-72340790D01*
X80214648Y-72293171D01*
X80119410Y-72245552D01*
X77940114Y-75166481D02*
X77940114Y-74166481D01*
X78321067Y-74166481D01*
X78416305Y-74214100D01*
X78463924Y-74261719D01*
X78511543Y-74356957D01*
X78511543Y-74499814D01*
X78463924Y-74595052D01*
X78416305Y-74642671D01*
X78321067Y-74690290D01*
X77940114Y-74690290D01*
X79273448Y-74642671D02*
X79416305Y-74690290D01*
X79463924Y-74737910D01*
X79511543Y-74833148D01*
X79511543Y-74976005D01*
X79463924Y-75071243D01*
X79416305Y-75118862D01*
X79321067Y-75166481D01*
X78940114Y-75166481D01*
X78940114Y-74166481D01*
X79273448Y-74166481D01*
X79368686Y-74214100D01*
X79416305Y-74261719D01*
X79463924Y-74356957D01*
X79463924Y-74452195D01*
X79416305Y-74547433D01*
X79368686Y-74595052D01*
X79273448Y-74642671D01*
X78940114Y-74642671D01*
X80463924Y-75166481D02*
X79892495Y-75166481D01*
X80178209Y-75166481D02*
X80178209Y-74166481D01*
X80082971Y-74309338D01*
X79987733Y-74404576D01*
X79892495Y-74452195D01*
X81368686Y-74166481D02*
X80892495Y-74166481D01*
X80844876Y-74642671D01*
X80892495Y-74595052D01*
X80987733Y-74547433D01*
X81225829Y-74547433D01*
X81321067Y-74595052D01*
X81368686Y-74642671D01*
X81416305Y-74737910D01*
X81416305Y-74976005D01*
X81368686Y-75071243D01*
X81321067Y-75118862D01*
X81225829Y-75166481D01*
X80987733Y-75166481D01*
X80892495Y-75118862D01*
X80844876Y-75071243D01*
X77940114Y-77795381D02*
X77940114Y-76795381D01*
X78321067Y-76795381D01*
X78416305Y-76843000D01*
X78463924Y-76890619D01*
X78511543Y-76985857D01*
X78511543Y-77128714D01*
X78463924Y-77223952D01*
X78416305Y-77271571D01*
X78321067Y-77319190D01*
X77940114Y-77319190D01*
X79273448Y-77271571D02*
X79416305Y-77319190D01*
X79463924Y-77366810D01*
X79511543Y-77462048D01*
X79511543Y-77604905D01*
X79463924Y-77700143D01*
X79416305Y-77747762D01*
X79321067Y-77795381D01*
X78940114Y-77795381D01*
X78940114Y-76795381D01*
X79273448Y-76795381D01*
X79368686Y-76843000D01*
X79416305Y-76890619D01*
X79463924Y-76985857D01*
X79463924Y-77081095D01*
X79416305Y-77176333D01*
X79368686Y-77223952D01*
X79273448Y-77271571D01*
X78940114Y-77271571D01*
X80463924Y-77795381D02*
X79892495Y-77795381D01*
X80178209Y-77795381D02*
X80178209Y-76795381D01*
X80082971Y-76938238D01*
X79987733Y-77033476D01*
X79892495Y-77081095D01*
X81321067Y-77128714D02*
X81321067Y-77795381D01*
X81082971Y-76747762D02*
X80844876Y-77462048D01*
X81463924Y-77462048D01*
X77940114Y-80309981D02*
X77940114Y-79309981D01*
X78321067Y-79309981D01*
X78416305Y-79357600D01*
X78463924Y-79405219D01*
X78511543Y-79500457D01*
X78511543Y-79643314D01*
X78463924Y-79738552D01*
X78416305Y-79786171D01*
X78321067Y-79833790D01*
X77940114Y-79833790D01*
X79273448Y-79786171D02*
X79416305Y-79833790D01*
X79463924Y-79881410D01*
X79511543Y-79976648D01*
X79511543Y-80119505D01*
X79463924Y-80214743D01*
X79416305Y-80262362D01*
X79321067Y-80309981D01*
X78940114Y-80309981D01*
X78940114Y-79309981D01*
X79273448Y-79309981D01*
X79368686Y-79357600D01*
X79416305Y-79405219D01*
X79463924Y-79500457D01*
X79463924Y-79595695D01*
X79416305Y-79690933D01*
X79368686Y-79738552D01*
X79273448Y-79786171D01*
X78940114Y-79786171D01*
X80463924Y-80309981D02*
X79892495Y-80309981D01*
X80178209Y-80309981D02*
X80178209Y-79309981D01*
X80082971Y-79452838D01*
X79987733Y-79548076D01*
X79892495Y-79595695D01*
X80797257Y-79309981D02*
X81416305Y-79309981D01*
X81082971Y-79690933D01*
X81225829Y-79690933D01*
X81321067Y-79738552D01*
X81368686Y-79786171D01*
X81416305Y-79881410D01*
X81416305Y-80119505D01*
X81368686Y-80214743D01*
X81321067Y-80262362D01*
X81225829Y-80309981D01*
X80940114Y-80309981D01*
X80844876Y-80262362D01*
X80797257Y-80214743D01*
X77940114Y-82989681D02*
X77940114Y-81989681D01*
X78321067Y-81989681D01*
X78416305Y-82037300D01*
X78463924Y-82084919D01*
X78511543Y-82180157D01*
X78511543Y-82323014D01*
X78463924Y-82418252D01*
X78416305Y-82465871D01*
X78321067Y-82513490D01*
X77940114Y-82513490D01*
X79273448Y-82465871D02*
X79416305Y-82513490D01*
X79463924Y-82561110D01*
X79511543Y-82656348D01*
X79511543Y-82799205D01*
X79463924Y-82894443D01*
X79416305Y-82942062D01*
X79321067Y-82989681D01*
X78940114Y-82989681D01*
X78940114Y-81989681D01*
X79273448Y-81989681D01*
X79368686Y-82037300D01*
X79416305Y-82084919D01*
X79463924Y-82180157D01*
X79463924Y-82275395D01*
X79416305Y-82370633D01*
X79368686Y-82418252D01*
X79273448Y-82465871D01*
X78940114Y-82465871D01*
X80463924Y-82989681D02*
X79892495Y-82989681D01*
X80178209Y-82989681D02*
X80178209Y-81989681D01*
X80082971Y-82132538D01*
X79987733Y-82227776D01*
X79892495Y-82275395D01*
X80844876Y-82084919D02*
X80892495Y-82037300D01*
X80987733Y-81989681D01*
X81225829Y-81989681D01*
X81321067Y-82037300D01*
X81368686Y-82084919D01*
X81416305Y-82180157D01*
X81416305Y-82275395D01*
X81368686Y-82418252D01*
X80797257Y-82989681D01*
X81416305Y-82989681D01*
X57378696Y-82090640D02*
X57283458Y-82043021D01*
X57140601Y-82043021D01*
X56997743Y-82090640D01*
X56902505Y-82185878D01*
X56854886Y-82281116D01*
X56807267Y-82471592D01*
X56807267Y-82614450D01*
X56854886Y-82804926D01*
X56902505Y-82900164D01*
X56997743Y-82995402D01*
X57140601Y-83043021D01*
X57235839Y-83043021D01*
X57378696Y-82995402D01*
X57426315Y-82947783D01*
X57426315Y-82614450D01*
X57235839Y-82614450D01*
X57854886Y-83043021D02*
X57854886Y-82043021D01*
X58426315Y-83043021D01*
X58426315Y-82043021D01*
X58902505Y-83043021D02*
X58902505Y-82043021D01*
X59140600Y-82043021D01*
X59283458Y-82090640D01*
X59378696Y-82185878D01*
X59426315Y-82281116D01*
X59473934Y-82471592D01*
X59473934Y-82614450D01*
X59426315Y-82804926D01*
X59378696Y-82900164D01*
X59283458Y-82995402D01*
X59140600Y-83043021D01*
X58902505Y-83043021D01*
X57434576Y-79296640D02*
X57339338Y-79249021D01*
X57196481Y-79249021D01*
X57053623Y-79296640D01*
X56958385Y-79391878D01*
X56910766Y-79487116D01*
X56863147Y-79677592D01*
X56863147Y-79820450D01*
X56910766Y-80010926D01*
X56958385Y-80106164D01*
X57053623Y-80201402D01*
X57196481Y-80249021D01*
X57291719Y-80249021D01*
X57434576Y-80201402D01*
X57482195Y-80153783D01*
X57482195Y-79820450D01*
X57291719Y-79820450D01*
X57910766Y-80249021D02*
X57910766Y-79249021D01*
X58482195Y-80249021D01*
X58482195Y-79249021D01*
X58958385Y-80249021D02*
X58958385Y-79249021D01*
X59196480Y-79249021D01*
X59339338Y-79296640D01*
X59434576Y-79391878D01*
X59482195Y-79487116D01*
X59529814Y-79677592D01*
X59529814Y-79820450D01*
X59482195Y-80010926D01*
X59434576Y-80106164D01*
X59339338Y-80201402D01*
X59196480Y-80249021D01*
X58958385Y-80249021D01*
X57070145Y-76846181D02*
X57689193Y-76846181D01*
X57355859Y-77227133D01*
X57498717Y-77227133D01*
X57593955Y-77274752D01*
X57641574Y-77322371D01*
X57689193Y-77417610D01*
X57689193Y-77655705D01*
X57641574Y-77750943D01*
X57593955Y-77798562D01*
X57498717Y-77846181D01*
X57213002Y-77846181D01*
X57117764Y-77798562D01*
X57070145Y-77750943D01*
X57974907Y-76846181D02*
X58308240Y-77846181D01*
X58641574Y-76846181D01*
X58879669Y-76846181D02*
X59498717Y-76846181D01*
X59165383Y-77227133D01*
X59308241Y-77227133D01*
X59403479Y-77274752D01*
X59451098Y-77322371D01*
X59498717Y-77417610D01*
X59498717Y-77655705D01*
X59451098Y-77750943D01*
X59403479Y-77798562D01*
X59308241Y-77846181D01*
X59022526Y-77846181D01*
X58927288Y-77798562D01*
X58879669Y-77750943D01*
X56050703Y-75219821D02*
X56050703Y-74219821D01*
X56622132Y-75219821D01*
X56622132Y-74219821D01*
X57669751Y-75219821D02*
X57336417Y-74743630D01*
X57098322Y-75219821D02*
X57098322Y-74219821D01*
X57479275Y-74219821D01*
X57574513Y-74267440D01*
X57622132Y-74315059D01*
X57669751Y-74410297D01*
X57669751Y-74553154D01*
X57622132Y-74648392D01*
X57574513Y-74696011D01*
X57479275Y-74743630D01*
X57098322Y-74743630D01*
X58050703Y-75172202D02*
X58193560Y-75219821D01*
X58431656Y-75219821D01*
X58526894Y-75172202D01*
X58574513Y-75124583D01*
X58622132Y-75029345D01*
X58622132Y-74934107D01*
X58574513Y-74838869D01*
X58526894Y-74791250D01*
X58431656Y-74743630D01*
X58241179Y-74696011D01*
X58145941Y-74648392D01*
X58098322Y-74600773D01*
X58050703Y-74505535D01*
X58050703Y-74410297D01*
X58098322Y-74315059D01*
X58145941Y-74267440D01*
X58241179Y-74219821D01*
X58479275Y-74219821D01*
X58622132Y-74267440D01*
X58907846Y-74219821D02*
X59479275Y-74219821D01*
X59193560Y-75219821D02*
X59193560Y-74219821D01*
X56258674Y-72593461D02*
X56258674Y-71593461D01*
X56639627Y-71593461D01*
X56734865Y-71641080D01*
X56782484Y-71688699D01*
X56830103Y-71783937D01*
X56830103Y-71926794D01*
X56782484Y-72022032D01*
X56734865Y-72069651D01*
X56639627Y-72117270D01*
X56258674Y-72117270D01*
X57592008Y-72069651D02*
X57734865Y-72117270D01*
X57782484Y-72164890D01*
X57830103Y-72260128D01*
X57830103Y-72402985D01*
X57782484Y-72498223D01*
X57734865Y-72545842D01*
X57639627Y-72593461D01*
X57258674Y-72593461D01*
X57258674Y-71593461D01*
X57592008Y-71593461D01*
X57687246Y-71641080D01*
X57734865Y-71688699D01*
X57782484Y-71783937D01*
X57782484Y-71879175D01*
X57734865Y-71974413D01*
X57687246Y-72022032D01*
X57592008Y-72069651D01*
X57258674Y-72069651D01*
X58782484Y-72593461D02*
X58211055Y-72593461D01*
X58496769Y-72593461D02*
X58496769Y-71593461D01*
X58401531Y-71736318D01*
X58306293Y-71831556D01*
X58211055Y-71879175D01*
X59734865Y-72593461D02*
X59163436Y-72593461D01*
X59449150Y-72593461D02*
X59449150Y-71593461D01*
X59353912Y-71736318D01*
X59258674Y-71831556D01*
X59163436Y-71879175D01*
X56091034Y-70134741D02*
X56091034Y-69134741D01*
X56471987Y-69134741D01*
X56567225Y-69182360D01*
X56614844Y-69229979D01*
X56662463Y-69325217D01*
X56662463Y-69468074D01*
X56614844Y-69563312D01*
X56567225Y-69610931D01*
X56471987Y-69658550D01*
X56091034Y-69658550D01*
X57424368Y-69610931D02*
X57567225Y-69658550D01*
X57614844Y-69706170D01*
X57662463Y-69801408D01*
X57662463Y-69944265D01*
X57614844Y-70039503D01*
X57567225Y-70087122D01*
X57471987Y-70134741D01*
X57091034Y-70134741D01*
X57091034Y-69134741D01*
X57424368Y-69134741D01*
X57519606Y-69182360D01*
X57567225Y-69229979D01*
X57614844Y-69325217D01*
X57614844Y-69420455D01*
X57567225Y-69515693D01*
X57519606Y-69563312D01*
X57424368Y-69610931D01*
X57091034Y-69610931D01*
X58614844Y-70134741D02*
X58043415Y-70134741D01*
X58329129Y-70134741D02*
X58329129Y-69134741D01*
X58233891Y-69277598D01*
X58138653Y-69372836D01*
X58043415Y-69420455D01*
X59233891Y-69134741D02*
X59329130Y-69134741D01*
X59424368Y-69182360D01*
X59471987Y-69229979D01*
X59519606Y-69325217D01*
X59567225Y-69515693D01*
X59567225Y-69753789D01*
X59519606Y-69944265D01*
X59471987Y-70039503D01*
X59424368Y-70087122D01*
X59329130Y-70134741D01*
X59233891Y-70134741D01*
X59138653Y-70087122D01*
X59091034Y-70039503D01*
X59043415Y-69944265D01*
X58995796Y-69753789D01*
X58995796Y-69515693D01*
X59043415Y-69325217D01*
X59091034Y-69229979D01*
X59138653Y-69182360D01*
X59233891Y-69134741D01*
X57126025Y-67620141D02*
X57126025Y-66620141D01*
X57506978Y-66620141D01*
X57602216Y-66667760D01*
X57649835Y-66715379D01*
X57697454Y-66810617D01*
X57697454Y-66953474D01*
X57649835Y-67048712D01*
X57602216Y-67096331D01*
X57506978Y-67143950D01*
X57126025Y-67143950D01*
X58459359Y-67096331D02*
X58602216Y-67143950D01*
X58649835Y-67191570D01*
X58697454Y-67286808D01*
X58697454Y-67429665D01*
X58649835Y-67524903D01*
X58602216Y-67572522D01*
X58506978Y-67620141D01*
X58126025Y-67620141D01*
X58126025Y-66620141D01*
X58459359Y-66620141D01*
X58554597Y-66667760D01*
X58602216Y-66715379D01*
X58649835Y-66810617D01*
X58649835Y-66905855D01*
X58602216Y-67001093D01*
X58554597Y-67048712D01*
X58459359Y-67096331D01*
X58126025Y-67096331D01*
X59649835Y-67620141D02*
X59078406Y-67620141D01*
X59364120Y-67620141D02*
X59364120Y-66620141D01*
X59268882Y-66762998D01*
X59173644Y-66858236D01*
X59078406Y-66905855D01*
X57126025Y-65217301D02*
X57126025Y-64217301D01*
X57506978Y-64217301D01*
X57602216Y-64264920D01*
X57649835Y-64312539D01*
X57697454Y-64407777D01*
X57697454Y-64550634D01*
X57649835Y-64645872D01*
X57602216Y-64693491D01*
X57506978Y-64741110D01*
X57126025Y-64741110D01*
X58459359Y-64693491D02*
X58602216Y-64741110D01*
X58649835Y-64788730D01*
X58697454Y-64883968D01*
X58697454Y-65026825D01*
X58649835Y-65122063D01*
X58602216Y-65169682D01*
X58506978Y-65217301D01*
X58126025Y-65217301D01*
X58126025Y-64217301D01*
X58459359Y-64217301D01*
X58554597Y-64264920D01*
X58602216Y-64312539D01*
X58649835Y-64407777D01*
X58649835Y-64503015D01*
X58602216Y-64598253D01*
X58554597Y-64645872D01*
X58459359Y-64693491D01*
X58126025Y-64693491D01*
X59316501Y-64217301D02*
X59411740Y-64217301D01*
X59506978Y-64264920D01*
X59554597Y-64312539D01*
X59602216Y-64407777D01*
X59649835Y-64598253D01*
X59649835Y-64836349D01*
X59602216Y-65026825D01*
X59554597Y-65122063D01*
X59506978Y-65169682D01*
X59411740Y-65217301D01*
X59316501Y-65217301D01*
X59221263Y-65169682D01*
X59173644Y-65122063D01*
X59126025Y-65026825D01*
X59078406Y-64836349D01*
X59078406Y-64598253D01*
X59126025Y-64407777D01*
X59173644Y-64312539D01*
X59221263Y-64264920D01*
X59316501Y-64217301D01*
X57085693Y-62590941D02*
X57085693Y-61590941D01*
X57466646Y-61590941D01*
X57561884Y-61638560D01*
X57609503Y-61686179D01*
X57657122Y-61781417D01*
X57657122Y-61924274D01*
X57609503Y-62019512D01*
X57561884Y-62067131D01*
X57466646Y-62114750D01*
X57085693Y-62114750D01*
X58038074Y-62305227D02*
X58514265Y-62305227D01*
X57942836Y-62590941D02*
X58276169Y-61590941D01*
X58609503Y-62590941D01*
X58847598Y-61590941D02*
X59514265Y-61590941D01*
X59085693Y-62590941D01*
X57085693Y-59964581D02*
X57085693Y-58964581D01*
X57466646Y-58964581D01*
X57561884Y-59012200D01*
X57609503Y-59059819D01*
X57657122Y-59155057D01*
X57657122Y-59297914D01*
X57609503Y-59393152D01*
X57561884Y-59440771D01*
X57466646Y-59488390D01*
X57085693Y-59488390D01*
X58038074Y-59678867D02*
X58514265Y-59678867D01*
X57942836Y-59964581D02*
X58276169Y-58964581D01*
X58609503Y-59964581D01*
X59371408Y-58964581D02*
X59180931Y-58964581D01*
X59085693Y-59012200D01*
X59038074Y-59059819D01*
X58942836Y-59202676D01*
X58895217Y-59393152D01*
X58895217Y-59774105D01*
X58942836Y-59869343D01*
X58990455Y-59916962D01*
X59085693Y-59964581D01*
X59276170Y-59964581D01*
X59371408Y-59916962D01*
X59419027Y-59869343D01*
X59466646Y-59774105D01*
X59466646Y-59536010D01*
X59419027Y-59440771D01*
X59371408Y-59393152D01*
X59276170Y-59345533D01*
X59085693Y-59345533D01*
X58990455Y-59393152D01*
X58942836Y-59440771D01*
X58895217Y-59536010D01*
X57085693Y-57449981D02*
X57085693Y-56449981D01*
X57466646Y-56449981D01*
X57561884Y-56497600D01*
X57609503Y-56545219D01*
X57657122Y-56640457D01*
X57657122Y-56783314D01*
X57609503Y-56878552D01*
X57561884Y-56926171D01*
X57466646Y-56973790D01*
X57085693Y-56973790D01*
X58038074Y-57164267D02*
X58514265Y-57164267D01*
X57942836Y-57449981D02*
X58276169Y-56449981D01*
X58609503Y-57449981D01*
X59419027Y-56449981D02*
X58942836Y-56449981D01*
X58895217Y-56926171D01*
X58942836Y-56878552D01*
X59038074Y-56830933D01*
X59276170Y-56830933D01*
X59371408Y-56878552D01*
X59419027Y-56926171D01*
X59466646Y-57021410D01*
X59466646Y-57259505D01*
X59419027Y-57354743D01*
X59371408Y-57402362D01*
X59276170Y-57449981D01*
X59038074Y-57449981D01*
X58942836Y-57402362D01*
X58895217Y-57354743D01*
X57197453Y-54823621D02*
X57197453Y-53823621D01*
X57578406Y-53823621D01*
X57673644Y-53871240D01*
X57721263Y-53918859D01*
X57768882Y-54014097D01*
X57768882Y-54156954D01*
X57721263Y-54252192D01*
X57673644Y-54299811D01*
X57578406Y-54347430D01*
X57197453Y-54347430D01*
X58149834Y-54537907D02*
X58626025Y-54537907D01*
X58054596Y-54823621D02*
X58387929Y-53823621D01*
X58721263Y-54823621D01*
X59483168Y-54156954D02*
X59483168Y-54823621D01*
X59245072Y-53776002D02*
X59006977Y-54490288D01*
X59626025Y-54490288D01*
X57365093Y-52420781D02*
X57365093Y-51420781D01*
X57746046Y-51420781D01*
X57841284Y-51468400D01*
X57888903Y-51516019D01*
X57936522Y-51611257D01*
X57936522Y-51754114D01*
X57888903Y-51849352D01*
X57841284Y-51896971D01*
X57746046Y-51944590D01*
X57365093Y-51944590D01*
X58317474Y-52135067D02*
X58793665Y-52135067D01*
X58222236Y-52420781D02*
X58555569Y-51420781D01*
X58888903Y-52420781D01*
X59126998Y-51420781D02*
X59746046Y-51420781D01*
X59412712Y-51801733D01*
X59555570Y-51801733D01*
X59650808Y-51849352D01*
X59698427Y-51896971D01*
X59746046Y-51992210D01*
X59746046Y-52230305D01*
X59698427Y-52325543D01*
X59650808Y-52373162D01*
X59555570Y-52420781D01*
X59269855Y-52420781D01*
X59174617Y-52373162D01*
X59126998Y-52325543D01*
X57202533Y-49728381D02*
X57202533Y-48728381D01*
X57583486Y-48728381D01*
X57678724Y-48776000D01*
X57726343Y-48823619D01*
X57773962Y-48918857D01*
X57773962Y-49061714D01*
X57726343Y-49156952D01*
X57678724Y-49204571D01*
X57583486Y-49252190D01*
X57202533Y-49252190D01*
X58154914Y-49442667D02*
X58631105Y-49442667D01*
X58059676Y-49728381D02*
X58393009Y-48728381D01*
X58726343Y-49728381D01*
X59012057Y-48823619D02*
X59059676Y-48776000D01*
X59154914Y-48728381D01*
X59393010Y-48728381D01*
X59488248Y-48776000D01*
X59535867Y-48823619D01*
X59583486Y-48918857D01*
X59583486Y-49014095D01*
X59535867Y-49156952D01*
X58964438Y-49728381D01*
X59583486Y-49728381D01*
X57075533Y-47340781D02*
X57075533Y-46340781D01*
X57456486Y-46340781D01*
X57551724Y-46388400D01*
X57599343Y-46436019D01*
X57646962Y-46531257D01*
X57646962Y-46674114D01*
X57599343Y-46769352D01*
X57551724Y-46816971D01*
X57456486Y-46864590D01*
X57075533Y-46864590D01*
X58027914Y-47055067D02*
X58504105Y-47055067D01*
X57932676Y-47340781D02*
X58266009Y-46340781D01*
X58599343Y-47340781D01*
X59456486Y-47340781D02*
X58885057Y-47340781D01*
X59170771Y-47340781D02*
X59170771Y-46340781D01*
X59075533Y-46483638D01*
X58980295Y-46578876D01*
X58885057Y-46626495D01*
X57304133Y-44927781D02*
X57304133Y-43927781D01*
X57685086Y-43927781D01*
X57780324Y-43975400D01*
X57827943Y-44023019D01*
X57875562Y-44118257D01*
X57875562Y-44261114D01*
X57827943Y-44356352D01*
X57780324Y-44403971D01*
X57685086Y-44451590D01*
X57304133Y-44451590D01*
X58256514Y-44642067D02*
X58732705Y-44642067D01*
X58161276Y-44927781D02*
X58494609Y-43927781D01*
X58827943Y-44927781D01*
X59351752Y-43927781D02*
X59446991Y-43927781D01*
X59542229Y-43975400D01*
X59589848Y-44023019D01*
X59637467Y-44118257D01*
X59685086Y-44308733D01*
X59685086Y-44546829D01*
X59637467Y-44737305D01*
X59589848Y-44832543D01*
X59542229Y-44880162D01*
X59446991Y-44927781D01*
X59351752Y-44927781D01*
X59256514Y-44880162D01*
X59208895Y-44832543D01*
X59161276Y-44737305D01*
X59113657Y-44546829D01*
X59113657Y-44308733D01*
X59161276Y-44118257D01*
X59208895Y-44023019D01*
X59256514Y-43975400D01*
X59351752Y-43927781D01*
X56197714Y-37282381D02*
X56197714Y-36282381D01*
X56578667Y-36282381D01*
X56673905Y-36330000D01*
X56721524Y-36377619D01*
X56769143Y-36472857D01*
X56769143Y-36615714D01*
X56721524Y-36710952D01*
X56673905Y-36758571D01*
X56578667Y-36806190D01*
X56197714Y-36806190D01*
X57769143Y-37187143D02*
X57721524Y-37234762D01*
X57578667Y-37282381D01*
X57483429Y-37282381D01*
X57340571Y-37234762D01*
X57245333Y-37139524D01*
X57197714Y-37044286D01*
X57150095Y-36853810D01*
X57150095Y-36710952D01*
X57197714Y-36520476D01*
X57245333Y-36425238D01*
X57340571Y-36330000D01*
X57483429Y-36282381D01*
X57578667Y-36282381D01*
X57721524Y-36330000D01*
X57769143Y-36377619D01*
X58721524Y-37282381D02*
X58150095Y-37282381D01*
X58435809Y-37282381D02*
X58435809Y-36282381D01*
X58340571Y-36425238D01*
X58245333Y-36520476D01*
X58150095Y-36568095D01*
X59054857Y-36282381D02*
X59673905Y-36282381D01*
X59340571Y-36663333D01*
X59483429Y-36663333D01*
X59578667Y-36710952D01*
X59626286Y-36758571D01*
X59673905Y-36853810D01*
X59673905Y-37091905D01*
X59626286Y-37187143D01*
X59578667Y-37234762D01*
X59483429Y-37282381D01*
X59197714Y-37282381D01*
X59102476Y-37234762D01*
X59054857Y-37187143D01*
X56497743Y-33767781D02*
X56831076Y-34767781D01*
X57164410Y-33767781D01*
X57831077Y-34243971D02*
X57973934Y-34291590D01*
X58021553Y-34339210D01*
X58069172Y-34434448D01*
X58069172Y-34577305D01*
X58021553Y-34672543D01*
X57973934Y-34720162D01*
X57878696Y-34767781D01*
X57497743Y-34767781D01*
X57497743Y-33767781D01*
X57831077Y-33767781D01*
X57926315Y-33815400D01*
X57973934Y-33863019D01*
X58021553Y-33958257D01*
X58021553Y-34053495D01*
X57973934Y-34148733D01*
X57926315Y-34196352D01*
X57831077Y-34243971D01*
X57497743Y-34243971D01*
X58450124Y-34482067D02*
X58926315Y-34482067D01*
X58354886Y-34767781D02*
X58688219Y-33767781D01*
X59021553Y-34767781D01*
X59212029Y-33767781D02*
X59783458Y-33767781D01*
X59497743Y-34767781D02*
X59497743Y-33767781D01*
X68568000Y-48809476D02*
X68249802Y-49127674D01*
X73694524Y-53936000D02*
X73323293Y-54307231D01*
X68568000Y-59062524D02*
X68939231Y-58691293D01*
X63441476Y-53936000D02*
X63812707Y-53564769D01*
X68568000Y-48809476D02*
X68939231Y-49180707D01*
X63441476Y-53936000D02*
X63812707Y-54307231D01*
X68568000Y-59062524D02*
X68196769Y-58691293D01*
X73694524Y-53936000D02*
X73323293Y-53564769D01*
X68249802Y-49127674D02*
X67277530Y-48155402D01*
D12*
X64898000Y-47726000D02*
X65898000Y-47726000D01*
X65898000Y-46026000D02*
X64898000Y-46026000D01*
X69460863Y-38686217D02*
G75*
G03X69461144Y-36786000I-732863J950217D01*
G01*
X67995137Y-38686217D02*
G75*
G02X67994856Y-36786000I732863J950217D01*
G01*
X72213000Y-45891000D02*
X65963000Y-45891000D01*
X72213000Y-40841000D02*
X65963000Y-40841000D01*
X72213000Y-40841000D02*
G75*
G02X72213000Y-45891000I0J-2525000D01*
G01*
X65963000Y-40841000D02*
G75*
G03X65963000Y-45891000I0J-2525000D01*
G01*
X64568000Y-40856000D02*
X65568000Y-40856000D01*
X65568000Y-39156000D02*
X64568000Y-39156000D01*
X59780000Y-83748000D02*
X62440000Y-83748000D01*
X59780000Y-35428000D02*
X59780000Y-83748000D01*
X62440000Y-35428000D02*
X62440000Y-83748000D01*
X59780000Y-35428000D02*
X62440000Y-35428000D01*
X59780000Y-34158000D02*
X59780000Y-32828000D01*
X59780000Y-32828000D02*
X61110000Y-32828000D01*
X75020000Y-83748000D02*
X77680000Y-83748000D01*
X75020000Y-35428000D02*
X75020000Y-83748000D01*
X77680000Y-35428000D02*
X77680000Y-83748000D01*
X75020000Y-35428000D02*
X77680000Y-35428000D01*
X75020000Y-34158000D02*
X75020000Y-32828000D01*
X75020000Y-32828000D02*
X76350000Y-32828000D01*
X63744800Y-32477400D02*
X63744800Y-35137400D01*
X71424800Y-32477400D02*
X63744800Y-32477400D01*
X71424800Y-35137400D02*
X63744800Y-35137400D01*
X71424800Y-32477400D02*
X71424800Y-35137400D01*
X72694800Y-32477400D02*
X74024800Y-32477400D01*
X74024800Y-32477400D02*
X74024800Y-33807400D01*
X62998000Y-94056000D02*
X62998000Y-102696000D01*
X62998000Y-85676000D02*
X62998000Y-90756000D01*
X75198000Y-94056000D02*
X75198000Y-102696000D01*
X75198000Y-85676000D02*
X75198000Y-90756000D01*
X75198000Y-102696000D02*
X62998000Y-102696000D01*
X62998000Y-85676000D02*
X75198000Y-85676000D01*
X71538000Y-68416000D02*
X71538000Y-63216000D01*
X66398000Y-68416000D02*
X71538000Y-68416000D01*
X63798000Y-63216000D02*
X71538000Y-63216000D01*
X66398000Y-68416000D02*
X66398000Y-65816000D01*
X66398000Y-65816000D02*
X63798000Y-65816000D01*
X63798000Y-65816000D02*
X63798000Y-63216000D01*
X65128000Y-68416000D02*
X63798000Y-68416000D01*
X63798000Y-68416000D02*
X63798000Y-67086000D01*
X65262000Y-83224000D02*
X69762000Y-83224000D01*
X64012000Y-79224000D02*
X64012000Y-80724000D01*
X69762000Y-76724000D02*
X65262000Y-76724000D01*
X71012000Y-80724000D02*
X71012000Y-79224000D01*
X69898000Y-71814000D02*
X70508000Y-71204000D01*
X69898000Y-74374000D02*
X70508000Y-74374000D01*
X73338000Y-71834000D02*
X72748000Y-71234000D01*
X73338000Y-74374000D02*
X72748000Y-74374000D01*
X69898000Y-71814000D02*
X69898000Y-74354000D01*
X73338000Y-74374000D02*
X73338000Y-71834000D01*
X72618000Y-39076000D02*
X71618000Y-39076000D01*
X71618000Y-40776000D02*
X72618000Y-40776000D01*
X65834000Y-71814000D02*
X66444000Y-71204000D01*
X65834000Y-74374000D02*
X66444000Y-74374000D01*
X69274000Y-71834000D02*
X68684000Y-71234000D01*
X69274000Y-74374000D02*
X68684000Y-74374000D01*
X65834000Y-71814000D02*
X65834000Y-74354000D01*
X69274000Y-74374000D02*
X69274000Y-71834000D01*
X72838000Y-35726000D02*
X71838000Y-35726000D01*
X71838000Y-37426000D02*
X72838000Y-37426000D01*
X64668000Y-37596000D02*
X65668000Y-37596000D01*
X65668000Y-35896000D02*
X64668000Y-35896000D01*
X72272000Y-79594000D02*
X72272000Y-78394000D01*
X74032000Y-78394000D02*
X74032000Y-79594000D01*
X77860000Y-87976000D02*
X77860000Y-86776000D01*
X79620000Y-86776000D02*
X79620000Y-87976000D01*
X75828000Y-87976000D02*
X75828000Y-86776000D01*
X77588000Y-86776000D02*
X77588000Y-87976000D01*
X57868000Y-87726000D02*
X57868000Y-86526000D01*
X59628000Y-86526000D02*
X59628000Y-87726000D01*
X67778000Y-61716000D02*
X68778000Y-61716000D01*
X68778000Y-60016000D02*
X67778000Y-60016000D01*
X61723000Y-86151000D02*
X61723000Y-89351000D01*
X60223000Y-89351000D02*
X60223000Y-86151000D01*
X60223000Y-89351000D02*
X61723000Y-89351000D01*
X63890000Y-74260000D02*
X63890000Y-73060000D01*
X65650000Y-73060000D02*
X65650000Y-74260000D01*
D11*
X72659118Y-48767386D02*
X72086698Y-49339806D01*
X72053026Y-49440821D01*
X72053026Y-49508164D01*
X72086698Y-49609179D01*
X72221386Y-49743867D01*
X72322401Y-49777539D01*
X72389744Y-49777539D01*
X72490759Y-49743867D01*
X73063179Y-49171447D01*
X73298881Y-49541836D02*
X73366225Y-49541836D01*
X73467240Y-49575508D01*
X73635599Y-49743867D01*
X73669271Y-49844882D01*
X73669271Y-49912226D01*
X73635599Y-50013241D01*
X73568256Y-50080584D01*
X73433569Y-50147928D01*
X72625446Y-50147928D01*
X73063179Y-50585661D01*
X68725143Y-47042666D02*
X68772762Y-47090285D01*
X68820381Y-47233142D01*
X68820381Y-47328380D01*
X68772762Y-47471238D01*
X68677524Y-47566476D01*
X68582286Y-47614095D01*
X68391810Y-47661714D01*
X68248952Y-47661714D01*
X68058476Y-47614095D01*
X67963238Y-47566476D01*
X67868000Y-47471238D01*
X67820381Y-47328380D01*
X67820381Y-47233142D01*
X67868000Y-47090285D01*
X67915619Y-47042666D01*
X68248952Y-46471238D02*
X68201333Y-46566476D01*
X68153714Y-46614095D01*
X68058476Y-46661714D01*
X68010857Y-46661714D01*
X67915619Y-46614095D01*
X67868000Y-46566476D01*
X67820381Y-46471238D01*
X67820381Y-46280761D01*
X67868000Y-46185523D01*
X67915619Y-46137904D01*
X68010857Y-46090285D01*
X68058476Y-46090285D01*
X68153714Y-46137904D01*
X68201333Y-46185523D01*
X68248952Y-46280761D01*
X68248952Y-46471238D01*
X68296571Y-46566476D01*
X68344190Y-46614095D01*
X68439429Y-46661714D01*
X68629905Y-46661714D01*
X68725143Y-46614095D01*
X68772762Y-46566476D01*
X68820381Y-46471238D01*
X68820381Y-46280761D01*
X68772762Y-46185523D01*
X68725143Y-46137904D01*
X68629905Y-46090285D01*
X68439429Y-46090285D01*
X68344190Y-46137904D01*
X68296571Y-46185523D01*
X68248952Y-46280761D01*
X68505809Y-40064190D02*
X68505809Y-40540381D01*
X68172476Y-39540381D02*
X68505809Y-40064190D01*
X68839143Y-39540381D01*
X69124857Y-39635619D02*
X69172476Y-39588000D01*
X69267714Y-39540381D01*
X69505810Y-39540381D01*
X69601048Y-39588000D01*
X69648667Y-39635619D01*
X69696286Y-39730857D01*
X69696286Y-39826095D01*
X69648667Y-39968952D01*
X69077238Y-40540381D01*
X69696286Y-40540381D01*
X68511809Y-43342190D02*
X68511809Y-43818381D01*
X68178476Y-42818381D02*
X68511809Y-43342190D01*
X68845143Y-42818381D01*
X69702286Y-43818381D02*
X69130857Y-43818381D01*
X69416571Y-43818381D02*
X69416571Y-42818381D01*
X69321333Y-42961238D01*
X69226095Y-43056476D01*
X69130857Y-43104095D01*
X63873143Y-42013143D02*
X63825524Y-42060762D01*
X63682667Y-42108381D01*
X63587429Y-42108381D01*
X63444571Y-42060762D01*
X63349333Y-41965524D01*
X63301714Y-41870286D01*
X63254095Y-41679810D01*
X63254095Y-41536952D01*
X63301714Y-41346476D01*
X63349333Y-41251238D01*
X63444571Y-41156000D01*
X63587429Y-41108381D01*
X63682667Y-41108381D01*
X63825524Y-41156000D01*
X63873143Y-41203619D01*
X64825524Y-42108381D02*
X64254095Y-42108381D01*
X64539809Y-42108381D02*
X64539809Y-41108381D01*
X64444571Y-41251238D01*
X64349333Y-41346476D01*
X64254095Y-41394095D01*
X65682667Y-41441714D02*
X65682667Y-42108381D01*
X65444571Y-41060762D02*
X65206476Y-41775048D01*
X65825524Y-41775048D01*
X62190381Y-35639333D02*
X62904667Y-35639333D01*
X63047524Y-35686953D01*
X63142762Y-35782191D01*
X63190381Y-35925048D01*
X63190381Y-36020286D01*
X62190381Y-34686952D02*
X62190381Y-35163143D01*
X62666571Y-35210762D01*
X62618952Y-35163143D01*
X62571333Y-35067905D01*
X62571333Y-34829809D01*
X62618952Y-34734571D01*
X62666571Y-34686952D01*
X62761810Y-34639333D01*
X62999905Y-34639333D01*
X63095143Y-34686952D01*
X63142762Y-34734571D01*
X63190381Y-34829809D01*
X63190381Y-35067905D01*
X63142762Y-35163143D01*
X63095143Y-35210762D01*
X75017381Y-35512333D02*
X75731667Y-35512333D01*
X75874524Y-35559953D01*
X75969762Y-35655191D01*
X76017381Y-35798048D01*
X76017381Y-35893286D01*
X76017381Y-34988524D02*
X76017381Y-34798048D01*
X75969762Y-34702809D01*
X75922143Y-34655190D01*
X75779286Y-34559952D01*
X75588810Y-34512333D01*
X75207857Y-34512333D01*
X75112619Y-34559952D01*
X75065000Y-34607571D01*
X75017381Y-34702809D01*
X75017381Y-34893286D01*
X75065000Y-34988524D01*
X75112619Y-35036143D01*
X75207857Y-35083762D01*
X75445952Y-35083762D01*
X75541190Y-35036143D01*
X75588810Y-34988524D01*
X75636429Y-34893286D01*
X75636429Y-34702809D01*
X75588810Y-34607571D01*
X75541190Y-34559952D01*
X75445952Y-34512333D01*
X62647581Y-33937533D02*
X63361867Y-33937533D01*
X63504724Y-33985153D01*
X63599962Y-34080391D01*
X63647581Y-34223248D01*
X63647581Y-34318486D01*
X62980914Y-33032771D02*
X63647581Y-33032771D01*
X62599962Y-33270867D02*
X63314248Y-33508962D01*
X63314248Y-32889914D01*
X68564667Y-91328381D02*
X68564667Y-92042667D01*
X68517047Y-92185524D01*
X68421809Y-92280762D01*
X68278952Y-92328381D01*
X68183714Y-92328381D01*
X68945619Y-91328381D02*
X69564667Y-91328381D01*
X69231333Y-91709333D01*
X69374191Y-91709333D01*
X69469429Y-91756952D01*
X69517048Y-91804571D01*
X69564667Y-91899810D01*
X69564667Y-92137905D01*
X69517048Y-92233143D01*
X69469429Y-92280762D01*
X69374191Y-92328381D01*
X69088476Y-92328381D01*
X68993238Y-92280762D01*
X68945619Y-92233143D01*
X72364667Y-62128381D02*
X72364667Y-62842667D01*
X72317047Y-62985524D01*
X72221809Y-63080762D01*
X72078952Y-63128381D01*
X71983714Y-63128381D01*
X73269429Y-62128381D02*
X73078952Y-62128381D01*
X72983714Y-62176000D01*
X72936095Y-62223619D01*
X72840857Y-62366476D01*
X72793238Y-62556952D01*
X72793238Y-62937905D01*
X72840857Y-63033143D01*
X72888476Y-63080762D01*
X72983714Y-63128381D01*
X73174191Y-63128381D01*
X73269429Y-63080762D01*
X73317048Y-63033143D01*
X73364667Y-62937905D01*
X73364667Y-62699810D01*
X73317048Y-62604571D01*
X73269429Y-62556952D01*
X73174191Y-62509333D01*
X72983714Y-62509333D01*
X72888476Y-62556952D01*
X72840857Y-62604571D01*
X72793238Y-62699810D01*
X67230667Y-79462381D02*
X67230667Y-80176667D01*
X67183047Y-80319524D01*
X67087809Y-80414762D01*
X66944952Y-80462381D01*
X66849714Y-80462381D01*
X67611619Y-79462381D02*
X68278286Y-79462381D01*
X67849714Y-80462381D01*
X73506334Y-70183143D02*
X73458715Y-70230762D01*
X73315858Y-70278381D01*
X73220620Y-70278381D01*
X73077762Y-70230762D01*
X72982524Y-70135524D01*
X72934905Y-70040286D01*
X72887286Y-69849810D01*
X72887286Y-69706952D01*
X72934905Y-69516476D01*
X72982524Y-69421238D01*
X73077762Y-69326000D01*
X73220620Y-69278381D01*
X73315858Y-69278381D01*
X73458715Y-69326000D01*
X73506334Y-69373619D01*
X73839667Y-69278381D02*
X74506334Y-69278381D01*
X74077762Y-70278381D01*
X70299429Y-70804952D02*
X70299429Y-70043047D01*
X70680381Y-70423999D02*
X69918476Y-70423999D01*
X72255143Y-41759143D02*
X72207524Y-41806762D01*
X72064667Y-41854381D01*
X71969429Y-41854381D01*
X71826571Y-41806762D01*
X71731333Y-41711524D01*
X71683714Y-41616286D01*
X71636095Y-41425810D01*
X71636095Y-41282952D01*
X71683714Y-41092476D01*
X71731333Y-40997238D01*
X71826571Y-40902000D01*
X71969429Y-40854381D01*
X72064667Y-40854381D01*
X72207524Y-40902000D01*
X72255143Y-40949619D01*
X73207524Y-41854381D02*
X72636095Y-41854381D01*
X72921809Y-41854381D02*
X72921809Y-40854381D01*
X72826571Y-40997238D01*
X72731333Y-41092476D01*
X72636095Y-41140095D01*
X73588476Y-40949619D02*
X73636095Y-40902000D01*
X73731333Y-40854381D01*
X73969429Y-40854381D01*
X74064667Y-40902000D01*
X74112286Y-40949619D01*
X74159905Y-41044857D01*
X74159905Y-41140095D01*
X74112286Y-41282952D01*
X73540857Y-41854381D01*
X74159905Y-41854381D01*
X66880143Y-69658143D02*
X66832524Y-69705762D01*
X66689667Y-69753381D01*
X66594429Y-69753381D01*
X66451571Y-69705762D01*
X66356333Y-69610524D01*
X66308714Y-69515286D01*
X66261095Y-69324810D01*
X66261095Y-69181952D01*
X66308714Y-68991476D01*
X66356333Y-68896238D01*
X66451571Y-68801000D01*
X66594429Y-68753381D01*
X66689667Y-68753381D01*
X66832524Y-68801000D01*
X66880143Y-68848619D01*
X67832524Y-69753381D02*
X67261095Y-69753381D01*
X67546809Y-69753381D02*
X67546809Y-68753381D01*
X67451571Y-68896238D01*
X67356333Y-68991476D01*
X67261095Y-69039095D01*
X68165857Y-68753381D02*
X68784905Y-68753381D01*
X68451571Y-69134333D01*
X68594429Y-69134333D01*
X68689667Y-69181952D01*
X68737286Y-69229571D01*
X68784905Y-69324810D01*
X68784905Y-69562905D01*
X68737286Y-69658143D01*
X68689667Y-69705762D01*
X68594429Y-69753381D01*
X68308714Y-69753381D01*
X68213476Y-69705762D01*
X68165857Y-69658143D01*
X66235429Y-70804952D02*
X66235429Y-70043047D01*
X66616381Y-70423999D02*
X65854476Y-70423999D01*
X71493143Y-38711143D02*
X71445524Y-38758762D01*
X71302667Y-38806381D01*
X71207429Y-38806381D01*
X71064571Y-38758762D01*
X70969333Y-38663524D01*
X70921714Y-38568286D01*
X70874095Y-38377810D01*
X70874095Y-38234952D01*
X70921714Y-38044476D01*
X70969333Y-37949238D01*
X71064571Y-37854000D01*
X71207429Y-37806381D01*
X71302667Y-37806381D01*
X71445524Y-37854000D01*
X71493143Y-37901619D01*
X72445524Y-38806381D02*
X71874095Y-38806381D01*
X72159809Y-38806381D02*
X72159809Y-37806381D01*
X72064571Y-37949238D01*
X71969333Y-38044476D01*
X71874095Y-38092095D01*
X73350286Y-37806381D02*
X72874095Y-37806381D01*
X72826476Y-38282571D01*
X72874095Y-38234952D01*
X72969333Y-38187333D01*
X73207429Y-38187333D01*
X73302667Y-38234952D01*
X73350286Y-38282571D01*
X73397905Y-38377810D01*
X73397905Y-38615905D01*
X73350286Y-38711143D01*
X73302667Y-38758762D01*
X73207429Y-38806381D01*
X72969333Y-38806381D01*
X72874095Y-38758762D01*
X72826476Y-38711143D01*
X64635143Y-38711143D02*
X64587524Y-38758762D01*
X64444667Y-38806381D01*
X64349429Y-38806381D01*
X64206571Y-38758762D01*
X64111333Y-38663524D01*
X64063714Y-38568286D01*
X64016095Y-38377810D01*
X64016095Y-38234952D01*
X64063714Y-38044476D01*
X64111333Y-37949238D01*
X64206571Y-37854000D01*
X64349429Y-37806381D01*
X64444667Y-37806381D01*
X64587524Y-37854000D01*
X64635143Y-37901619D01*
X65587524Y-38806381D02*
X65016095Y-38806381D01*
X65301809Y-38806381D02*
X65301809Y-37806381D01*
X65206571Y-37949238D01*
X65111333Y-38044476D01*
X65016095Y-38092095D01*
X66444667Y-37806381D02*
X66254190Y-37806381D01*
X66158952Y-37854000D01*
X66111333Y-37901619D01*
X66016095Y-38044476D01*
X65968476Y-38234952D01*
X65968476Y-38615905D01*
X66016095Y-38711143D01*
X66063714Y-38758762D01*
X66158952Y-38806381D01*
X66349429Y-38806381D01*
X66444667Y-38758762D01*
X66492286Y-38711143D01*
X66539905Y-38615905D01*
X66539905Y-38377810D01*
X66492286Y-38282571D01*
X66444667Y-38234952D01*
X66349429Y-38187333D01*
X66158952Y-38187333D01*
X66063714Y-38234952D01*
X66016095Y-38282571D01*
X65968476Y-38377810D01*
X73750381Y-82442666D02*
X73274190Y-82776000D01*
X73750381Y-83014095D02*
X72750381Y-83014095D01*
X72750381Y-82633142D01*
X72798000Y-82537904D01*
X72845619Y-82490285D01*
X72940857Y-82442666D01*
X73083714Y-82442666D01*
X73178952Y-82490285D01*
X73226571Y-82537904D01*
X73274190Y-82633142D01*
X73274190Y-83014095D01*
X72750381Y-82109333D02*
X72750381Y-81490285D01*
X73131333Y-81823619D01*
X73131333Y-81680761D01*
X73178952Y-81585523D01*
X73226571Y-81537904D01*
X73321810Y-81490285D01*
X73559905Y-81490285D01*
X73655143Y-81537904D01*
X73702762Y-81585523D01*
X73750381Y-81680761D01*
X73750381Y-81966476D01*
X73702762Y-82061714D01*
X73655143Y-82109333D01*
X78573334Y-91130381D02*
X78240000Y-90654190D01*
X78001905Y-91130381D02*
X78001905Y-90130381D01*
X78382858Y-90130381D01*
X78478096Y-90178000D01*
X78525715Y-90225619D01*
X78573334Y-90320857D01*
X78573334Y-90463714D01*
X78525715Y-90558952D01*
X78478096Y-90606571D01*
X78382858Y-90654190D01*
X78001905Y-90654190D01*
X79430477Y-90463714D02*
X79430477Y-91130381D01*
X79192381Y-90082762D02*
X78954286Y-90797048D01*
X79573334Y-90797048D01*
X76541334Y-91130381D02*
X76208000Y-90654190D01*
X75969905Y-91130381D02*
X75969905Y-90130381D01*
X76350858Y-90130381D01*
X76446096Y-90178000D01*
X76493715Y-90225619D01*
X76541334Y-90320857D01*
X76541334Y-90463714D01*
X76493715Y-90558952D01*
X76446096Y-90606571D01*
X76350858Y-90654190D01*
X75969905Y-90654190D01*
X77398477Y-90130381D02*
X77208000Y-90130381D01*
X77112762Y-90178000D01*
X77065143Y-90225619D01*
X76969905Y-90368476D01*
X76922286Y-90558952D01*
X76922286Y-90939905D01*
X76969905Y-91035143D01*
X77017524Y-91082762D01*
X77112762Y-91130381D01*
X77303239Y-91130381D01*
X77398477Y-91082762D01*
X77446096Y-91035143D01*
X77493715Y-90939905D01*
X77493715Y-90701810D01*
X77446096Y-90606571D01*
X77398477Y-90558952D01*
X77303239Y-90511333D01*
X77112762Y-90511333D01*
X77017524Y-90558952D01*
X76969905Y-90606571D01*
X76922286Y-90701810D01*
X58005143Y-90753381D02*
X57671809Y-90277190D01*
X57433714Y-90753381D02*
X57433714Y-89753381D01*
X57814667Y-89753381D01*
X57909905Y-89801000D01*
X57957524Y-89848619D01*
X58005143Y-89943857D01*
X58005143Y-90086714D01*
X57957524Y-90181952D01*
X57909905Y-90229571D01*
X57814667Y-90277190D01*
X57433714Y-90277190D01*
X58957524Y-90753381D02*
X58386095Y-90753381D01*
X58671809Y-90753381D02*
X58671809Y-89753381D01*
X58576571Y-89896238D01*
X58481333Y-89991476D01*
X58386095Y-90039095D01*
X59909905Y-90753381D02*
X59338476Y-90753381D01*
X59624190Y-90753381D02*
X59624190Y-89753381D01*
X59528952Y-89896238D01*
X59433714Y-89991476D01*
X59338476Y-90039095D01*
X71731143Y-60872666D02*
X71778762Y-60920285D01*
X71826381Y-61063142D01*
X71826381Y-61158380D01*
X71778762Y-61301238D01*
X71683524Y-61396476D01*
X71588286Y-61444095D01*
X71397810Y-61491714D01*
X71254952Y-61491714D01*
X71064476Y-61444095D01*
X70969238Y-61396476D01*
X70874000Y-61301238D01*
X70826381Y-61158380D01*
X70826381Y-61063142D01*
X70874000Y-60920285D01*
X70921619Y-60872666D01*
X71826381Y-60396476D02*
X71826381Y-60206000D01*
X71778762Y-60110761D01*
X71731143Y-60063142D01*
X71588286Y-59967904D01*
X71397810Y-59920285D01*
X71016857Y-59920285D01*
X70921619Y-59967904D01*
X70874000Y-60015523D01*
X70826381Y-60110761D01*
X70826381Y-60301238D01*
X70874000Y-60396476D01*
X70921619Y-60444095D01*
X71016857Y-60491714D01*
X71254952Y-60491714D01*
X71350190Y-60444095D01*
X71397810Y-60396476D01*
X71445429Y-60301238D01*
X71445429Y-60110761D01*
X71397810Y-60015523D01*
X71350190Y-59967904D01*
X71254952Y-59920285D01*
X60459905Y-90603381D02*
X60459905Y-89603381D01*
X60698000Y-89603381D01*
X60840858Y-89651000D01*
X60936096Y-89746238D01*
X60983715Y-89841476D01*
X61031334Y-90031952D01*
X61031334Y-90174810D01*
X60983715Y-90365286D01*
X60936096Y-90460524D01*
X60840858Y-90555762D01*
X60698000Y-90603381D01*
X60459905Y-90603381D01*
X61888477Y-89936714D02*
X61888477Y-90603381D01*
X61650381Y-89555762D02*
X61412286Y-90270048D01*
X62031334Y-90270048D01*
X63698381Y-73826666D02*
X63222190Y-74160000D01*
X63698381Y-74398095D02*
X62698381Y-74398095D01*
X62698381Y-74017142D01*
X62746000Y-73921904D01*
X62793619Y-73874285D01*
X62888857Y-73826666D01*
X63031714Y-73826666D01*
X63126952Y-73874285D01*
X63174571Y-73921904D01*
X63222190Y-74017142D01*
X63222190Y-74398095D01*
X63698381Y-73350476D02*
X63698381Y-73160000D01*
X63650762Y-73064761D01*
X63603143Y-73017142D01*
X63460286Y-72921904D01*
X63269810Y-72874285D01*
X62888857Y-72874285D01*
X62793619Y-72921904D01*
X62746000Y-72969523D01*
X62698381Y-73064761D01*
X62698381Y-73255238D01*
X62746000Y-73350476D01*
X62793619Y-73398095D01*
X62888857Y-73445714D01*
X63126952Y-73445714D01*
X63222190Y-73398095D01*
X63269810Y-73350476D01*
X63317429Y-73255238D01*
X63317429Y-73064761D01*
X63269810Y-72969523D01*
X63222190Y-72921904D01*
X63126952Y-72874285D01*
M02*
