G04 #@! TF.FileFunction,Legend,Top*
%FSLAX46Y46*%
G04 Gerber Fmt 4.6, Leading zero omitted, Abs format (unit mm)*
G04 Created by KiCad (PCBNEW 4.0.7) date 06/29/20 23:10:56*
%MOMM*%
%LPD*%
G01*
G04 APERTURE LIST*
%ADD10C,0.100000*%
%ADD11C,0.150000*%
%ADD12C,0.120000*%
G04 APERTURE END LIST*
D10*
D11*
X72693239Y-64604571D02*
X72836096Y-64652190D01*
X72883715Y-64699810D01*
X72931334Y-64795048D01*
X72931334Y-64937905D01*
X72883715Y-65033143D01*
X72836096Y-65080762D01*
X72740858Y-65128381D01*
X72359905Y-65128381D01*
X72359905Y-64128381D01*
X72693239Y-64128381D01*
X72788477Y-64176000D01*
X72836096Y-64223619D01*
X72883715Y-64318857D01*
X72883715Y-64414095D01*
X72836096Y-64509333D01*
X72788477Y-64556952D01*
X72693239Y-64604571D01*
X72359905Y-64604571D01*
X73883715Y-65128381D02*
X73312286Y-65128381D01*
X73598000Y-65128381D02*
X73598000Y-64128381D01*
X73502762Y-64271238D01*
X73407524Y-64366476D01*
X73312286Y-64414095D01*
X72693239Y-67404571D02*
X72836096Y-67452190D01*
X72883715Y-67499810D01*
X72931334Y-67595048D01*
X72931334Y-67737905D01*
X72883715Y-67833143D01*
X72836096Y-67880762D01*
X72740858Y-67928381D01*
X72359905Y-67928381D01*
X72359905Y-66928381D01*
X72693239Y-66928381D01*
X72788477Y-66976000D01*
X72836096Y-67023619D01*
X72883715Y-67118857D01*
X72883715Y-67214095D01*
X72836096Y-67309333D01*
X72788477Y-67356952D01*
X72693239Y-67404571D01*
X72359905Y-67404571D01*
X73550381Y-66928381D02*
X73645620Y-66928381D01*
X73740858Y-66976000D01*
X73788477Y-67023619D01*
X73836096Y-67118857D01*
X73883715Y-67309333D01*
X73883715Y-67547429D01*
X73836096Y-67737905D01*
X73788477Y-67833143D01*
X73740858Y-67880762D01*
X73645620Y-67928381D01*
X73550381Y-67928381D01*
X73455143Y-67880762D01*
X73407524Y-67833143D01*
X73359905Y-67737905D01*
X73312286Y-67547429D01*
X73312286Y-67309333D01*
X73359905Y-67118857D01*
X73407524Y-67023619D01*
X73455143Y-66976000D01*
X73550381Y-66928381D01*
X70507524Y-63003381D02*
X70031333Y-63003381D01*
X70031333Y-62003381D01*
X64787286Y-62978381D02*
X64787286Y-61978381D01*
X64787286Y-62454571D02*
X65358715Y-62454571D01*
X65358715Y-62978381D02*
X65358715Y-61978381D01*
X68302762Y-32361714D02*
X68350381Y-32218857D01*
X68350381Y-31980761D01*
X68302762Y-31885523D01*
X68255143Y-31837904D01*
X68159905Y-31790285D01*
X68064667Y-31790285D01*
X67969429Y-31837904D01*
X67921810Y-31885523D01*
X67874190Y-31980761D01*
X67826571Y-32171238D01*
X67778952Y-32266476D01*
X67731333Y-32314095D01*
X67636095Y-32361714D01*
X67540857Y-32361714D01*
X67445619Y-32314095D01*
X67398000Y-32266476D01*
X67350381Y-32171238D01*
X67350381Y-31933142D01*
X67398000Y-31790285D01*
X68255143Y-30790285D02*
X68302762Y-30837904D01*
X68350381Y-30980761D01*
X68350381Y-31075999D01*
X68302762Y-31218857D01*
X68207524Y-31314095D01*
X68112286Y-31361714D01*
X67921810Y-31409333D01*
X67778952Y-31409333D01*
X67588476Y-31361714D01*
X67493238Y-31314095D01*
X67398000Y-31218857D01*
X67350381Y-31075999D01*
X67350381Y-30980761D01*
X67398000Y-30837904D01*
X67445619Y-30790285D01*
X68350381Y-30361714D02*
X67350381Y-30361714D01*
X68350381Y-29790285D02*
X67778952Y-30218857D01*
X67350381Y-29790285D02*
X67921810Y-30361714D01*
X70702762Y-32123619D02*
X70750381Y-31980762D01*
X70750381Y-31742666D01*
X70702762Y-31647428D01*
X70655143Y-31599809D01*
X70559905Y-31552190D01*
X70464667Y-31552190D01*
X70369429Y-31599809D01*
X70321810Y-31647428D01*
X70274190Y-31742666D01*
X70226571Y-31933143D01*
X70178952Y-32028381D01*
X70131333Y-32076000D01*
X70036095Y-32123619D01*
X69940857Y-32123619D01*
X69845619Y-32076000D01*
X69798000Y-32028381D01*
X69750381Y-31933143D01*
X69750381Y-31695047D01*
X69798000Y-31552190D01*
X70750381Y-31123619D02*
X69750381Y-31123619D01*
X69750381Y-30456953D02*
X69750381Y-30266476D01*
X69798000Y-30171238D01*
X69893238Y-30076000D01*
X70083714Y-30028381D01*
X70417048Y-30028381D01*
X70607524Y-30076000D01*
X70702762Y-30171238D01*
X70750381Y-30266476D01*
X70750381Y-30456953D01*
X70702762Y-30552191D01*
X70607524Y-30647429D01*
X70417048Y-30695048D01*
X70083714Y-30695048D01*
X69893238Y-30647429D01*
X69798000Y-30552191D01*
X69750381Y-30456953D01*
X64798000Y-31837904D02*
X64750381Y-31933142D01*
X64750381Y-32075999D01*
X64798000Y-32218857D01*
X64893238Y-32314095D01*
X64988476Y-32361714D01*
X65178952Y-32409333D01*
X65321810Y-32409333D01*
X65512286Y-32361714D01*
X65607524Y-32314095D01*
X65702762Y-32218857D01*
X65750381Y-32075999D01*
X65750381Y-31980761D01*
X65702762Y-31837904D01*
X65655143Y-31790285D01*
X65321810Y-31790285D01*
X65321810Y-31980761D01*
X65750381Y-31361714D02*
X64750381Y-31361714D01*
X65750381Y-30790285D01*
X64750381Y-30790285D01*
X65750381Y-30314095D02*
X64750381Y-30314095D01*
X64750381Y-30076000D01*
X64798000Y-29933142D01*
X64893238Y-29837904D01*
X64988476Y-29790285D01*
X65178952Y-29742666D01*
X65321810Y-29742666D01*
X65512286Y-29790285D01*
X65607524Y-29837904D01*
X65702762Y-29933142D01*
X65750381Y-30076000D01*
X65750381Y-30314095D01*
X72350381Y-32114095D02*
X72350381Y-31495047D01*
X72731333Y-31828381D01*
X72731333Y-31685523D01*
X72778952Y-31590285D01*
X72826571Y-31542666D01*
X72921810Y-31495047D01*
X73159905Y-31495047D01*
X73255143Y-31542666D01*
X73302762Y-31590285D01*
X73350381Y-31685523D01*
X73350381Y-31971238D01*
X73302762Y-32066476D01*
X73255143Y-32114095D01*
X72350381Y-31209333D02*
X73350381Y-30876000D01*
X72350381Y-30542666D01*
X72350381Y-30304571D02*
X72350381Y-29685523D01*
X72731333Y-30018857D01*
X72731333Y-29875999D01*
X72778952Y-29780761D01*
X72826571Y-29733142D01*
X72921810Y-29685523D01*
X73159905Y-29685523D01*
X73255143Y-29733142D01*
X73302762Y-29780761D01*
X73350381Y-29875999D01*
X73350381Y-30161714D01*
X73302762Y-30256952D01*
X73255143Y-30304571D01*
D10*
X78671810Y-33496954D02*
X78671810Y-33806477D01*
X78481333Y-33639811D01*
X78481333Y-33711239D01*
X78457524Y-33758858D01*
X78433714Y-33782668D01*
X78386095Y-33806477D01*
X78267048Y-33806477D01*
X78219429Y-33782668D01*
X78195619Y-33758858D01*
X78171810Y-33711239D01*
X78171810Y-33568382D01*
X78195619Y-33520763D01*
X78219429Y-33496954D01*
X78671810Y-33949334D02*
X78171810Y-34116001D01*
X78671810Y-34282667D01*
X78671810Y-34401715D02*
X78671810Y-34711238D01*
X78481333Y-34544572D01*
X78481333Y-34616000D01*
X78457524Y-34663619D01*
X78433714Y-34687429D01*
X78386095Y-34711238D01*
X78267048Y-34711238D01*
X78219429Y-34687429D01*
X78195619Y-34663619D01*
X78171810Y-34616000D01*
X78171810Y-34473143D01*
X78195619Y-34425524D01*
X78219429Y-34401715D01*
X78458000Y-36415047D02*
X78481810Y-36367428D01*
X78481810Y-36296000D01*
X78458000Y-36224571D01*
X78410381Y-36176952D01*
X78362762Y-36153143D01*
X78267524Y-36129333D01*
X78196095Y-36129333D01*
X78100857Y-36153143D01*
X78053238Y-36176952D01*
X78005619Y-36224571D01*
X77981810Y-36296000D01*
X77981810Y-36343619D01*
X78005619Y-36415047D01*
X78029429Y-36438857D01*
X78196095Y-36438857D01*
X78196095Y-36343619D01*
X77981810Y-36653143D02*
X78481810Y-36653143D01*
X77981810Y-36938857D01*
X78481810Y-36938857D01*
X77981810Y-37176953D02*
X78481810Y-37176953D01*
X78481810Y-37296000D01*
X78458000Y-37367429D01*
X78410381Y-37415048D01*
X78362762Y-37438857D01*
X78267524Y-37462667D01*
X78196095Y-37462667D01*
X78100857Y-37438857D01*
X78053238Y-37415048D01*
X78005619Y-37367429D01*
X77981810Y-37296000D01*
X77981810Y-37176953D01*
X78531810Y-39310763D02*
X78531810Y-39072668D01*
X78293714Y-39048858D01*
X78317524Y-39072668D01*
X78341333Y-39120287D01*
X78341333Y-39239334D01*
X78317524Y-39286953D01*
X78293714Y-39310763D01*
X78246095Y-39334572D01*
X78127048Y-39334572D01*
X78079429Y-39310763D01*
X78055619Y-39286953D01*
X78031810Y-39239334D01*
X78031810Y-39120287D01*
X78055619Y-39072668D01*
X78079429Y-39048858D01*
X78531810Y-39477429D02*
X78031810Y-39644096D01*
X78531810Y-39810762D01*
X78031810Y-41226953D02*
X78531810Y-41226953D01*
X78531810Y-41417429D01*
X78508000Y-41465048D01*
X78484190Y-41488857D01*
X78436571Y-41512667D01*
X78365143Y-41512667D01*
X78317524Y-41488857D01*
X78293714Y-41465048D01*
X78269905Y-41417429D01*
X78269905Y-41226953D01*
X78293714Y-41893619D02*
X78269905Y-41965048D01*
X78246095Y-41988857D01*
X78198476Y-42012667D01*
X78127048Y-42012667D01*
X78079429Y-41988857D01*
X78055619Y-41965048D01*
X78031810Y-41917429D01*
X78031810Y-41726953D01*
X78531810Y-41726953D01*
X78531810Y-41893619D01*
X78508000Y-41941238D01*
X78484190Y-41965048D01*
X78436571Y-41988857D01*
X78388952Y-41988857D01*
X78341333Y-41965048D01*
X78317524Y-41941238D01*
X78293714Y-41893619D01*
X78293714Y-41726953D01*
X78031810Y-42250762D02*
X78031810Y-42346000D01*
X78055619Y-42393619D01*
X78079429Y-42417429D01*
X78150857Y-42465048D01*
X78246095Y-42488857D01*
X78436571Y-42488857D01*
X78484190Y-42465048D01*
X78508000Y-42441238D01*
X78531810Y-42393619D01*
X78531810Y-42298381D01*
X78508000Y-42250762D01*
X78484190Y-42226953D01*
X78436571Y-42203143D01*
X78317524Y-42203143D01*
X78269905Y-42226953D01*
X78246095Y-42250762D01*
X78222286Y-42298381D01*
X78222286Y-42393619D01*
X78246095Y-42441238D01*
X78269905Y-42465048D01*
X78317524Y-42488857D01*
X78031810Y-43846953D02*
X78531810Y-43846953D01*
X78531810Y-44037429D01*
X78508000Y-44085048D01*
X78484190Y-44108857D01*
X78436571Y-44132667D01*
X78365143Y-44132667D01*
X78317524Y-44108857D01*
X78293714Y-44085048D01*
X78269905Y-44037429D01*
X78269905Y-43846953D01*
X78293714Y-44513619D02*
X78269905Y-44585048D01*
X78246095Y-44608857D01*
X78198476Y-44632667D01*
X78127048Y-44632667D01*
X78079429Y-44608857D01*
X78055619Y-44585048D01*
X78031810Y-44537429D01*
X78031810Y-44346953D01*
X78531810Y-44346953D01*
X78531810Y-44513619D01*
X78508000Y-44561238D01*
X78484190Y-44585048D01*
X78436571Y-44608857D01*
X78388952Y-44608857D01*
X78341333Y-44585048D01*
X78317524Y-44561238D01*
X78293714Y-44513619D01*
X78293714Y-44346953D01*
X78317524Y-44918381D02*
X78341333Y-44870762D01*
X78365143Y-44846953D01*
X78412762Y-44823143D01*
X78436571Y-44823143D01*
X78484190Y-44846953D01*
X78508000Y-44870762D01*
X78531810Y-44918381D01*
X78531810Y-45013619D01*
X78508000Y-45061238D01*
X78484190Y-45085048D01*
X78436571Y-45108857D01*
X78412762Y-45108857D01*
X78365143Y-45085048D01*
X78341333Y-45061238D01*
X78317524Y-45013619D01*
X78317524Y-44918381D01*
X78293714Y-44870762D01*
X78269905Y-44846953D01*
X78222286Y-44823143D01*
X78127048Y-44823143D01*
X78079429Y-44846953D01*
X78055619Y-44870762D01*
X78031810Y-44918381D01*
X78031810Y-45013619D01*
X78055619Y-45061238D01*
X78079429Y-45085048D01*
X78127048Y-45108857D01*
X78222286Y-45108857D01*
X78269905Y-45085048D01*
X78293714Y-45061238D01*
X78317524Y-45013619D01*
X78111810Y-46376953D02*
X78611810Y-46376953D01*
X78611810Y-46567429D01*
X78588000Y-46615048D01*
X78564190Y-46638857D01*
X78516571Y-46662667D01*
X78445143Y-46662667D01*
X78397524Y-46638857D01*
X78373714Y-46615048D01*
X78349905Y-46567429D01*
X78349905Y-46376953D01*
X78373714Y-47043619D02*
X78349905Y-47115048D01*
X78326095Y-47138857D01*
X78278476Y-47162667D01*
X78207048Y-47162667D01*
X78159429Y-47138857D01*
X78135619Y-47115048D01*
X78111810Y-47067429D01*
X78111810Y-46876953D01*
X78611810Y-46876953D01*
X78611810Y-47043619D01*
X78588000Y-47091238D01*
X78564190Y-47115048D01*
X78516571Y-47138857D01*
X78468952Y-47138857D01*
X78421333Y-47115048D01*
X78397524Y-47091238D01*
X78373714Y-47043619D01*
X78373714Y-46876953D01*
X78611810Y-47329334D02*
X78611810Y-47662667D01*
X78111810Y-47448381D01*
X78111810Y-48716953D02*
X78611810Y-48716953D01*
X78611810Y-48907429D01*
X78588000Y-48955048D01*
X78564190Y-48978857D01*
X78516571Y-49002667D01*
X78445143Y-49002667D01*
X78397524Y-48978857D01*
X78373714Y-48955048D01*
X78349905Y-48907429D01*
X78349905Y-48716953D01*
X78373714Y-49383619D02*
X78349905Y-49455048D01*
X78326095Y-49478857D01*
X78278476Y-49502667D01*
X78207048Y-49502667D01*
X78159429Y-49478857D01*
X78135619Y-49455048D01*
X78111810Y-49407429D01*
X78111810Y-49216953D01*
X78611810Y-49216953D01*
X78611810Y-49383619D01*
X78588000Y-49431238D01*
X78564190Y-49455048D01*
X78516571Y-49478857D01*
X78468952Y-49478857D01*
X78421333Y-49455048D01*
X78397524Y-49431238D01*
X78373714Y-49383619D01*
X78373714Y-49216953D01*
X78611810Y-49931238D02*
X78611810Y-49836000D01*
X78588000Y-49788381D01*
X78564190Y-49764572D01*
X78492762Y-49716953D01*
X78397524Y-49693143D01*
X78207048Y-49693143D01*
X78159429Y-49716953D01*
X78135619Y-49740762D01*
X78111810Y-49788381D01*
X78111810Y-49883619D01*
X78135619Y-49931238D01*
X78159429Y-49955048D01*
X78207048Y-49978857D01*
X78326095Y-49978857D01*
X78373714Y-49955048D01*
X78397524Y-49931238D01*
X78421333Y-49883619D01*
X78421333Y-49788381D01*
X78397524Y-49740762D01*
X78373714Y-49716953D01*
X78326095Y-49693143D01*
X78141810Y-51306953D02*
X78641810Y-51306953D01*
X78641810Y-51497429D01*
X78618000Y-51545048D01*
X78594190Y-51568857D01*
X78546571Y-51592667D01*
X78475143Y-51592667D01*
X78427524Y-51568857D01*
X78403714Y-51545048D01*
X78379905Y-51497429D01*
X78379905Y-51306953D01*
X78403714Y-51973619D02*
X78379905Y-52045048D01*
X78356095Y-52068857D01*
X78308476Y-52092667D01*
X78237048Y-52092667D01*
X78189429Y-52068857D01*
X78165619Y-52045048D01*
X78141810Y-51997429D01*
X78141810Y-51806953D01*
X78641810Y-51806953D01*
X78641810Y-51973619D01*
X78618000Y-52021238D01*
X78594190Y-52045048D01*
X78546571Y-52068857D01*
X78498952Y-52068857D01*
X78451333Y-52045048D01*
X78427524Y-52021238D01*
X78403714Y-51973619D01*
X78403714Y-51806953D01*
X78641810Y-52545048D02*
X78641810Y-52306953D01*
X78403714Y-52283143D01*
X78427524Y-52306953D01*
X78451333Y-52354572D01*
X78451333Y-52473619D01*
X78427524Y-52521238D01*
X78403714Y-52545048D01*
X78356095Y-52568857D01*
X78237048Y-52568857D01*
X78189429Y-52545048D01*
X78165619Y-52521238D01*
X78141810Y-52473619D01*
X78141810Y-52354572D01*
X78165619Y-52306953D01*
X78189429Y-52283143D01*
X78111810Y-53846953D02*
X78611810Y-53846953D01*
X78611810Y-54037429D01*
X78588000Y-54085048D01*
X78564190Y-54108857D01*
X78516571Y-54132667D01*
X78445143Y-54132667D01*
X78397524Y-54108857D01*
X78373714Y-54085048D01*
X78349905Y-54037429D01*
X78349905Y-53846953D01*
X78373714Y-54513619D02*
X78349905Y-54585048D01*
X78326095Y-54608857D01*
X78278476Y-54632667D01*
X78207048Y-54632667D01*
X78159429Y-54608857D01*
X78135619Y-54585048D01*
X78111810Y-54537429D01*
X78111810Y-54346953D01*
X78611810Y-54346953D01*
X78611810Y-54513619D01*
X78588000Y-54561238D01*
X78564190Y-54585048D01*
X78516571Y-54608857D01*
X78468952Y-54608857D01*
X78421333Y-54585048D01*
X78397524Y-54561238D01*
X78373714Y-54513619D01*
X78373714Y-54346953D01*
X78445143Y-55061238D02*
X78111810Y-55061238D01*
X78635619Y-54942191D02*
X78278476Y-54823143D01*
X78278476Y-55132667D01*
X78041810Y-56366953D02*
X78541810Y-56366953D01*
X78541810Y-56557429D01*
X78518000Y-56605048D01*
X78494190Y-56628857D01*
X78446571Y-56652667D01*
X78375143Y-56652667D01*
X78327524Y-56628857D01*
X78303714Y-56605048D01*
X78279905Y-56557429D01*
X78279905Y-56366953D01*
X78303714Y-57033619D02*
X78279905Y-57105048D01*
X78256095Y-57128857D01*
X78208476Y-57152667D01*
X78137048Y-57152667D01*
X78089429Y-57128857D01*
X78065619Y-57105048D01*
X78041810Y-57057429D01*
X78041810Y-56866953D01*
X78541810Y-56866953D01*
X78541810Y-57033619D01*
X78518000Y-57081238D01*
X78494190Y-57105048D01*
X78446571Y-57128857D01*
X78398952Y-57128857D01*
X78351333Y-57105048D01*
X78327524Y-57081238D01*
X78303714Y-57033619D01*
X78303714Y-56866953D01*
X78541810Y-57319334D02*
X78541810Y-57628857D01*
X78351333Y-57462191D01*
X78351333Y-57533619D01*
X78327524Y-57581238D01*
X78303714Y-57605048D01*
X78256095Y-57628857D01*
X78137048Y-57628857D01*
X78089429Y-57605048D01*
X78065619Y-57581238D01*
X78041810Y-57533619D01*
X78041810Y-57390762D01*
X78065619Y-57343143D01*
X78089429Y-57319334D01*
X78031810Y-58554573D02*
X78531810Y-58554573D01*
X78531810Y-58745049D01*
X78508000Y-58792668D01*
X78484190Y-58816477D01*
X78436571Y-58840287D01*
X78365143Y-58840287D01*
X78317524Y-58816477D01*
X78293714Y-58792668D01*
X78269905Y-58745049D01*
X78269905Y-58554573D01*
X78174667Y-59030763D02*
X78174667Y-59268858D01*
X78031810Y-58983144D02*
X78531810Y-59149811D01*
X78031810Y-59316477D01*
X78031810Y-59745048D02*
X78031810Y-59459334D01*
X78031810Y-59602191D02*
X78531810Y-59602191D01*
X78460381Y-59554572D01*
X78412762Y-59506953D01*
X78388952Y-59459334D01*
X78531810Y-60197429D02*
X78531810Y-59959334D01*
X78293714Y-59935524D01*
X78317524Y-59959334D01*
X78341333Y-60006953D01*
X78341333Y-60126000D01*
X78317524Y-60173619D01*
X78293714Y-60197429D01*
X78246095Y-60221238D01*
X78127048Y-60221238D01*
X78079429Y-60197429D01*
X78055619Y-60173619D01*
X78031810Y-60126000D01*
X78031810Y-60006953D01*
X78055619Y-59959334D01*
X78079429Y-59935524D01*
X77951810Y-61194573D02*
X78451810Y-61194573D01*
X78451810Y-61385049D01*
X78428000Y-61432668D01*
X78404190Y-61456477D01*
X78356571Y-61480287D01*
X78285143Y-61480287D01*
X78237524Y-61456477D01*
X78213714Y-61432668D01*
X78189905Y-61385049D01*
X78189905Y-61194573D01*
X78094667Y-61670763D02*
X78094667Y-61908858D01*
X77951810Y-61623144D02*
X78451810Y-61789811D01*
X77951810Y-61956477D01*
X77951810Y-62385048D02*
X77951810Y-62099334D01*
X77951810Y-62242191D02*
X78451810Y-62242191D01*
X78380381Y-62194572D01*
X78332762Y-62146953D01*
X78308952Y-62099334D01*
X78404190Y-62575524D02*
X78428000Y-62599334D01*
X78451810Y-62646953D01*
X78451810Y-62766000D01*
X78428000Y-62813619D01*
X78404190Y-62837429D01*
X78356571Y-62861238D01*
X78308952Y-62861238D01*
X78237524Y-62837429D01*
X77951810Y-62551715D01*
X77951810Y-62861238D01*
X78041810Y-63914573D02*
X78541810Y-63914573D01*
X78541810Y-64105049D01*
X78518000Y-64152668D01*
X78494190Y-64176477D01*
X78446571Y-64200287D01*
X78375143Y-64200287D01*
X78327524Y-64176477D01*
X78303714Y-64152668D01*
X78279905Y-64105049D01*
X78279905Y-63914573D01*
X78184667Y-64390763D02*
X78184667Y-64628858D01*
X78041810Y-64343144D02*
X78541810Y-64509811D01*
X78041810Y-64676477D01*
X78041810Y-65105048D02*
X78041810Y-64819334D01*
X78041810Y-64962191D02*
X78541810Y-64962191D01*
X78470381Y-64914572D01*
X78422762Y-64866953D01*
X78398952Y-64819334D01*
X78041810Y-65581238D02*
X78041810Y-65295524D01*
X78041810Y-65438381D02*
X78541810Y-65438381D01*
X78470381Y-65390762D01*
X78422762Y-65343143D01*
X78398952Y-65295524D01*
X78041810Y-66434573D02*
X78541810Y-66434573D01*
X78541810Y-66625049D01*
X78518000Y-66672668D01*
X78494190Y-66696477D01*
X78446571Y-66720287D01*
X78375143Y-66720287D01*
X78327524Y-66696477D01*
X78303714Y-66672668D01*
X78279905Y-66625049D01*
X78279905Y-66434573D01*
X78184667Y-66910763D02*
X78184667Y-67148858D01*
X78041810Y-66863144D02*
X78541810Y-67029811D01*
X78041810Y-67196477D01*
X78041810Y-67625048D02*
X78041810Y-67339334D01*
X78041810Y-67482191D02*
X78541810Y-67482191D01*
X78470381Y-67434572D01*
X78422762Y-67386953D01*
X78398952Y-67339334D01*
X78541810Y-67934572D02*
X78541810Y-67982191D01*
X78518000Y-68029810D01*
X78494190Y-68053619D01*
X78446571Y-68077429D01*
X78351333Y-68101238D01*
X78232286Y-68101238D01*
X78137048Y-68077429D01*
X78089429Y-68053619D01*
X78065619Y-68029810D01*
X78041810Y-67982191D01*
X78041810Y-67934572D01*
X78065619Y-67886953D01*
X78089429Y-67863143D01*
X78137048Y-67839334D01*
X78232286Y-67815524D01*
X78351333Y-67815524D01*
X78446571Y-67839334D01*
X78494190Y-67863143D01*
X78518000Y-67886953D01*
X78541810Y-67934572D01*
X78011810Y-69232668D02*
X78511810Y-69232668D01*
X78511810Y-69423144D01*
X78488000Y-69470763D01*
X78464190Y-69494572D01*
X78416571Y-69518382D01*
X78345143Y-69518382D01*
X78297524Y-69494572D01*
X78273714Y-69470763D01*
X78249905Y-69423144D01*
X78249905Y-69232668D01*
X78154667Y-69708858D02*
X78154667Y-69946953D01*
X78011810Y-69661239D02*
X78511810Y-69827906D01*
X78011810Y-69994572D01*
X78011810Y-70185048D02*
X78011810Y-70280286D01*
X78035619Y-70327905D01*
X78059429Y-70351715D01*
X78130857Y-70399334D01*
X78226095Y-70423143D01*
X78416571Y-70423143D01*
X78464190Y-70399334D01*
X78488000Y-70375524D01*
X78511810Y-70327905D01*
X78511810Y-70232667D01*
X78488000Y-70185048D01*
X78464190Y-70161239D01*
X78416571Y-70137429D01*
X78297524Y-70137429D01*
X78249905Y-70161239D01*
X78226095Y-70185048D01*
X78202286Y-70232667D01*
X78202286Y-70327905D01*
X78226095Y-70375524D01*
X78249905Y-70399334D01*
X78297524Y-70423143D01*
X78011810Y-71792668D02*
X78511810Y-71792668D01*
X78511810Y-71983144D01*
X78488000Y-72030763D01*
X78464190Y-72054572D01*
X78416571Y-72078382D01*
X78345143Y-72078382D01*
X78297524Y-72054572D01*
X78273714Y-72030763D01*
X78249905Y-71983144D01*
X78249905Y-71792668D01*
X78154667Y-72268858D02*
X78154667Y-72506953D01*
X78011810Y-72221239D02*
X78511810Y-72387906D01*
X78011810Y-72554572D01*
X78297524Y-72792667D02*
X78321333Y-72745048D01*
X78345143Y-72721239D01*
X78392762Y-72697429D01*
X78416571Y-72697429D01*
X78464190Y-72721239D01*
X78488000Y-72745048D01*
X78511810Y-72792667D01*
X78511810Y-72887905D01*
X78488000Y-72935524D01*
X78464190Y-72959334D01*
X78416571Y-72983143D01*
X78392762Y-72983143D01*
X78345143Y-72959334D01*
X78321333Y-72935524D01*
X78297524Y-72887905D01*
X78297524Y-72792667D01*
X78273714Y-72745048D01*
X78249905Y-72721239D01*
X78202286Y-72697429D01*
X78107048Y-72697429D01*
X78059429Y-72721239D01*
X78035619Y-72745048D01*
X78011810Y-72792667D01*
X78011810Y-72887905D01*
X78035619Y-72935524D01*
X78059429Y-72959334D01*
X78107048Y-72983143D01*
X78202286Y-72983143D01*
X78249905Y-72959334D01*
X78273714Y-72935524D01*
X78297524Y-72887905D01*
X78031810Y-73878858D02*
X78531810Y-73878858D01*
X78531810Y-74069334D01*
X78508000Y-74116953D01*
X78484190Y-74140762D01*
X78436571Y-74164572D01*
X78365143Y-74164572D01*
X78317524Y-74140762D01*
X78293714Y-74116953D01*
X78269905Y-74069334D01*
X78269905Y-73878858D01*
X78293714Y-74545524D02*
X78269905Y-74616953D01*
X78246095Y-74640762D01*
X78198476Y-74664572D01*
X78127048Y-74664572D01*
X78079429Y-74640762D01*
X78055619Y-74616953D01*
X78031810Y-74569334D01*
X78031810Y-74378858D01*
X78531810Y-74378858D01*
X78531810Y-74545524D01*
X78508000Y-74593143D01*
X78484190Y-74616953D01*
X78436571Y-74640762D01*
X78388952Y-74640762D01*
X78341333Y-74616953D01*
X78317524Y-74593143D01*
X78293714Y-74545524D01*
X78293714Y-74378858D01*
X78031810Y-75140762D02*
X78031810Y-74855048D01*
X78031810Y-74997905D02*
X78531810Y-74997905D01*
X78460381Y-74950286D01*
X78412762Y-74902667D01*
X78388952Y-74855048D01*
X78531810Y-75593143D02*
X78531810Y-75355048D01*
X78293714Y-75331238D01*
X78317524Y-75355048D01*
X78341333Y-75402667D01*
X78341333Y-75521714D01*
X78317524Y-75569333D01*
X78293714Y-75593143D01*
X78246095Y-75616952D01*
X78127048Y-75616952D01*
X78079429Y-75593143D01*
X78055619Y-75569333D01*
X78031810Y-75521714D01*
X78031810Y-75402667D01*
X78055619Y-75355048D01*
X78079429Y-75331238D01*
X78071810Y-76588858D02*
X78571810Y-76588858D01*
X78571810Y-76779334D01*
X78548000Y-76826953D01*
X78524190Y-76850762D01*
X78476571Y-76874572D01*
X78405143Y-76874572D01*
X78357524Y-76850762D01*
X78333714Y-76826953D01*
X78309905Y-76779334D01*
X78309905Y-76588858D01*
X78333714Y-77255524D02*
X78309905Y-77326953D01*
X78286095Y-77350762D01*
X78238476Y-77374572D01*
X78167048Y-77374572D01*
X78119429Y-77350762D01*
X78095619Y-77326953D01*
X78071810Y-77279334D01*
X78071810Y-77088858D01*
X78571810Y-77088858D01*
X78571810Y-77255524D01*
X78548000Y-77303143D01*
X78524190Y-77326953D01*
X78476571Y-77350762D01*
X78428952Y-77350762D01*
X78381333Y-77326953D01*
X78357524Y-77303143D01*
X78333714Y-77255524D01*
X78333714Y-77088858D01*
X78071810Y-77850762D02*
X78071810Y-77565048D01*
X78071810Y-77707905D02*
X78571810Y-77707905D01*
X78500381Y-77660286D01*
X78452762Y-77612667D01*
X78428952Y-77565048D01*
X78405143Y-78279333D02*
X78071810Y-78279333D01*
X78595619Y-78160286D02*
X78238476Y-78041238D01*
X78238476Y-78350762D01*
X78001810Y-78958858D02*
X78501810Y-78958858D01*
X78501810Y-79149334D01*
X78478000Y-79196953D01*
X78454190Y-79220762D01*
X78406571Y-79244572D01*
X78335143Y-79244572D01*
X78287524Y-79220762D01*
X78263714Y-79196953D01*
X78239905Y-79149334D01*
X78239905Y-78958858D01*
X78263714Y-79625524D02*
X78239905Y-79696953D01*
X78216095Y-79720762D01*
X78168476Y-79744572D01*
X78097048Y-79744572D01*
X78049429Y-79720762D01*
X78025619Y-79696953D01*
X78001810Y-79649334D01*
X78001810Y-79458858D01*
X78501810Y-79458858D01*
X78501810Y-79625524D01*
X78478000Y-79673143D01*
X78454190Y-79696953D01*
X78406571Y-79720762D01*
X78358952Y-79720762D01*
X78311333Y-79696953D01*
X78287524Y-79673143D01*
X78263714Y-79625524D01*
X78263714Y-79458858D01*
X78001810Y-80220762D02*
X78001810Y-79935048D01*
X78001810Y-80077905D02*
X78501810Y-80077905D01*
X78430381Y-80030286D01*
X78382762Y-79982667D01*
X78358952Y-79935048D01*
X78501810Y-80387429D02*
X78501810Y-80696952D01*
X78311333Y-80530286D01*
X78311333Y-80601714D01*
X78287524Y-80649333D01*
X78263714Y-80673143D01*
X78216095Y-80696952D01*
X78097048Y-80696952D01*
X78049429Y-80673143D01*
X78025619Y-80649333D01*
X78001810Y-80601714D01*
X78001810Y-80458857D01*
X78025619Y-80411238D01*
X78049429Y-80387429D01*
X78081810Y-81418858D02*
X78581810Y-81418858D01*
X78581810Y-81609334D01*
X78558000Y-81656953D01*
X78534190Y-81680762D01*
X78486571Y-81704572D01*
X78415143Y-81704572D01*
X78367524Y-81680762D01*
X78343714Y-81656953D01*
X78319905Y-81609334D01*
X78319905Y-81418858D01*
X78343714Y-82085524D02*
X78319905Y-82156953D01*
X78296095Y-82180762D01*
X78248476Y-82204572D01*
X78177048Y-82204572D01*
X78129429Y-82180762D01*
X78105619Y-82156953D01*
X78081810Y-82109334D01*
X78081810Y-81918858D01*
X78581810Y-81918858D01*
X78581810Y-82085524D01*
X78558000Y-82133143D01*
X78534190Y-82156953D01*
X78486571Y-82180762D01*
X78438952Y-82180762D01*
X78391333Y-82156953D01*
X78367524Y-82133143D01*
X78343714Y-82085524D01*
X78343714Y-81918858D01*
X78081810Y-82680762D02*
X78081810Y-82395048D01*
X78081810Y-82537905D02*
X78581810Y-82537905D01*
X78510381Y-82490286D01*
X78462762Y-82442667D01*
X78438952Y-82395048D01*
X78534190Y-82871238D02*
X78558000Y-82895048D01*
X78581810Y-82942667D01*
X78581810Y-83061714D01*
X78558000Y-83109333D01*
X78534190Y-83133143D01*
X78486571Y-83156952D01*
X78438952Y-83156952D01*
X78367524Y-83133143D01*
X78081810Y-82847429D01*
X78081810Y-83156952D01*
X58208000Y-82896953D02*
X58184190Y-82944572D01*
X58184190Y-83016000D01*
X58208000Y-83087429D01*
X58255619Y-83135048D01*
X58303238Y-83158857D01*
X58398476Y-83182667D01*
X58469905Y-83182667D01*
X58565143Y-83158857D01*
X58612762Y-83135048D01*
X58660381Y-83087429D01*
X58684190Y-83016000D01*
X58684190Y-82968381D01*
X58660381Y-82896953D01*
X58636571Y-82873143D01*
X58469905Y-82873143D01*
X58469905Y-82968381D01*
X58684190Y-82658857D02*
X58184190Y-82658857D01*
X58684190Y-82373143D01*
X58184190Y-82373143D01*
X58684190Y-82135047D02*
X58184190Y-82135047D01*
X58184190Y-82016000D01*
X58208000Y-81944571D01*
X58255619Y-81896952D01*
X58303238Y-81873143D01*
X58398476Y-81849333D01*
X58469905Y-81849333D01*
X58565143Y-81873143D01*
X58612762Y-81896952D01*
X58660381Y-81944571D01*
X58684190Y-82016000D01*
X58684190Y-82135047D01*
X58128000Y-80216953D02*
X58104190Y-80264572D01*
X58104190Y-80336000D01*
X58128000Y-80407429D01*
X58175619Y-80455048D01*
X58223238Y-80478857D01*
X58318476Y-80502667D01*
X58389905Y-80502667D01*
X58485143Y-80478857D01*
X58532762Y-80455048D01*
X58580381Y-80407429D01*
X58604190Y-80336000D01*
X58604190Y-80288381D01*
X58580381Y-80216953D01*
X58556571Y-80193143D01*
X58389905Y-80193143D01*
X58389905Y-80288381D01*
X58604190Y-79978857D02*
X58104190Y-79978857D01*
X58604190Y-79693143D01*
X58104190Y-79693143D01*
X58604190Y-79455047D02*
X58104190Y-79455047D01*
X58104190Y-79336000D01*
X58128000Y-79264571D01*
X58175619Y-79216952D01*
X58223238Y-79193143D01*
X58318476Y-79169333D01*
X58389905Y-79169333D01*
X58485143Y-79193143D01*
X58532762Y-79216952D01*
X58580381Y-79264571D01*
X58604190Y-79336000D01*
X58604190Y-79455047D01*
X58224190Y-77995046D02*
X58224190Y-77685523D01*
X58414667Y-77852189D01*
X58414667Y-77780761D01*
X58438476Y-77733142D01*
X58462286Y-77709332D01*
X58509905Y-77685523D01*
X58628952Y-77685523D01*
X58676571Y-77709332D01*
X58700381Y-77733142D01*
X58724190Y-77780761D01*
X58724190Y-77923618D01*
X58700381Y-77971237D01*
X58676571Y-77995046D01*
X58224190Y-77542666D02*
X58724190Y-77375999D01*
X58224190Y-77209333D01*
X58224190Y-77090285D02*
X58224190Y-76780762D01*
X58414667Y-76947428D01*
X58414667Y-76876000D01*
X58438476Y-76828381D01*
X58462286Y-76804571D01*
X58509905Y-76780762D01*
X58628952Y-76780762D01*
X58676571Y-76804571D01*
X58700381Y-76828381D01*
X58724190Y-76876000D01*
X58724190Y-77018857D01*
X58700381Y-77066476D01*
X58676571Y-77090285D01*
X58804190Y-75557428D02*
X58304190Y-75557428D01*
X58804190Y-75271714D01*
X58304190Y-75271714D01*
X58804190Y-74747904D02*
X58566095Y-74914571D01*
X58804190Y-75033618D02*
X58304190Y-75033618D01*
X58304190Y-74843142D01*
X58328000Y-74795523D01*
X58351810Y-74771714D01*
X58399429Y-74747904D01*
X58470857Y-74747904D01*
X58518476Y-74771714D01*
X58542286Y-74795523D01*
X58566095Y-74843142D01*
X58566095Y-75033618D01*
X58780381Y-74557428D02*
X58804190Y-74485999D01*
X58804190Y-74366952D01*
X58780381Y-74319333D01*
X58756571Y-74295523D01*
X58708952Y-74271714D01*
X58661333Y-74271714D01*
X58613714Y-74295523D01*
X58589905Y-74319333D01*
X58566095Y-74366952D01*
X58542286Y-74462190D01*
X58518476Y-74509809D01*
X58494667Y-74533618D01*
X58447048Y-74557428D01*
X58399429Y-74557428D01*
X58351810Y-74533618D01*
X58328000Y-74509809D01*
X58304190Y-74462190D01*
X58304190Y-74343142D01*
X58328000Y-74271714D01*
X58304190Y-74128857D02*
X58304190Y-73843143D01*
X58804190Y-73986000D02*
X58304190Y-73986000D01*
X58804190Y-72933142D02*
X58304190Y-72933142D01*
X58304190Y-72742666D01*
X58328000Y-72695047D01*
X58351810Y-72671238D01*
X58399429Y-72647428D01*
X58470857Y-72647428D01*
X58518476Y-72671238D01*
X58542286Y-72695047D01*
X58566095Y-72742666D01*
X58566095Y-72933142D01*
X58542286Y-72266476D02*
X58566095Y-72195047D01*
X58589905Y-72171238D01*
X58637524Y-72147428D01*
X58708952Y-72147428D01*
X58756571Y-72171238D01*
X58780381Y-72195047D01*
X58804190Y-72242666D01*
X58804190Y-72433142D01*
X58304190Y-72433142D01*
X58304190Y-72266476D01*
X58328000Y-72218857D01*
X58351810Y-72195047D01*
X58399429Y-72171238D01*
X58447048Y-72171238D01*
X58494667Y-72195047D01*
X58518476Y-72218857D01*
X58542286Y-72266476D01*
X58542286Y-72433142D01*
X58804190Y-71671238D02*
X58804190Y-71956952D01*
X58804190Y-71814095D02*
X58304190Y-71814095D01*
X58375619Y-71861714D01*
X58423238Y-71909333D01*
X58447048Y-71956952D01*
X58804190Y-71195048D02*
X58804190Y-71480762D01*
X58804190Y-71337905D02*
X58304190Y-71337905D01*
X58375619Y-71385524D01*
X58423238Y-71433143D01*
X58447048Y-71480762D01*
X58704190Y-70373142D02*
X58204190Y-70373142D01*
X58204190Y-70182666D01*
X58228000Y-70135047D01*
X58251810Y-70111238D01*
X58299429Y-70087428D01*
X58370857Y-70087428D01*
X58418476Y-70111238D01*
X58442286Y-70135047D01*
X58466095Y-70182666D01*
X58466095Y-70373142D01*
X58442286Y-69706476D02*
X58466095Y-69635047D01*
X58489905Y-69611238D01*
X58537524Y-69587428D01*
X58608952Y-69587428D01*
X58656571Y-69611238D01*
X58680381Y-69635047D01*
X58704190Y-69682666D01*
X58704190Y-69873142D01*
X58204190Y-69873142D01*
X58204190Y-69706476D01*
X58228000Y-69658857D01*
X58251810Y-69635047D01*
X58299429Y-69611238D01*
X58347048Y-69611238D01*
X58394667Y-69635047D01*
X58418476Y-69658857D01*
X58442286Y-69706476D01*
X58442286Y-69873142D01*
X58704190Y-69111238D02*
X58704190Y-69396952D01*
X58704190Y-69254095D02*
X58204190Y-69254095D01*
X58275619Y-69301714D01*
X58323238Y-69349333D01*
X58347048Y-69396952D01*
X58204190Y-68801714D02*
X58204190Y-68754095D01*
X58228000Y-68706476D01*
X58251810Y-68682667D01*
X58299429Y-68658857D01*
X58394667Y-68635048D01*
X58513714Y-68635048D01*
X58608952Y-68658857D01*
X58656571Y-68682667D01*
X58680381Y-68706476D01*
X58704190Y-68754095D01*
X58704190Y-68801714D01*
X58680381Y-68849333D01*
X58656571Y-68873143D01*
X58608952Y-68896952D01*
X58513714Y-68920762D01*
X58394667Y-68920762D01*
X58299429Y-68896952D01*
X58251810Y-68873143D01*
X58228000Y-68849333D01*
X58204190Y-68801714D01*
X58804190Y-67715047D02*
X58304190Y-67715047D01*
X58304190Y-67524571D01*
X58328000Y-67476952D01*
X58351810Y-67453143D01*
X58399429Y-67429333D01*
X58470857Y-67429333D01*
X58518476Y-67453143D01*
X58542286Y-67476952D01*
X58566095Y-67524571D01*
X58566095Y-67715047D01*
X58542286Y-67048381D02*
X58566095Y-66976952D01*
X58589905Y-66953143D01*
X58637524Y-66929333D01*
X58708952Y-66929333D01*
X58756571Y-66953143D01*
X58780381Y-66976952D01*
X58804190Y-67024571D01*
X58804190Y-67215047D01*
X58304190Y-67215047D01*
X58304190Y-67048381D01*
X58328000Y-67000762D01*
X58351810Y-66976952D01*
X58399429Y-66953143D01*
X58447048Y-66953143D01*
X58494667Y-66976952D01*
X58518476Y-67000762D01*
X58542286Y-67048381D01*
X58542286Y-67215047D01*
X58804190Y-66453143D02*
X58804190Y-66738857D01*
X58804190Y-66596000D02*
X58304190Y-66596000D01*
X58375619Y-66643619D01*
X58423238Y-66691238D01*
X58447048Y-66738857D01*
X58884190Y-65225047D02*
X58384190Y-65225047D01*
X58384190Y-65034571D01*
X58408000Y-64986952D01*
X58431810Y-64963143D01*
X58479429Y-64939333D01*
X58550857Y-64939333D01*
X58598476Y-64963143D01*
X58622286Y-64986952D01*
X58646095Y-65034571D01*
X58646095Y-65225047D01*
X58622286Y-64558381D02*
X58646095Y-64486952D01*
X58669905Y-64463143D01*
X58717524Y-64439333D01*
X58788952Y-64439333D01*
X58836571Y-64463143D01*
X58860381Y-64486952D01*
X58884190Y-64534571D01*
X58884190Y-64725047D01*
X58384190Y-64725047D01*
X58384190Y-64558381D01*
X58408000Y-64510762D01*
X58431810Y-64486952D01*
X58479429Y-64463143D01*
X58527048Y-64463143D01*
X58574667Y-64486952D01*
X58598476Y-64510762D01*
X58622286Y-64558381D01*
X58622286Y-64725047D01*
X58384190Y-64129809D02*
X58384190Y-64082190D01*
X58408000Y-64034571D01*
X58431810Y-64010762D01*
X58479429Y-63986952D01*
X58574667Y-63963143D01*
X58693714Y-63963143D01*
X58788952Y-63986952D01*
X58836571Y-64010762D01*
X58860381Y-64034571D01*
X58884190Y-64082190D01*
X58884190Y-64129809D01*
X58860381Y-64177428D01*
X58836571Y-64201238D01*
X58788952Y-64225047D01*
X58693714Y-64248857D01*
X58574667Y-64248857D01*
X58479429Y-64225047D01*
X58431810Y-64201238D01*
X58408000Y-64177428D01*
X58384190Y-64129809D01*
X58994190Y-62729332D02*
X58494190Y-62729332D01*
X58494190Y-62538856D01*
X58518000Y-62491237D01*
X58541810Y-62467428D01*
X58589429Y-62443618D01*
X58660857Y-62443618D01*
X58708476Y-62467428D01*
X58732286Y-62491237D01*
X58756095Y-62538856D01*
X58756095Y-62729332D01*
X58851333Y-62253142D02*
X58851333Y-62015047D01*
X58994190Y-62300761D02*
X58494190Y-62134094D01*
X58994190Y-61967428D01*
X58494190Y-61848380D02*
X58494190Y-61515047D01*
X58994190Y-61729333D01*
X58954190Y-60019332D02*
X58454190Y-60019332D01*
X58454190Y-59828856D01*
X58478000Y-59781237D01*
X58501810Y-59757428D01*
X58549429Y-59733618D01*
X58620857Y-59733618D01*
X58668476Y-59757428D01*
X58692286Y-59781237D01*
X58716095Y-59828856D01*
X58716095Y-60019332D01*
X58811333Y-59543142D02*
X58811333Y-59305047D01*
X58954190Y-59590761D02*
X58454190Y-59424094D01*
X58954190Y-59257428D01*
X58454190Y-58876476D02*
X58454190Y-58971714D01*
X58478000Y-59019333D01*
X58501810Y-59043142D01*
X58573238Y-59090761D01*
X58668476Y-59114571D01*
X58858952Y-59114571D01*
X58906571Y-59090761D01*
X58930381Y-59066952D01*
X58954190Y-59019333D01*
X58954190Y-58924095D01*
X58930381Y-58876476D01*
X58906571Y-58852666D01*
X58858952Y-58828857D01*
X58739905Y-58828857D01*
X58692286Y-58852666D01*
X58668476Y-58876476D01*
X58644667Y-58924095D01*
X58644667Y-59019333D01*
X58668476Y-59066952D01*
X58692286Y-59090761D01*
X58739905Y-59114571D01*
X58974190Y-57499332D02*
X58474190Y-57499332D01*
X58474190Y-57308856D01*
X58498000Y-57261237D01*
X58521810Y-57237428D01*
X58569429Y-57213618D01*
X58640857Y-57213618D01*
X58688476Y-57237428D01*
X58712286Y-57261237D01*
X58736095Y-57308856D01*
X58736095Y-57499332D01*
X58831333Y-57023142D02*
X58831333Y-56785047D01*
X58974190Y-57070761D02*
X58474190Y-56904094D01*
X58974190Y-56737428D01*
X58474190Y-56332666D02*
X58474190Y-56570761D01*
X58712286Y-56594571D01*
X58688476Y-56570761D01*
X58664667Y-56523142D01*
X58664667Y-56404095D01*
X58688476Y-56356476D01*
X58712286Y-56332666D01*
X58759905Y-56308857D01*
X58878952Y-56308857D01*
X58926571Y-56332666D01*
X58950381Y-56356476D01*
X58974190Y-56404095D01*
X58974190Y-56523142D01*
X58950381Y-56570761D01*
X58926571Y-56594571D01*
X59034190Y-54759332D02*
X58534190Y-54759332D01*
X58534190Y-54568856D01*
X58558000Y-54521237D01*
X58581810Y-54497428D01*
X58629429Y-54473618D01*
X58700857Y-54473618D01*
X58748476Y-54497428D01*
X58772286Y-54521237D01*
X58796095Y-54568856D01*
X58796095Y-54759332D01*
X58891333Y-54283142D02*
X58891333Y-54045047D01*
X59034190Y-54330761D02*
X58534190Y-54164094D01*
X59034190Y-53997428D01*
X58700857Y-53616476D02*
X59034190Y-53616476D01*
X58510381Y-53735523D02*
X58867524Y-53854571D01*
X58867524Y-53545047D01*
X59014190Y-52359332D02*
X58514190Y-52359332D01*
X58514190Y-52168856D01*
X58538000Y-52121237D01*
X58561810Y-52097428D01*
X58609429Y-52073618D01*
X58680857Y-52073618D01*
X58728476Y-52097428D01*
X58752286Y-52121237D01*
X58776095Y-52168856D01*
X58776095Y-52359332D01*
X58871333Y-51883142D02*
X58871333Y-51645047D01*
X59014190Y-51930761D02*
X58514190Y-51764094D01*
X59014190Y-51597428D01*
X58514190Y-51478380D02*
X58514190Y-51168857D01*
X58704667Y-51335523D01*
X58704667Y-51264095D01*
X58728476Y-51216476D01*
X58752286Y-51192666D01*
X58799905Y-51168857D01*
X58918952Y-51168857D01*
X58966571Y-51192666D01*
X58990381Y-51216476D01*
X59014190Y-51264095D01*
X59014190Y-51406952D01*
X58990381Y-51454571D01*
X58966571Y-51478380D01*
X58984190Y-49559332D02*
X58484190Y-49559332D01*
X58484190Y-49368856D01*
X58508000Y-49321237D01*
X58531810Y-49297428D01*
X58579429Y-49273618D01*
X58650857Y-49273618D01*
X58698476Y-49297428D01*
X58722286Y-49321237D01*
X58746095Y-49368856D01*
X58746095Y-49559332D01*
X58841333Y-49083142D02*
X58841333Y-48845047D01*
X58984190Y-49130761D02*
X58484190Y-48964094D01*
X58984190Y-48797428D01*
X58531810Y-48654571D02*
X58508000Y-48630761D01*
X58484190Y-48583142D01*
X58484190Y-48464095D01*
X58508000Y-48416476D01*
X58531810Y-48392666D01*
X58579429Y-48368857D01*
X58627048Y-48368857D01*
X58698476Y-48392666D01*
X58984190Y-48678380D01*
X58984190Y-48368857D01*
X59014190Y-47269332D02*
X58514190Y-47269332D01*
X58514190Y-47078856D01*
X58538000Y-47031237D01*
X58561810Y-47007428D01*
X58609429Y-46983618D01*
X58680857Y-46983618D01*
X58728476Y-47007428D01*
X58752286Y-47031237D01*
X58776095Y-47078856D01*
X58776095Y-47269332D01*
X58871333Y-46793142D02*
X58871333Y-46555047D01*
X59014190Y-46840761D02*
X58514190Y-46674094D01*
X59014190Y-46507428D01*
X59014190Y-46078857D02*
X59014190Y-46364571D01*
X59014190Y-46221714D02*
X58514190Y-46221714D01*
X58585619Y-46269333D01*
X58633238Y-46316952D01*
X58657048Y-46364571D01*
X59014190Y-44699332D02*
X58514190Y-44699332D01*
X58514190Y-44508856D01*
X58538000Y-44461237D01*
X58561810Y-44437428D01*
X58609429Y-44413618D01*
X58680857Y-44413618D01*
X58728476Y-44437428D01*
X58752286Y-44461237D01*
X58776095Y-44508856D01*
X58776095Y-44699332D01*
X58871333Y-44223142D02*
X58871333Y-43985047D01*
X59014190Y-44270761D02*
X58514190Y-44104094D01*
X59014190Y-43937428D01*
X58514190Y-43675523D02*
X58514190Y-43627904D01*
X58538000Y-43580285D01*
X58561810Y-43556476D01*
X58609429Y-43532666D01*
X58704667Y-43508857D01*
X58823714Y-43508857D01*
X58918952Y-43532666D01*
X58966571Y-43556476D01*
X58990381Y-43580285D01*
X59014190Y-43627904D01*
X59014190Y-43675523D01*
X58990381Y-43723142D01*
X58966571Y-43746952D01*
X58918952Y-43770761D01*
X58823714Y-43794571D01*
X58704667Y-43794571D01*
X58609429Y-43770761D01*
X58561810Y-43746952D01*
X58538000Y-43723142D01*
X58514190Y-43675523D01*
X59064190Y-37293142D02*
X58564190Y-37293142D01*
X58564190Y-37102666D01*
X58588000Y-37055047D01*
X58611810Y-37031238D01*
X58659429Y-37007428D01*
X58730857Y-37007428D01*
X58778476Y-37031238D01*
X58802286Y-37055047D01*
X58826095Y-37102666D01*
X58826095Y-37293142D01*
X59016571Y-36507428D02*
X59040381Y-36531238D01*
X59064190Y-36602666D01*
X59064190Y-36650285D01*
X59040381Y-36721714D01*
X58992762Y-36769333D01*
X58945143Y-36793142D01*
X58849905Y-36816952D01*
X58778476Y-36816952D01*
X58683238Y-36793142D01*
X58635619Y-36769333D01*
X58588000Y-36721714D01*
X58564190Y-36650285D01*
X58564190Y-36602666D01*
X58588000Y-36531238D01*
X58611810Y-36507428D01*
X59064190Y-36031238D02*
X59064190Y-36316952D01*
X59064190Y-36174095D02*
X58564190Y-36174095D01*
X58635619Y-36221714D01*
X58683238Y-36269333D01*
X58707048Y-36316952D01*
X58564190Y-35864571D02*
X58564190Y-35555048D01*
X58754667Y-35721714D01*
X58754667Y-35650286D01*
X58778476Y-35602667D01*
X58802286Y-35578857D01*
X58849905Y-35555048D01*
X58968952Y-35555048D01*
X59016571Y-35578857D01*
X59040381Y-35602667D01*
X59064190Y-35650286D01*
X59064190Y-35793143D01*
X59040381Y-35840762D01*
X59016571Y-35864571D01*
X58594190Y-34997428D02*
X59094190Y-34830761D01*
X58594190Y-34664095D01*
X58832286Y-34330762D02*
X58856095Y-34259333D01*
X58879905Y-34235524D01*
X58927524Y-34211714D01*
X58998952Y-34211714D01*
X59046571Y-34235524D01*
X59070381Y-34259333D01*
X59094190Y-34306952D01*
X59094190Y-34497428D01*
X58594190Y-34497428D01*
X58594190Y-34330762D01*
X58618000Y-34283143D01*
X58641810Y-34259333D01*
X58689429Y-34235524D01*
X58737048Y-34235524D01*
X58784667Y-34259333D01*
X58808476Y-34283143D01*
X58832286Y-34330762D01*
X58832286Y-34497428D01*
X58951333Y-34021238D02*
X58951333Y-33783143D01*
X59094190Y-34068857D02*
X58594190Y-33902190D01*
X59094190Y-33735524D01*
X58594190Y-33640286D02*
X58594190Y-33354572D01*
X59094190Y-33497429D02*
X58594190Y-33497429D01*
D12*
X71838000Y-75006000D02*
X71838000Y-76006000D01*
X73538000Y-76006000D02*
X73538000Y-75006000D01*
X65028000Y-84866000D02*
X69528000Y-84866000D01*
X63778000Y-80866000D02*
X63778000Y-82366000D01*
X69528000Y-78366000D02*
X65028000Y-78366000D01*
X70778000Y-82366000D02*
X70778000Y-80866000D01*
X77428000Y-88466000D02*
X77428000Y-87266000D01*
X79188000Y-87266000D02*
X79188000Y-88466000D01*
X65428000Y-71086000D02*
X65428000Y-72346000D01*
X65428000Y-77906000D02*
X65428000Y-76646000D01*
X69188000Y-71086000D02*
X65428000Y-71086000D01*
X71438000Y-77906000D02*
X65428000Y-77906000D01*
D11*
X68568000Y-48809476D02*
X68249802Y-49127674D01*
X73694524Y-53936000D02*
X73323293Y-54307231D01*
X68568000Y-59062524D02*
X68939231Y-58691293D01*
X63441476Y-53936000D02*
X63812707Y-53564769D01*
X68568000Y-48809476D02*
X68939231Y-49180707D01*
X63441476Y-53936000D02*
X63812707Y-54307231D01*
X68568000Y-59062524D02*
X68196769Y-58691293D01*
X73694524Y-53936000D02*
X73323293Y-53564769D01*
X68249802Y-49127674D02*
X67277530Y-48155402D01*
D12*
X64898000Y-47726000D02*
X65898000Y-47726000D01*
X65898000Y-46026000D02*
X64898000Y-46026000D01*
X64568000Y-40856000D02*
X65568000Y-40856000D01*
X65568000Y-39156000D02*
X64568000Y-39156000D01*
X59780000Y-83748000D02*
X62440000Y-83748000D01*
X59780000Y-35428000D02*
X59780000Y-83748000D01*
X62440000Y-35428000D02*
X62440000Y-83748000D01*
X59780000Y-35428000D02*
X62440000Y-35428000D01*
X59780000Y-34158000D02*
X59780000Y-32828000D01*
X59780000Y-32828000D02*
X61110000Y-32828000D01*
X75020000Y-83748000D02*
X77680000Y-83748000D01*
X75020000Y-35428000D02*
X75020000Y-83748000D01*
X77680000Y-35428000D02*
X77680000Y-83748000D01*
X75020000Y-35428000D02*
X77680000Y-35428000D01*
X75020000Y-34158000D02*
X75020000Y-32828000D01*
X75020000Y-32828000D02*
X76350000Y-32828000D01*
X63744800Y-32477400D02*
X63744800Y-35137400D01*
X71424800Y-32477400D02*
X63744800Y-32477400D01*
X71424800Y-35137400D02*
X63744800Y-35137400D01*
X71424800Y-32477400D02*
X71424800Y-35137400D01*
X72694800Y-32477400D02*
X74024800Y-32477400D01*
X74024800Y-32477400D02*
X74024800Y-33807400D01*
X62998000Y-94056000D02*
X62998000Y-102696000D01*
X62998000Y-85676000D02*
X62998000Y-90756000D01*
X75198000Y-94056000D02*
X75198000Y-102696000D01*
X75198000Y-85676000D02*
X75198000Y-90756000D01*
X75198000Y-102696000D02*
X62998000Y-102696000D01*
X62998000Y-85676000D02*
X75198000Y-85676000D01*
X71538000Y-68416000D02*
X71538000Y-63216000D01*
X66398000Y-68416000D02*
X71538000Y-68416000D01*
X63798000Y-63216000D02*
X71538000Y-63216000D01*
X66398000Y-68416000D02*
X66398000Y-65816000D01*
X66398000Y-65816000D02*
X63798000Y-65816000D01*
X63798000Y-65816000D02*
X63798000Y-63216000D01*
X65128000Y-68416000D02*
X63798000Y-68416000D01*
X63798000Y-68416000D02*
X63798000Y-67086000D01*
X72618000Y-39076000D02*
X71618000Y-39076000D01*
X71618000Y-40776000D02*
X72618000Y-40776000D01*
X72838000Y-35726000D02*
X71838000Y-35726000D01*
X71838000Y-37426000D02*
X72838000Y-37426000D01*
X64668000Y-37596000D02*
X65668000Y-37596000D01*
X65668000Y-35896000D02*
X64668000Y-35896000D01*
X72698000Y-83206000D02*
X72698000Y-82006000D01*
X74458000Y-82006000D02*
X74458000Y-83206000D01*
X75518000Y-88426000D02*
X75518000Y-87226000D01*
X77278000Y-87226000D02*
X77278000Y-88426000D01*
X57808000Y-92986000D02*
X57808000Y-91786000D01*
X59568000Y-91786000D02*
X59568000Y-92986000D01*
X67778000Y-61716000D02*
X68778000Y-61716000D01*
X68778000Y-60016000D02*
X67778000Y-60016000D01*
X62658000Y-88236000D02*
X62658000Y-87236000D01*
X60958000Y-87236000D02*
X60958000Y-88236000D01*
X61318000Y-91386000D02*
X61318000Y-94586000D01*
X59818000Y-94586000D02*
X59818000Y-91386000D01*
X59818000Y-94586000D02*
X61318000Y-94586000D01*
X60818000Y-87126000D02*
X60818000Y-88326000D01*
X59058000Y-88326000D02*
X59058000Y-87126000D01*
X67873000Y-37231000D02*
X67873000Y-38581000D01*
X69623000Y-37231000D02*
X69623000Y-38581000D01*
X65438000Y-44866000D02*
X71188000Y-44866000D01*
X71188000Y-44866000D02*
X71188000Y-41266000D01*
X71188000Y-41266000D02*
X65438000Y-41266000D01*
X67358000Y-68966000D02*
X66358000Y-68966000D01*
X66358000Y-70666000D02*
X67358000Y-70666000D01*
D11*
X73085143Y-72528857D02*
X73132762Y-72576476D01*
X73180381Y-72719333D01*
X73180381Y-72814571D01*
X73132762Y-72957429D01*
X73037524Y-73052667D01*
X72942286Y-73100286D01*
X72751810Y-73147905D01*
X72608952Y-73147905D01*
X72418476Y-73100286D01*
X72323238Y-73052667D01*
X72228000Y-72957429D01*
X72180381Y-72814571D01*
X72180381Y-72719333D01*
X72228000Y-72576476D01*
X72275619Y-72528857D01*
X73180381Y-71576476D02*
X73180381Y-72147905D01*
X73180381Y-71862191D02*
X72180381Y-71862191D01*
X72323238Y-71957429D01*
X72418476Y-72052667D01*
X72466095Y-72147905D01*
X72180381Y-71243143D02*
X72180381Y-70624095D01*
X72561333Y-70957429D01*
X72561333Y-70814571D01*
X72608952Y-70719333D01*
X72656571Y-70671714D01*
X72751810Y-70624095D01*
X72989905Y-70624095D01*
X73085143Y-70671714D01*
X73132762Y-70719333D01*
X73180381Y-70814571D01*
X73180381Y-71100286D01*
X73132762Y-71195524D01*
X73085143Y-71243143D01*
X66996667Y-81104381D02*
X66996667Y-81818667D01*
X66949047Y-81961524D01*
X66853809Y-82056762D01*
X66710952Y-82104381D01*
X66615714Y-82104381D01*
X67377619Y-81104381D02*
X68044286Y-81104381D01*
X67615714Y-82104381D01*
X78850381Y-91282666D02*
X78374190Y-91616000D01*
X78850381Y-91854095D02*
X77850381Y-91854095D01*
X77850381Y-91473142D01*
X77898000Y-91377904D01*
X77945619Y-91330285D01*
X78040857Y-91282666D01*
X78183714Y-91282666D01*
X78278952Y-91330285D01*
X78326571Y-91377904D01*
X78374190Y-91473142D01*
X78374190Y-91854095D01*
X78183714Y-90425523D02*
X78850381Y-90425523D01*
X77802762Y-90663619D02*
X78517048Y-90901714D01*
X78517048Y-90282666D01*
X66830095Y-71662381D02*
X66830095Y-72471905D01*
X66877714Y-72567143D01*
X66925333Y-72614762D01*
X67020571Y-72662381D01*
X67211048Y-72662381D01*
X67306286Y-72614762D01*
X67353905Y-72567143D01*
X67401524Y-72471905D01*
X67401524Y-71662381D01*
X68401524Y-72662381D02*
X67830095Y-72662381D01*
X68115809Y-72662381D02*
X68115809Y-71662381D01*
X68020571Y-71805238D01*
X67925333Y-71900476D01*
X67830095Y-71948095D01*
X72659118Y-48767386D02*
X72086698Y-49339806D01*
X72053026Y-49440821D01*
X72053026Y-49508164D01*
X72086698Y-49609179D01*
X72221386Y-49743867D01*
X72322401Y-49777539D01*
X72389744Y-49777539D01*
X72490759Y-49743867D01*
X73063179Y-49171447D01*
X73298881Y-49541836D02*
X73366225Y-49541836D01*
X73467240Y-49575508D01*
X73635599Y-49743867D01*
X73669271Y-49844882D01*
X73669271Y-49912226D01*
X73635599Y-50013241D01*
X73568256Y-50080584D01*
X73433569Y-50147928D01*
X72625446Y-50147928D01*
X73063179Y-50585661D01*
X68725143Y-47042666D02*
X68772762Y-47090285D01*
X68820381Y-47233142D01*
X68820381Y-47328380D01*
X68772762Y-47471238D01*
X68677524Y-47566476D01*
X68582286Y-47614095D01*
X68391810Y-47661714D01*
X68248952Y-47661714D01*
X68058476Y-47614095D01*
X67963238Y-47566476D01*
X67868000Y-47471238D01*
X67820381Y-47328380D01*
X67820381Y-47233142D01*
X67868000Y-47090285D01*
X67915619Y-47042666D01*
X68248952Y-46471238D02*
X68201333Y-46566476D01*
X68153714Y-46614095D01*
X68058476Y-46661714D01*
X68010857Y-46661714D01*
X67915619Y-46614095D01*
X67868000Y-46566476D01*
X67820381Y-46471238D01*
X67820381Y-46280761D01*
X67868000Y-46185523D01*
X67915619Y-46137904D01*
X68010857Y-46090285D01*
X68058476Y-46090285D01*
X68153714Y-46137904D01*
X68201333Y-46185523D01*
X68248952Y-46280761D01*
X68248952Y-46471238D01*
X68296571Y-46566476D01*
X68344190Y-46614095D01*
X68439429Y-46661714D01*
X68629905Y-46661714D01*
X68725143Y-46614095D01*
X68772762Y-46566476D01*
X68820381Y-46471238D01*
X68820381Y-46280761D01*
X68772762Y-46185523D01*
X68725143Y-46137904D01*
X68629905Y-46090285D01*
X68439429Y-46090285D01*
X68344190Y-46137904D01*
X68296571Y-46185523D01*
X68248952Y-46280761D01*
X64025143Y-42968857D02*
X64072762Y-43016476D01*
X64120381Y-43159333D01*
X64120381Y-43254571D01*
X64072762Y-43397429D01*
X63977524Y-43492667D01*
X63882286Y-43540286D01*
X63691810Y-43587905D01*
X63548952Y-43587905D01*
X63358476Y-43540286D01*
X63263238Y-43492667D01*
X63168000Y-43397429D01*
X63120381Y-43254571D01*
X63120381Y-43159333D01*
X63168000Y-43016476D01*
X63215619Y-42968857D01*
X64120381Y-42016476D02*
X64120381Y-42587905D01*
X64120381Y-42302191D02*
X63120381Y-42302191D01*
X63263238Y-42397429D01*
X63358476Y-42492667D01*
X63406095Y-42587905D01*
X63453714Y-41159333D02*
X64120381Y-41159333D01*
X63072762Y-41397429D02*
X63787048Y-41635524D01*
X63787048Y-41016476D01*
X62190381Y-35639333D02*
X62904667Y-35639333D01*
X63047524Y-35686953D01*
X63142762Y-35782191D01*
X63190381Y-35925048D01*
X63190381Y-36020286D01*
X62190381Y-34686952D02*
X62190381Y-35163143D01*
X62666571Y-35210762D01*
X62618952Y-35163143D01*
X62571333Y-35067905D01*
X62571333Y-34829809D01*
X62618952Y-34734571D01*
X62666571Y-34686952D01*
X62761810Y-34639333D01*
X62999905Y-34639333D01*
X63095143Y-34686952D01*
X63142762Y-34734571D01*
X63190381Y-34829809D01*
X63190381Y-35067905D01*
X63142762Y-35163143D01*
X63095143Y-35210762D01*
X75017381Y-35512333D02*
X75731667Y-35512333D01*
X75874524Y-35559953D01*
X75969762Y-35655191D01*
X76017381Y-35798048D01*
X76017381Y-35893286D01*
X76017381Y-34988524D02*
X76017381Y-34798048D01*
X75969762Y-34702809D01*
X75922143Y-34655190D01*
X75779286Y-34559952D01*
X75588810Y-34512333D01*
X75207857Y-34512333D01*
X75112619Y-34559952D01*
X75065000Y-34607571D01*
X75017381Y-34702809D01*
X75017381Y-34893286D01*
X75065000Y-34988524D01*
X75112619Y-35036143D01*
X75207857Y-35083762D01*
X75445952Y-35083762D01*
X75541190Y-35036143D01*
X75588810Y-34988524D01*
X75636429Y-34893286D01*
X75636429Y-34702809D01*
X75588810Y-34607571D01*
X75541190Y-34559952D01*
X75445952Y-34512333D01*
X62647581Y-33937533D02*
X63361867Y-33937533D01*
X63504724Y-33985153D01*
X63599962Y-34080391D01*
X63647581Y-34223248D01*
X63647581Y-34318486D01*
X62980914Y-33032771D02*
X63647581Y-33032771D01*
X62599962Y-33270867D02*
X63314248Y-33508962D01*
X63314248Y-32889914D01*
X68564667Y-91328381D02*
X68564667Y-92042667D01*
X68517047Y-92185524D01*
X68421809Y-92280762D01*
X68278952Y-92328381D01*
X68183714Y-92328381D01*
X68945619Y-91328381D02*
X69564667Y-91328381D01*
X69231333Y-91709333D01*
X69374191Y-91709333D01*
X69469429Y-91756952D01*
X69517048Y-91804571D01*
X69564667Y-91899810D01*
X69564667Y-92137905D01*
X69517048Y-92233143D01*
X69469429Y-92280762D01*
X69374191Y-92328381D01*
X69088476Y-92328381D01*
X68993238Y-92280762D01*
X68945619Y-92233143D01*
X72364667Y-62128381D02*
X72364667Y-62842667D01*
X72317047Y-62985524D01*
X72221809Y-63080762D01*
X72078952Y-63128381D01*
X71983714Y-63128381D01*
X73269429Y-62128381D02*
X73078952Y-62128381D01*
X72983714Y-62176000D01*
X72936095Y-62223619D01*
X72840857Y-62366476D01*
X72793238Y-62556952D01*
X72793238Y-62937905D01*
X72840857Y-63033143D01*
X72888476Y-63080762D01*
X72983714Y-63128381D01*
X73174191Y-63128381D01*
X73269429Y-63080762D01*
X73317048Y-63033143D01*
X73364667Y-62937905D01*
X73364667Y-62699810D01*
X73317048Y-62604571D01*
X73269429Y-62556952D01*
X73174191Y-62509333D01*
X72983714Y-62509333D01*
X72888476Y-62556952D01*
X72840857Y-62604571D01*
X72793238Y-62699810D01*
X72255143Y-41759143D02*
X72207524Y-41806762D01*
X72064667Y-41854381D01*
X71969429Y-41854381D01*
X71826571Y-41806762D01*
X71731333Y-41711524D01*
X71683714Y-41616286D01*
X71636095Y-41425810D01*
X71636095Y-41282952D01*
X71683714Y-41092476D01*
X71731333Y-40997238D01*
X71826571Y-40902000D01*
X71969429Y-40854381D01*
X72064667Y-40854381D01*
X72207524Y-40902000D01*
X72255143Y-40949619D01*
X73207524Y-41854381D02*
X72636095Y-41854381D01*
X72921809Y-41854381D02*
X72921809Y-40854381D01*
X72826571Y-40997238D01*
X72731333Y-41092476D01*
X72636095Y-41140095D01*
X73588476Y-40949619D02*
X73636095Y-40902000D01*
X73731333Y-40854381D01*
X73969429Y-40854381D01*
X74064667Y-40902000D01*
X74112286Y-40949619D01*
X74159905Y-41044857D01*
X74159905Y-41140095D01*
X74112286Y-41282952D01*
X73540857Y-41854381D01*
X74159905Y-41854381D01*
X71493143Y-38711143D02*
X71445524Y-38758762D01*
X71302667Y-38806381D01*
X71207429Y-38806381D01*
X71064571Y-38758762D01*
X70969333Y-38663524D01*
X70921714Y-38568286D01*
X70874095Y-38377810D01*
X70874095Y-38234952D01*
X70921714Y-38044476D01*
X70969333Y-37949238D01*
X71064571Y-37854000D01*
X71207429Y-37806381D01*
X71302667Y-37806381D01*
X71445524Y-37854000D01*
X71493143Y-37901619D01*
X72445524Y-38806381D02*
X71874095Y-38806381D01*
X72159809Y-38806381D02*
X72159809Y-37806381D01*
X72064571Y-37949238D01*
X71969333Y-38044476D01*
X71874095Y-38092095D01*
X73350286Y-37806381D02*
X72874095Y-37806381D01*
X72826476Y-38282571D01*
X72874095Y-38234952D01*
X72969333Y-38187333D01*
X73207429Y-38187333D01*
X73302667Y-38234952D01*
X73350286Y-38282571D01*
X73397905Y-38377810D01*
X73397905Y-38615905D01*
X73350286Y-38711143D01*
X73302667Y-38758762D01*
X73207429Y-38806381D01*
X72969333Y-38806381D01*
X72874095Y-38758762D01*
X72826476Y-38711143D01*
X64635143Y-38711143D02*
X64587524Y-38758762D01*
X64444667Y-38806381D01*
X64349429Y-38806381D01*
X64206571Y-38758762D01*
X64111333Y-38663524D01*
X64063714Y-38568286D01*
X64016095Y-38377810D01*
X64016095Y-38234952D01*
X64063714Y-38044476D01*
X64111333Y-37949238D01*
X64206571Y-37854000D01*
X64349429Y-37806381D01*
X64444667Y-37806381D01*
X64587524Y-37854000D01*
X64635143Y-37901619D01*
X65587524Y-38806381D02*
X65016095Y-38806381D01*
X65301809Y-38806381D02*
X65301809Y-37806381D01*
X65206571Y-37949238D01*
X65111333Y-38044476D01*
X65016095Y-38092095D01*
X66444667Y-37806381D02*
X66254190Y-37806381D01*
X66158952Y-37854000D01*
X66111333Y-37901619D01*
X66016095Y-38044476D01*
X65968476Y-38234952D01*
X65968476Y-38615905D01*
X66016095Y-38711143D01*
X66063714Y-38758762D01*
X66158952Y-38806381D01*
X66349429Y-38806381D01*
X66444667Y-38758762D01*
X66492286Y-38711143D01*
X66539905Y-38615905D01*
X66539905Y-38377810D01*
X66492286Y-38282571D01*
X66444667Y-38234952D01*
X66349429Y-38187333D01*
X66158952Y-38187333D01*
X66063714Y-38234952D01*
X66016095Y-38282571D01*
X65968476Y-38377810D01*
X74000381Y-79402666D02*
X73524190Y-79736000D01*
X74000381Y-79974095D02*
X73000381Y-79974095D01*
X73000381Y-79593142D01*
X73048000Y-79497904D01*
X73095619Y-79450285D01*
X73190857Y-79402666D01*
X73333714Y-79402666D01*
X73428952Y-79450285D01*
X73476571Y-79497904D01*
X73524190Y-79593142D01*
X73524190Y-79974095D01*
X73000381Y-79069333D02*
X73000381Y-78450285D01*
X73381333Y-78783619D01*
X73381333Y-78640761D01*
X73428952Y-78545523D01*
X73476571Y-78497904D01*
X73571810Y-78450285D01*
X73809905Y-78450285D01*
X73905143Y-78497904D01*
X73952762Y-78545523D01*
X74000381Y-78640761D01*
X74000381Y-78926476D01*
X73952762Y-79021714D01*
X73905143Y-79069333D01*
X76251334Y-85248381D02*
X75918000Y-84772190D01*
X75679905Y-85248381D02*
X75679905Y-84248381D01*
X76060858Y-84248381D01*
X76156096Y-84296000D01*
X76203715Y-84343619D01*
X76251334Y-84438857D01*
X76251334Y-84581714D01*
X76203715Y-84676952D01*
X76156096Y-84724571D01*
X76060858Y-84772190D01*
X75679905Y-84772190D01*
X77108477Y-84248381D02*
X76918000Y-84248381D01*
X76822762Y-84296000D01*
X76775143Y-84343619D01*
X76679905Y-84486476D01*
X76632286Y-84676952D01*
X76632286Y-85057905D01*
X76679905Y-85153143D01*
X76727524Y-85200762D01*
X76822762Y-85248381D01*
X77013239Y-85248381D01*
X77108477Y-85200762D01*
X77156096Y-85153143D01*
X77203715Y-85057905D01*
X77203715Y-84819810D01*
X77156096Y-84724571D01*
X77108477Y-84676952D01*
X77013239Y-84629333D01*
X76822762Y-84629333D01*
X76727524Y-84676952D01*
X76679905Y-84724571D01*
X76632286Y-84819810D01*
X58870381Y-89138857D02*
X58394190Y-89472191D01*
X58870381Y-89710286D02*
X57870381Y-89710286D01*
X57870381Y-89329333D01*
X57918000Y-89234095D01*
X57965619Y-89186476D01*
X58060857Y-89138857D01*
X58203714Y-89138857D01*
X58298952Y-89186476D01*
X58346571Y-89234095D01*
X58394190Y-89329333D01*
X58394190Y-89710286D01*
X58870381Y-88186476D02*
X58870381Y-88757905D01*
X58870381Y-88472191D02*
X57870381Y-88472191D01*
X58013238Y-88567429D01*
X58108476Y-88662667D01*
X58156095Y-88757905D01*
X58870381Y-87234095D02*
X58870381Y-87805524D01*
X58870381Y-87519810D02*
X57870381Y-87519810D01*
X58013238Y-87615048D01*
X58108476Y-87710286D01*
X58156095Y-87805524D01*
X71731143Y-60872666D02*
X71778762Y-60920285D01*
X71826381Y-61063142D01*
X71826381Y-61158380D01*
X71778762Y-61301238D01*
X71683524Y-61396476D01*
X71588286Y-61444095D01*
X71397810Y-61491714D01*
X71254952Y-61491714D01*
X71064476Y-61444095D01*
X70969238Y-61396476D01*
X70874000Y-61301238D01*
X70826381Y-61158380D01*
X70826381Y-61063142D01*
X70874000Y-60920285D01*
X70921619Y-60872666D01*
X71826381Y-60396476D02*
X71826381Y-60206000D01*
X71778762Y-60110761D01*
X71731143Y-60063142D01*
X71588286Y-59967904D01*
X71397810Y-59920285D01*
X71016857Y-59920285D01*
X70921619Y-59967904D01*
X70874000Y-60015523D01*
X70826381Y-60110761D01*
X70826381Y-60301238D01*
X70874000Y-60396476D01*
X70921619Y-60444095D01*
X71016857Y-60491714D01*
X71254952Y-60491714D01*
X71350190Y-60444095D01*
X71397810Y-60396476D01*
X71445429Y-60301238D01*
X71445429Y-60110761D01*
X71397810Y-60015523D01*
X71350190Y-59967904D01*
X71254952Y-59920285D01*
X64105143Y-88138857D02*
X64152762Y-88186476D01*
X64200381Y-88329333D01*
X64200381Y-88424571D01*
X64152762Y-88567429D01*
X64057524Y-88662667D01*
X63962286Y-88710286D01*
X63771810Y-88757905D01*
X63628952Y-88757905D01*
X63438476Y-88710286D01*
X63343238Y-88662667D01*
X63248000Y-88567429D01*
X63200381Y-88424571D01*
X63200381Y-88329333D01*
X63248000Y-88186476D01*
X63295619Y-88138857D01*
X64200381Y-87186476D02*
X64200381Y-87757905D01*
X64200381Y-87472191D02*
X63200381Y-87472191D01*
X63343238Y-87567429D01*
X63438476Y-87662667D01*
X63486095Y-87757905D01*
X63200381Y-86853143D02*
X63200381Y-86186476D01*
X64200381Y-86615048D01*
X61749905Y-94818381D02*
X61749905Y-93818381D01*
X61988000Y-93818381D01*
X62130858Y-93866000D01*
X62226096Y-93961238D01*
X62273715Y-94056476D01*
X62321334Y-94246952D01*
X62321334Y-94389810D01*
X62273715Y-94580286D01*
X62226096Y-94675524D01*
X62130858Y-94770762D01*
X61988000Y-94818381D01*
X61749905Y-94818381D01*
X63178477Y-94151714D02*
X63178477Y-94818381D01*
X62940381Y-93770762D02*
X62702286Y-94485048D01*
X63321334Y-94485048D01*
X59671334Y-85208381D02*
X59338000Y-84732190D01*
X59099905Y-85208381D02*
X59099905Y-84208381D01*
X59480858Y-84208381D01*
X59576096Y-84256000D01*
X59623715Y-84303619D01*
X59671334Y-84398857D01*
X59671334Y-84541714D01*
X59623715Y-84636952D01*
X59576096Y-84684571D01*
X59480858Y-84732190D01*
X59099905Y-84732190D01*
X60147524Y-85208381D02*
X60338000Y-85208381D01*
X60433239Y-85160762D01*
X60480858Y-85113143D01*
X60576096Y-84970286D01*
X60623715Y-84779810D01*
X60623715Y-84398857D01*
X60576096Y-84303619D01*
X60528477Y-84256000D01*
X60433239Y-84208381D01*
X60242762Y-84208381D01*
X60147524Y-84256000D01*
X60099905Y-84303619D01*
X60052286Y-84398857D01*
X60052286Y-84636952D01*
X60099905Y-84732190D01*
X60147524Y-84779810D01*
X60242762Y-84827429D01*
X60433239Y-84827429D01*
X60528477Y-84779810D01*
X60576096Y-84732190D01*
X60623715Y-84636952D01*
X68351809Y-40442190D02*
X68351809Y-40918381D01*
X68018476Y-39918381D02*
X68351809Y-40442190D01*
X68685143Y-39918381D01*
X68970857Y-40013619D02*
X69018476Y-39966000D01*
X69113714Y-39918381D01*
X69351810Y-39918381D01*
X69447048Y-39966000D01*
X69494667Y-40013619D01*
X69542286Y-40108857D01*
X69542286Y-40204095D01*
X69494667Y-40346952D01*
X68923238Y-40918381D01*
X69542286Y-40918381D01*
X72951809Y-43452190D02*
X72951809Y-43928381D01*
X72618476Y-42928381D02*
X72951809Y-43452190D01*
X73285143Y-42928381D01*
X74142286Y-43928381D02*
X73570857Y-43928381D01*
X73856571Y-43928381D02*
X73856571Y-42928381D01*
X73761333Y-43071238D01*
X73666095Y-43166476D01*
X73570857Y-43214095D01*
X69981334Y-70173143D02*
X69933715Y-70220762D01*
X69790858Y-70268381D01*
X69695620Y-70268381D01*
X69552762Y-70220762D01*
X69457524Y-70125524D01*
X69409905Y-70030286D01*
X69362286Y-69839810D01*
X69362286Y-69696952D01*
X69409905Y-69506476D01*
X69457524Y-69411238D01*
X69552762Y-69316000D01*
X69695620Y-69268381D01*
X69790858Y-69268381D01*
X69933715Y-69316000D01*
X69981334Y-69363619D01*
X70314667Y-69268381D02*
X70981334Y-69268381D01*
X70552762Y-70268381D01*
M02*
