M48
;DRILL file {KiCad 4.0.7} date 06/29/20 23:10:59
;FORMAT={-:-/ absolute / metric / decimal}
FMAT,2
METRIC,TZ
T1C0.400
T2C0.810
T3C1.000
T4C1.100
T5C2.300
%
G90
G05
M71
T1
X58.008Y-58.336
X58.098Y-42.486
X58.138Y-68.126
X58.168Y-52.836
X58.178Y-47.896
X58.178Y-70.756
X58.198Y-35.176
X58.228Y-50.316
X58.228Y-55.656
X58.298Y-63.376
X58.298Y-65.856
X58.318Y-73.406
X58.318Y-78.736
X58.328Y-40.616
X58.338Y-60.736
X58.368Y-45.606
X58.368Y-83.946
X58.398Y-81.116
X58.408Y-38.516
X58.438Y-76.216
X58.498Y-32.616
X59.573Y-45.626
X60.008Y-30.906
X60.048Y-53.151
X61.828Y-90.126
X63.568Y-89.716
X63.828Y-31.126
X64.118Y-41.106
X64.138Y-43.376
X64.788Y-90.116
X65.018Y-45.436
X65.578Y-53.916
X65.628Y-79.356
X65.673Y-48.776
X65.688Y-60.346
X65.878Y-91.246
X66.038Y-71.356
X66.198Y-76.466
X66.238Y-72.876
X66.248Y-74.696
X66.618Y-45.696
X66.688Y-30.766
X66.748Y-52.726
X66.978Y-55.726
X67.298Y-51.926
X67.608Y-75.326
X67.618Y-50.516
X67.668Y-79.346
X67.708Y-57.336
X67.738Y-77.756
X67.768Y-91.466
X67.998Y-48.401
X68.038Y-42.466
X68.118Y-43.626
X69.048Y-31.026
X69.368Y-59.776
X69.478Y-55.656
X69.778Y-50.666
X69.918Y-53.506
X70.108Y-47.466
X70.268Y-56.216
X70.778Y-52.546
X71.108Y-47.986
X71.358Y-55.176
X71.528Y-31.046
X71.738Y-53.206
X71.928Y-43.726
X72.138Y-42.856
X72.238Y-79.656
X72.378Y-78.276
X72.898Y-38.551
X73.618Y-89.856
X73.778Y-77.726
X73.938Y-53.206
X74.048Y-54.586
X74.123Y-56.251
X74.218Y-85.696
X74.518Y-31.006
X74.608Y-47.586
X74.608Y-48.406
X74.918Y-89.836
X77.498Y-91.706
X77.528Y-55.646
X77.598Y-53.246
X78.358Y-31.636
X78.888Y-40.696
X78.928Y-84.796
X79.108Y-91.316
X79.538Y-87.786
X79.538Y-90.096
X79.598Y-85.986
X79.618Y-75.206
X79.618Y-77.436
X79.628Y-45.606
X79.628Y-61.116
X79.628Y-70.946
X79.638Y-53.296
X79.658Y-43.166
X79.658Y-69.036
X79.668Y-48.116
X79.668Y-50.486
X79.668Y-58.716
X79.678Y-72.936
X79.688Y-82.116
X79.708Y-65.646
X79.738Y-55.836
X79.738Y-79.966
X79.748Y-63.326
X79.828Y-83.906
X79.938Y-40.796
T2
X67.828Y-87.706
X67.828Y-89.706
X70.368Y-87.706
X70.368Y-89.706
T3
X61.11Y-34.158
X61.11Y-36.698
X61.11Y-39.238
X61.11Y-41.778
X61.11Y-44.318
X61.11Y-46.858
X61.11Y-49.398
X61.11Y-51.938
X61.11Y-54.478
X61.11Y-57.018
X61.11Y-59.558
X61.11Y-62.098
X61.11Y-64.638
X61.11Y-67.178
X61.11Y-69.718
X61.11Y-72.258
X61.11Y-74.798
X61.11Y-77.338
X61.11Y-79.878
X61.11Y-82.418
X65.075Y-33.807
X65.128Y-64.546
X65.128Y-67.086
X67.615Y-33.807
X67.668Y-64.546
X67.668Y-67.086
X70.155Y-33.807
X70.208Y-64.546
X70.208Y-67.086
X72.695Y-33.807
X76.35Y-34.158
X76.35Y-36.698
X76.35Y-39.238
X76.35Y-41.778
X76.35Y-44.318
X76.35Y-46.858
X76.35Y-49.398
X76.35Y-51.938
X76.35Y-54.478
X76.35Y-57.018
X76.35Y-59.558
X76.35Y-62.098
X76.35Y-64.638
X76.35Y-67.178
X76.35Y-69.718
X76.35Y-72.258
X76.35Y-74.798
X76.35Y-77.338
X76.35Y-79.878
X76.35Y-82.418
T4
X64.028Y-79.366
X64.028Y-83.866
X70.528Y-79.366
X70.528Y-83.866
T5
X63.098Y-92.406
X75.098Y-92.406
T0
M30
