M48
;DRILL file {KiCad 4.0.7} date 03/11/20 16:07:29
;FORMAT={-:-/ absolute / metric / decimal}
FMAT,2
METRIC,TZ
T1C0.400
T2C0.500
T3C0.800
T4C0.810
T5C1.000
T6C1.100
T7C2.300
%
G90
G05
M71
T1
X57.15Y-86.106
X57.15Y-88.392
X57.658Y-58.42
X57.658Y-90.424
X57.912Y-35.56
X57.912Y-45.72
X57.912Y-50.8
X57.912Y-53.34
X57.912Y-55.626
X57.912Y-61.468
X57.912Y-68.326
X57.912Y-70.866
X57.912Y-83.82
X58.166Y-38.608
X58.166Y-41.402
X58.166Y-43.434
X58.166Y-48.26
X58.166Y-63.5
X58.166Y-66.04
X58.166Y-73.406
X58.166Y-76.2
X58.166Y-81.28
X58.42Y-78.486
X58.674Y-32.004
X59.182Y-90.678
X59.573Y-45.626
X59.944Y-92.71
X60.048Y-53.151
X61.468Y-31.242
X63.668Y-41.296
X63.968Y-43.016
X64.008Y-30.988
X64.848Y-70.726
X65.673Y-48.776
X65.688Y-60.346
X65.786Y-93.472
X65.858Y-41.956
X66.548Y-31.242
X66.748Y-52.726
X66.828Y-45.326
X67.298Y-51.926
X67.473Y-76.376
X67.618Y-50.516
X67.708Y-41.836
X67.708Y-57.336
X67.998Y-48.401
X68.834Y-31.242
X68.898Y-44.946
X69.342Y-93.218
X69.368Y-59.776
X69.418Y-42.386
X69.478Y-55.656
X69.778Y-50.666
X69.918Y-53.506
X70.108Y-47.466
X70.568Y-44.726
X71.108Y-47.986
X71.12Y-31.242
X71.12Y-69.342
X71.173Y-75.926
X71.358Y-55.176
X71.882Y-92.964
X72.898Y-38.551
X72.898Y-75.601
X73.938Y-53.206
X74.048Y-54.586
X74.123Y-56.251
X74.168Y-31.242
X76.708Y-31.242
X77.528Y-55.646
X77.598Y-53.246
X78.232Y-92.456
X78.74Y-31.496
X79.448Y-40.676
X79.502Y-91.44
X80.01Y-33.02
X80.01Y-35.306
X80.01Y-38.1
X80.264Y-40.64
X80.264Y-42.926
X80.264Y-45.72
X80.264Y-50.8
X80.264Y-53.086
X80.264Y-55.626
X80.264Y-58.42
X80.264Y-60.706
X80.264Y-63.5
X80.264Y-71.12
X80.264Y-73.406
X80.264Y-75.946
X80.264Y-78.74
X80.264Y-81.28
X80.518Y-48.26
X80.518Y-66.04
X80.518Y-68.58
X80.518Y-83.82
X80.772Y-90.17
X81.026Y-85.598
X81.026Y-88.138
T2
X68.728Y-36.786
X68.728Y-38.686
T3
X66.648Y-43.366
X71.528Y-43.366
T4
X67.828Y-87.706
X67.828Y-89.706
X70.368Y-87.706
X70.368Y-89.706
T5
X61.11Y-34.158
X61.11Y-36.698
X61.11Y-39.238
X61.11Y-41.778
X61.11Y-44.318
X61.11Y-46.858
X61.11Y-49.398
X61.11Y-51.938
X61.11Y-54.478
X61.11Y-57.018
X61.11Y-59.558
X61.11Y-62.098
X61.11Y-64.638
X61.11Y-67.178
X61.11Y-69.718
X61.11Y-72.258
X61.11Y-74.798
X61.11Y-77.338
X61.11Y-79.878
X61.11Y-82.418
X65.075Y-33.807
X65.128Y-64.546
X65.128Y-67.086
X67.615Y-33.807
X67.668Y-64.546
X67.668Y-67.086
X70.155Y-33.807
X70.208Y-64.546
X70.208Y-67.086
X72.695Y-33.807
X76.35Y-34.158
X76.35Y-36.698
X76.35Y-39.238
X76.35Y-41.778
X76.35Y-44.318
X76.35Y-46.858
X76.35Y-49.398
X76.35Y-51.938
X76.35Y-54.478
X76.35Y-57.018
X76.35Y-59.558
X76.35Y-62.098
X76.35Y-64.638
X76.35Y-67.178
X76.35Y-69.718
X76.35Y-72.258
X76.35Y-74.798
X76.35Y-77.338
X76.35Y-79.878
X76.35Y-82.418
T6
X64.262Y-77.724
X64.262Y-82.224
X70.762Y-77.724
X70.762Y-82.224
T7
X63.098Y-92.406
X75.098Y-92.406
T0
M30
